<svg xmlns="http://www.w3.org/2000/svg" width="240" height="146"><path fill="#F7F8F9" d="M169.317 45.999C172.33 46 174.298 45.28 177 44l-1 4 3.688-.125c3.528 0 6.16.405 9.312 2.125l1 2c2.203 1.1 2.203 1.1 4.813 2.062l2.644 1.036c2.453.918 2.453.918 4.688 1.425C204 57 204 57 206.875 58.563c3.348 1.54 5.49 1.697 9.125 1.437v2l8-1v2l5 1 .332 3.395.48 4.417.213 2.237c.459 4.053.816 6.32 3.975 8.951.942 4.787 1.637 9.306 0 14-4.378 3.341-9.095 3.476-14.414 3.79-2.51.122-2.51.122-4.563.76-2.697.6-5.033.306-7.773.012l-2.984-.308L202 101l-1 4 2.86-.035c8.11-.057 16.063.193 24.14 1.035l1 4c-15.685 2.378-31.372 2.28-47.195 2.236-3.834-.01-7.667-.007-11.501-.007q-9.714-.002-19.427-.023-9.77-.021-19.54-.02C90.214 112.187 49.115 111.888 8 111v-4c2.79-.93 4.765-1.187 7.668-1.316l2.705-.127 2.815-.12 2.85-.13q3.48-.159 6.962-.307l-2.152-.148-2.785-.227c-.917-.07-1.834-.14-2.778-.21-.754-.138-1.508-.274-2.285-.415l-1-2-2.75.562c-3.8.512-5.882.122-9.25-1.562-.109-2.71-.188-5.414-.25-8.125l-.102-2.305C7.53 83.728 9.91 80.3 14.5 75.25c3.595-3.235 5.943-4.243 10.688-4.75L29 70l1-2c2.86-.563 2.86-.563 6.75-1l2.11-.246c4.228-.48 8.46-.879 12.699-1.254l2.83-.254q2.757-.243 5.514-.46c5.332-.461 9.416-1.446 14.222-3.849C76 60 76 60 79 59c2.494-1.29 4.97-2.6 7.438-3.938a1670 1670 0 0 1 5.89-3.163 218 218 0 0 0 3.895-2.153C98 49 98 49 102 49l1-2 2 1 1-2 3 1 1-2c19.816-1.192 39.572-1.307 59.317.999M66 102l1 3h100c-2.534-3.093-2.534-3.093-4.9-3.37l-2.181.01-2.511-.013-2.745.032h-2.898c-3.165.001-6.33.025-9.495.048q-3.29.009-6.58.013c-5.775.011-11.55.04-17.325.074-5.892.03-11.784.044-17.676.06q-17.345.05-34.689.146"/><path fill="#0C0C0D" d="M56.414 78.879C61.98 82.036 64.52 86.052 66.75 92c.375 2.997.264 5.983.25 9l2.267-.09c20.957-.816 41.877-1.04 62.847-.979q5.937.014 11.872.02 11.508.016 23.014.049l.183-1.881.254-2.463.245-2.444c.76-5.287 4.14-9.118 7.943-12.65C180.7 77.225 186.12 77.309 192 78c5.544 1.994 9.216 5.666 12.102 10.73 1.574 3.977 1.802 8.027 1.898 12.27h-4l-1 4 2.86-.035c8.11-.057 16.063.193 24.14 1.035l1 4c-15.685 2.378-31.372 2.28-47.195 2.236-3.834-.01-7.667-.007-11.501-.007q-9.713-.002-19.427-.023-9.77-.021-19.54-.02C90.214 112.187 49.115 111.888 8 111v-4c2.79-.93 4.765-1.187 7.668-1.316l2.705-.127 2.814-.12 2.85-.13q3.48-.159 6.963-.307l-2.152-.148-2.785-.227c-.917-.07-1.834-.14-2.778-.21-.754-.138-1.508-.274-2.285-.415l-1-2-2.75.563c-3.8.51-5.882.12-9.25-1.563V84h1v6l11-1 3 9h2v2l3-1c.85-2.596.85-2.596 1.375-5.687 1.571-6.854 3.455-9.993 9.188-14.188 5.833-1.91 12.002-2.376 17.851-.246M66 102l1 3h100c-2.534-3.093-2.534-3.093-4.9-3.37l-2.181.01-2.511-.013-2.745.032h-2.898c-3.165.001-6.33.025-9.495.048q-3.29.009-6.58.013c-5.775.011-11.55.04-17.325.074-5.892.03-11.784.044-17.676.06q-17.345.05-34.689.146"/><path fill="#E9E9E9" d="M169.317 45.999C172.33 46 174.298 45.28 177 44l-1 4 2 1-4 1v2l2.45 1.172 3.238 1.578 3.199 1.547C185.9 57.945 188.393 59.775 191 62l-1 2h-66c.875-7.625.875-7.625 2-11-10.012.387-18.477 2.654-27 8l2 2v3l-6.152.684c-1.86.135-1.86.135-2.848 1.316-2 .04-4 .043-6 0v-2l-4-1 5-4 2 1-1 2h9c-2.007-3.01-2.839-3.63-6-5q2.621-1.477 5.25-2.938l2.953-1.652c2.333-1.176 4.25-1.931 6.797-2.41-5.07.594-9.08 2.927-13.5 5.312l-2.262 1.186c-7.677 3.854-7.677 3.854-12.543 10.6-.862 4.839-.912 9.438-.82 14.34l.027 2.794Q76.937 89.617 77 93h6v1h-6v2l3.282-.016q6.12-.026 12.24-.039 2.63-.008 5.262-.02c10.13-.05 20.127.058 30.216 1.075l1-2v2l3.746-.465c5.762-.64 11.526-.875 17.317-1.098l3.2-.13q3.87-.158 7.737-.307l-1 2c-4.78 1.494-9.948 1.208-14.91 1.281l-2.92.056q-4.616.087-9.232.163c-17.498.207-17.498.207-34.938 1.5v1H67l-2-11c-2.019-4.71-4.107-7.997-8.812-10.34-5.853-1.766-12.673-1.864-18.188.965-6.796 5.38-7.887 11.148-9 19.375h-4v-2h-2l-3-9-11 1c-.721-6.85-.721-6.85 1.266-10.02A74 74 0 0 1 15 75l2-2c2.696-1.763 5.041-2.18 8.188-2.5L29 70l1-2c2.86-.563 2.86-.563 6.75-1l2.11-.246c4.228-.48 8.46-.879 12.699-1.254l2.83-.254q2.757-.243 5.514-.46c5.332-.461 9.416-1.446 14.222-3.849C76 60 76 60 79 59c2.494-1.29 4.97-2.6 7.438-3.938a1670 1670 0 0 1 5.89-3.163 218 218 0 0 0 3.895-2.153C98 49 98 49 102 49l1-2 2 1 1-2 3 1 1-2c19.816-1.192 39.572-1.307 59.317.999"/><path fill="#F5F5F5" d="m187 49 1.363 1.414c2.03 1.967 3.942 2.705 6.575 3.711l2.59 1.008c2.393.885 2.393.885 4.609 1.387C204 57 204 57 206.875 58.562c3.348 1.54 5.49 1.698 9.125 1.438v2l8-1v2l5 1 .332 3.395.48 4.418.213 2.236c.459 4.053.816 6.32 3.975 8.951.942 4.787 1.637 9.306 0 14-4.378 3.341-9.095 3.476-14.414 3.79-2.529.13-2.529.13-4.691.757-3.066.733-5.84.03-8.895-.547-1.502-1.502-1.111-2.904-1.187-5-.588-5.743-3.052-9.705-6.813-14-4.7-3.693-9.413-3.196-15.14-3.04-3.058.043-5.876-.297-8.86-.96l2-8-12 1-1-3h14l-1-3c2.26-1.13 3.93-1.27 6.438-1.5 2.777-.256 4.889-.609 7.562-1.5-8.264-5.418-8.264-5.418-17-10l1-3c4.623-.832 8.433-1.245 13 0"/><path fill="#EAEAEA" d="M108 51c-2.185 2.185-4.287 3.042-7.113 4.203C98.193 56.341 95.602 57.667 93 59l2 1.375L97 62v2l-11 1 1-3-4 3 3 1v2l3.188-1c3.2-.84 5.553-1.198 8.812-1v4h25v2h4c1 5 1 5 0 17l-35 3 10.883-.656q5.282-.315 10.565-.626l7.28-.436c35.967-2.177 35.967-2.177 42.272.718l-1 3q-11.086.4-22.174.782-5.153.179-10.305.364C112.006 95.775 94.526 96.155 77 96c-3.123-24.12-3.123-24.12 2-31 2.742-2.5 5.76-4.213 9-6l1.805-1.034c1.973-1.13 3.956-2.24 5.945-3.341l1.933-1.086c3.582-1.921 6.234-2.99 10.317-2.539"/><path fill="#131414" d="M54 78c2 2 2 2 2 4a105 105 0 0 0 5 4l-1 2 1 3c.78 6.693.78 6.693-1.2 10.008-2.62 3.156-4.953 5.43-8.8 6.992-3.25.125-3.25.125-6 0v1c30.955.832 61.912 1.223 92.875 1.563l3.07.033q19.028.208 38.055.404v1q-26.437.044-52.875.063l-3.917.002C84.128 112.087 46.068 111.99 8 111v-4c2.79-.93 4.765-1.187 7.668-1.316l2.705-.127 2.814-.12 2.85-.13q3.48-.159 6.963-.307l-2.152-.148-2.785-.227c-.917-.07-1.834-.14-2.778-.21-.754-.138-1.508-.274-2.285-.415l-1-2-2.75.563c-3.8.51-5.882.12-9.25-1.563V84h1v6l11-1 3 9h2v2l3-1c.85-2.596.85-2.596 1.375-5.687 1.571-6.854 3.455-9.993 9.188-14.188C43.623 77.469 48.718 77.391 54 78"/><path fill="#292D30" d="m188 62-1 2h-63c1-8 1-8 2-11-10.012.387-18.477 2.654-27 8l2 2v3l-6.152.684c-1.86.135-1.86.135-2.848 1.316-2 .04-4 .043-6 0v-2l-4-1 5-4 2 1-1 2h9c-2.007-3.01-2.839-3.63-6-5 27.71-15.804 70.816-18.196 97 3"/><path fill="#ECECEC" d="M140 69h21v2h12v3l3-1-1 4 5 1c-1.75 1.063-1.75 1.063-4 2l-4-1-7 11-3.621-.992c-6.451-1.434-12.865-1.224-19.441-1.133l-3.78.027q-4.579.036-9.158.098a809 809 0 0 1-.125-7.375c-.017-.699-.034-1.397-.05-2.117-.018-1.837.072-3.674.175-5.508 2.398-2.398 3.333-2.343 6.625-2.625l2.477-.227L140 70z"/><path fill="#F4F4F5" d="M75 72v21l-2-2-1.875.5C69 92 69 92 67 91.5c-2-1.5-2-1.5-3.812-4.875-2.18-4-4.802-6.301-9.188-7.625-5.494-.724-10.962-.959-16 1.625-6.796 5.38-7.887 11.148-9 19.375h-4v-2h-2l-3-9-11 1c-.603-6.99-.603-6.99 1.113-9.867C11.337 78.69 12.663 77.337 14 76l2 1-3 5c7.519.022 7.519.022 13.875-3.437L29 76c13.647-6.52 31.362-4.19 46-4"/><path fill="#B1B2B2" d="M194 84c3.536 3.536 5.159 6.364 5.375 11.313-.041 3.687-.224 4.488-2.562 7.562L194 105l-2.187 1.813c-4.323 1.824-8.226 2.334-12.813 1.187-2.918-2.282-5.08-4.835-7-8v-2h-2l-1-3-.25 2.875c-.75 3.125-.75 3.125-2.5 4.313-2.496.901-4.356 1.015-7 .937l-2.422-.055L155 103v-2H98v-1h69l1-9 1 2c1.879-.048 1.879-.048 4-1a187 187 0 0 0 4-6c5.301-4.804 10.553-4.441 17-2"/><path fill="#0E0F10" d="M194.313 78.844c5.08 2.848 8.54 6.733 10.687 12.156.638 3.339.923 6.604 1 10h-4l-1 4 2.86-.035c8.11-.057 16.063.193 24.14 1.035l1 4c-15.328 2.27-30.53 2.215-46 2l-1-5 3.063.25c4.92-.312 6.905-1.483 10.937-4.25 2.71-4.065 2.627-7.231 2-12-1.457-3.483-2.53-5.336-6.023-6.914-4.1-1.161-6.618-1.18-10.79-.086-4.471 2.806-6.605 5.77-7.937 10.875L173 97l-1-4h-3c.39-5.458 2.155-8.155 6-12 5.613-4.01 12.864-4.51 19.313-2.156"/><path fill="#D8D8D8" d="M129 66c.853 2.907 1.073 5.31.879 8.328l-.147 2.422-.17 2.5-.158 2.547Q129.21 84.899 129 88l2.336-.124c3.533-.18 7.067-.34 10.601-.501l3.674-.195c6.886-.299 12.746-.057 19.389 1.82l7-11 5 2-1.207 1.285c-5.275 5.84-7.48 10.841-8.793 18.715H70v-1l3.2-.07q14.92-.323 29.84-.66 7.671-.174 15.342-.34 7.402-.16 14.803-.33 2.825-.064 5.65-.124 3.954-.084 7.908-.179l2.365-.046c3.45-.087 6.57-.335 9.892-1.251l-2.64.092q-4.944.17-9.89.335-2.123.072-4.245.146c-24.152.84-24.152.84-34.537-.073l-3.301-.281L102 96v-1l60-2 1-2c-13.7-3.142-29.246-.44-43.125.5C93.512 93.28 93.512 93.28 84 93v-1q6.05-.654 12.103-1.282 2.05-.214 4.099-.436c8.97-.97 17.776-1.49 26.798-1.282l-.031-2.512C126.797 70.406 126.797 70.406 129 66"/><path fill="#F6F5F6" d="m187 49 1.363 1.414c2.03 1.967 3.942 2.705 6.575 3.711l2.59 1.008c2.393.885 2.393.885 4.609 1.387C204 57 204 57 206.875 58.562c3.348 1.54 5.49 1.698 9.125 1.438v2l8-1v2h4v6l-50-1v-4l1.863-.184 2.45-.254c.8-.08 1.6-.162 2.425-.246 2.423-.269 2.423-.269 5.262-1.316-8.264-5.418-8.264-5.418-17-10l1-3c4.623-.832 8.433-1.245 13 0"/><path fill="#DEDEDE" d="M194 76c4.633 1.742 8.572 4.6 11 9v2l2.169-.48c2.747-.505 5.343-.722 8.132-.836l2.959-.127 3.053-.12 3.11-.13q3.788-.159 7.577-.307v-2h2c1.504 9.69 1.504 9.69 0 14-4.378 3.341-9.095 3.476-14.414 3.79-2.529.13-2.529.13-4.691.757-3.066.733-5.84.03-8.895-.547-1.502-1.502-1.111-2.904-1.187-5-.588-5.743-3.052-9.705-6.813-14-4.765-3.744-9.589-3.192-15.39-2.91C180 79 180 79 178 77c4.682-2.34 10.922-1.5 16-1"/><path fill="#3E4142" d="M136 53q4.03-.08 8.063-.125c.752-.017 1.504-.034 2.279-.05 4.951-.044 8.962.591 13.658 2.175l1 8 10-1v-3h-6l-2-4h3l1-2 1.75 1.063c2.156 1.197 2.156 1.197 4 .292 3.521-.556 5.5 1.112 8.5 2.895l3.266 1.89L187 61v3h-50c-1.283-3.85-1.066-6.947-1-11"/><path fill="#292929" d="m35 104 9 3 1 2c30.955.832 61.912 1.223 92.875 1.563l3.07.033q19.028.208 38.055.404v1q-26.437.044-52.875.063l-3.917.002C84.128 112.087 46.068 111.99 8 111v-4c2.985-.995 5.165-1.18 8.29-1.281l3.1-.114 6.493-.21 3.094-.114 2.846-.092c2.154.048 2.154.048 3.177-1.189"/><path fill="#B5B5B5" d="M77 67c1.276 2.551.707 3.298 0 6a85 85 0 0 0-.098 4.766l.01 2.695.025 2.789.014 2.836Q76.97 89.544 77 93h6v1h-6v2l3.282-.016q6.12-.026 12.24-.039 2.63-.008 5.262-.02c10.13-.05 20.127.058 30.216 1.075l1-2v2l3.746-.465c5.762-.64 11.526-.875 17.316-1.097l3.202-.131Q157.13 95.149 161 95l-1 2c-4.78 1.494-9.948 1.208-14.91 1.281l-2.92.056q-4.616.087-9.232.163c-17.498.207-17.498.207-34.938 1.5v1H67l-1-10h6l1-2h1l-.105-2.527C73.72 79.232 74.268 73.715 77 67"/><path fill="#C1C2C2" d="M43 83h11l1 2-5-1-1 10 10-6c2.102 3.153 2.536 5.106 2.453 8.867-.834 3.927-3.456 6.59-6.453 9.133-3.554 2.036-5.874 2.635-10 2-3.058-1.627-5.62-3.478-8-6-1-3.375-1-3.375-1-6 2 3 2 3 3 5 3.092-1.386 4.492-2.492 7-5l-10-1v-5c3-1 3-1 5.043-.004l2.145 1.442 2.167 1.433L47 94a441 441 0 0 0-.875-4.937l-.492-2.778L45 84z"/><path fill="#F8F8F8" d="m163 91-1 3q-11.086.4-22.174.782-5.153.179-10.305.364C112.006 95.775 94.526 96.155 77 96v-1c13.364-2.416 26.618-3.736 40.172-4.508 3.155-.18 6.309-.375 9.463-.572C156.697 88.087 156.697 88.087 163 91"/><path fill="#C5CDCB" d="m126 53-2 11h14v1c-12.332 1.197-24.624 1.104-37 1l-1-3-2-2c9.3-6.412 16.69-8.43 28-8"/><path fill="#3E4244" d="m121 49-2 1v2h7v1l-2.02.078c-9.268.57-17.1 2.98-24.98 7.922l2 2v3l-6.152.684c-1.86.135-1.86.135-2.848 1.316-2 .04-4 .043-6 0v-2l-4-1 5-4 2 1-1 2h9c-2.007-3.01-2.839-3.63-6-5 18.8-10.723 18.8-10.723 30-10"/><path fill="#ADAFAF" d="M8 84h1v6l11-1 3 9h2v2l3-1 1-6h1v9H8z"/><path fill="#656D6E" d="M136 53q4.03-.08 8.063-.125c.752-.017 1.504-.034 2.279-.05 4.951-.044 8.962.591 13.658 2.175l1 5c-3.35.754-6.431 1.12-9.863 1.098l-2.686-.01-2.763-.026-2.823-.013A1758 1758 0 0 1 136 61z"/><path fill="#32383A" d="m128.125 48.938 3.883.027L135 49l-.59 2.273c-.58 3.86.978 6.246 2.59 9.727v3h-13c1-8.571 1-8.571 2-12h-7v-2c3.003-1.502 5.79-1.093 9.125-1.062"/><path fill="#A7A9A9" d="m176 44 1 2-1 2 2 1-4 1v2l2.45 1.172 3.238 1.578 3.199 1.547C185.9 57.945 188.393 59.775 191 62l-1 2-2.387-1.574C175.965 54.968 164.886 50.523 151 49v-1l5-1-11-1v-1c8.266-.102 16.294-.046 24.512.977 2.751.025 4.167-.553 6.488-1.977"/><path fill="#C0C0C1" d="M149.438 45c.731.095 1.463.19 2.216.29q2.674.349 5.346.71l-1 2q-9.316.288-18.634.537-3.17.087-6.34.187c-3.036.094-6.072.174-9.108.253l-2.87.097-2.668.061-2.349.068C112 49 112 49 109 47l1-2q5.78-.254 11.563-.5l3.29-.145c8.327-.354 16.32-.474 24.585.645"/><path fill="#48494A" d="m168 91 1 2h3v4h2l1.25 2.938c1.399 3.185 1.399 3.185 3.938 3.937L181 104v4c-4.289-1.589-6.323-4.431-9-8v-2h-2l-1-3-.25 2.875c-.75 3.125-.75 3.125-2.5 4.313-2.496.901-4.356 1.015-7 .937l-2.422-.055L155 103v-2H98v-1h69z"/><path fill="#1E1E1F" d="m42 81 3 1h-2v2h2c1.316 3.62 2 6.096 2 10l-10-4-1 5h10v3c-2.312 2.25-2.312 2.25-5 4-3.464-1.155-4.191-1.906-6-5-.293-2.578-.293-2.578-.187-5.25l.082-2.703L35 87h3l.313-1.875C39 83 39 83 42 81"/><path fill="#B1B2B3" d="m29 68 3 2-8 4 6 1c-3.75 5.875-3.75 5.875-6 7-1.874.07-3.75.084-5.625.063l-3.04-.028L13 82c1.83-7.581 1.83-7.581 5.625-10.062C22.045 70.588 25.344 70.366 29 70z"/><path fill="#BFC0C0" d="M194 84c3.597 3.597 5.15 6.348 5.25 11.375-.02 3.16-.12 4.402-1.75 7.188L196 104c-1.875-.312-1.875-.312-4-1l-2-3 5 1 3-7h-9l6-6-6-4-.312 3.375L188 91l-3 2-1-9-2.812 2C178 88 178 88 175 88c6.441-5.71 10.626-7.171 19-4"/><path fill="#4A4849" d="M204 105c8.064-.129 15.975.203 24 1l1 4c-3.646.841-7 1.118-10.738 1.098l-3.233-.01-3.341-.025-3.4-.014A2576 2576 0 0 1 200 111v-1h10v-3h-6z"/><path fill="#A2A3A2" d="m105 46 3 2-2.937 1.434c-7.437 3.657-14.78 7.435-22 11.504l-2.096 1.179C77.795 63.797 77.795 63.797 75 66c-2.69-.176-5.329-.618-8-1 1.974-2.523 2.967-2.993 6.188-3.687L76 61v-2l2.09-.285c3.54-.87 6.29-2.379 9.472-4.153L94 51l2.152-1.223C98 49 98 49 102 49l1-2 2 1z"/><path fill="#707272" d="m187 49 1.379 1.414c2.02 1.976 3.927 2.706 6.559 3.711l2.59 1.008c2.393.885 2.393.885 4.609 1.387C204 57 204 57 206.875 58.562c3.348 1.54 5.49 1.698 9.125 1.438v2l8-1v2l-11 1v-1l-1.845-.297c-6.4-1.139-11.985-3.055-17.905-5.703q-2.428-1.065-4.86-2.125l-2.275-.992c-2.66-1.11-5.362-2.03-8.115-2.883v-2c3.55-1.183 5.4-.9 9 0"/><path fill="#DCDEDD" d="M32 82c.688 1.563.688 1.563 1 4-.713 1.719-1.433 3.436-2.23 5.117-1.177 2.88-1.456 5.808-1.77 8.883h-4v-2h-2c-3-6.625-3-6.625-3-10h9l.938-2.437C31 83 31 83 32 82"/><path fill="#AFB3B2" d="M102 62h22v2h14v1c-12.332 1.197-24.624 1.104-37 1z"/><path fill="#645757" d="M233 83c2.482 3.723 2.737 7.674 2 12-2.207 2.969-3.486 3.829-7 5-1.81.199-3.623.362-5.437.5-3.915.288-3.915.288-7.723 1.156C213 102 213 102 210 100l2.414-.262c6.75-.895 10.856-1.746 15.586-6.738l-4-2 9-1z"/><path fill="#505455" d="M161 60v3h26v1h-50v-3q4.593-.252 9.188-.5l2.619-.145c4.069-.218 8.116-.423 12.193-.355"/><path fill="#DDD" d="m39 68-2 3h38v1l-2.256.06c-18.03.423-18.03.423-35.912 2.53-4.284.62-8.515.589-12.832.41l-1-2a480 480 0 0 1 5.188-2.5l2.917-1.406C33.99 68.004 35.954 67.777 39 68"/><path fill="#161818" d="m52 78 4 2v2a105 105 0 0 0 5 4l-1 2-1-1-2.187 2.375C54.167 91.845 52.396 92.933 49 94l1-10h4l-6-1v5h-1l-1-6 7-1z"/><path fill="#E4E4E5" d="m14 76 2 1-3 5 12-1v2l2 1c-3.05 1.334-6.014 2.267-9.25 3L14 88l-1 2H9c-.603-6.99-.603-6.99 1.113-9.867C11.337 78.69 12.663 77.337 14 76"/><path fill="#A2A6A7" d="M108 51c-2.185 2.185-4.287 3.042-7.113 4.203C98.193 56.341 95.602 57.667 93 59l2 1.375L97 62v2l-11 1 1-3-4 3 3 2h-8c3.897-4.309 7.968-6.946 13.063-9.687l2.142-1.182A404 404 0 0 1 99 53l2.06-1.116c2.414-1.1 4.319-1.03 6.94-.884"/><path fill="#DADBDB" d="M57.559 76.941C63.23 80.361 66.842 84.707 69 91c-1.75-.062-1.75-.062-4-1a757 757 0 0 1-2.832-5.21C60.102 81.623 57.528 80.045 54 79c-5.824-.603-10.78-.8-16 2-2.25-.375-2.25-.375-4-1 6.476-5.136 15.768-5.925 23.559-3.059"/><path fill="#484849" d="m15.45 105.902 2.568.01 2.67.025 2.705.014q3.303.018 6.607.049v1l-2.937.375L24 108l-1 2h9v1H8v-4c2.824-.941 4.53-1.117 7.45-1.098"/><path fill="#E1E2E3" d="m172 78 5 2-2.687 2.813C170.358 87.378 168.326 92.46 166 98h-11v-1l2.75-.75c3.505-1.348 4.952-2.318 7.25-5.25q1.546-3.48 3-7c1.249-2.075 2.6-4.02 4-6"/><path fill="#C7C7C7" d="M127 80h1v9h9v1c-39.34 3.233-39.34 3.233-53 3v-1q6.05-.654 12.103-1.282 2.05-.214 4.099-.436c8.97-.97 17.776-1.49 26.798-1.282z"/><path fill="#BDBEBE" d="m206 90 1 4h13v2l-3 1 5 1v1q-3.967.54-7.937 1.063l-2.288.314c-1.92.25-3.847.44-5.775.623l-1-1c.09-1.691.246-3.38.438-5.062l.308-2.786z"/><path fill="#111213" d="M55 80c4.267.474 6.246 2.883 9 6 2.161 2.947 2.002 3.976 1.625 7.75L65 97h-2l-1 4h-3l1-2c.243-4.943.255-8.49-2-13h2l-2.5-1.875L55 82z"/><path fill="#A1A1A1" d="M43 83h11l1 2-5-1-.184 1.863-.254 2.45c-.08.8-.162 1.6-.246 2.425C49 93 49 93 48 96l-12-1v-5c3-1 3-1 5.043-.004l2.145 1.442 2.167 1.433L47 94a441 441 0 0 0-.875-4.937l-.492-2.778L45 84z"/><path fill="#8C3F3E" d="M228 64h1c.982 4.053 1.082 7.839 1 12-3.053.294-5.956.435-9 0-2.562-2.375-2.562-2.375-4-5v-2h11z"/><path fill="#1D2123" d="m128.125 48.938 3.883.027L135 49c-.615 6.523-.615 6.523-2.562 8.938-.475.35-.95.7-1.438 1.062v-2h-2l-1 2-2-6-7-1v-2c3.003-1.502 5.79-1.093 9.125-1.062"/><path fill="#0C0E0E" d="M17.063 88.938 20 89c1.498 3.371 2 5.204 2 9l-11-1c2.177-7.983 2.177-7.983 6.063-8.062"/><path fill="#272828" d="M190 80c5.462 2.36 9.349 5.582 12 11-.172 3.089-.786 3.786-3 6l-.687-3.687c-1.126-4.346-2.547-6.669-6.313-9.313-2.364-.474-4.602-.685-7.012-.762C183 83 183 83 181 81c3.17-1.585 5.48-1.34 9-1"/><path fill="#99999A" d="M36 96c2 3 2 3 3 5l1.75-1C43 99 43 99 47 99l-2 6 7 1 1-2v3c-2.975 1.487-4.673 1.431-8 1-3.062-1.618-5.62-3.479-8-6-1-3.375-1-3.375-1-6"/><path fill="#606263" d="m24 76 1 3 3-2c-1.75 3.875-1.75 3.875-4 5-1.874.07-3.75.084-5.625.063l-3.04-.028L13 82c.875-3.875.875-3.875 2-5a86 86 0 0 1 4.563-.562l2.503-.254z"/><path fill="#27292B" d="m87 61 2 1-1 2h9v-2l4 1v3l-6.152.684c-1.86.135-1.86.135-2.848 1.316-2 .04-4 .043-6 0v-2l-4-1z"/><path fill="#2D3130" d="M204 105h12v2h3v2c-6.348 2.308-12.295 2.198-19 2v-1h10v-3h-6z"/><path fill="#D6DCDB" d="M124 56c1.125 3.75 1.125 3.75 0 6h-22l-1 2-3-3c2.375-1.562 2.375-1.562 5-3 2 1 2 1 3 2 6.063.402 12.007-.112 18-1z"/><path fill="#E6E6E7" d="M149.438 45c.731.095 1.463.19 2.216.29q2.674.349 5.346.71l-1 2-26-1v-2c6.314-2.02 13.005-.871 19.438 0"/><path fill="#53585B" d="m166 53 2.188.938c2.723 1.13 2.723 1.13 5.375 1.5 2.771.64 4.29 1.734 6.437 3.562-5.883.987-10.423 1.324-16-1l-1-3h3z"/><path fill="#F4F4F4" d="m176 44 1 2-1 2 2 1-1.875.375c-2.316.497-2.316.497-4.125 2.625l-2.062-.937c-3.015-1.209-3.015-1.209-6.688-1.563L160 49l-1-2 2.703-.148 3.547-.227 3.516-.21c2.94-.377 4.733-.892 7.234-2.415"/><path fill="#D3D1D2" d="m225.75 90.938 2.984.59L231 92c-5.346 4.335-7.967 6.265-15 6l1-2h3v-3l-4-2c3.53-1.202 6.129-.795 9.75-.062"/><path fill="#595A5C" d="m187 49 1.395 1.41c1.936 1.918 3.788 2.725 6.292 3.778l2.45 1.042L199 56c-3.2 1.057-4.966.952-8.11-.215l-2.285-.83-2.355-.892-2.402-.881A804 804 0 0 1 178 51v-2c3.55-1.183 5.4-.9 9 0"/><path fill="#ABABAB" d="M189 83c-.488 6.055-.488 6.055-1 8l-3 2-1-9-2.812 2C178 88 178 88 175 88c7.866-6.972 7.866-6.972 14-5"/><path fill="#050606" d="M189 84c3.653 1.25 4.78 1.671 7 5a466 466 0 0 1-3.375 2.5l-1.898 1.406C189 94 189 94 187 94z"/><path fill="#0E0E0E" d="M175 95h10c-1.856 3.712-2.557 5.018-6 7l-3-1z"/><path fill="#040404" d="m184 84 1 10c-3.914-1.27-5.79-2.512-8-6 4.75-4 4.75-4 7-4"/><path fill="#131313" d="M45 84c1.316 3.62 2 6.096 2 10-2.972-1.125-5.334-2.223-8-4 .313-1.875.313-1.875 1-4 3-2 3-2 5-2"/><path fill="#101213" d="M171 59v3h14v1h-24v-3c7.75-1 7.75-1 10-1"/><path fill="#2C2D2D" d="m227 94 4 2-1.5 1.438c-1.615 1.321-1.615 1.321-1.5 2.562l-2.266.184-2.984.254-2.953.246c-2.724.222-2.724.222-4.969.976C213 102 213 102 210 100l2.45-.297c8.087-1.007 8.087-1.007 14.55-5.703"/><path fill="#0F0F0F" d="M198 94c-.75 5.75-.75 5.75-3 8a858 858 0 0 1-3.5-2.937l-1.969-1.653L188 96v-1c3.435-.625 6.49-1 10-1"/><path fill="#424443" d="m52 78 4 2v2a105 105 0 0 0 5 4l-1 2c-1.875-.312-1.875-.312-4-1l-2-3c-3.066-.733-3.066-.733-6-1v5h-1l-1-6 7-1z"/><path fill="#151616" d="M48 97c3.31 3.31 3.504 4.532 4 9h-8zm12-3-1 6c-1.687.75-1.687.75-4 1-2.75-1.812-2.75-1.812-5-4v-2c6.625-1 6.625-1 10-1"/><path fill="#151515" d="M186 97c2.523 1.974 2.993 2.967 3.688 6.188L190 106h-7c.557-3.344 1.352-6.033 3-9"/><path fill="#F7F8F9" d="m78 67 3.875-.187 2.18-.106L86 67l2 3-1 2H77z"/><path fill="#666868" d="m76 59 5 2c-1.933 2.025-3.632 3.421-6 5-2.74-.031-5.284-.555-8-1 1.974-2.523 2.967-2.993 6.188-3.687L76 61z"/><path fill="#4E5355" d="M103 56v3c-2.062 1.813-2.062 1.813-5 3-3.812-.812-3.812-.812-7-2 4.335-3.324 6.471-4.12 12-4"/><path fill="#1E1F1E" d="M196 104c-1 3-1 3-4.062 4.688L189 110v2h-6l-1-5 3.188.188c4.316-.213 6.894-3.188 10.812-3.188"/><path fill="#414143" d="M167 94h1v7c-3.062 1.784-5.22 2.229-8.75 2.125l-2.422-.055L155 103l-1-3h13z"/><path fill="#B3B4B6" d="m98 66-1 5-3.875.188-2.18.105L89 71l-2-3c3.823-1.423 6.913-2.24 11-2"/><path fill="#CFCFCF" d="M185 96c1 3 1 3 .223 4.824L182 106l-5-2z"/><path fill="#111316" d="M121 49h14l-2 7h-4v-5l-8-1z"/><path fill="#151716" d="M36 105v2l-4 2v1h-9l1-3c4.075-1.489 7.665-2.263 12-2"/><path fill="#0B0B0D" d="m174 84 2 1-2 3 1 2a140 140 0 0 1-2 7l-1-4h-3c.492-5.538.492-5.538 3.063-7.875z"/><path fill="#C6C8C7" d="M43 83h11l1 2-5-1-.375 3.438L49 91l-2 1-.367-1.715-.508-2.222-.492-2.215C45.17 83.793 45.17 83.793 43 83"/><path fill="#E3E3E3" d="M163 68h14l-1 3h-12z"/><path fill="#AFB1B1" d="M8 84h1v6h4l-2 7H8z"/><path fill="#C5C6C8" d="m66 91 5 1-2 6 7-1c-2.75 1.473-4.896 2.224-8 3z"/><path fill="#89898B" d="m173 92 1 2 1-2c2.938.375 2.938.375 6 1l1 2h-7l3 8c-3-1-3-1-4.187-3.25-.812-2.748-.976-4.904-.813-7.75"/><path fill="#DCDCDC" d="m187.125 75.938 3.883.027L194 76l1 3q-3.687.08-7.375.125l-2.117.05c-1.837.018-3.674-.072-5.508-.175l-2-2c3.003-1.502 5.79-1.093 9.125-1.062"/><path fill="#757877" d="M15 106v5H8v-4c3-1 3-1 7-1"/><path fill="#D9DADA" d="m72 89 2 1c.73 2.314 1.401 4.648 2 7l-7 1c.7-3.147 1.76-6.026 3-9"/><path fill="#0F1314" d="M137 61v3h-13c2.626-1.75 4.107-2.453 7.063-3.187l2.097-.543C135 60 135 60 137 61"/><path fill="#ECEFEF" d="M93.813 60.188 96 61l1 3-11 1c4.308-5.046 4.308-5.046 7.813-4.812"/><path fill="#521315" d="M224 70h6v6l-6-1z"/><path fill="#D5D5D5" d="M61 81c3.499 1.397 4.709 2.713 6.25 6.125l1.016 2.195L69 91c-2.457-.377-3.668-.592-5.266-2.559C61 83.222 61 83.222 61 81"/><path fill="#6C6D6F" d="m105 46 3 2a251 251 0 0 1-4.75 2.625l-2.672 1.477C98 53 98 53 95.672 52.148L94 51c3.088-1.765 4.233-2 8-2l1-2 2 1z"/><path fill="#B8BABB" d="m88 59 2 1-7 5 3 2h-8c3.086-3.263 5.935-6.022 10-8"/><path fill="#C3C3C3" d="m172 78 5 2c-3.75 3-3.75 3-6 3a125 125 0 0 0-4 6l-1-2z"/><path fill="#BABCBB" d="M177 54c3.623 1.326 6.635 2.943 9.813 5.125l2.394 1.633L191 62l-1 2a1008 1008 0 0 1-6.5-3.875l-1.879-1.105c-1.575-.952-3.102-1.981-4.621-3.02z"/><path fill="#99999A" d="M198 94h1c.37 5.415.37 5.415-1.5 8.375L196 104c-1.875-.312-1.875-.312-4-1l-2-3 5 1z"/><path fill="#4B4C4C" d="m228 93 7 1c-.625 1.938-.625 1.938-2 4-3.125.75-3.125.75-6 1l3-3z"/><path fill="#313333" d="M14 89h6c1 3 1 3 .063 5.188L19 96v-2h-4z"/><path fill="#E1E0E1" d="M175 89c3.995.615 6.745 2.706 10 5-3.784 1.261-5.314.255-9-1l-2 1z"/><path fill="#D5D6D7" d="M166 94v4h-11v-1l2.875-.937C163.941 94 163.941 94 166 94"/><path fill="#363535" d="m24 108-1 2h9v1q-2.937.118-5.875.188l-3.305.105L20 111l-2-3c3-1 3-1 6 0"/><path fill="#515151" d="M222 106h6l1 4h-6z"/><path fill="#D8D4D4" d="m228 75 2 1c.625 3.063.625 3.063 1 6l-7-1 2-4h2z"/><path fill="#EDEDEC" d="m222 77 5 1v4h-7v-2h2z"/><path fill="#C9C8CA" d="M36 96c2 3 2 3 3 5l5-1-2 5c-3.161-1.37-3.993-1.99-6-5z"/><path fill="#535353" d="m42 81 3 1h-2l-1 4h-2l-1 3-2-1c1.25-3.653 1.671-4.78 5-7"/><path fill="#676A69" d="M9 97h11v1l-8 1v2l-4 1z"/><path fill="#D9DADA" d="M202 83c2 1.563 2 1.563 4 4 .25 3.75.25 3.75 0 7-4-6-4-6-4-11"/><path fill="#EEEDF0" d="m30 81 2 2-3 5-4-1 2-1-3-2z"/><path fill="#F9F8F9" d="m30 70 2 2-1 2c-2.322.407-4.657.744-7 1l-1-2z"/><path fill="#6E7171" d="M186 53c5.26-.316 8.446.334 13 3-3.43 1.188-5.378.802-8.75-.437l-2.422-.872L186 54z"/><path fill="#42484B" d="M161 55c3 1 3 1 4 3 2.017 1.134 2.017 1.134 4 2h-8c-.562-1.937-.562-1.937-1-4z"/><path fill="#2D2D2D" d="m188 86 1 3 3 1-1 3c-2.062.688-2.062.688-4 1z"/><path fill="#8F9091" d="m30 75-5 5-1-3c-2.015-.733-2.015-.733-4-1 3.215-1.607 6.436-1.057 10-1"/><path fill="#292B2D" d="m172 59 10 2v1h-11z"/><path fill="#0F0F0F" d="m186 97 2 1c-.542 3.796-2.201 5.472-5 8 .557-3.344 1.352-6.033 3-9"/><path fill="#E1E1E1" d="M37 89c4.875 1.75 4.875 1.75 6 4l-2.375-.125C37.839 92.713 37.839 92.713 36 95a100 100 0 0 1 0-5z"/><path fill="#999B9D" d="m58 91 1 2c-2 2-2 2-5.125 2.125L51 95l1-3z"/><path fill="#262626" d="M185 88v6l-5-2 1-3c3-1 3-1 4-1"/><path fill="#74777A" d="M172 55c5.75 1.75 5.75 1.75 8 4h-7z"/><path fill="#1B2022" d="m117 51 1 2-7 1-1-3c3.116-1.039 4.026-1.09 7 0"/><path fill="#434344" d="m176 44 1 2-1 2 2 1-8-1c1.964-1.506 3.783-2.891 6-4"/><path fill="#2C2C2C" d="M180 95h5l-2 4h-3z"/><path fill="#060707" d="M20 92c2 2 2 2 2 6l-10-1v-1h8z"/><path fill="#E6E6E8" d="M58 88c2 2 2 2 2 6l-4-1h3l-5-1z"/><path fill="#D3D4D5" d="m14 76 2 1-3 5 3 1-6-1c1.152-2.468 2.048-4.048 4-6"/><path fill="#959697" d="M96 52v2a101 101 0 0 1-6 3l-2-1c2.701-2.824 3.944-4 8-4"/><path fill="#F4F4F6" d="M139 46v1h-9v-2c3.62-1.34 5.574-.618 9 1"/><path fill="#0C0F0F" d="M204 107h6v3h-6z"/><path fill="#131414" d="m227 94 4 2c-3 2-3 2-7 2v-2z"/><path fill="#CCCDCE" d="m206 95 4 1-1 2 3 1-6 1z"/><path fill="#424345" d="M14 78h5l-2 4h-4z"/><path fill="#FCFCFC" d="m36 69 8 1c-2 2-2 2-5.125 2.125L36 72z"/><path fill="#000001" d="m13 74 2 1-5 4c1.875-3.875 1.875-3.875 3-5"/><path d="M228 62h2l-1 2zM15 73l2 1Z"/><path fill="#010101" d="m21 70 2 1Z"/><path d="m24 69 2 1Zm48-8 2 1Z"/><path fill="#000200" d="m74 60 2 1Z"/><path fill="#000203" d="m207 58 2 1Z"/><path fill="#010101" d="m205 57 2 1ZM79 57l2 1Z"/><path d="m81 56 2 1Zm119-1 2 1Z"/><path fill="#020202" d="m83 55 2 1Z"/><path fill="#000101" d="m198 54 2 1Z"/><path fill="#020202" d="m85 54 2 1Z"/><path d="m195 53 2 1Z"/><path fill="#010101" d="m87 53 2 1Z"/><path d="m193 52 2 1Z"/><path fill="#010101" d="m89 52 2 1Z"/><path fill="#010102" d="m190 51 2 1Z"/><path fill="#000102" d="m91 51 2 1Z"/><path fill="#000103" d="m98 48 2 1Z"/><path fill="#010101" d="m172 44 2 1Z"/></svg>