<svg xmlns="http://www.w3.org/2000/svg" width="240" height="146"><path fill="#17191C" d="M77 6h4c-.981 3.17-2.027 6.051-3.562 9-1.485 3.099-1.945 5.62-2.438 9l-1.125 3.125c-.884 2.904-.943 4.098.125 6.875h4a749 749 0 0 0 4-6c2.75-1.375 2.75-1.375 5-2l-1-4 3-1q.53-1.992 1-4c1.563-1.75 1.563-1.75 3-3l3 1a764 764 0 0 1-.437 4.375l-.247 2.46C95 24 95 24 94 26h-4l-1 3 2.117.184 2.758.253 2.742.247C99 30 99 30 101 31v6l-2.687-.437c-3.284.085-3.284.085-4.825 1.996A72 72 0 0 0 90 44l1.063 1.75c1.13 2.712.8 3.506-.063 6.25a253 253 0 0 1-1.625 3.813C87.839 59.91 87.732 62.719 89 67c1.462 2.547 2.787 3.938 5 6 3.463.606 6.591-.22 10-1l.262-2.238c.882-3.302 2.102-4.6 4.55-6.95l2.083-2.042c3.724-3.13 6.445-4.022 11.308-3.965l2.969.02 3.078.05 3.125.027q3.813.036 7.625.098l1-2c1.926-.457 1.926-.457 4.313-.812 3.571-.71 4.507-1.008 7.187-3.688 1.474-2.385 1.474-2.385 2.5-4.5l3.395.254 4.417.309 2.237.17c3.319.225 5.763.33 8.951-.733 3.428-.259 6.85-.442 10.283-.605 3.988-.135 3.988-.135 7.717-1.395v2l2.168-.559c3.06-.477 5.14-.184 8.144.496l2.676.59L206 47v7l-3 1v4l3.875.438c2.382.268 3.97.484 6.125 1.562.238 1.75.238 1.75.313 4 .395 4.77 2.035 7.892 4.628 11.86 1.263 2.553 1.165 4.325 1.059 7.14.916 2.251.916 2.251 2 4-4.608-1.49-7.395-3.876-11-7l-2-1-.312-1.875c-.518-2.396-.518-2.396-3.188-3.625-2.5-1.5-2.5-1.5-3.125-3.625L201 69c-3.015-1.005-5.042-1.103-8.187-1.062l-2.731.027L188 68c-.301 2.889-.301 2.889 1 6 2.407 1.287 4.856 2.122 7.43 3.027 6.498 2.46 9.855 7.051 12.644 13.164 2 6.068 2.27 11.841-.394 17.723A99 99 0 0 1 204 115l-1 2 11 1v2l3 1c-4.865 2.498-9.715 2.444-15.062 2.625l-2.845.117c-5.811.225-11.61.34-17.425.195-2.786.014-2.786.014-5.985.53-6.07.773-12.166.922-18.277 1.119l-2.011.065c-17.143.538-34.274.29-51.42.012-3.353-.052-6.707-.095-10.061-.138q-4.897-.065-9.795-.139-2.31-.034-4.622-.065-3.201-.043-6.401-.1l-3.653-.056c-3.535-.17-6.946-.638-10.443-1.165-2.166-.043-4.334-.04-6.5 0-6.884.041-13.746-.115-20.625-.375-.996-.03-1.992-.062-3.018-.094l-2.865-.117-2.551-.095c-2.73-.357-4.934-1.203-7.441-2.319v-2l12-2-2.375-3.5-1.336-1.969L23 110h-2c-1.326-10.808-1.52-18.972 5.25-28L28 80v-2c3.529-3.235 6.197-5 11-5l1-2c2.285-.414 2.285-.414 5.063-.625l2.785-.227L50 70c-1.249-1.583-1.249-1.583-3-3h-4v-2l-4-1c-.478-6.527 2.078-11.338 5-17 1.528-2.994 2.936-5.81 4-9l3-1c1.812-2.016 1.812-2.016 3.625-4.5 3.521-4.552 7.312-8.545 11.492-12.492C67.945 18.058 68.96 16.44 70 14c.938-2.187.938-2.187 2-4l3-1zM52 70v2l3-1zm122 4h2v2l6-1-1-3c-3.955-.348-3.955-.348-7 2m-8 3-2 1 1 3 5-2c-1.883-1.108-1.883-1.108-4-2M34 89l-1 2h2zm-3 4-1 5 2-1zm163 3v2h5l-1-3c-2.075-.15-2.075-.15-4 1M69 97v9h1v-9zm-39 3 1 5h2l-1-5zm164 0v4h2l1 2 2-5zm-137 2v4l2-4zm-23 4v3c3.333 2.5 4.733 3 9 3v-2l-3.375-1.437c-1.892-.816-3.782-1.642-5.625-2.563m32.2 2.188L64.686 111l-1.55 2.813L62 116c1.073 1.3 1.073 1.3 3.617 1.098l3.258-.035 3.242-.028L75 117h3q2.127-.233 4.251-.492c6.903-.707 13.801-.652 20.733-.64l4.286-.004q4.462-.002 8.926.006 5.702.006 11.404-.004 4.415-.005 8.828 0l4.206-.002q2.939-.003 5.877.007l3.367.002c3.12.127 6.05.59 9.122 1.127 2.333.038 4.667.047 7 0 .22-3.05.22-3.05-1.312-5.687-3.726-3.206-6.557-2.75-11.325-2.586-2.317.02-2.317.02-3.363 1.273-2.17-.066-4.336-.204-6.5-.375l-3.594-.273a200 200 0 0 1-7.87-.868c-5.836-.65-11.644-.609-17.509-.582l-3.526.005c-3.688.005-7.376.018-11.064.03q-3.768.009-7.537.014-9.2.017-18.4.049l-1-2c-3.456-.471-4.516-.588-6.8 2.188M184 107l-1 4 4-1v-2zm8 0v2l2-1zm-140.562 1.5L50 110h4v-3c-1.24-.115-1.24-.115-2.562 1.5M176 108c1.375 1.542 1.375 1.542 3 3h2v-3zm12 1-1 2h2zm-142 1 1 3 3-2z"/><path fill="#050708" d="M58 74c6.307 4.92 12.34 10.018 13.441 18.328.157 9.338.157 9.338-2.441 13.672l-1.508 2.578-1.617 2.672-1.633 2.703L63 116q2.906.039 5.813.063l3.269.035c2.983.038 2.983.038 5.918-1.098v2l2.069-.985c3.442-1.192 6.188-1.262 9.83-1.258l2.041-.006a988 988 0 0 1 6.65.019h4.644q4.86.003 9.72.024 6.216.023 12.432.02 4.793.001 9.587.013 2.29.005 4.582.006 3.208.004 6.417.022l3.683.011c3.203.128 6.193.577 9.345 1.134 2.333.038 4.667.047 7 0-1.505-3.134-1.505-3.134-4-6-3.5-.417-3.5-.417-7 0-2.437-.5-2.437-.5-4-1l-1 2-5-1v-4l-2-1h8l-1-2 7 1 1 4h4l-2-4c1.748-.223 3.499-.428 5.25-.625l2.953-.352c2.931-.024 4.342.446 6.797 1.977v1l-7 1c1.108 3.693 1.108 3.693 3.875 6.188L174 114l1.703 1.031c3.125 1.318 5.79 1.27 9.172 1.281l3.617.051c6.303-.653 10.532-3.527 14.508-8.363 1.225-2.637 2.105-5.222 3-8h2l1-5h1c.966 8.408-1.254 13.164-6 20l-1 2 11 1v2l3 1c-4.865 2.498-9.715 2.444-15.062 2.625l-2.845.117c-5.811.225-11.61.34-17.425.195-2.786.014-2.786.014-5.985.53-6.07.773-12.166.922-18.277 1.119l-2.011.065c-17.143.538-34.274.29-51.42.012-3.353-.052-6.707-.095-10.061-.138q-4.897-.065-9.795-.139-2.31-.034-4.622-.065-3.201-.043-6.401-.1l-3.653-.056c-3.535-.17-6.946-.638-10.443-1.165-2.166-.043-4.334-.04-6.5 0-6.884.041-13.746-.115-20.625-.375l-3.018-.094-2.865-.117-2.551-.095c-2.73-.357-4.934-1.203-7.441-2.319v-2l12-2-2.375-3.5-1.336-1.969L23 110h-2c-1.236-10.079-1.962-18.476 4.477-26.941 3.398-3.471 6.043-4.42 10.898-4.496 4.407.22 4.407.22 5.625 1.437.563 2.25.563 2.25 0 5-1.997 1.494-4.036 2.644-6.25 3.79L34 90v3h-3l1 7h-2l1 5h3v3c2.875 2.076 5.514 3.354 9 4v-2h3l1 2 2-1-2-2 6 1v-3c1.375-1.687 1.375-1.687 3-3h2l1-2q-2.47.713-4.937 1.438l-2.778.808c-2.225.544-2.225.544-3.285 1.754-7.134.585-7.134.585-10.5-1.687-1.756-2.708-1.842-4.147-1.5-7.313v-1q.974-2.012 2-4h2v2c2.395-.743 3.708-1.47 4.934-3.691C45.672 88.559 46.34 86.78 47 85l2 1-1 6h2l.938-2.875C52 86 52 86 53 84c2.322-.407 4.657-.744 7-1v-3h-4z"/><path fill="#E1E2E3" d="M77 6h4c-.981 3.17-2.027 6.051-3.562 9-1.485 3.099-1.945 5.62-2.438 9l-1.125 3.125c-1.185 3.892-.498 5.556 1.188 9.125L76 38h-8l-.437-1.875C67.068 33.967 67.068 33.967 66 32l-1 3h2v2l-2 1 2.598.113C75.724 38.581 81.184 39.456 88 44c-.607 4.128-2.038 7.332-4 11l-2.57-.84c-4.312-.201-5.455.911-8.578 3.662l-1.727 1.615-1.797 1.604A334 334 0 0 0 65 65c2.737 5.93 6.67 10.814 10.813 15.813 3.027 3.961 4.857 6.38 4.25 11.437L79 96c9.903.242 19.686-.074 29.563-.875l3.06-.238c5.658-.489 10.911-1.34 16.377-2.887-1 2-1 2-4.58 3.329q-2.4.759-4.81 1.491l-2.593.799q-2.733.835-5.468 1.659a826 826 0 0 0-8.237 2.554C91.557 105.133 81.213 108.197 70 105c.07-1.05.14-2.101.21-3.184.362-7.802.587-13.683-4.542-20.043L64 80l-1.512-1.648C61.37 77.19 60.192 76.086 59 75l-2 4 4 1-1 4h-7l-.937 2.875C51 90 51 90 50 92h-2v-6l-1.75 3.438c-1.938 3.432-1.938 3.432-4.5 4.5L40 94v-2l-4 4h2l-.687 2.813c-.591 3.051-.591 3.051.624 5 3.23 1.858 6.367 1.884 10.063 2.187l1-2a530 530 0 0 1 5-1l2-2c-.543 3.801-2.073 5.575-5 8-3.67 1.572-8.09 1.69-12 1-3.023-1.742-5.417-3.834-7-7a95 95 0 0 1-.062-5.125l.027-2.758L32 93h2l.125-1.75C35 89 35 89 38.063 87.063L41 85c.245-2.586.245-2.586 0-5H28v-2c3.529-3.235 6.197-5 11-5l1-2c2.285-.414 2.285-.414 5.063-.625l2.785-.227L50 70c-1.249-1.583-1.249-1.583-3-3h-4v-2l-4-1c-.478-6.527 2.078-11.338 5-17 1.528-2.994 2.936-5.81 4-9l3-1c1.812-2.016 1.812-2.016 3.625-4.5 3.521-4.552 7.312-8.545 11.492-12.492C67.945 18.058 68.96 16.44 70 14c.938-2.187.938-2.187 2-4l3-1zM52 70v2l3-1z"/><path fill="#14171A" d="m93 14 3 1a764 764 0 0 1-.437 4.375l-.247 2.46C95 24 95 24 94 26h-4l-1 3c1.048.09 1.048.09 2.117.184l2.758.253 2.742.247C99 30 99 30 101 31v6l-2.687-.437c-3.284.085-3.284.085-4.825 1.996A72 72 0 0 0 90 44l1.063 1.75c1.13 2.712.8 3.506-.063 6.25a253 253 0 0 1-1.625 3.813C87.839 59.91 87.732 62.719 89 67c1.462 2.547 2.787 3.938 5 6 3.463.606 6.591-.22 10-1l.262-2.238c.882-3.302 2.102-4.6 4.55-6.95l2.083-2.042c3.724-3.13 6.445-4.022 11.308-3.965l2.969.02 3.078.05 3.125.027q3.813.036 7.625.098l1-2c1.926-.457 1.926-.457 4.313-.812 3.571-.71 4.507-1.008 7.187-3.688 1.474-2.385 1.474-2.385 2.5-4.5l3.395.254 4.417.309 2.237.17c3.319.225 5.763.33 8.951-.733 3.428-.259 6.85-.442 10.283-.605 3.988-.135 3.988-.135 7.717-1.395v2l2 1-2.108.67a2171 2171 0 0 0-9.517 3.08l-3.316 1.055C172.405 53.655 167.913 55.599 163 59a112 112 0 0 1-7.625 2.188c-6.896 1.842-13.131 4.42-19.562 7.5-7.052 3.343-12.96 5.288-20.77 5.984-2.994.323-5.51.994-8.356 1.953-8.256 2.622-14.181 1.588-22.109-1.75C80.641 73.539 77.92 73.693 74 75c3.155 5.55 6.692 10.347 12 14 3.645.516 6.585-.771 10-2 13.512-4.386 25.1-6.965 39-2l-1 2-1.82-.016q-4.059-.029-8.118-.046l-2.865-.026-2.724-.01-2.524-.016c-1.954-.102-1.954-.102-2.949 1.114-1.556.322-3.12.608-4.687.875-4.193.794-7.59 1.97-11.313 4.125l2.281-.219c8.932-.78 17.764-.884 26.719-.781-5.426 3.617-10.911 3.544-17.25 4.063l-3.262.268C83.15 98.075 83.15 98.075 79 96l.625-3.687C79.685 84.83 73.549 79.41 69 74c-1.716-2.304-3.356-4.644-5-7 1.576-4.094 4.498-6.591 7.75-9.375l1.555-1.441C74.859 54.852 74.859 54.852 78 53c3.39.71 3.39.71 6 2 1.273-3.648 2.328-7.194 3-11-5.545-3.543-9.694-4.138-16.25-4.562l-3.828-.254L64 39l1-2h2v-2h-2l1-4c1.563 1.813 1.563 1.813 3 4l-1 3c4.99-.356 4.99-.356 9.25-2.75 1.828-2.227 1.828-2.227 3.188-4.875 1.874-2.849 3.35-3.42 6.562-4.375l-1-4 3-1q.53-1.992 1-4c1.563-1.75 1.563-1.75 3-3"/><path fill="#E8EAEB" d="M206 47v2l-13 4v1l6 2c-3.22 3.607-6.859 5.82-11.074 8.074l-2.07 1.12a933 933 0 0 1-4.335 2.316 663 663 0 0 0-6.55 3.554q-2.115 1.132-4.233 2.26l-1.942 1.073c-4.87 2.543-9.33 3.315-14.796 3.603l1 1v2a259 259 0 0 1-5 3 180 180 0 0 0-3.062 2.75C144 89 144 89 141.625 88.813L140 88l3-7-2.437 2.063c-4.897 3.226-9.924 1.454-15.375.386-9.96-1.404-18.167 1.127-27.657 4.098l-3.164.984-2.84.924c-2.688.58-3.998.565-6.527-.455a88 88 0 0 1-5.75-5.375l-1.535-1.5C74 78.38 74 78.38 74 75c3.426-2.284 4.87-2.084 8.828-1.492 2.17.491 4.062 1.194 6.11 2.055 8.226 3.214 15.176 1.074 23.34-1.59 3.025-.79 5.389-1.12 8.46-1.301 6.094-.525 11.035-2.896 16.512-5.484 7.51-3.427 14.64-6.374 22.715-8.176 2.697-.9 4.352-1.792 6.676-3.34 5.063-3.296 10.475-5.177 16.172-7.11l3.08-1.138c7.318-2.496 12.671-2.54 20.107-.424"/><path fill="#131517" d="M77 6h4c-.981 3.17-2.027 6.051-3.562 9-1.485 3.099-1.945 5.62-2.438 9l-1.125 3.125c-1.185 3.892-.498 5.556 1.188 9.125L76 38h-8l-.437-1.875C67.068 33.967 67.068 33.967 66 32l-1 3h2v2l-2 1 1 2-2.484.734-3.266 1.016-3.234.984C53.867 44.056 52.215 45.441 50 48l2.688-1.562C56.2 44.913 57.448 44.85 61 46c-4.154 5.006-8.546 9.58-13.242 14.082-1.983 1.73-1.983 1.73-1.758 3.918l3.688 1.125C54.31 66.88 56.482 68.72 59 73c-.687 3.375-.687 3.375-2 6l4 1-1 4h-7l-.937 2.875C51 90 51 90 50 92h-2v-6l-1.75 3.438c-1.938 3.432-1.938 3.432-4.5 4.5L40 94v-2l-4 4h2l-.687 2.813c-.591 3.051-.591 3.051.624 5 3.23 1.858 6.367 1.884 10.063 2.187l1-2a530 530 0 0 1 5-1l2-2c-.543 3.801-2.073 5.575-5 8-3.67 1.572-8.09 1.69-12 1-3.023-1.742-5.417-3.834-7-7a95 95 0 0 1-.062-5.125l.027-2.758L32 93h2l.125-1.75C35 89 35 89 38.063 87.063L41 85c.245-2.586.245-2.586 0-5H28v-2c3.529-3.235 6.197-5 11-5l1-2c2.285-.414 2.285-.414 5.063-.625l2.785-.227L50 70c-1.249-1.583-1.249-1.583-3-3h-4v-2l-4-1c-.478-6.527 2.078-11.338 5-17 1.528-2.994 2.936-5.81 4-9l3-1c1.812-2.016 1.812-2.016 3.625-4.5 3.521-4.552 7.312-8.545 11.492-12.492C67.945 18.058 68.96 16.44 70 14c.938-2.187.938-2.187 2-4l3-1zM52 70v2l3-1z"/><path fill="#0E1112" d="M197 77c6.035 3.086 9.516 7.404 12.3 13.52 1.08 3.83.329 5.913-1.3 9.48h-2l-.312 2.188c-1.542 6.308-5.547 10.12-10.688 13.812-6.045 2.015-13.604 2.216-19.629.059-4.149-2.438-5.833-4.445-7.371-9.059l-4-1 10-1c-3.162-1.054-5.87-1.313-9.187-1.562l-3.293-.254L159 103v-2l-4-1 1-1h-2l-2-8q7.099.178 14.197.372 2.412.065 4.824.125 3.478.088 6.956.187l2.16.05c4.036.119 7.897.504 11.863 1.266 2 7.625 2 7.625 2 11h2v2h3c2.4-4.648 2.2-8.91 2-14l3-1c-2.921-5.842-6.855-7.854-12.637-10.703C189 79 189 79 188 77c3.277-1.638 5.484-.85 9 0m-13 30-1 4 4-1v-2zm8 0v2l2-1zm-16 1c1.375 1.542 1.375 1.542 3 3h2v-3zm12 1-1 2h2z"/><path fill="#0C0F12" d="M143 80c0 3.38-.875 5.835-2 9l1.5 1.438C144 92 144 92 144 93l-6 2 1 7h2v2l-1.937.75c-2.256 1.053-2.256 1.053-2.692 3.328L136 110l-3.707-.494c-5.996-.663-11.958-.631-17.984-.604l-3.594.005c-3.76.005-7.518.018-11.278.03q-3.84.009-7.681.014-9.378.017-18.756.049v-2l-4-1c3.68-.887 6.75-.945 10.512-.687 9.885.078 18.973-3.343 28.3-6.313q2.802-.87 5.604-1.734c4.534-1.403 9.06-2.828 13.584-4.266-13.539-.074-13.539-.074-27.062.5l-2.37.145q-2.784.17-5.568.355v-1l3.125-.812c2.545-.715 4.44-1.489 6.813-2.75C105.726 87.659 108.85 87.422 113 87l1-1a63 63 0 0 1 4.156.113c12.65.827 12.65.827 23.578-4.8z"/><path fill="#1A1B1D" d="M209 95h1c.966 8.408-1.254 13.164-6 20l-1 2 11 1v2l3 1c-4.865 2.498-9.715 2.444-15.062 2.625l-2.845.117c-5.811.225-11.61.34-17.425.195-2.798.012-2.798.012-6.055.56-6.5.867-13.07.607-19.613.566q-2.04-.009-4.082-.014-4.959-.018-9.918-.049l2-1v-2l-3 1c-2.687-1.937-2.687-1.937-5-4l2.75-.437c2.465-.427 4.838-.914 7.25-1.563l-4-1c3.817-.944 6.974-.973 10.875-.562 4.413.424 8.696.663 13.125.562-1.505-3.134-1.505-3.134-4-6-3.5-.417-3.5-.417-7 0-2.437-.5-2.437-.5-4-1l-1 2-5-1v-4l-2-1h8l-1-2 7 1 1 4h4l-2-4c1.748-.223 3.499-.428 5.25-.625l2.953-.352c2.931-.024 4.342.446 6.797 1.977v1l-7 1c1.108 3.693 1.108 3.693 3.875 6.188L174 114l1.703 1.031c3.125 1.318 5.79 1.27 9.172 1.281l3.617.051c6.303-.653 10.532-3.527 14.508-8.363 1.225-2.637 2.105-5.222 3-8h2z"/><path fill="#1E2023" d="m77 115 1 2 2.137-.984c3.093-1.098 5.403-1.27 8.676-1.275l3.468-.019 3.719.012 3.844-.005q4.02-.004 8.039.01c3.426.012 6.852.005 10.279-.007 3.28-.009 6.559-.003 9.838.002l3.719-.012 3.469.02 3.042.004c2.928.268 5.112 1.03 7.77 2.254l-1 2h-7c1.312 1.562 1.312 1.562 3 3h3v2c-3.692 2.353-6.828 2.215-11.136 2.151l-2.155-.024c-2.347-.028-4.694-.072-7.041-.115l-4.91-.069q-5.145-.073-10.291-.164c-4.385-.078-8.77-.142-13.154-.202a5295 5295 0 0 1-10.143-.152q-2.424-.038-4.848-.073-3.399-.052-6.798-.115l-3.9-.065c-3.598-.17-7.066-.628-10.624-1.172-2.307-.025-4.583.058-6.887.16-2.444-.185-4.004-.946-6.113-2.16l1.688-.55 2.312-.763c.829-.27 1.658-.54 2.512-.82 2.423-.806 2.423-.806 4.445-1.734 5.225-2.31 9.823-2.357 15.504-2.14 2.533.197 2.533.197 4.539-.993"/><path fill="#D5D7D8" d="M187 55v2l11-2v3a2653 2653 0 0 1-15.468 8.597 1034 1034 0 0 0-7.196 4.036l-4.399 2.43-2.013 1.156C164.004 76.897 159.58 77.735 154 78l1 1v2a259 259 0 0 1-5 3 180 180 0 0 0-3.062 2.75L144 89c-2.184-.36-2.184-.36-4-1q.892-2.193 1.813-4.375l1.019-2.46C144 79 144 79 147 77l-9-2c2.543-1.695 4.947-2.992 7.688-4.312 3.159-1.544 6.022-3.142 8.875-5.188 6.351-4.126 14.203-5.547 21.437-7.5 10.928-3 10.928-3 11-3"/><path fill="#090B0B" d="m93 14 3 1a764 764 0 0 1-.437 4.375l-.247 2.46C95 24 95 24 94 26h-4l-1 3c1.048.09 1.048.09 2.117.184l2.758.253 2.742.247C99 30 99 30 101 31v6l-2.687-.437c-3.284.085-3.284.085-4.825 1.996A72 72 0 0 0 90 44l1.063 1.75c1.47 3.53.21 5.545-1.126 9L89 57l-2-1-.988 1.61c-3.704 5.986-3.704 5.986-5.824 8.765C78.803 67.934 78.803 67.934 79 70l2 2c-1.875-.312-1.875-.312-4-1-2-3-2-3-1.875-4.937C76.247 63.419 77.886 61.909 80 60l-1.61 1.207L68 69l-4-2c1.576-4.094 4.498-6.591 7.75-9.375l1.555-1.441C74.859 54.852 74.859 54.852 78 53c3.39.71 3.39.71 6 2 1.273-3.648 2.328-7.194 3-11-5.545-3.543-9.694-4.138-16.25-4.562l-3.828-.254L64 39l1-2h2v-2h-2l1-4c1.563 1.813 1.563 1.813 3 4l-1 3c4.99-.356 4.99-.356 9.25-2.75 1.828-2.227 1.828-2.227 3.188-4.875 1.874-2.849 3.35-3.42 6.562-4.375l-1-4 3-1q.53-1.992 1-4c1.563-1.75 1.563-1.75 3-3"/><path fill="#464A4E" d="m190 44 1 2 2 1a902 902 0 0 1-9 3l-2.543.867c-4.046 1.317-7.582 2.307-11.86 2.203-3.358-.065-4.535-.073-7.16 1.805-3.354 2.152-6.502 3.308-10.437 4.125l-1.809-.55c-8.653-1.775-19.833 5.098-27.328 9.062-3.922 2.038-6.689 2.607-11.05 2.55l-2.731-.027L107 70c1.395-2.985 3.023-5.554 5-8.187l1.563-2.106C115 58 115 58 117 57a89 89 0 0 1 5.008-.098l2.988.01 3.129.026 3.152.013q3.862.018 7.723.049l1-2c1.926-.457 1.926-.457 4.313-.812 3.571-.71 4.507-1.008 7.187-3.688 1.474-2.385 1.474-2.385 2.5-4.5l3.395.254 4.417.309 2.237.17c3.319.225 5.763.33 8.951-.733 3.457-.259 6.909-.443 10.371-.605 3.617.134 3.617.134 6.629-1.395"/><path fill="#0F1216" d="M41 79c1 1 1 1 1.563 3.25C42 85 42 85 40.215 86.336a103 103 0 0 1-4.465 2.453L34 90v3h-3l1 7h-2l1 5h3v3c2.875 2.076 5.514 3.354 9 4v-2h3l1 2 3 1 2 2c3.407-2.246 6.765-4.511 10-7-1.79 4.558-4.933 7.023-9.305 9.09-5.453 1.841-11.78 2.117-17.148-.106C32.3 114.99 29.643 112.74 27 110l-3 2c-2.2-2.2-2.393-3.051-3-6l-.562-1.812C19.01 97.058 20.538 91.255 24 85c4.562-6.111 9.62-7.117 17-6"/><path fill="#C9CBCD" d="m69 81 3 1 2-1a189 189 0 0 1 3.063 4.125l1.722 2.32C80.333 90.7 79.87 92.57 79 96c9.903.242 19.686-.074 29.563-.875l3.06-.238c5.658-.489 10.911-1.34 16.377-2.887-1 2-1 2-4.58 3.329q-2.4.759-4.81 1.491l-2.593.799q-2.733.835-5.468 1.659a826 826 0 0 0-8.237 2.554C91.557 105.133 81.213 108.197 70 105l.105-3.29q.043-2.167.082-4.335l.077-2.16C70.33 90.377 69.556 87.253 67 83h2z"/><path fill="#E3E4E6" d="M39 71c5.99-.315 9.636.318 15 3l-1 2h-2v3l-2 1c-1.026 3.042-1.862 6.118-2.707 9.215C45 92 45 92 42.363 93.379L40 94v-2l-4 4h2l-.687 2.813c-.591 3.051-.591 3.051.624 5 3.23 1.858 6.367 1.884 10.063 2.187l1-2a530 530 0 0 1 5-1l2-2c-.543 3.801-2.073 5.575-5 8-3.67 1.572-8.09 1.69-12 1-3.023-1.742-5.417-3.834-7-7a95 95 0 0 1-.062-5.125l.027-2.758L32 93h2l.125-1.75C35 89 35 89 38.063 87.063L41 85c.245-2.586.245-2.586 0-5H28v-2c3.529-3.235 6.197-5 11-5z"/><path fill="#F6F7F7" d="M82.828 73.508c2.17.491 4.062 1.194 6.11 2.055 6.011 2.379 11.355 2.159 17.374-.063 5.332-1.783 10.497-1.805 16.063-1.812l2.67-.016c4.274.046 7.174.176 10.955 2.328-5.07 2.473-8.583 3.273-14.312 3.25-11.474.251-22.308 3.877-33.23 7.123C86 87 86 87 83 87c-2.262-1.863-2.262-1.863-4.687-4.312l-2.45-2.426C74 78 74 78 74 75c3.426-2.284 4.87-2.084 8.828-1.492"/><path fill="#060708" d="M209 95h1c.948 8.25-.943 13.457-6 20-6.07 5.922-12.342 6.441-20.472 6.436-6.364-.16-11.42-1.442-16.528-5.436-1.465-1.668-1.465-1.668-2.687-3.312-2.113-3.088-2.113-3.088-5.875-3L155 110c-2.437-.5-2.437-.5-4-1l-1 2-5-1v-4l-2-1h8l-1-2 7 1 1 4h4l-2-4c1.748-.223 3.499-.428 5.25-.625l2.953-.352c2.931-.024 4.342.446 6.797 1.977v1l-7 1c1.108 3.693 1.108 3.693 3.875 6.188L174 114l1.703 1.031c3.125 1.318 5.79 1.27 9.172 1.281l3.617.051c6.303-.653 10.532-3.527 14.508-8.363 1.225-2.637 2.105-5.222 3-8h2z"/><path fill="#8B8D8E" d="M61 46c-4.154 5.006-8.546 9.58-13.242 14.082-1.983 1.73-1.983 1.73-1.758 3.918l3.688 1.125C54.31 66.88 56.482 68.72 59 73c-.687 3.375-.687 3.375-2 6l4 1-1 4h-7l-.937 2.875C51 90 51 90 50 92h-2c.03-1.392.03-1.392.063-2.812.095-3.21.095-3.21-1.063-6.188.938-2.187.938-2.187 2-4h2v-3l2-1-1.875-.875C49 73 49 73 47 71l3-2c-2.954-2.37-2.954-2.37-7-2v-2l-4-1c-.477-6.525 2.055-11.336 5-17l2.625.688c5.71.528 8.543-3.575 14.375-1.688m-9 24v2l3-1z"/><path fill="#343739" d="M172 52c-4.891 5.253-9.704 7.356-16.562 9.125-6.907 1.876-13.176 4.478-19.625 7.563-8.057 3.815-14.876 5.67-23.813 6.312l-3.762.656L105 76l-2-2 1-2 .309-2.355c.867-3.318 2.27-4.631 4.754-6.957l2.222-2.114L113 59l2 1-1.496 1.68-1.942 2.195-1.933 2.18c-1.68 1.853-1.68 1.853-2.629 3.945 9.048-.63 15.793-3.041 23.815-7.025C138.491 59.187 145.378 56.152 154 58c2.48-.7 4.472-1.672 6.656-3.027C164.634 52.52 167.167 51.529 172 52"/><path fill="#B8BABC" d="M152 91c3.959.111 7.917.242 11.875.375 1.109.03 2.217.062 3.36.094 17.305.61 17.305.61 21.538 3.915C190 97 190 97 190 100h-5v-2h-6l1 3c-3.976 2.715-8.139 2.224-12.75 2.125l-2.402-.027c-1.95-.024-3.899-.06-5.848-.098v-2l-4-1 1-1h-2z"/><path fill="#16191C" d="M151.625 89.875 155 90l-3 1 2 3c.125 2.688.125 2.688 0 5l7-1-3 2 1 3h10v1l-8 1 1 3h-4v-2c-2.947-1.158-2.947-1.158-6-1v1h-7v2l3 1c-4.517 1.369-7.588.47-12-1v-2l-2-2h7l-2-1.687c-2-2.313-2-2.313-2.375-4.938C137 95 137 95 139 93l7-1c2-2 2-2 5.625-2.125"/><path fill="#111315" d="M53 84h6l-1 5-3-1 1 10 4 1a85 85 0 0 1-7 2h2l-1 3c-4.751 2.202-8.87 2.496-14 2-2.5-1.687-2.5-1.687-4-4-.25-2.687-.25-2.687 0-5v-1q.974-2.012 2-4h2v2c2.395-.743 3.708-1.47 4.934-3.691C45.672 88.559 46.34 86.78 47 85l2 1-1 6h2l.938-2.875C52 86 52 86 53 84"/><path fill="#101213" d="M59 84h2l2.93 5.176C64.894 90.82 65.943 92.414 67 94c-.172 2.34-.172 2.34-.75 4.938l-.547 2.59c-1.353 4.756-3.088 7.117-7.016 10.16l-2.3 1.824c-2.517 1.57-4.468 2.1-7.387 2.488l-1-3h2l-3-4 6 1v-3c1.375-1.687 1.375-1.687 3-3h2l1-2-3 1v-2l-1.812.625C52 102 52 102 49 100a491 491 0 0 1 4.375-.562l2.46-.317C58 99 58 99 60 100v-2h-4c-1.837-3.782-2.158-5.946-1-10l3-1z"/><path fill="#0B0D0E" d="m36.125 78.813 2.695.019C41 79 41 79 42 80c.563 2.25.563 2.25 0 5-1.997 1.494-4.036 2.644-6.25 3.79L34 90v3h-3l1 7h-2l1 5h3v3c2.875 2.076 5.514 3.354 9 4v-2h3v5c-5.84-.403-9.377-1.113-14-5a186 186 0 0 1-4-6h-2c-2-2-2-2-2.375-5.687.147-5.792 2.724-9.524 6.625-13.75L32 83l-4-2c3.283-2.188 4.318-2.249 8.125-2.187"/><path fill="#07090B" d="M196 83c3.593.998 4.957 1.948 7.375 4.875C205 91 205 91 204.75 93.375L204 95l-2-1 .188 3.125c-.2 4.11-1.133 6.364-3.188 9.875l-2-1 1-4-5-1 .063-2.312c.066-2.79.066-2.79-1.063-5.688l-2.684.035c-9.81.072-19.53-.364-29.316-1.035v-2l-4 1v-2c1.938-.562 1.938-.562 4-1l1 1c1.56.157 3.125.25 4.691.316l2.862.127 3.01.12 3.021.13q3.708.159 7.416.307l-10-1v-1l22-1-1 5 .813-1.937C195 88 195 88 198 87l-2-1zm-2 13v2h5l-1-3c-2.075-.15-2.075-.15-4 1"/><path fill="#141517" d="M130 97c-5.267 5.842-13.786 5.331-21.145 5.754-2.927.14-2.927.14-5.855 1.246l1 3 2 1c-7.02 1.093-13.905 1.115-21 1.063l-3.504-.014Q77.248 109.03 73 109v-2l-4-1c3.766-.908 7.017-.978 10.875-.777 8.557.068 16.06-2.672 24.041-5.453 9.156-3.153 16.473-4.325 26.084-2.77"/><path fill="#9C9EA0" d="M195 60a1746 1746 0 0 1-13.177 7.208q-2.241 1.219-4.472 2.453a689 689 0 0 1-6.472 3.523l-1.98 1.11c-4.912 2.612-9.36 3.43-14.899 3.706l1 1v2a259 259 0 0 1-5 3 180 180 0 0 0-3.062 2.75L144 89c-2.184-.36-2.184-.36-4-1q.892-2.193 1.813-4.375l1.019-2.46C144 79 144 79 147 77l-9-2v-1l1.95.127c13.906.784 24.297.456 36.217-7.006 3.121-1.909 6.38-3.537 9.645-5.183l3.395-1.786C192 59 192 59 195 60"/><path fill="#2E3235" d="M197 77c6.035 3.086 9.516 7.404 12.3 13.52 1.08 3.83.329 5.913-1.3 9.48h-2l-.312 2.188c-1.542 6.308-5.547 10.12-10.688 13.812-5.725 1.908-13.582 2.356-19.254.105C174.125 115 174.125 115 172 113c3 0 3 0 5.063 1 5.787 1.97 11.704 1.89 17.312-.625 4.423-2.56 6.862-5.676 8.27-10.656q.526-2.325.96-4.668C204 96 204 96 205 93c-1.896-5.7-5.579-8.635-10.75-11.375l-2.922-1.398C189 79 189 79 188 77c3.277-1.638 5.484-.85 9 0"/><path fill="#474A4F" d="m87 55 2 3-.75 3.188c-.318 4.856 1.094 6.537 3.914 10.308 1.778 1.735 1.778 1.735 4.422 1.79 2.422-.149 2.422-.149 4.414-1.286 3 2 3 2 5 5-8.485 2.335-16.18.99-24-3-2.324-2.14-2.324-2.14-4-4 1.225-3.487 2.427-5.427 5-8 1.425-2.29 2.704-4.632 4-7"/><path fill="#0C1113" d="m116.5 85.886 3.285.016 3.545.01 3.733.025 3.744.014q4.596.018 9.193.049l-1 2h-2v2c-4.898 2.536-9.8 2.407-15.187 2.562q-2.948.108-5.895.22l-2.987.105c-4.438.171-8.872.419-13.306.675l-2.34.134q-2.643.15-5.285.304v-1l3.125-.813c2.545-.714 4.44-1.488 6.813-2.75C105.726 87.66 108.85 87.422 113 87c1-1 1-1 3.5-1.114"/><path fill="#B9BBBD" d="m126 92 2 1a126 126 0 0 1-14.664 5.48l-2.163.66q-2.256.683-4.513 1.359-2.273.684-4.537 1.393c-9.56 2.99-17.981 4.876-28.123 4.108l-1-2c5.086-2.249 10.282-3.105 15.723-4.121 3.225-.626 3.225-.626 5.142-2.393 2.643-1.84 4.368-1.96 7.565-2.146l3.16-.217 3.285-.186c9.232-.54 9.232-.54 18.125-2.937"/><path fill="#C9CCCD" d="M77 6h4c-1.966 6.353-4.031 11.47-9 16l-2.75 2.75L67 27v-3a268 268 0 0 0-10.062 10.5l-2.536 2.781A171 171 0 0 0 48 45l-2-1c.813-2.937.813-2.937 2-6l3-1c1.812-2.016 1.812-2.016 3.625-4.5 3.521-4.552 7.312-8.545 11.492-12.492C67.945 18.058 68.96 16.44 70 14c.938-2.187.938-2.187 2-4l3-1z"/><path fill="#333539" d="m190 44 1 2 2 1a902 902 0 0 1-9 3l-2.543.867c-4.042 1.316-7.57 2.306-11.844 2.196-3.448-.06-4.695.024-7.425 1.937C159 57 159 57 156 57q1.432-1.724 2.875-3.437l1.617-1.934C162 50 162 50 164 49c-3.29-.502-3.29-.502-7 0-2.086 1.8-3.38 3.731-5 6-2.709 1.354-5.01 1.065-8 1l-1-2 2.75-.187c4.022-1.006 5.012-2.414 7.25-5.813l1-2 3.395.254 4.417.309 2.237.17c3.319.225 5.763.33 8.951-.733 3.457-.259 6.909-.443 10.371-.605 3.617.134 3.617.134 6.629-1.395"/><path fill="#414243" d="m93 14 3 1a764 764 0 0 1-.437 4.375l-.247 2.46C95 24 95 24 94 26h-4l-1 3c1.048.09 1.048.09 2.117.184l2.758.253 2.742.247C99 30 99 30 101 31v6h-7l-1-3a70 70 0 0 0-4-1l-1-2c-2.025-.652-2.025-.652-4-1v3h4l1 4h-2v-2h-4v-3h-2v2l-2-1c1.584-3.167 2.453-4.733 5.688-6.312L87 26l-1-4 3-1q.53-1.992 1-4c1.563-1.75 1.563-1.75 3-3"/><path fill="#0C0E10" d="m205 49 1 5-3 1v4l4 1-13 1 1 3h-6l2 4h-3l1 7h-3l-1-3h-2l-1 4-1-3-3-1 1.438-1.312c1.799-1.711 1.799-1.711 2.562-4.688 1.582-1.167 1.582-1.167 3.598-2.262l2.177-1.2c.755-.405 1.51-.81 2.287-1.225l2.3-1.26A883 883 0 0 1 198 57v-1l-6-2c3.175-4.11 8.011-5 13-5"/><path fill="#949697" d="M41 86v6l-1.937.875c-2.215.953-2.215.953-3.063 3.125h2l-.687 2.813c-.591 3.051-.591 3.051.624 5 3.23 1.858 6.367 1.884 10.063 2.187l1-2a530 530 0 0 1 5-1l2-2c-.543 3.801-2.073 5.575-5 8-3.67 1.572-8.09 1.69-12 1-3.023-1.742-5.417-3.834-7-7a95 95 0 0 1-.062-5.125l.027-2.758L32 93h2l.188-1.812C35.215 88.422 37.82 86 41 86"/><path fill="#151719" d="m117 115 1 2 2.5 1c2.5 1 2.5 1 3.5 3l-1 2 17 1v1h-39l2-3h3l1-3h7v-2h-12v-1q2.343-.254 4.688-.5l2.636-.281c2.573-.21 5.096-.256 7.676-.219"/><path fill="#4C4E4F" d="M186 92q3.012.43 6 1l2 9h-2l-.687 1.875c-1.768 2.862-3.083 3.264-6.313 4.125a97 97 0 0 1-7 0v-2l-7-2v-1l8-2v-3h6v2h5c-1.522-2.629-2.844-4.844-5-7z"/><path fill="#131518" d="M81 58v3c-2.5 2.188-2.5 2.188-5 4l1 5 6 2v1l-9 2c2.21 4.088 4.833 6.988 8.188 10.188A130 130 0 0 1 87 90v2l-4 1-4-6a991 991 0 0 0-5-6.5c-2.419-3.117-4.81-6.215-7-9.5 2.03-6.089 8.754-9.674 14-13"/><path fill="#E3E1E1" d="M206 47v2q-3.28.977-6.562 1.938l-3.692 1.09c-3.585.93-7.079 1.486-10.746 1.972-2.787.848-5.505 1.816-8.234 2.832l-2.391.855-2.227.825c-2.42.55-3.821.272-6.148-.512l2.3-1.242 3.012-1.633 2.989-1.617c2.795-1.515 2.795-1.515 5.699-3.508 9.072-3.869 16.243-6.185 26-3"/><path fill="#2D3133" d="m135 85-1 2-1.82-.016q-4.059-.029-8.118-.046l-2.865-.026-2.724-.01-2.524-.016c-1.954-.102-1.954-.102-2.949 1.114-3.265.246-6.53.384-9.8.523-3.422.51-4.55 1.419-7.2 3.477-3.75-.812-3.75-.812-7-2 12.895-8.596 31.634-10.13 46-5"/><path fill="#7C8084" d="M194 82c.654 2.079.654 2.079 1 4q-6.14.288-12.28.537-2.09.087-4.179.187c-2 .094-4.001.173-6.002.253l-3.65.158C166 87 166 87 164 85c4.484-4.567 8.372-4.707 14.438-4.875l2.525-.14c4.7-.194 8.746-.175 13.037 2.015"/><path fill="#050708" d="m112.75 101.875 3.547.055L119 102l1 2h-10c1.897.09 1.897.09 3.832.184l4.98.254 2.526.119 2.432.127 2.237.11C128 105 128 105 131 106v-2l-2-1h4l1 2 3 1-1 4-3.816-.469c-6.314-.702-12.638-.903-18.983-1.136l-2.728-.114-2.461-.092C106 108 106 108 104 107v-2l-2-1c3.595-2.26 6.566-2.209 10.75-2.125"/><path fill="#1B1D1F" d="M202.063 66.938 205 67v3l2 1 1-4c3.273 3.097 5.975 5.95 8 10v3l3-1-.125 2.25c.129 2.838.696 4.338 2.125 6.75-4.608-1.49-7.395-3.876-11-7l-2-1-.312-1.875c-.518-2.396-.518-2.396-3.188-3.625-2.5-1.5-2.5-1.5-3.125-3.625L201 69l-3-1c1-1 1-1 4.063-1.062"/><path fill="#EDEFEF" d="m178 53-10 5c6.099-1.621 12.097-3.288 18.027-5.45C188 52 188 52 192 52c1.75 2 1.75 2 3 4h-5l-1 2-2-1v-2l-2.012 1.367c-3.488 1.906-6.964 2.856-10.8 3.758l-2.042.512c-4.7 1.142-9.31 2.106-14.146 2.363-2-1.437-2-1.437-3-3l1.617-.48c5.396-1.69 10.188-3.865 15.121-6.63C174 52 174 52 178 53"/><path fill="#ECEEEE" d="M76 40v4a1968 1968 0 0 1-7.812 3l-2.237.867-2.158.82-1.984.762C60 50 60 50 57 50l3-4c-4.195.6-8.01 1.575-12 3 7.434-8.92 16.957-9.623 28-9"/><path fill="#292B2C" d="M58 74c5.406 4.217 10.347 8.535 13 15 .47 4.386.366 8.61 0 13h-1v-5h-2a157 157 0 0 1-3-5l-2.125-2.375C60.58 86.412 60.305 83.891 60 80h-4z"/><path fill="#F9F9FB" d="M76 53a3044 3044 0 0 1-5.375 4.438l-3.023 2.496c-4.3 3.415-7.9 3.365-13.227 3.629l-2.43.13Q48.973 63.852 46 64c5.239-5.706 13.257-7.511 20.438-9.812l2.153-.701C73.759 51.88 73.759 51.88 76 53"/><path fill="#1B1E20" d="m74 18 2 4a134 134 0 0 1-3 6c-.623 4.257.603 6.504 3 10h-8l-.375-1.812c-.58-2.45-.58-2.45-2.625-5.188l-4 1c0-3.932 1.394-5.164 4-8h2l1 2z"/><path fill="#101214" d="m113 59 2 1-1.531 1.68-1.969 2.195-1.969 2.18c-1.737 1.794-1.737 1.794-1.531 3.945 12.82.695 12.82.695 24.922-3.027 2.337-1.094 4.54-1.552 7.078-1.973-7.058 7.885-18.086 8.94-28 10l-3.797.672L105 76l-2-2 1-2 .309-2.355c.867-3.318 2.27-4.631 4.754-6.957l2.222-2.114z"/><path fill="#060709" d="M38 92h2v2l5-1-1 7 1.813.375C48 101 48 101 51 103v2c-3.707 1.236-7.147 1.558-11 1-2.5-1.687-2.5-1.687-4-4-.25-2.687-.25-2.687 0-5v-1q.974-2.012 2-4"/><path fill="#5B5E62" d="M158.945 47.805 165 48l-2.25 2.188c-2.757 2.697-2.757 2.697-4.812 5.562C156 58 156 58 154 58.875c-2 .125-2 .125-3.882-.416-3.569-.773-6.919.537-10.368 1.478l-2.258.592Q134.743 61.254 132 62l1-4h6l1-3 2.012.176c5.948.373 5.948.373 10.988-2.551L155 50c2-2 2-2 3.945-2.195"/><path fill="#3A3A33" d="M52 70v2l3 1c-.875 4.75-.875 4.75-2 7l7-1c.563 1.938.563 1.938 1 4-1 1-1 1-4.562 1.063L53 84l-.937 2.875C51 90 51 90 50 92h-2l.063-2.812c.095-3.21.095-3.21-1.063-6.188.938-2.187.938-2.187 2-4h2v-3l2-1-1.875-.875C49 73 49 73 47 71c3-1 3-1 5-1"/><path fill="#313539" d="m140 60 2 6-2.5-.25c-3.944.282-6.259 1.401-9.668 3.277-3.018 1.603-5.486 2.096-8.844 2.07l-2.295-.01c-.785-.007-1.571-.016-2.38-.025l-2.417-.013Q110.95 71.029 108 71v-1l2.027-.156c7.919-.936 14.235-3.541 21.272-7.1C136.742 60 136.742 60 140 60"/><path fill="#DDE0E3" d="m152 91 23 2c-4 2-4 2-7.187 2.938L165 97l-1 3c-2.312 1.313-2.312 1.313-5 2-2.312-.875-2.312-.875-4-2l1-1h-2z"/><path fill="#121516" d="m201 92 5 1c.25 5.625.25 5.625-2 9a439 439 0 0 0-1.687 3.875c-2.16 4.407-5.034 6.812-9.313 9.125-2.948.983-4.927 1.134-8 1.125l-2.625.008C180 116 180 116 177 115l-1-3 2.633.324c8.593 1.022 8.593 1.022 16.367-2.324h2v-2l-2-1 1.875-.187c2.291-.632 2.291-.632 3.375-2.813 1.009-4.036.912-7.863.75-12"/><path fill="#313131" d="m36.688 118.75 2.142.55c1.747.49 3.463 1.087 5.17 1.7l1 2c-3.896.058-7.791.094-11.687.125l-3.342.05-3.233.02-2.967.032c-2.942-.241-5.103-.996-7.771-2.227v-2c7.363-2.064 13.361-2.133 20.688-.25"/><path fill="#2F3337" d="m155 90-3 1 2 3c.125 2.688.125 2.688 0 5l7-1-3 2 1 2h-7v-2l-2.312.688C147 101 147 101 145.125 99.875 144 98 144 98 144.125 95.5c2.074-5.925 4.867-5.84 10.875-5.5"/><path fill="#050708" d="M59 84h2l-.098 6.055C60.874 92.082 60.874 92.082 62 94c.356 7.467.356 7.467-2 11l-1-2h-3v-2l-1.812.625C52 102 52 102 49 100a491 491 0 0 1 4.375-.562l2.46-.317C58 99 58 99 60 100v-2h-4c-1.837-3.782-2.158-5.946-1-10l3-1z"/><path fill="#05070A" d="M183 72h2l1.375 1.438C188.23 75.22 189.501 75.569 192 76l-3 2 1 2h-22v-3c5.75-3 5.75-3 8-3v2l6-1z"/><path fill="#454749" d="M61 108v3c-6.195 5.907-11.412 7.524-19.98 7.387-4.458-.571-7.803-2.252-11.02-5.387-1.21-2.172-1.21-2.172-2-4l6 4 2-1c2.34.458 4.607 1.092 6.906 1.723L45 114l2-2c3 1 3 1 5 3 4.83-3.1 4.83-3.1 9-7"/><path fill="#3B3F42" d="M126 92c-3.84 2.56-6.754 3.158-11.262 3.535l-3.142.264-3.284.263-3.224.276c-5.718.47-11.351.766-17.088.662v-2c12.75-1.989 25.08-3.5 38-3"/><path fill="#121516" d="M135 100v2l2 2h-3l-1 2v-3l-2 1v2l-21-1-1-2h10l1-2c5.335-2.65 9.445-3.706 15-1"/><path fill="#D6D8D9" d="M74 75c7.365 1.552 14.715 3.106 22 5v2l-7 2v-2l-2.875-.437C83 81 83 81 81 80l6 4c-1.75.688-1.75.688-4 1-1.937-1.187-1.937-1.187-4-3l-2.75-2L74 78z"/><path fill="#0A0C0D" d="M182 67c-1.059 3.323-2.131 4.079-5.187 5.922q-1.897.932-3.813 1.828l-1.945.957C166.31 78 166.31 78 164 78v4l-9-1v-2l-6-1v-1l1.844.281C160.65 78.09 167.717 73.607 176 69c3.733-2 3.733-2 6-2"/><path fill="#B3B5B5" d="M77 6h4c-3.35 10.821-3.35 10.821-6.75 13.25-3.058 1.02-6.138 1.912-9.25 2.75l1.023-1.61 1.352-2.14 1.336-2.11c1.327-2.103 1.327-2.103 2.266-4.343C72 10 72 10 75 9z"/><path fill="#303233" d="m47 85 2 1c.178 4.548-.002 7.88-2 12l7 1v-3h2v2l4 1a85 85 0 0 1-7 2h2l-1 3c-3.375-.547-5.082-1.055-8-3l-3-1c1.927-10.558 1.927-10.558 4-15"/><path fill="#8B8D8F" d="M165 92h12l1 2-9 3 9 2v2l-3.14.184-4.11.254-2.066.119c-3.328.21-6.487.462-9.684 1.443 1.634-1.708 2.87-2.935 5-4l-2-2 9-3-6-1z"/><path fill="#212324" d="M149.043 77.242 155 79v2a259 259 0 0 1-5 3 180 180 0 0 0-3.062 2.75L144 89c-2.184-.36-2.184-.36-4-1q.892-2.193 1.813-4.375l1.019-2.46c1.503-2.786 2.9-4.315 6.211-3.923"/><path fill="#1C1E20" d="m36.125 78.813 2.695.019C41 79 41 79 42 80c.04 1.666.043 3.334 0 5a519 519 0 0 1-4.312 2.5l-2.426 1.406C33 90 33 90 30 90c1.443-3.366 3.333-5.51 6-8l-2.312.625C31 83 31 83 28 81c3.283-2.188 4.318-2.249 8.125-2.187"/><path fill="#EFF1F3" d="m50 76 1 3-2 1c-1.026 3.042-1.862 6.118-2.707 9.215C45 92 45 92 40 94l2-14c5-2 5-2 8-2z"/><path fill="#252728" d="m207.625 117.438 3.602.308L214 118v2l3 1c-4.41 2.21-8.49 2.237-13.312 2.125l-2.245-.027c-1.814-.024-3.629-.06-5.443-.098v-1l5-1-2-3c2.944-1.472 5.374-.85 8.625-.562"/><path fill="#313336" d="m91 71 3 2c2.801.205 4.475.263 7-1 3 2 3 2 5 5-8.272 2.286-14.497.973-22-3 2.49-1.245 3.41-.777 6 0z"/><path fill="#24282C" d="M190 80c4.75.75 4.75.75 7 3l-1 3 3 1-1 2-3-1-1 5-2-2h2l-2-3c-2.127-.415-2.127-.415-4.57-.293l-2.715.03c-.937.024-1.874.05-2.84.076l-2.863.04q-3.507.054-7.012.147c2-2 2-2 4.155-2.227.87.01 1.738.02 2.634.032l2.852.02 2.984.05 3.008.027q3.683.036 7.367.098c-1.133-3.4-2.125-4.053-5-6"/><path fill="#616365" d="M179 98h6v2h4c-1 3-1 3-3 4.188-3.993 1.08-7.888 1.336-12 .812l-3-2 8-2z"/><path fill="#282C2F" d="M81 58v3c-2.5 2.188-2.5 2.188-5 4l1 5 6 2v1c-1.6.276-3.205.52-4.812.75l-2.708.422C73 74 73 74 71.113 72.266 70 70 70 70 70.102 67.946c1.08-2.341 2.271-3.458 4.273-5.071l1.836-1.508C77.76 60.182 79.376 59.082 81 58"/><path fill="#515559" d="m177.813 80.75 2.388.055c1.934.047 3.866.118 5.799.195-2.855 1.903-4.42 2.462-7.687 3.125l-2.45.508L174 85v2c-6.055.195-6.055.195-8 0l-2-2c4.44-4.521 7.849-4.51 13.813-4.25"/><path fill="#868889" d="m55 101 1 3c-3.705 4.013-5.58 5.795-10.957 6.117-2.014.065-4.03-.02-6.043-.117l-2-2c3.634-2.326 6.77-2.163 11-2l1-2 5-1z"/><path fill="#3D3E40" d="M213 61c1 2 1 2 1 4l-2 2-1-2 1-2c-2.917-.167-2.917-.167-6 0l-2 2c-2.729-.033-5.297-.564-8-1v-4c12.268-1.615 12.268-1.615 17 1"/><path fill="#393D3F" d="m33 81 3 1-1.574.96C28.395 86.997 25.734 91.349 23 98h-1c.343-9.804.343-9.804 2.75-14.187C27 82 27 82 29.688 81.75L32 82z"/><path fill="#191D20" d="m107 119 4 1 2.188.438L115 121l1 2h4v2h-19l2-3h3z"/><path fill="#07090A" d="M192 102h2v2h2l-1 3 2 1v2c-3.72 2.845-6.374 3.323-11 3 .445-5.044 2.61-7.444 6-11m0 5v2l2-1zm-4 2-1 2h2z"/><path fill="#0E1012" d="M66 31c1.563 1.813 1.563 1.813 3 4l-1 3c5.745-.497 5.745-.497 10-4h3v-2h2l1 6-4-1v3l-16-1 1-2h2v-2h-2z"/><path fill="#1D1F23" d="m99 119 1 6H90v-3l-4-1c3.977-3.977 7.713-2.915 13-2"/><path fill="#24272A" d="M165 79a70 70 0 0 1 8.25-.25l2.277.016c4.253.059 8.287.408 12.473 1.234v1l-1.68.044a831 831 0 0 0-7.57.269l-2.645.068c-6.158.173-6.158.173-11.105 3.619l6 2v1c-6.75.125-6.75.125-9-1 .547-3.375 1.055-5.082 3-8"/><path fill="#949697" d="m195 60-28 15-2-2a1928 1928 0 0 1 11.37-6.036q1.937-1.024 3.868-2.058a756 756 0 0 1 5.563-2.941l3.38-1.793C192 59 192 59 195 60"/><path fill="#D0D2D4" d="M57 47c-1.408 3.215-3.103 5.322-5.625 7.75l-1.914 1.86L48 58l-2-3 4-2c-2.928.976-4.614 2.108-7 4l-2-1c.75-2.437.75-2.437 2-5 1.82-.562 1.82-.562 4-1 2.08-.758 4.136-1.567 6.195-2.379C55 47 55 47 57 47"/><path fill="#282B2D" d="M87 55c2 3 2 3 1.5 6.438C88 65 88.036 66.112 90 69h-2l-1 2-1.875-2.375C83.101 66.032 83.101 66.032 81 64z"/><path fill="#212427" d="M172 52c-5.551 5.962-10.056 7.498-18 8v-2l2.063-.75c2.348-1 4.234-2.033 6.375-3.375 3.272-1.938 5.726-2.25 9.562-1.875"/><path fill="#1D1F21" d="M120.971 114.773c.786.01 1.571.02 2.38.032l2.579.02 2.695.05 2.719.027q3.328.036 6.656.098l1 2-3.438.437c-3.37.175-3.37.175-4.562 1.563-5.018.446-9.446.35-14-2 2-2 2-2 3.971-2.227"/><path fill="#5B5D62" d="M114 82c14.781.779 14.781.779 21 3l-1 2c-7.08.409-13.2-1.096-20-3z"/><path fill="#D9DCDE" d="m101 84-1 3c-2.363.984-2.363.984-5.312 1.75l-2.926.797c-2.7.443-4.215.348-6.762-.547l1-3c2.363-.984 2.363-.984 5.313-1.75l2.925-.797c2.7-.443 4.215-.348 6.762.547"/><path fill="#242628" d="m214 67 .313 2.188c.555 2.902.555 2.902 2.312 5.437L218 77l-1 3c-2.023-3.034-3.904-6.132-5.781-9.258-1.116-1.889-1.116-1.889-3.219-2.742v5a858 858 0 0 1-3.5-2.937l-1.969-1.653L201 67v-1c4.845-1.514 8.26-.366 13 1"/><path fill="#E6E8EA" d="M181.313 92.625c4.23.43 5.798 1.311 8.687 4.375v3h-5l-1-2c-1.883-.903-1.883-.903-4.062-1.625-.734-.26-1.467-.52-2.223-.79-.566-.192-1.132-.386-1.715-.585 2-2 2-2 5.313-2.375"/><path fill="#C2C4C4" d="m84 44 4 2-4 9-5-1c.615-3.995 2.706-6.745 5-10"/><path fill="#A0A2A3" d="M48 65c5.667 1.318 7.664 3.487 11 8-1.312 2.938-1.312 2.938-3 6l-3 1 1-8-7-5z"/><path fill="#4C5154" d="m124.688 96.938 3.011.027L130 97c-2.995 3.131-4.181 3.978-8.695 4.098a659 659 0 0 1-4.43-.035l-2.285-.014q-2.795-.02-5.59-.049c5.21-2.695 9.811-4.132 15.688-4.062"/><path fill="#DFE1E3" d="m78 92 1 4 20 1v1c-3.436.393-6.874.762-10.312 1.125l-2.96.34-2.841.293-2.619.285C78 100 78 100 75 98z"/><path fill="#EFF1F3" d="m78 78 2.125.875C83.055 80.021 86.009 81.026 89 82v2l6-2 2 2q-2.654.757-5.312 1.5l-2.989.844C86 87 86 87 83 87c-2.187-2-2.187-2-4-4l1-2 3 3 1-1-3-1.937L78 79z"/><path fill="#040608" d="M158 82v2h-2v4c-3.825 2.39-7.597 2.56-12 3 8.757-9 8.757-9 14-9"/><path fill="#8C8D8F" d="M50 51v3l-3 2c-.724 2.06-.724 2.06-1 4l-1.812.313c-2.47.776-3.51 1.758-5.188 3.687-.364-5.463-.364-5.463 1.188-7.75C42.353 54.756 44.54 53.922 47 53z"/><path fill="#6C2A2E" d="m205 49 1 5c-2.995.872-5.636 1.108-8.75 1.063l-2.422-.028L193 55v-3a665 665 0 0 1 4.313-1.5l2.425-.844C202 49 202 49 205 49"/><path fill="#101113" d="M59 103c1.125 3.75 1.125 3.75 0 6h-2v2c-2.812 1.563-2.812 1.563-6 3l-3-1h2l-3-4 6 1v-3c1.375-1.687 1.375-1.687 3-3h2z"/><path fill="#03060A" d="m84 57 1 2c-1.363 2.59-2.9 4.871-4.687 7.188C78.804 67.897 78.804 67.897 79 70l2 2c-1.875-.312-1.875-.312-4-1-2-3-2-3-1.879-4.953 1.15-2.68 2.702-3.948 4.942-5.797l2.222-1.86z"/><path fill="#C3C5C7" d="M93 99c-7.576 2.63-15.046 4.807-23 6l1-5 3-1v2l3.938-.437 2.214-.247c1.86-.135 1.86-.135 2.848-1.316 7.59-1.205 7.59-1.205 10 0"/><path fill="#1F2122" d="m38.188 119.313 3.23.8C44 121 44 121 45 123c-2.27.054-4.542.093-6.812.125l-3.833.07C31 123 31 123 28 121v-2c3.725-1.344 6.41-.658 10.188.313"/><path fill="#585A5E" d="m200 109 2 1a496 496 0 0 1-3.312 2.938l-1.864 1.652c-5.118 3.956-12.717 2.949-18.824 2.41-2.641-1.048-3.911-2.034-6-4 3 0 3 0 5.063 1 5.934 2.02 11.78 1.887 17.437-.875 2.239-1.239 3.67-2.295 5.5-4.125"/><path fill="#242626" d="M134 104h9v2h2v2l3 1c-4.517 1.369-7.588.47-12-1v-2z"/><path fill="#15181A" d="m154 46 12 1v1l-1.793.008c-4.776.148-4.776.148-8.848 2.36-1.186 1.493-2.278 3.06-3.359 4.632-2.709 1.354-5.01 1.065-8 1l-1-2 2.75-.187c4.022-1.006 5.012-2.414 7.25-5.813z"/><path fill="#080A0D" d="M202.063 66.938 205 67v3c1.763 2.348 1.763 2.348 4 4.688l2.25 2.449L213 79l-2 2-3-1-.375-1.875c-.446-2.401-.446-2.401-3.125-3.625-2.5-1.5-2.5-1.5-3.125-3.625L201 69l-3-1c1-1 1-1 4.063-1.062"/><path fill="#3A3B3C" d="M53 52c0 3 0 3-1.531 4.754L49.5 58.563A71 71 0 0 0 46 62v2l2 2-5 1v-2l-3-1 1-6 1 3c4.49-2.378 7.522-5.36 11-9"/><path fill="#D8D9DA" d="m69 58 3 1c-3 3.665-5.469 5.83-10.29 6.363a157 157 0 0 1-6.917-.25c-2.749-.336-2.749-.336-4.793.887-2.125-.937-2.125-.937-4-2 3.468-1.04 6.768-1.165 10.375-1.312C61.967 62.318 64.679 61.41 69 58"/><path fill="#1B1D1E" d="M53 84c3.125-.187 3.125-.187 6 0l-1 5-3-1v8c-2-1-2-1-2.703-2.742l-.547-2.133-.578-2.117C51 87 51 87 53 84"/><path fill="#181C1F" d="m140 86-1 2h-2v2c-3.371 1.498-5.204 2-9 2v-5c4.064-.774 7.864-1.098 12-1"/><path fill="#222426" d="M64 99h1c.164 4.58.066 6.853-3.117 10.277-4.18 3.43-7.414 6.025-12.883 6.723l2-1v-2l6-2v-2h2l2-4 1 1z"/><path fill="#0F1110" d="m71.858 104.978 2.396.143 2.588.147 2.72.17 2.733.158q3.353.195 6.705.404l-2 1v2H73v-2l-4-1c1-1 1-1 2.858-1.022"/><path fill="#252829" d="m151 101 18 2v1l-8 1 1 3h-4v-2l-3-1v-1l-5-1z"/><path fill="#1E1F21" d="m184 67 3 1c1.188 3.563 1.188 3.563 2 7h-3l-1-3h-2l-1 4-1-3-3-1 2.438-1.375c2.65-1.372 2.65-1.372 3.562-3.625"/><path fill="#060709" d="M207 67c5.032 2.376 6.622 5.155 9 10v2c-2.622-1.049-3.794-1.65-5.25-4.125L210 73h-2z"/><path fill="#1B1F21" d="M27 99h1l.516 1.793C30 105.637 31.469 109.225 35 113c-3.597 0-4.349-.68-7-3-1.812-2-1.812-2-3-4l1-3c.342-1.331.678-2.664 1-4"/><path fill="#0E1115" d="M209 95h1c.054 1.604.093 3.208.125 4.813l.07 2.707C210 105 210 105 208 108h-3c-1.208-3.623-.543-4.641 1-8h2z"/><path fill="#292C2F" d="M119 96v2l-2 2h-4l6 1v1h-14l-1-2q3.187-1.004 6.375-2l3.586-1.125C117 96 117 96 119 96"/><path fill="#26282D" d="m176 112 2.668.254 3.52.308 3.48.317c3.018.11 5.421-.139 8.332-.879l-1 3c-2.948.983-4.927 1.134-8 1.125l-2.625.008C180 116 180 116 177 115z"/><path fill="#9C9E9E" d="M91 103v2c-3.61 1.135-6.984 1.1-10.75 1.063l-3.547-.028L74 106l1.938-.937c1.998-.898 1.998-.898 3.062-2.063 1.638-.26 3.287-.46 4.938-.625.895-.095 1.791-.19 2.714-.29C89 102 89 102 91 103"/><path fill="#E0E2E3" d="M158 93h17c-5.564 2.782-10.817 4.932-17 3z"/><path fill="#404447" d="M151.75 89.688 155 90l-2.187 1.688c-2.788 2.291-5.3 4.727-7.813 7.312-.75-1.687-.75-1.687-1-4 2.188-4.011 3.12-4.927 7.75-5.312"/><path fill="#121315" d="M41 83v3a418 418 0 0 1-3.812 2l-2.145 1.125C33 90 33 90 30 90c2.235-5.402 5.12-7.49 11-7"/><path fill="#1C1D1E" d="m88 44 4 2v6l-2 1c-1.134 2.017-1.134 2.017-2 4l-.437-2.875C87.17 51.107 87.17 51.107 86 49c.938-2.625.938-2.625 2-5"/><path fill="#5C6064" d="M188 80c2.938.75 2.938.75 6 2l1 4h-20v-1l16-1-3-2z"/><path fill="#030407" d="M76 61a244 244 0 0 1-2.75 3.438l-1.547 1.933C69.803 68.188 68.564 68.604 66 69l-1-3c6.143-5.714 6.143-5.714 11-5"/><path fill="#2F2F32" d="M87.836 120.695c2.732.385 4.263 1.321 6.164 3.305-3.793.936-6.937.983-10.812.563l-2.958-.31L78 124c3-3.623 5.356-3.436 9.836-3.305"/><path fill="#F9FAFA" d="M76 42v2a1968 1968 0 0 1-7.812 3l-2.237.867-2.158.82-1.984.762C60 50 60 50 57 50c4.578-4.578 12.438-8 19-8"/><path fill="#2C2E32" d="M71 31c2.526 2.363 3.888 3.665 5 7h-8c-.187-2.375-.187-2.375 0-5z"/><path fill="#9A9C9B" d="M75 9c0 4.493-2.238 7.544-5 11-2.812 1.5-2.812 1.5-5 2l1.023-1.61 1.352-2.14 1.336-2.11c1.327-2.103 1.327-2.103 2.266-4.343C72 10 72 10 75 9"/><path fill="#010206" d="M136 95h1l2 7h2v2l-7-1 1-3-5-1 3-3 1 2z"/><path fill="#A6A8A9" d="M41 86v6h-5l-1 5h-2c.324-3.56.61-5.535 2.938-8.312C39.222 86 39.222 86 41 86"/><path fill="#817A66" d="M52 79h8l1 4-4 1-1-2-4 1z"/><path fill="#0C0E0E" d="M58 74q1.724 1.432 3.438 2.875l1.933 1.617C65 80 65 80 66 82l-4 1-2-3h-4z"/><path fill="#1B1D1F" d="m113 59 2 1-1.531 1.645-1.969 2.167-1.969 2.145c-1.83 2.018-1.83 2.018-1.531 5.043h-2l-1 2c-.777-2.2-.777-2.2-1-5 1.871-2.457 1.871-2.457 4.438-4.812l2.558-2.395z"/><path fill="#2F191A" d="M195 54h7l1 5 4 1h-10l-1-2 2-2z"/><path fill="#E2E4E5" d="m41 85 2 2c2.108-.319 2.108-.319 4-1-1.25 3.438-1.25 3.438-3 7l-4 1z"/><path fill="#666A6D" d="M173.012 80.61q2.339.04 4.676.14l2.416.055c1.966.047 3.93.119 5.896.195-3.019 1.718-5.422 2.31-8.875 2.563-3.753.31-7.418.754-11.125 1.437 1.722-3.571 3.222-4.285 7.012-4.39"/><path fill="#0D0F11" d="m185 74 7 1-3 3 1 2-3.812.125-2.145.07C182 80 182 80 179 78l6-2z"/><path fill="#C3C3C3" d="m33 73 6 1-1 3h-4l4 2c-6.625 1-6.625 1-10 1v-2a210 210 0 0 1 5-4z"/><path fill="#181B1D" d="M164 106c1.458-.054 2.916-.093 4.375-.125l2.46-.07C173 106 173 106 175 108l-4 1 2.438.813L176 111l1 3c-3.375-.687-3.375-.687-7-2-1.187-2.562-1.187-2.562-2-5-2.012-.69-2.012-.69-4-1"/><path fill="#C0C2C4" d="M151 83a181 181 0 0 1-3.25 3.063l-1.828 1.722C144 89 144 89 141.766 88.684L140 88c6.17-6.61 6.17-6.61 11-5"/><path fill="#9D9E9F" d="M39 71c5.99-.315 9.636.318 15 3l-2 2c-2.729-.033-5.297-.564-8-1v-2h-5z"/><path fill="#18181C" d="M140 66a785 785 0 0 1-6.812 3.563L131.24 70.6c-1.71.877-3.473 1.645-5.24 2.4l-3-1a162 162 0 0 1 9.063-5.25l1.972-1.078c2.379-.814 3.625-.485 5.965.328"/><path fill="#626467" d="m65 30 1 2-1 3c-2.066.95-2.066.95-4.562 1.688-.827.25-1.653.502-2.504.761L56 38c2.378-4.845 2.378-4.845 4-7 2.75-.937 2.75-.937 5-1"/><path fill="#191A1E" d="M200 119c1.813 1.5 1.813 1.5 3 3l-3.25.438c-2.667.4-5.164.838-7.75 1.562l-1-3c3.114-1.845 5.383-2.464 9-2"/><path fill="#B9BCBD" d="m96 96 18 1c-3.445 2.296-5.938 2.54-10 3v-2l-8-1z"/><path fill="#1B1E21" d="M22 89c.857 3.08 1.27 6.068 1.563 9.25l.253 2.703L24 103l-4-1c-.193-4.824.243-8.496 2-13"/><path fill="#040506" d="M36.188 82.375 38 83l-1.496 1.023-1.941 1.352c-.639.44-1.277.882-1.934 1.336C30.863 87.92 30.863 87.92 30 90h-2l-1 3-1-3c6.115-8.323 6.115-8.323 10.188-7.625"/><path fill="#313437" d="m196 60 10 1-1 4-9-1z"/><path fill="#5A5E60" d="m139 55 1 2h6c-3.015 2.01-5.215 2.726-8.687 3.625-.994.26-1.988.52-3.012.79-.76.192-1.519.386-2.301.585l1-4h6z"/><path fill="#FAFBFC" d="m69.625 39.938 3.602.027L76 40v1q-3.155.755-6.312 1.5l-3.551.844C63 44 63 44 60 44l1-3c2.884-1.442 5.417-1.094 8.625-1.062"/><path fill="#1A1D20" d="M190 80c4.75.75 4.75.75 7 3l-1 3 3 1-1 2-3-1-1 5-2-2h2l-1-3c.438-2.687.438-2.687 1-5z"/><path fill="#323335" d="M193 49v2a902 902 0 0 1-6.375 2.063l-3.586 1.16C180 55 180 55 178 54q2.155-.972 4.313-1.937l2.425-1.09C187.664 49.714 189.788 49 193 49"/><path fill="#5C5E61" d="M184 47c-3.265 3.265-7.41 3.932-11.937 4.125L170 51c4.607-3.754 8.084-5.69 14-4"/><path fill="#2F3033" d="M66 121c2.383.023 2.383.023 5.125.375l2.758.336L76 122v2c-1.623.222-3.249.427-4.875.625l-2.742.352L66 125l-2-2z"/><path fill="#222526" d="m47 85 2 1c.25 6.625.25 6.625-2 10h-2c-.955-2.17-1.144-3.563-.398-5.824.757-1.744 1.574-3.462 2.398-5.176"/><path fill="#121416" d="M143 80c0 3.204-.743 5.094-2 8l-1-2-5 1v-2c1.75-1.29 1.75-1.29 4-2.625l2.25-1.352z"/><path fill="#030506" d="M149 77q2.938.212 5.875.438l3.305.246C161 78 161 78 163 79l-1 3-7-1v-2l-6-1z"/><path fill="#DEE0E1" d="m152 67 2 1-4 2zm-1 4-2 3c-1.945.293-1.945.293-4.125.188L141 74c3.156-3.156 5.69-4.437 10-3"/><path fill="#ABADAD" d="M179 55c-2.737 2.737-5.26 3.162-9 4-2.227-.45-2.227-.45-4-1 8.262-4.777 8.262-4.777 13-3"/><path fill="#141518" d="M56 121q1.532 1.468 3 3c-1.416.054-2.833.093-4.25.125l-2.39.07c-2.567-.212-4.152-.908-6.36-2.195 6.569-2.538 6.569-2.538 10-1"/><path fill="#272727" d="M24 119v4l-7-1-1-3c3.29-1.097 4.713-.8 8 0"/><path fill="#323638" d="M80 85c2.867 1.285 4.976 2.571 7 5v2l-4 1a56.5 56.5 0 0 1-4-7z"/><path fill="#292C31" d="m118.25 83.875 2.703.617L123 85v1c-.888.09-.888.09-1.793.184-4.117.436-8.162.903-12.207 1.816v-3c3.422-2.159 5.364-2.045 9.25-1.125"/><path fill="#101214" d="m169 73 3 2c-5.75 3-5.75 3-8 3l-1 4v-3l-3-1c2.914-1.943 5.858-3.464 9-5"/><path fill="#202124" d="m74 56 1 3-10 8c0-3 0-3 1.969-5.043l2.531-2.145 2.531-2.167z"/><path fill="#202224" d="M38 92h2v2l3-1v4h-2l-1 2v-3h-4z"/><path fill="#090B0C" d="M68 86c1.488 1.082 1.488 1.082 3 3 .293 3.137.293 3.137.188 6.688l-.083 3.574L71 102h-1q-.507-2.593-1-5.187l-.562-2.918C68.03 91.207 67.92 88.712 68 86"/><path fill="#32353A" d="m197 77 1 3-3.875.188-2.18.105L190 80l-2-3c3.069-1.534 5.7-.55 9 0"/><path fill="#141719" d="M167 56c-3.745 3.745-7.983 3.69-13 4v-2q2.684-.793 5.375-1.562l3.023-.88C165 55 165 55 167 56"/><path fill="#1C1E21" d="M196 106h4c-.35 3.242-.562 4.615-3.062 6.813L195 114l-2-1 2-3h2v-2l-2-1z"/><path fill="#202223" d="M36 97h3v6h3l1 3c-2.375-.312-2.375-.312-5-1-2.152-3.228-2.2-4.284-2-8"/><path fill="#4B4E50" d="M104 94v1h-8v2h-8v-2c5.361-1.129 10.553-1.097 16-1"/><path fill="#6F7173" d="M62 84h2q1.044 1.931 2.063 3.875l1.16 2.18L68 92l-1 2a231 231 0 0 1-3.062-3.312l-1.723-1.864L61 87z"/><path fill="#D4D6D8" d="m101 84-1 3c-2.875.625-2.875.625-6 1l-2-2c1-2 1-2 2.813-2.687 2.375-.34 3.92-.042 6.187.687"/><path fill="#323539" d="M84 63c2.622 1.049 3.794 1.65 5.25 4.125L90 69h-2l-1 2c-1.5-1.187-1.5-1.187-3-3-.187-2.687-.187-2.687 0-5"/><path fill="#424449" d="M156 57c-2.568 1.68-3.773 2.025-6.875 1.688L146 58l-6-1v-1c5.835-.853 10.449-1.484 16 1"/><path fill="#AAABAD" d="M81 49c2.063.438 2.063.438 4 1l-1 5-5-1c.875-3.875.875-3.875 2-5"/><path fill="#38383F" d="M62 116c1.937-.054 3.875-.093 5.813-.125l3.269-.07C74 116 74 116 77 118c-1 1-1 1-4.687 1.125-3.521-.038-6.854-.433-10.313-1.125z"/><path fill="#3F4345" d="M114 92h12c-2.9 1.934-3.897 2.301-7.187 2.625L115 95z"/><path fill="#494C4E" d="M36 82a399 399 0 0 1-3.812 3l-2.145 1.688C28 88 28 88 25 88l1-2 .75-2.062C28 82 28 82 30.438 81.188 33 81 33 81 36 82"/><path fill="#B1A069" d="m54 72 5 1c-1.312 2.938-1.312 2.938-3 6l-3 1z"/><path fill="#47494B" d="m64 36 3 1-2 1 1 2-10 3c2.578-2.648 4.916-4.944 8-7"/><path fill="#2A2D2E" d="m59 31 1 3c-1.825 3.073-4.08 4.986-7 7l-2-1z"/><path fill="#DFE2E2" d="m70 19 3 1c-3.75 5.875-3.75 5.875-6 7l1-4-2-1c1.813-1.562 1.813-1.562 4-3"/><path fill="#38393D" d="m209 66-2 1 1 6a858 858 0 0 1-3.5-2.937l-1.969-1.653L201 67v-1c3.287-.8 4.71-1.097 8 0"/><path fill="#111313" d="M153 61a563 563 0 0 1-4.312 2l-2.426 1.125C144 65 144 65 141 65v-2c1.433-.532 2.872-1.05 4.313-1.562l2.425-.88C150 60 150 60 153 61"/><path fill="#EDEEEF" d="m79 49 1 2c-2.22 2.908-3.93 4.953-7 7l-3-1 2.25-1.75A77 77 0 0 0 79 49"/><path fill="#434447" d="m190 44 1 2 2 1c-5.285 1.674-5.285 1.674-8 2-2.5-1.375-2.5-1.375-4-3l6.152-.684c1.86-.135 1.86-.135 2.848-1.316"/><path fill="#131413" d="M101 31v6l-6-1c.313-1.937.313-1.937 1-4 3-1 3-1 5-1"/><path fill="#313538" d="M164 81c2 2 2 2 2 5l5 1v1c-6.75.125-6.75.125-9-1 .875-4.875.875-4.875 2-6"/><path fill="#565A5E" d="M191 79c7.75.75 7.75.75 10 3l-1 3-9-5z"/><path fill="#C8CACB" d="M75 78c3.219.63 5.508 1.78 8.25 3.563l2.14 1.378L87 84c-1.875.574-1.875.574-4 1-3.108-1.845-5.499-4.41-8-7"/><path fill="#B9BBBC" d="m49 51-5 6-3-1c.75-2.437.75-2.437 2-5 2.593-1.134 3.447-1.276 6 0"/><path fill="#D8DADB" d="M187 50c-2.702 1.801-4.93 3.002-8 4l-3-1c1-2 1-2 3.813-3.187 3.047-.777 4.324-.914 7.187.187"/><path fill="#222325" d="m50 42 4 2-5 4-4-2z"/><path fill="#282A2A" d="m161.75 116.438 2.422.308L166 117v1c-4.053.982-7.839 1.082-12 1l-1-2c3.122-.967 5.52-.99 8.75-.562"/><path fill="#383A3C" d="m183 104 6 2c-3.634 2.326-6.77 2.163-11 2v-2h5z"/><path fill="#0D0F10" d="m46 101 5 2v2l-7 1c.875-3.875.875-3.875 2-5"/><path fill="#D7D9DB" d="m78 92 .375 1.938L79 96l2 1v3l-6-1z"/><path fill="#4F5054" d="m113 84-4 1v3c-2.504-.835-4.668-1.794-7-3 7.429-2.429 7.429-2.429 11-1"/><path fill="#111214" d="M217 79h2l-.125 2.25c.129 2.838.696 4.338 2.125 6.75-3.404-1.135-4.217-1.968-6-5 1-3 1-3 2-4"/><path fill="#242629" d="M151 51h2c-.375 1.938-.375 1.938-1 4-2.709 1.354-5.01 1.065-8 1l-1-2 2.875-.375c3.212-.342 3.212-.342 5.125-2.625"/><path fill="#BABBBD" d="M64 22c2.313.188 2.313.188 4 1l-1 2-3 1c-1.667 1.5-1.667 1.5-3 3l-2-2c2.25-2.562 2.25-2.562 5-5"/><path fill="#323338" d="m140 115 6 2-1 2-13-1v-1l3.438-.437c3.37-.175 3.37-.175 4.562-1.563"/><path fill="#7B7D81" d="M153 98h8l-3 2 1 2h-7z"/><path fill="#121416" d="m193 96 1 2h5v3c-3.75 1.125-3.75 1.125-6 0z"/><path fill="#B9BBBC" d="M93 99c-1.412.534-2.83 1.052-4.25 1.563l-2.39.878c-2.551.604-3.913.406-6.36-.441 3.76-2.506 8.67-4.165 13-2"/><path fill="#DADCDD" d="M184 96h5l1 4h-5z"/><path fill="#07080A" d="M48 95h6v4l-7-1z"/><path fill="#212325" d="M72 77c4.284 1.886 6.151 4.36 9 8h-3c-1.605-1.75-1.605-1.75-3.187-4l-1.606-2.25z"/><path fill="#E0E0E2" d="M100 82h6v3l-8 1z"/><path fill="#333537" d="M147 79h8v2l-8 1z"/><path fill="#131415" d="M84 30c3.821.53 6.062 1.497 9 4l-5 1v-2h-4z"/><path fill="#2E2E2E" d="m91 29 8 1-1 3h-2l-2 4z"/><path fill="#2B2D2D" d="m74 18 2 4c-1.375 2-1.375 2-3 4h-2c.547-3.375 1.055-5.082 3-8"/><path fill="#16181B" d="m61 117 1 2c2.025.652 2.025.652 4 1l-2 4-4-1 1-2z"/><path fill="#B6B8BB" d="m160 97 5 1c-2.052 2.248-3.007 3.002-6 4-2.187-.937-2.187-.937-4-2l5-2z"/><path fill="#333739" d="m138 86 2 1-3 1v2c-3.53 1.667-5.283 2.136-9 1q2.43-1.294 4.875-2.562l2.742-1.442z"/><path fill="#54555A" d="m114 82 10 1c-4.355 2.178-5.466 2.03-10 1z"/><path fill="#161819" d="M35.188 78.875 39 79c-2.712 1.808-4.894 3.068-8 4l-3-2c3.089-2.06 3.71-2.239 7.188-2.125"/><path fill="#838587" d="M175 70c-2.853 2.325-5.54 3.75-9 5l-1-2c6.625-4.125 6.625-4.125 10-3"/><path fill="#0F1317" d="m77 63 1 2-1 2 2 1v2l2 2c-1.875-.312-1.875-.312-4-1-2-3-2-3-1.687-5.125C76 64 76 64 77 63"/><path fill="#52565A" d="m154 51 3 2-1 4-5-1z"/><path fill="#302A2A" d="M136 122h8v2l-4 2v-2h-5z"/><path fill="#15181B" d="M94 122h5l1 3H90l4-1z"/><path fill="#2C2D33" d="m101 116 13 1v1l-14 1z"/><path fill="#33363A" d="m176 112 12 2v1l-3.812.563-2.145.316C180 116 180 116 177 115z"/><path fill="#0B0C0E" d="M61 99v2l-5 2v-2l-1.812.625C52 102 52 102 49 100c4.085-.545 7.873-1 12-1"/><path fill="#464A4D" d="M121 97h9l-3 3c-3.687-.312-3.687-.312-7-1z"/><path fill="#B9BBBD" d="m158.066 91.902 2.496.035 2.504.028L165 92c-2.938 2.503-5.179 3.47-9 4l-1-3c1-1 1-1 3.066-1.098"/><path fill="#1E2021" d="m61 81 1 2 4-1 3 4-2 2-2-3c-2.563-.73-2.563-.73-5-1z"/><path fill="#C6C8CA" d="M166 69h4l-1 3c-3.062 1.188-3.062 1.188-6 2 1.875-3.875 1.875-3.875 3-5"/><path fill="#323437" d="m189 64 11 1v1q-2.186.29-4.375.563l-2.46.316C191 67 191 67 189 66z"/><path fill="#F3F4F6" d="M52 64h6l-2 1 1 4-5-2z"/><path fill="#2D2F32" d="M148 57a101 101 0 0 1 6 2l1 2h-8z"/><path fill="#8A8C8C" d="M48 38h3c-.25 2.375-.25 2.375-1 5-2.062 1.313-2.062 1.313-4 2z"/><path fill="#050709" d="m94 17 2 1-1 5-5-1z"/><path fill="#232828" d="M156 123c-2.76 1.804-3.89 2.013-7.25 1.625L146 124c3.85-2.567 5.586-1.833 10-1"/><path fill="#24252A" d="m47 112 3 1-2 2v2h-5l-1-2c2.313-1.562 2.313-1.562 5-3"/><path fill="#323437" d="M204 100h1l-1 8-4 1z"/><path fill="#32363B" d="M140 96h3l1 6-3 1z"/><path fill="#BDC0C1" d="M50 84h2c-.875 5.75-.875 5.75-2 8h-2c.875-5.75.875-5.75 2-8"/><path fill="#E9E9EA" d="M191 53c2.188 1.438 2.188 1.438 4 3h-5l-1 2-2-1 1-3z"/><path fill="#000101" d="M67 16c0 3 0 3-1.531 4.824L63.5 22.687l-1.969 1.887L60 26c0-3 0-3 1.531-4.824l1.969-1.863 1.969-1.887z"/><path fill="#0F1011" d="M192 102h2v2h2l-2 4-3-2z"/><path fill="#2E3235" d="m110 92 5 1v2h-8l3-1z"/><path fill="#19150B" d="m58 74 3 2v3l-5 1z"/><path fill="#1A1C1E" d="m72 72 1 2 4-1-1 2h-2v2c-3.875-1.75-3.875-1.75-5-4z"/><path fill="#5C5E64" d="m166 49 3 3-8 2z"/><path fill="#000202" d="m110 59 2 1-7 7c0-3 0-3 2.5-5.687z"/><path fill="#010204" d="m150 49 2 1-3 3-2-1z"/><path fill="#000101" d="M93 40v3l-2 2c0-3 0-3 2-5"/><path fill="#000102" d="M78 31v3h-3z"/><path fill="#000001" d="M54 30v3l-2 1z"/><path fill="#000008" d="m210 81 3 3-3-1z"/><path d="m90 14 2 1-3 2z"/><path fill="#010203" d="M207 111v3Z"/><path fill="#000001" d="M67 110v3Z"/><path fill="#010102" d="m29 75 2 1h-3z"/><path fill="#120000" d="M204 54v3Z"/><path fill="#010101" d="m93 28 3 1h-3z"/><path d="M74 7v3ZM25 81l2 1-2 1z"/><path fill="#000102" d="m131 109 2 1Z"/><path fill="#000103" d="m51 109 2 1Z"/><path fill="#010304" d="m71 107 2 1Z"/><path fill="#000305" d="m200 78 2 1Z"/><path fill="#000003" d="m166 78 2 1Z"/><path fill="#000001" d="m197 76 2 1Z"/><path fill="#020206" d="m195 75 2 1Z"/><path fill="#010101" d="m31 74 2 1Z"/><path fill="#020305" d="m176 73 2 1Z"/><path d="m35 72 2 1Z"/><path fill="#020205" d="m47 68 2 1Z"/><path fill="#000001" d="m45 67 2 1Z"/><path d="m39 65 2 1Z"/><path fill="#010202" d="m211 59 2 1Z"/><path fill="#010101" d="m113 57 2 1Z"/><path fill="#010203" d="m115 56 2 1Z"/><path fill="#000003" d="m167 46 2 1Z"/></svg>