<svg xmlns="http://www.w3.org/2000/svg" width="240" height="146"><path fill="#141414" d="M145.972 24.886h2.1q3.425.002 6.85.016l4.758.005q6.254.006 12.508.024 6.385.014 12.769.02 12.522.016 25.043.049l.851 2.909c.843 3.24.843 3.24 3.532 4.552l2.742.914 2.758.96c.698.22 1.397.44 2.117.665l-.75 3.187c-.645 3.84-.645 3.84 1.625 6.563L225 47l1 3a264 264 0 0 0 3 5c2.255 4.51 1.535 10.532 1.722 15.548q.09 2.257.207 4.513c.113 2.173.199 4.346.278 6.521l.171 3.945c-.451 4.147-1.274 5.71-4.378 8.473-2.749.751-2.749.751-5.86.926l-3.378.224-3.512.162-3.559.221q-4.343.265-8.691.467l-1 5h-4l-1 2 2.124-.016q4.782-.029 9.563-.047l3.342-.025 3.233-.01 2.967-.016c2.696.11 5.146.509 7.771 1.114v2h2l-1 4c-7.77 2.428-15.251 3.155-23.355 3.062l-2.371-.011a2719 2719 0 0 1-9.894-.072c-8.97-.068-17.887 0-26.845.513-14.339.792-28.701.659-43.057.638a4227 4227 0 0 0-12.171.004q-4.773.005-9.544 0-2.243 0-4.485.002a345 345 0 0 1-25.892-.918c-4.489-.289-8.938-.294-13.433-.21l-5.308.05q-4.062.046-8.122.113c-19.47.312-19.47.312-28.523-3.171l-1-4c7.26-2.178 14.453-2.597 22-3-.16-1.962-.16-1.962-1-4-1.95-1.15-1.95-1.15-4.402-1.816-.89-.29-1.78-.58-2.698-.877l-2.838-.87a554 554 0 0 1-5.527-1.753l-2.488-.764C13 92 13 92 11 89c-.762-8.72-.962-18.36 3.875-25.938C16.884 61.113 18.351 59.883 21 59l2 1 1-3 7 1 1-2 5 1 1-2 3.156-.148C64.334 54.227 64.334 54.227 85 45l1-3c2.25-1.063 2.25-1.063 5-2 2.307-.897 4.581-1.787 6.79-2.91 8.042-3.962 16.69-5.206 25.48-6.613l2.917-.477 2.543-.375c2.634-.725 4.12-1.971 6.27-3.625 3.618-1.259 7.171-1.12 10.972-1.114M218 38l2 3v-3zM102 97c-2 .088-4.002.107-6.004.098l-3.682-.01-3.877-.026-3.888-.013Q79.775 97.03 75 97l-1 7h84l-1-6h-16v-2q-8.09-.037-16.18-.055-2.755-.008-5.51-.02c-2.633-.013-5.266-.018-7.9-.023l-2.503-.015c-3.758-.368-3.758-.368-6.907 1.113m94-1-1 5 2-2zm-2 5 1 2Z"/><path fill="#E7E7E7" d="M86 47c-1.652 3.58-3.8 6.736-6 10l2.12-.076q13.502-.48 27.005-.924l2.184-.072c26.236-.86 52.44-1.188 78.691-.928v1c8.928.298 17.277-1.233 26-3l-3 2c.362 2.536 1.013 4.019 2.5 6.125 3.538 2.654 7.194 3.176 11.5 3.875v8c-4.156 1.385-8.083 1.264-12.437 1.313l-2.604.087c-6.361.065-6.361.065-9.557-2.42L201 70l-3 2 1 3c-3.47-1.157-3.886-2.18-6-5-4.389-1.463-8.653-1.184-13.25-1.187l-2.816-.038c-9.154-.184-9.154-.184-16.86 4.108-3.1 5.012-5.017 9.304-6.074 15.117h2v3l-82 1 1-7c-.741-3.198-.741-3.198-2.125-6.187l-1.258-3.043C69.646 72.393 68.457 70.895 65 69c-3.825-.553-7.58-.512-11.437-.437l-3.104-.022c-6.353.053-11.303.43-16.104 5.037C31.5 77.666 30.205 80.878 30 86l1 1c.04 2 .043 4 0 6a440 440 0 0 1-7.75.25l-2.21.102c-3.42.062-5.624-.085-8.532-1.95-3.678-5.859-1.974-14.897-.758-21.464 1.218-4.616 3.329-7.695 7.375-10.313L21 59l2 1 1-3 7 1 1-2 5 1 1-2 3.156-.148C56.01 54.098 72.566 47 86 47"/><path fill="#EBEBEC" d="M145.972 24.886h2.1q3.425.002 6.85.016l4.758.005q6.254.006 12.508.024 6.385.014 12.769.02 12.522.016 25.043.049l.851 2.909c.843 3.24.843 3.24 3.532 4.552l2.742.914 2.758.96c.698.22 1.397.44 2.117.665l-.75 3.187c-.645 3.84-.645 3.84 1.625 6.563L225 47l1 3a264 264 0 0 0 3 5c1.383 2.766 1.112 5.01 1.098 8.102l-.01 3.671-.026 3.852-.013 3.875q-.018 4.75-.049 9.5h-2v-4c-2.236.878-2.236.878-3.313 3.437-2.474 3.759-4.904 4.192-9.199 5.086q-2.685.53-5.379 1.012c-2.085.261-2.085.261-3.109 1.465-2.67.141-5.324.042-8 0l.07-1.977c.106-5.11-.05-9.227-2.07-14.023h2v-2l-2-1 4-3c2 1 2 1 4 4 1.995.431 1.995.431 4.281.328l2.551-.016 2.668-.062 2.668-.016c4.57.09 4.57.09 8.832-1.234.407-2.322.744-4.657 1-7l-1.758-.008c-4.498-.222-7.505-.656-10.867-3.805L212 58c.352-2.2.352-2.2 1-4l-1.938.937C203.66 57.506 195.747 57.13 188 57v-1c-21.523-.097-43.02-.166-64.531.642-14.489.52-28.973.453-43.469.358 1.48-3.965 3.236-6.776 6-10l-2-1c1.02-2.783 1.598-3.804 4.312-5.125L91 40c2.307-.897 4.581-1.787 6.79-2.91 8.042-3.962 16.69-5.206 25.48-6.613l2.917-.477 2.543-.375c2.634-.725 4.12-1.971 6.27-3.625 3.618-1.259 7.171-1.12 10.972-1.114M218 38l2 3v-3z"/><path fill="#EAEBEB" d="M212 53c2.063.438 2.063.438 4 1l-3 1c.362 2.536 1.013 4.019 2.5 6.125 3.538 2.654 7.194 3.176 11.5 3.875v8c-4.156 1.385-8.083 1.264-12.437 1.313l-2.604.087c-6.361.065-6.361.065-9.557-2.42L201 70l-3 2 1 3c-3.47-1.157-3.886-2.18-6-5-4.389-1.463-8.653-1.184-13.25-1.187l-2.816-.038c-5.352-.011-9.955.172-14.934 2.225-1.97 1.847-1.97 1.847-3.25 4.188l-1.39 2.23c-1.648 3.13-3.004 6.315-4.36 9.582-4.312.029-8.625.047-12.937.063l-3.733.025-3.545.01-3.285.016C127 87 127 87 126 86a153 153 0 0 1-.098-6.66l.005-2.014c.005-2.13.018-4.259.03-6.388q.009-2.162.014-4.323.017-5.307.049-10.615c14.052-.985 28.042-1.121 42.125-1.062q3.201.008 6.402.013 7.736.017 15.473.049v1c7.18.24 13.976-.438 21-2z"/><path fill="#EBEBEB" d="M86 47c-1.413 3.025-3.109 5.61-5.062 8.313C74.63 64.735 76.852 77.213 78 88h-2l-1.137-3.14-1.55-4.11-.74-2.066C70.865 74.234 69.407 71.26 65 69c-3.827-.542-7.58-.512-11.437-.437l-3.104-.022c-6.353.053-11.303.43-16.104 5.037C31.5 77.666 30.205 80.878 30 86l1 1c.04 2 .043 4 0 6a440 440 0 0 1-7.75.25l-2.21.102c-3.42.062-5.624-.085-8.532-1.95-3.678-5.859-1.974-14.897-.758-21.464 1.218-4.616 3.329-7.695 7.375-10.313L21 59l2 1 1-3 7 1 1-2 5 1 1-2 3.156-.148C56.01 54.098 72.566 47 86 47"/><path fill="#050505" d="m179.5 67.75 2.84-.062c8.815-.05 8.815-.05 12.66 3.312 3.686 4.852 5.427 9.537 4.813 15.625A92 92 0 0 1 199 91c5.005-.518 9.233-1.346 14-3q2.312-.377 4.625-.75c3.836-.787 4.23-1.064 6.813-4.375.515-.949 1.03-1.898 1.562-2.875h2v4l3-1c.338 3.633.306 5.51-1.65 8.65-2.87 2.87-4.213 3.051-8.21 3.276l-3.378.224-3.512.162-3.559.221q-4.343.265-8.691.467l-1 5h-5l1-5h-2l-.262-1.977c-.992-6.17-2.074-9.774-6.738-14.023-5.717-3.475-10.648-3.453-17-2-2.906 1.423-2.906 1.423-5 3h-2l-2 4h-2a711 711 0 0 0-.125 6.813l-.07 3.832c-.08 3.489-.08 3.489 2.195 6.355l3 2 3 3c2.525 1.262 4.312 1.099 7.125 1.063l2.758-.028L180 108v3c-11.045.134-21.98-.236-33-1l-1-3-2-1v-2h-8v-1h21l-1-4h-16l1-3h-38l-1 2c-9.06.122-17.977-.16-27-1l-1-4h3v2l1.644-.09c16.939-.906 33.834-1.03 50.793-.972q3.89.008 7.78.013 9.39.017 18.783.049v-2l-1.903.213c-7.814.8-15.558.948-23.41.955l-4.034.01q-4.19.009-8.38.007c-3.579 0-7.158.014-10.736.031q-4.149.015-8.298.013c-1.96.001-3.92.012-5.88.023l-3.593-.01-3.163.005C84 93 84 93 81 91h75v-3h-2c.256-7.047 2.483-11.584 7-17 5.659-3.773 11.91-3.214 18.5-3.25"/><path fill="#2F3132" d="M119 35q14.318-.07 28.634-.104 6.65-.014 13.297-.047 6.42-.032 12.838-.039 2.446-.004 4.892-.021c2.288-.015 4.576-.017 6.865-.016l3.943-.014c5.088.347 9.284 1.426 12.969 5.054l1.558 1.457C205 43 205 43 204.98 45.496c-1.328 3.393-2.901 4.095-6.105 5.754l-2.82 1.516c-5.863 2.369-11.929 2.377-18.176 2.332l-2.257-.005c-2.353-.005-4.706-.018-7.06-.03l-4.818-.014Q157.871 55.032 152 55l3-1v-9h-20l-1 9h-7a913 913 0 0 1-.562-6.25l-.317-3.516c-.103-2.753.017-4.654.879-7.234l-2 1c-2.333.04-4.667.043-7 0z"/><path fill="#5B5D5E" d="M118 36v2l9-1v17l6-1 .438-3.937c.437-3.938.437-3.938 1.562-5.063a66 66 0 0 1 4.473.121l2.724.147 2.865.17 2.877.158q3.531.196 7.061.404v9c-8.57 1.884-16.93 2.418-25.687 2.625l-4.155.115c-15.05.392-30.104.358-45.158.26l2-5h2v2l8-1v-4l-3-2c8.88-6.858 17.513-11.867 29-11"/><path fill="#252525" d="M187.313 78.75c6.79 5.684 7.647 10.67 8.687 19.25l-2.336.844c-3.334 1.447-5.178 3.539-7.664 6.156-3.527 2.351-5.029 2.214-9.187 2.125l-3.293-.055L171 107v-2h-4l-1-2-2.437-.437C161 102 161 102 159 99c-.467-5.63-.612-11.59 2.61-16.406 7.458-6.823 16.695-8.603 25.702-3.844"/><path fill="#323233" d="M58.95 76.695C63.347 78.966 66.193 81.955 69 86c.867 2.868 1 5.002 1 8h-3l-.687 2.688c-1.936 4.885-5.004 7.44-9.313 10.312-5.807.664-13.559.899-18.25-2.75L37 102l-1.75-2.187C33.51 95.9 33.418 92.225 34 88c1.02-2.277 1.02-2.277 2-4h2l.777-1.86c3.8-6.65 13.46-7.839 20.172-5.445"/><path fill="#3B3D3C" d="M145.972 24.886h2.1q3.425.002 6.85.016l4.758.005q6.254.006 12.508.024 6.385.014 12.769.02 12.522.016 25.043.049l.812 2.875c.938 3.378.938 3.378 4.188 5.125l-105 1v-1c.615-.105 1.23-.21 1.864-.32 2.798-.486 5.592-.989 8.386-1.493l2.934-.501 2.832-.518 2.602-.46c2.664-.792 4.195-2.028 6.382-3.708 3.618-1.258 7.171-1.12 10.972-1.114"/><path fill="#DBDBDB" d="m37 55 4 2-3 1 1 3-6 3v-2l-1.75 1C29 64 29 64 25 64l1 2 3 1-4 1c2.928.976 4.956 1.082 8 1 0 4.062-.355 6.624-2.062 10.266-1.084 3.16-.96 5.249-.563 8.546l.336 2.958L31 93a440 440 0 0 1-7.75.25l-2.21.102c-3.42.062-5.624-.085-8.532-1.95-3.678-5.859-1.974-14.897-.758-21.464 1.218-4.616 3.329-7.695 7.375-10.313L21 59l2 1 1-3 7 1 1-2 5 1zm176-1c14 0 14 0 17 1v29h-2v-4c-2.236.878-2.236.878-3.312 3.438-2.475 3.758-4.905 4.19-9.2 5.085q-2.685.53-5.379 1.012c-2.085.261-2.085.261-3.109 1.465-2.67.141-5.324.042-8 0l.07-1.977c.106-5.11-.05-9.227-2.07-14.023h2v-2l-2-1 4-3c2 1 2 1 4 4 1.995.431 1.995.431 4.281.328l2.551-.016 2.668-.062 2.668-.016c4.57.09 4.57.09 8.832-1.234.407-2.322.744-4.657 1-7l-1.758-.008c-4.498-.222-7.505-.656-10.867-3.805L212 58c.352-2.2.352-2.2 1-4"/><path fill="#414547" d="M128 37h2l1 7 2-2c2.718-.259 2.718-.259 6.145-.266l3.74-.007 3.928.023 3.892-.023 3.752.007 3.437.007c3.097.258 5.31.944 8.106 2.259l-3 5h2l1 5v-4l1-3 2 4h2l-1-7 33-1 2 4a269 269 0 0 1-4.437 2.875l-2.497 1.617c-9.34 4.593-19.496 3.744-29.629 3.633q-2.395-.016-4.79-.027Q157.822 55.063 152 55l3-1v-9h-20l-1 9h-7a519 519 0 0 1-.625-6.25l-.352-3.516c-.023-3.173.28-4.617 1.977-7.234"/><path fill="#2B2C2C" d="m179.5 67.75 2.84-.062c8.815-.05 8.815-.05 12.66 3.312 3.686 4.852 5.427 9.537 4.813 15.625A92 92 0 0 1 199 91c5.005-.518 9.233-1.346 14-3q2.312-.377 4.625-.75c3.836-.787 4.23-1.064 6.813-4.375.515-.949 1.03-1.898 1.562-2.875h2v4l3-1c.314 3.37.211 5.548-1.23 8.637-4.492 3.832-9.604 3.288-15.333 3.488q-3.408.14-6.816.32l-3.049.11c-2.882.499-3.796 1.18-5.572 3.445-1.62-1.62-1.12-3.574-1.187-5.812-.576-7.332-3.548-14.923-8.813-20.188-3.417-.452-6.869-.324-10.312-.312l-2.881-.05C168.889 72.61 168.889 72.61 163 76c-3.343 4.87-4.788 9.245-6 15l-1-3h-2c.256-7.047 2.483-11.584 7-17 5.659-3.773 11.91-3.214 18.5-3.25"/><path fill="#E8E8E8" d="m211 56 7 7c2.197.677 2.197.677 4.625 1.125l2.477.508L227 65v8c-4.174 1.391-8.128 1.264-12.5 1.313l-2.629.087c-6.34.064-6.34.064-8.965-2.232C202 70 202 70 202 67l-2 1a140 140 0 0 1-7-2c-.043-2-.04-4 0-6 1-1 1-1 4.438-1.187C201 59 201 59 203 61l1-2c2.322-.407 4.657-.744 7-1z"/><path fill="#ADADAD" d="M55 83c3.041 1.638 5.286 3.1 7.438 5.813.864 3.362.385 5.835-.438 9.187-1.823 2.706-3.075 4.537-6 6-4.934.493-7.07.525-11.437-1.937-2.902-3.468-3.588-5.483-3.801-9.91C41.134 88.787 42.52 87.21 45 85c3.27-2.289 6.07-2.472 10-2"/><path fill="#C1C1C1" d="M180 83c3.658 2.04 5.67 3.504 8 7 .524 3.93.148 5.725-1.75 9.25-3.188 3.897-4.712 4.582-9.687 5.125-4.19-.441-5.657-1.386-8.563-4.375-2.036-2.684-2-4.003-1.937-7.437 1.108-4.211 2.623-5.815 5.937-8.563 2.866-1.433 4.813-1.306 8-1"/><path fill="#020303" d="m50.875 71.75 2.395-.023c4.584.015 8.508.28 12.73 2.273 3.551 4.232 4.553 9.633 5 15-2.002-1.896-3.618-3.801-5.312-6-3.022-3.605-6.033-5.6-10.79-6.316C49.225 76.38 44.64 77.674 40 81l-2 3h-2l-3 13h-2v-2l-1.863.07-2.45.055-2.425.07C22 95 22 95 19 93h12l.262-2.633C32.687 78.681 32.687 78.681 38 74c3.93-2.756 8.268-2.295 12.875-2.25"/><path fill="#494A4B" d="m53.313 67.625 3.13-.113c8.555-.1 8.555-.1 12.104 2.629 2.518 2.935 3.982 5.394 5.39 8.984l1.278 3.133C76 85 76 85 75 88h-4l-.883-2.773-1.242-3.602-1.195-3.586c-1.408-3.2-1.408-3.2-4.297-4.43-4.17-.75-8.153-.977-12.383-.984l-2.367-.074C43.279 72.524 40.227 73.43 36 77c-2.097 3.146-2.52 5.015-3.125 8.688l-.508 3.011L32 91c-3.612-7.105-3.612-7.105-2.379-10.922 2.265-5 4.902-7.935 9.379-11.078 4.688-1.563 9.402-1.308 14.313-1.375"/><path fill="#D6DBDD" d="m115.313 42.813 3.8.082L122 43c.084 4.276-.153 7.764-1 12h-21l-2-5c5.916-4.902 9.43-7.409 17.313-7.187"/><path fill="#141414" d="M226 80h2v4l3-1c.313 3.366.213 5.544-1.227 8.629-4.506 3.853-9.645 3.376-15.398 3.621q-3.426.19-6.852.39l-3.065.142c-2.461.067-2.461.067-4.458 1.218l-1-5q3.217-.942 6.438-1.875l1.93-.567c3.574-1.032 7.088-1.843 10.757-2.433 3.641-.73 3.81-1.041 6.313-4.25z"/><path fill="#858685" d="M125 62h1l1 24h27v2h2v3q-13.834.106-27.668.155c-4.282.016-8.564.037-12.847.071-4.13.033-8.26.05-12.39.059q-2.368.008-4.735.032c-2.205.022-4.41.025-6.615.024l-3.81.02L85 91l-2-3h42z"/><path fill="#3B3E40" d="M128 37h2l1 7 2-2c2.718-.259 2.718-.259 6.145-.266l3.74-.007 3.928.023 3.892-.023 3.752.007 3.437.007c3.097.258 5.31.944 8.106 2.259-2 3-2 3-4 3.688-2 .312-2 .312-4 .312l-2 6 3 1h-7l3-1v-9h-20l-1 9h-7a519 519 0 0 1-.625-6.25l-.352-3.516c-.023-3.173.28-4.617 1.977-7.234"/><path fill="#EBECED" d="m135 33-1 2c-2.142.347-2.142.347-4.96.492l-3.122.2q-3.234.18-6.469.343c-9.342.612-17.927 2.654-25.636 8.215-.737.52-1.473 1.042-2.231 1.578L90 47l3 2-1 5h-8l-1-3c1.438-2.187 1.438-2.187 3-4l-2-1c1.02-2.783 1.598-3.804 4.313-5.125L91 40c3.475-1.35 3.475-1.35 6.824-2.98C109.03 31.282 122.703 32.856 135 33"/><path fill="#525558" d="m135 44 20 1v9h-21c-1-3-1-3 1-10"/><path fill="#131414" d="M164.379 25.902q2.091.01 4.184.035l2.154.014q2.64.02 5.283.049v2l2 1h-7v-2h-2v2l3.44.06c4.21.076 8.42.165 12.63.257q2.735.059 5.468.105c2.62.046 5.238.104 7.857.164l2.471.035c3.868.101 5.846.187 9.134 2.379h-79c6.411-3.206 12.364-3.135 19.375-3.062l2.52.013q3.053.02 6.105.049l1-2c1-1 1-1 4.379-1.098"/><path fill="#BDBEBE" d="M78 58h1l-.016 2.124q-.029 4.782-.046 9.563l-.026 3.342-.01 3.233-.016 2.967c.058 3.167.058 3.167 1.114 7.771h45v1l26 1v1l-2.432.031q-11.407.148-22.814.308-5.863.083-11.726.158-5.67.072-11.34.156-2.151.03-4.302.056c-8.17.099-16.26.384-24.386 1.291l1-5 3 1-.437-2.055C75.603 76.123 75.376 67.698 78 58"/><path fill="#323232" d="M35.918 104.488 37 106l-1.937.875c-2.215.953-2.215.953-3.063 3.125l12 1v1c-10.394 2.45-20.995 1.494-31-2l-1-4c18.654-5.596 18.654-5.596 23.918-1.512"/><path fill="#3F4344" d="M118 36v2l8-1a109 109 0 0 1-1 7l-2 1v-3c-9.076.801-16.397 1.601-24 7l2-5c-3.403 1.059-6.014 2.009-9 4l-3-1c8.88-6.858 17.513-11.867 29-11"/><path fill="#0B0C0C" d="M161 102c2.907 1.303 4.808 2.709 7 5 2.525 1.262 4.312 1.099 7.125 1.063l2.758-.028L180 108v3c-11.045.134-21.98-.236-33-1l-1-3-2-1v-2h-8v-1l2.187.016q4.875.029 9.75.046l3.444.026 3.271.01 3.031.016c2.28.148 2.28.148 3.317-1.114"/><path fill="#606262" d="m133 27 1 2 8-2v2h2v-2h6v2h8l1-2v2l2 1-1.848-.016q-4.17-.029-8.34-.047l-2.908-.025-2.822-.01-2.587-.016c-2.936.071-2.936.071-7.495 1.114l80 1v1l-105 1v-1l1.896-.335c2.828-.505 5.653-1.023 8.479-1.54l2.984-.527 2.852-.528 2.634-.476c2.346-.456 2.346-.456 4.155-2.594"/><path fill="#262726" d="m195 101 1 2 2.124-.016q4.782-.029 9.564-.046l3.341-.026 3.233-.01 2.967-.016c2.696.11 5.146.509 7.771 1.114v2h2l-1 4c-5.487 1.868-10.222 2.236-16 2v-2l-4-1 3.438-.375L213 108l1-2c-6.42-.205-6.42-.205-12.75.625-3.139.523-5.34-.474-8.25-1.625z"/><path fill="#818181" d="M176 85v4h2v-4l5 1-2 4h5v5l-6-1 2 1.875C184 98 184 98 184 100l-6 1v-5h-2l-1 5-4-1 1-1.875c1.142-2.035 1.142-2.035 1-4.125l-5 1v-5h5l-2-4c2-1 2-1 5-1"/><path fill="#8D8F8E" d="m37 55 4 2-3 1 1 3-6 3v-2l-1.75 1C29 64 29 64 25 64l1 2 3 1c-6.5 3-6.5 3-11 3l.098-6.055c.028-2.027.028-2.027-1.098-3.945 3.75-1.125 3.75-1.125 6 0l1-3 7 1 1-2 5 1z"/><path fill="#101010" d="M74 93h3v2l1.692-.09c15.925-.832 31.8-1.034 47.746-.972q3.456.008 6.912.013 8.325.017 16.65.049v1c-10.488.926-20.856 1.124-31.375 1.063q-2.289-.009-4.578-.014Q108.524 96.032 103 96l-1 2c-9.06.122-17.977-.16-27-1z"/><path fill="#FAFBFC" d="M135 33h74v1c-4.018.841-7.018 1.054-11 0v2l-64-1z"/><path fill="#333" d="M187.5 78.813c2.464 2.155 3.271 2.981 3.5 6.187l-3 2-1.875-1.937c-3.592-3.487-6.575-3.563-11.437-3.563-4.71.876-7.547 4.061-10.688 7.5l-1-2 1-2-2-1c6.995-8.088 15.83-10.195 25.5-5.187"/><path fill="#BEC0BF" d="M51 84c3.957-.46 5.546-.333 8.813 2.063C62.453 89.61 63.077 91.583 63 96c-1.98 3.747-3.47 5.647-7 8-6.986.676-6.986.676-11-2l-2-2c.188-1.875.188-1.875 1-4 2.563-1.25 2.563-1.25 5-2-.998 2.993-1.752 3.948-4 6l6 1v-5h2v6l6-2v-2l-4-2v-2l6 1v-5l-6 2 3-6-5-1v5h-2z"/><path fill="#F5F5F5" d="m99.781 79.805 2.118.008c2.2.011 4.4.036 6.601.062q2.257.016 4.516.027 5.492.035 10.984.098v3c-9.263.968-18.443 1.122-27.75 1.063q-2.085-.008-4.172-.014Q87.038 84.03 82 84c4.48-4.48 11.803-4.244 17.781-4.195"/><path fill="#565656" d="m73 88 1 4 3.313-.562C81 91 81 91 84 92c2.315.09 4.633.118 6.95.114h2.13c2.32 0 4.642-.009 6.963-.016l4.83-.005q6.354-.006 12.71-.024 6.484-.014 12.97-.02Q143.277 92.033 156 92v2q-11.331.217-22.662.427-3.84.072-7.677.146c-16.223.312-32.435.498-48.661.427v-2l-5 1a100 100 0 0 1 0-5z"/><path fill="#424446" d="M126 37c1.722 5.476 1.057 11.333 1 17h25v1c-5.602.8-11.002 1.137-16.656 1.098l-2.387-.005c-2.486-.005-4.971-.018-7.457-.03l-5.094-.014Q114.204 56.032 108 56v-1h13l1-12h-10v-1h11l1 2z"/><path fill="#D9D9D9" d="M109.313 83.938q2.295.008 4.591.013 5.548.017 11.096.049v3l-45 1-1-3c10.13-.981 20.15-1.121 30.313-1.062"/><path fill="#2E1C1E" d="M213 54q2.688-.04 5.375-.062l3.023-.036C224 54 224 54 226 55v6h2l-1 3c-7.515.902-7.515.902-10.969-1.195-1.661-1.56-2.965-2.785-4.031-4.805.352-2.203.352-2.203 1-4"/><path fill="#161717" d="M60.438 82.688C63.17 85.154 64.155 86.45 65 90c.125 3.313.125 3.313 0 6h-2l-.48-1.863c-1.453-5.168-1.453-5.168-4.833-9.2-4.326-1.509-7.269-1.614-11.437.376C43.78 86.97 43.78 86.97 42 90c-.163 4.213.362 7.954 2.563 11.563L46 103c-2.625-.996-3.95-1.94-5.75-4.125-1.608-3.7-2.079-6.947-1.25-10.875 1.628-2.998 3.555-5.512 6.898-6.64 5.324-.91 9.623-1.086 14.54 1.328"/><path fill="#0F0F0F" d="M33 92h1l.75 2.625c2.009 5.424 4.57 9.032 9.25 12.375v2l11 1v1q-4.062.04-8.125.063l-2.305.025c-4.309.018-8.325-.227-12.57-1.088 1-3 1-3 3.063-4.187L37 105c-2.298-4.496-3.88-6.287-8.75-7.875-1.41-.396-2.826-.778-4.25-1.125 1.813-1.062 1.813-1.062 4-2l3 1v2h2z"/><path fill="#464646" d="m179.625 67.688 2.813-.05c4.965-.003 8.584.025 12.562 3.362l1 2-2 3-1.672-1.969c-2.784-2.429-3.94-2.534-7.574-2.527l-3.037-.002-3.155.06-3.142-.021c-5.369.045-8.97.16-13.42 3.459l-2-1c.563-1.875.563-1.875 2-4 5.852-2.227 11.414-2.334 17.625-2.312"/><path fill="#2F2F30" d="M67 70c4.896 4.08 7.387 8.821 9 15l-1 3h-4l-.883-2.773-1.242-3.602-1.195-3.586c-1.407-3.21-1.407-3.21-4.336-4.414-3.922-.733-7.738-1.077-11.719-1.25l-2.23-.117A794 794 0 0 0 44 72v-1q4.906-.041 9.813-.062l2.814-.026 2.705-.01 2.491-.016C64 71 64 71 67 72z"/><path fill="#1C1C1C" d="M88 110c14.364-.142 28.654.266 43 1v2c-8.743 1.011-17.393 1.12-26.187 1.063q-2.022-.009-4.042-.014Q95.886 114.03 91 114v-1l9-1-12-1z"/><path fill="#AFAFAF" d="m200 83 2 2c3.617.119 7.177.042 10.791-.078C218.7 84.8 218.7 84.8 222 87l-3.027.621-3.91.817-3.903.808c-3.006.426-3.006.426-4.16 1.754-2.67.141-5.324.042-8 0z"/><path fill="#3F4140" d="m220 34 2 1-.75 3.188c-.645 3.84-.645 3.84 1.625 6.562L225 47a85 85 0 0 1 2 7c-4.894-1.38-6.606-3.733-9.312-7.937l-2.114-3.215C214 40 214 40 214 37a101 101 0 0 1 6-3m-2 4 2 3v-3z"/><path fill="#101010" d="M184.938 82.188c2.455 2.157 3.761 3.8 5.062 6.812.188 3.813.188 3.813 0 7l-2 1-.187-3.187c-.954-4.476-2.343-5.936-5.813-8.813-2.82-1.41-4.87-1.245-8-1-2.821.792-2.821.792-5 3-1.298 2.928-2.201 5.901-3 9h-1c.02-5.257.131-8.886 3.438-13.125 4.954-3.374 11.158-2.847 16.5-.687"/><path fill="#292A2A" d="m189 84 4 1c1.3 4.33 2.344 8.515 3 13l-3.25.813c-3.315 1.05-5.189 1.933-7.75 4.187l-2-1a125 125 0 0 1 4-6h2c.27-4.65.27-4.65-1-9z"/><path fill="#5A5D5F" d="M157 47c5.75.875 5.75.875 8 2l1 5h20v1c-4.437.029-8.875.047-13.312.063l-3.827.025-3.662.01-3.38.016C159 55 159 55 156 54z"/><path fill="#292929" d="M36 84h1l1 7h1l.297 2.012C40.205 98.372 41.02 102.02 45 106c-2.687 0-2.687 0-6-1-3.622-3.668-5.31-7.617-5.437-12.75.099-3.244.851-5.422 2.437-8.25"/><path fill="#8B8C8B" d="m89 40 2 1-1 6 3 2-1 5h-8l-1-3c1.438-2.187 1.438-2.187 3-4l-2-1c1.37-3.161 1.99-3.993 5-6"/><path fill="#29292A" d="M133 110q6.244.178 12.488.372 2.121.065 4.242.125 3.06.089 6.122.187l3.713.11c3.213.193 6.274.612 9.435 1.206v1c-12.44 1.047-24.549.837-37 0z"/><path fill="#060606" d="M219 91c-.531 1.957-.531 1.957-2 4a47 47 0 0 1-7.5.688c-4.9-.045-4.9-.045-9.5 1.312l-1-5c6.932-2.266 12.808-1.887 20-1"/><path fill="#151718" d="M163 36h31l1 2h-27v2l-5-1z"/><path fill="#343434" d="m64 97 1 3c-6.619 6.797-6.619 6.797-10.05 7.3-5.029.027-8.704-.297-12.95-3.3-1.375-2.687-1.375-2.687-2-5l1.75 1.438c3.734 2.593 7.33 2.759 11.813 2.874l2.878.114c2.715-.169 2.715-.169 4.274-2.446L62 99h2z"/><path fill="#E0E2E1" d="m17 62 2 1-1 7 6-1-2 7-5-1 1-2-4 1c-1.057-5.285-1.057-5.285-1-8 1.938-2.5 1.938-2.5 4-4"/><path fill="#E2E5E5" d="M112 56h14l1 3c-2 3-2 3-5 5-2.262.195-2.262.195-4.687.125l-2.45-.055L113 64v-2h3v-2l4-2-8-1z"/><path fill="#8C8C8C" d="m12 69 2 1 1 3 4-1v3l2 1v6c-1.5-1.375-1.5-1.375-3-3v-2h-5l1 8h-2l-1 4a1304 1304 0 0 1-.062-6.625l-.036-3.727c.09-3.325.461-6.388 1.098-9.648"/><path fill="#D2D2D2" d="M197.5 58.875C201 59 201 59 202 60c.125 3 .125 3 0 6-1 1-1 1-4.5 1.125C194 67 194 67 193 66c-.125-3-.125-3 0-6 1-1 1-1 4.5-1.125"/><path fill="#7B7B7B" d="M21 87c1.484.423 2.962.864 4.438 1.313l2.496.738L30 90l1 3q-3.906.118-7.812.188l-2.237.076c-5.5.074-5.5.074-7.963-1.776L12 90h4l-1-2c1.207.03 1.207.03 2.438.063 2.496.233 2.496.233 3.562-1.063"/><path fill="#2E2E2E" d="m161 71 2 1-2 2 .563 1.813c.635 3.178-.89 4.46-2.563 7.187-.819 2.648-1.403 5.289-2 8l-1-3h-2c.261-7.184 2.702-11.322 7-17"/><path fill="#D0D0D0" d="M68 54c-.734 1.95-.734 1.95-2 4-4.822 1.591-10.123 1.126-15 0v-1l-6-1v-1c7.686-.972 15.259-1.11 23-1"/><path fill="#282F35" d="M210 103c10.558-.185 10.558-.185 15 1v2h2l-1 4c-5.415 1.23-5.415 1.23-8.375.063L216 109h3v-2h-2v-3h-7z"/><path fill="#EAEAEA" d="m12 76 6 1 .875 2.938c.767 3.169.767 3.169 3.125 4.062-3.73 2.034-5.67 3-10 3v-2h2l-1-2.25C12 80 12 80 12 76"/><path fill="#323232" d="M36 71c3 1 3 1 4 3l-2.375 2.063C33.698 80.457 33.031 85.332 32 91c-1.674-3.012-2.843-5.535-3-9 1.584-4.343 3.598-7.852 7-11"/><path fill="#272828" d="M66 84h2c2 6.625 2 6.625 2 10h-3l-.812 1.938C65 98 65 98 62 99c-1.209 2-1.209 2-2 4h-3l1.938-2.375C60.98 98.205 60.98 98.205 62 96h3c-.095-.615-.19-1.23-.29-1.863-.11-.809-.22-1.617-.335-2.45l-.352-2.425C64 87 64 87 66 84"/><path fill="#222323" d="m143.766 25.121 2.695.147 2.789.17 2.836.158q3.458.194 6.914.404l-1 3h-8v-2h-2l-1 2v-2h-3v2l-3-1c-2.34.278-4.676.605-7 1l1-3c2.938-1.157 5.648-1.059 8.766-.879"/><path fill="#1C1E1C" d="M106 103h21v3h-20z"/><path fill="#AFAFAF" d="m227 54 3 1v18l-4-1 1-7-4-1 1.938-.375L227 63l1-2h-2z"/><path fill="#F4F5F4" d="M206 71h20l1 2c-2.824.941-4.53 1.117-7.45 1.098l-2.568-.01-2.67-.025-2.705-.014A1649 1649 0 0 1 205 74z"/><path fill="#F7F7F7" d="M212 53c2.063.438 2.063.438 4 1l-1.937.875c-2.215.953-2.215.953-3.063 3.125-2.322.407-4.657.744-7 1l-1 5-.562-1.937c-1.38-2.484-1.38-2.484-5.063-2.813L194 59l1-2a126 126 0 0 1 8-1.562c4.895-.418 4.895-.418 9-2.438"/><path fill="#8C5258" d="m221 54 5 1v6h2l-1 3-6-2 3-2-9-1-1-3 7-1z"/><path fill="#4B4F52" d="m186.313 48.938 2.533.013q3.077.02 6.154.049c-1 2-1 2-2.863 2.633-6.77 1.36-13.244 1.58-20.137 1.367v-3c4.77-1.234 9.425-1.113 14.313-1.062"/><path fill="#515352" d="M50 94h4v2l5 2v2c-3 2-3 2-6 2v-6h-2v5l-6-1 1-3c2.063-.687 2.063-.687 4-1z"/><path fill="#F6F6F6" d="M126 80a879 879 0 0 1 7.75-.125l2.21-.05c3.844-.036 6.786 0 10.04 2.175v1l-20 1z"/><path fill="#4E4F4F" d="m23 105-2 1 1 5c-4.176 1.392-6.135-.177-10-2v-3c4.122-1.63 6.707-2.263 11-1"/><path fill="#D1D2D3" d="m108 35-5 2v2a101 101 0 0 1-6 3.625l-3.375 1.914L91 46l-1-2c1.213-3.638 2.608-4.128 5.918-5.8l1.957-.95 1.934-.996c4.811-2.38 4.811-2.38 8.191-1.254"/><path fill="#232323" d="m193 77 1.813 2c2.062 2.337 2.062 2.337 5.187 2l-1 10 3 1-2 1v6l-2-1c-.273-2.223-.273-2.223-.375-5.062-.386-5.595-1.892-9.09-4.625-13.938z"/><path fill="#6B6D70" d="M154 48h1v6h-21l-1-3 3.867.254 5.008.309 2.55.17 2.442.146 2.254.143c1.971.114 1.971.114 3.879-1.022z"/><path fill="#777A7B" d="m101 44-1.062 3.375c-1.31 3.428-1.31 3.428.062 5.625l-1 3h-3l1-7-3 1-2-1v-2c2.957-2.847 4.95-3.338 9-3"/><path fill="#292828" d="m35 104 2 2-1.937.875c-2.215.953-2.215.953-3.063 3.125l12 1v1c-4.074.988-7.815 1.38-12 1-2.437-2-2.437-2-4-4 1.25-1.5 1.25-1.5 3-3h4z"/><path fill="#1A1B1A" d="m74 101 1 2h15v2c-2.4 1.2-3.894 1.115-6.57 1.098l-2.715-.01-2.84-.025-2.863-.014Q71.505 106.03 68 106c1.894-1.894 3.845-3.42 6-5"/><path fill="#C3C5C4" d="M51 84c3.957-.46 5.546-.333 8.813 2.063 2.54 3.41 2.94 5.74 3.187 9.937-2-3-2-3-2-6l-6 2 3-6-5-1v5h-2z"/><path fill="#C4C5C5" d="m79 56 18 1-1 4c-6.055.195-6.055.195-8 0l-2-2c-2.323-.4-4.657-.74-7-1z"/><path fill="#AEAEAE" d="m153 86 1 2h2v3h-8l2-2-23-1v-1z"/><path fill="#5A5C5B" d="m38 60-4 4-1-2-1.75 1C29 64 29 64 25 64l1 2 3 1c-2.354 1.43-3.48 2.087-6.25 1.625L21 68h2v-3l-2-1 3-2v-1c4.724-.652 9.22-1.12 14-1"/><path fill="#3F3F3F" d="M48 85h2l1 5h2v-5l5 1-3 6c-2.562.625-2.562.625-5 1v-3l-3-1z"/><path fill="#D5D5D5" d="M126 84h16v2c-2.884 1.442-5.417 1.094-8.625 1.063l-3.602-.028L127 87z"/><path fill="#1D1F1E" d="M82 52h2v2c5.17-.406 5.17-.406 10-2l-1 5H80z"/><path fill="#151515" d="M179 81c4.332.481 6.186 1.701 9 5 2.43 3.644 2.162 5.712 2 10l-2 1-.187-3.187C186.85 89.3 185.446 87.953 182 85a98 98 0 0 1-3-3z"/><path fill="#B4B5B5" d="m49 90 2 2c2.46-.2 2.46-.2 5.125-.875l2.758-.617L61 90v5l-6-1-1 2v-2h-4l-1 2-2-5z"/><path fill="#382F2E" d="M226 80h2v4l3-1v6l-2 1-1-3-2-1 1 3h-2v-2l-3-1a125 125 0 0 1 4-6"/><path fill="#F8FAFA" d="M98 57c3.625-.058 7.25-.094 10.875-.125 1.033-.017 2.065-.034 3.129-.05l2.988-.02 2.761-.032C120 57 120 57 122 59l-9 2v-2H98z"/><path fill="#3E3D3F" d="m188 99 1 2c-3.75 4.875-3.75 4.875-6 6-1.875.168-1.875.168-4 .188l-2.125.042C175 107 175 107 173 105l3.313-.375c3.76-.38 3.76-.38 6.687-2.625l4-2z"/><path fill="#F9FAFB" d="M126 56h30v1l-2.095.076q-4.672.175-9.343.361l-3.298.12-3.135.127-2.904.11c-2.196-.036-2.196-.036-3.225 1.206-1.666.04-3.334.043-5 0z"/><path fill="#1B1D1E" d="M196 25h13l-3 3v1h-15v-2h7z"/><path fill="#030303" d="M136 95h18v1h-5v3h-9l1-3h-5z"/><path fill="#111" d="M33 92h1l.875 2.688A140 140 0 0 0 38 103h-3c-.235-.624-.47-1.248-.71-1.89-1.658-2.713-2.904-3-5.915-3.86l-2.477-.734L24 96c1.813-1.062 1.813-1.062 4-2l3 1v2h2z"/><path fill="#5C5E5D" d="M216 38c3.55 1.183 3.793 1.918 5.563 5.063 1.182 2.175 1.182 2.175 2.437 3.937h2l1 7c-2.375-.562-2.375-.562-5-2-1.062-3.187-1.062-3.187-2-7-1.21-2.43-2.58-4.682-4-7"/><path fill="#383B3C" d="M125 37c1.208 3.623.543 4.641-1 8l-1-3h-10v-1h5v-2z"/><path fill="#282828" d="M192 94h3l1 4-3.25.813c-3.315 1.05-5.189 1.933-7.75 4.187l-2-1c1.688-3 1.688-3 4-6 2.75-.375 2.75-.375 5 0z"/><path fill="#9C9D9D" d="M201 87c1.437-.054 2.875-.093 4.313-.125l2.425-.07C210 87 210 87 213 89c-4.927 1.97-8.78 2.18-14 2v-2h2z"/><path fill="#6E7070" d="M164 49c2 3 2 3 2 5h20v1h-27l1-2h4z"/><path fill="#606264" d="M112 42h11l.375 2.875c.342 3.212.342 3.212 2.625 5.125v4l-5 1 1-12h-10z"/><path fill="#DCDDDD" d="M90.063 48.938 93 49l-1 5h-8c2.414-4.988 2.414-4.988 6.063-5.062"/><path fill="#1C1C1C" d="M67 94h3c-.504 4.41-1.86 6.86-5 10-3.25 1.313-3.25 1.313-6 2l2.313-2.625C63.753 100.464 65.43 97.471 67 94"/><path fill="#0C0C0C" d="M51.563 80.75c3.749.273 4.127.582 6.437 3.25l-1.723-.14c-6.051-.283-9.275.734-14.277 4.14.75-2.937.75-2.937 2-6 2.454-1.272 4.785-1.055 7.563-1.25"/><path fill="#C9C9C9" d="M230 73v11h-2v-4l-2-1h2l-1-3-6-1c5-3.333 5-3.333 9-2"/><path fill="#2B312D" d="M194 110c5.126-.103 9.95-.036 15 1-3.477 2.143-6.212 2.213-10.25 2.125l-3.266-.055L193 113z"/><path fill="#D1D3D2" d="M61 93h1c-.603 6.396-.603 6.396-2.312 9-1.688 1-1.688 1-3.876.688L54 102l5-2v-2l-4-2v-2l6 1z"/><path fill="#C3C2C2" d="m223 81 2 1-2 4-19-1v-1l19-1z"/><path fill="#E1E1E1" d="M75 73c1.913 3.266 2.357 5.994 2.625 9.75l.227 2.984L78 88h-2a895 895 0 0 1-1.5-4.812l-.844-2.708C73 78 73 78 73 75h2z"/><path fill="#1D1E1D" d="M161 26h15v2l2 1h-7v-2h-2v2c-2.875.188-2.875.188-6 0z"/><path fill="#393B3E" d="M200 50c-5.542 3.773-9.345 4.543-16 4v-2q3.435-.793 6.875-1.562l3.867-.88C198 49 198 49 200 50"/><path fill="#1F1F1F" d="m195 101 1 2h9l-1 3c-4.293 1.263-6.878.63-11-1z"/><path fill="#3E3E3E" d="m40 99 1.75 1.438c2.176 1.51 3.676 2.102 6.25 2.562v2h6v2c-4.948-.119-8.093-.278-12.062-3.437C40 101 40 101 40 99"/><path fill="#060606" d="m40 106 4 1v2l11 1v1q-2.594.04-5.187.063l-2.918.035c-2.75-.093-5.22-.477-7.895-1.098z"/><path fill="#413F3E" d="M210 103a365 365 0 0 1 4.875-.125l2.742-.07C220 103 220 103 222 105v4l-6 1 3-1v-2h-2v-3h-7z"/><path fill="#303031" d="m167 101 2.5.938c3.891 1.18 7.462 1.644 11.5 2.062v1l-2.75.438c-2.465.426-4.838.913-7.25 1.562v-2h-4z"/><path fill="#919191" d="m16 72 3 1v2l2 1v6c-1.5-1.375-1.5-1.375-3-3v-2h-4c.875-3.875.875-3.875 2-5"/><path fill="#B0B0B0" d="m37 55 4 2-3 1v3l-11-1 4-1 1-3 5 1z"/><path fill="#B5B7B7" d="M176 96h2v5l3 1-1 2h-7z"/><path fill="#373838" d="m209 25 2 1c.625 3.063.625 3.063 1 6-3.437-.812-3.437-.812-7-2l-1-3c2.375-1.062 2.375-1.062 5-2"/><path fill="#282828" d="M22 104h2v3h2l1 3-6 2c-.93-2.606-1.15-3.642-.062-6.25zm4 2 2 1Z"/><path fill="#181818" d="m42 106 13 1-3 1v2l-8-1v-2z"/><path fill="#505456" d="M101 41c1.938.313 1.938.313 4 1l1 3-7 4 2-5-3-1h3z"/><path fill="#1D1D1D" d="M156.965 102.602C159 103 159 103 163 106h-15c3.34-3.34 4.42-3.346 8.965-3.398"/><path fill="#414141" d="M47 69v2c-3.508 1.604-6.144 2.22-10 2v-3c3.215-1.607 6.436-1.057 10-1"/><path fill="#F6F6F6" d="m52 56-1 2c-3.16.414-3.16.414-7.062.625l-3.91.227L37 59c1-2 1-2 3.563-3.187C44.82 54.806 47.71 55.26 52 56"/><path fill="#D1D3D2" d="M49 94c-.998 2.993-1.752 3.948-4 6l5 2c-1.812.688-1.812.688-4 1-1.812-1.187-1.812-1.187-3-3 .125-2.062.125-2.062 1-4 3-2 3-2 5-2"/><path fill="#A6A6A6" d="m21 87 5 2v1l-7 1v1h-6l-1-2h4l-1-2c1.207.03 1.207.03 2.438.063 2.496.233 2.496.233 3.562-1.063"/><path fill="#BEC0C0" d="M116 60h4v2l3 1c-1 1-1 1-3.066 1.098l-2.496-.035-2.504-.028L113 64v-2h3z"/><path fill="#383A3B" d="m204 44 1 3-4 1-1-2c-2.356-.468-2.356-.468-5.062-.625l-2.786-.227L190 45v-1q2.374-.293 4.75-.562l2.672-.317c2.51-.118 4.256-.078 6.578.879"/><path fill="#2D2E2E" d="m205 103 11 1v2h-11z"/><path fill="#222522" d="m130 103 14 1-1 2q-2.406.039-4.812.063l-2.708.035C133 106 133 106 130 105z"/><path fill="#2B2D2E" d="m112.25 36.938 2.703.027L117 37c-3.12 1.793-5.677 2.343-9.25 2.625l-2.703.227L103 40v-2c3.155-.936 5.966-1.106 9.25-1.062"/><path fill="#464747" d="m18 104 5 1-2 1 1 5h-4z"/><path fill="#0E0E0E" d="M194 97c.75 1.75.75 1.75 1 4-1.937 2.25-1.937 2.25-4 4l-2-1c1.25-3.653 1.671-4.78 5-7"/><path fill="#DDDEDE" d="M180 94c2.438.75 2.438.75 5 2 .813 2.125.813 2.125 1 4-1.812 1.563-1.812 1.563-4 3l-3-1 5-2-2-1.875C180 96 180 96 180 94"/><path fill="#F1F1F1" d="M194 61h6l1 4h-7z"/><path fill="#D4D5D5" d="M86 47c-1.37 3.161-1.99 3.993-5 6v-2l-3-1c3.061-2.624 3.732-3 8-3"/><path fill="#3B3B3B" d="m73 88 1 4 3.313-.625C81 91 81 91 84 93l-12 1c0-5 0-5 1-6"/><path fill="#C6C6C6" d="m75 87 7 3c-3.088 1.765-4.233 2-8 2z"/><path fill="#434344" d="M67 69v3l-17-1v-1q3.125-.253 6.25-.5l3.516-.281C62.173 69.056 64.587 69 67 69"/><path fill="#AEB0B0" d="M33 62v3c-3.135 1.858-5.375 2.201-9 2l1-3c2.896-1.448 4.742-2 8-2"/><path fill="#47494C" d="m156 44 6 1 1 3-2.375-.125c-2.786-.162-2.786-.162-4.625 2.125z"/><path fill="#232323" d="M37 97c2.932 2.853 5.643 5.65 8 9-2.875-.312-2.875-.312-6-1-2.152-3.228-2.2-4.284-2-8"/><path fill="#2B2E2D" d="m179 96 5 2v2l-6 1z"/><path fill="#0D0D0D" d="m206 92-1 3c-2.562 1.188-2.562 1.188-5 2l-1-5c3.133-1.044 3.99-.934 7 0"/><path fill="#202020" d="m30 81 3 1-1 9c-1.642-3.283-2.52-5.454-3-9z"/><path fill="#393A3A" d="m161 71 2 1-2 2v3c-1.375 1.688-1.375 1.688-3 3h-2c1.25-3.46 2.675-6.147 5-9"/><path fill="#616466" d="m133 51 13 1v1l-12 1z"/><path fill="#222323" d="M218 87h7l-1 3h-8l2-1z"/><path fill="#5C6064" d="M181 49v3h-9v-2c3.153-.7 5.727-1 9-1"/><path fill="#0A0A0A" d="m168 84 3 1-1.937 2.688C167.192 90.692 166.406 92.55 166 96h-1c.114-1.626.242-3.25.375-4.875.07-.905.14-1.81.21-2.742C166 86 166 86 168 84"/><path fill="#2F3132" d="m96 42 3 1a210 210 0 0 1-3.312 2.563l-1.864 1.44L92 48l-3-1a210 210 0 0 1 3.313-2.562l1.863-1.442z"/><path fill="#B1B1B1" d="m185 89 3 1c.125 5.75.125 5.75-1 8h-2l-1-3h2z"/><path fill="#292D2B" d="M61 90v5l-5-1 1-3c2-1 2-1 4-1"/><path fill="#323232" d="m160 90 3 1v4h-2l-1 3c-.981-3.053-.981-4.947 0-8"/><path fill="#343434" d="M186 90v5l-5-1 1-3c2-1 2-1 4-1"/><path fill="#212121" d="m43 90 5 2-1 3h-4z"/><path fill="#242424" d="m178 85 5 1-2 4h-3z"/><path fill="#A2A4A4" d="m227 65 1 4 2-2v6l-4-1z"/><path fill="#7E7171" d="M225 55h1v6h2l-1 3-6-2 4-1z"/><path fill="#535556" d="M110 36h8v2l2 1h-2v2l-4-1 1-2-5-1z"/><path fill="#1C1D1C" d="M192 94h3l1 4-6 2z"/><path fill="#262526" d="m168 90 5 2v2l-5 1z"/><path fill="#9B9B9B" d="m214 85 8 1c-3.135 1.858-5.375 2.201-9 2z"/><path fill="#454342" d="M213 54h8l1 2-9 1z"/><path fill="#53575B" d="m160 47 4 2-1 3h-4z"/><path fill="#CBCBCC" d="m108 35-5 2v2l-5 1c1.05-2.865 1.701-3.84 4.438-5.312C105 34 105 34 108 35"/><path fill="#1A1A1A" d="m173 96 3 1-1 4-4-1z"/><path fill="#232524" d="M46 97h4v4l-5-1z"/><path fill="#CECECE" d="M168 87c1.875.313 1.875.313 4 1l2 3-7-1z"/><path fill="#D5D5D5" d="m183 86 3 1-2 4-4-1z"/><path fill="#4E4E4E" d="M11 80h2l1 5h-2l-1 4z"/><path fill="#424443" d="M82 52h2v2l3 1c-2.647 1.46-3.894 2-7 2z"/><path d="m15 61 2 1-5 4c1.875-3.875 1.875-3.875 3-5"/><path fill="#020202" d="m131 26 2 1-4 2z"/><path d="M231 89v3Z"/><path fill="#101010" d="m77 48 2 1h-3z"/><path d="m80 46 2 1h-3z"/><path fill="#010101" d="m83 44 2 1h-3zm130 51 3 1Z"/><path d="m24 97 2 1Zm-4-2 2 1Zm54-45 2 1Z"/><path fill="#010101" d="m91 39 2 1Z"/><path d="m94 37 2 1Z"/><path fill="#030303" d="m96 36 2 1Z"/><path d="m98 35 2 1Z"/><path fill="#020202" d="m100 34 2 1Z"/><path d="m133 25 2 1Z"/></svg>