<?xml version="1.0" encoding="UTF-8"?>
<svg version="1.1" xmlns="http://www.w3.org/2000/svg" width="240" height="146">
<path d="M0 0 C3.0117949 0.00164459 4.98070679 -0.71742526 7.68261719 -1.99853516 C7.35261719 -0.67853516 7.02261719 0.64146484 6.68261719 2.00146484 C8.50792969 1.93958984 8.50792969 1.93958984 10.37011719 1.87646484 C13.89854175 1.87646484 16.53011394 2.28191762 19.68261719 4.00146484 C20.01261719 4.66146484 20.34261719 5.32146484 20.68261719 6.00146484 C22.88588914 7.10113443 22.88588914 7.10113443 25.49511719 8.06396484 C26.3678125 8.40556641 27.24050781 8.74716797 28.13964844 9.09912109 C30.59245635 10.01786201 30.59245635 10.01786201 32.82714844 10.52490234 C34.68261719 11.00146484 34.68261719 11.00146484 37.55761719 12.56396484 C40.90515195 14.10383083 43.04790489 14.26108715 46.68261719 14.00146484 C46.68261719 14.66146484 46.68261719 15.32146484 46.68261719 16.00146484 C49.32261719 15.67146484 51.96261719 15.34146484 54.68261719 15.00146484 C54.68261719 15.66146484 54.68261719 16.32146484 54.68261719 17.00146484 C56.33261719 17.33146484 57.98261719 17.66146484 59.68261719 18.00146484 C59.7921875 19.12166016 59.90175781 20.24185547 60.01464844 21.39599609 C60.17411612 22.86872706 60.33431036 24.34137949 60.49511719 25.81396484 C60.56537109 26.55195312 60.635625 27.28994141 60.70800781 28.05029297 C61.16649502 32.10331988 61.52410989 34.37077176 64.68261719 37.00146484 C65.62440729 41.78889785 66.3199663 46.30773073 64.68261719 51.00146484 C60.30419105 54.34289532 55.58741983 54.47765292 50.26855469 54.79052734 C47.75832235 54.9131935 47.75832235 54.9131935 45.70605469 55.55224609 C43.00854042 56.15111509 40.67267849 55.85754284 37.93261719 55.56396484 C36.94777344 55.46212891 35.96292969 55.36029297 34.94824219 55.25537109 C34.20058594 55.17158203 33.45292969 55.08779297 32.68261719 55.00146484 C32.35261719 56.32146484 32.02261719 57.64146484 31.68261719 59.00146484 C33.09800781 58.9840625 33.09800781 58.9840625 34.54199219 58.96630859 C42.65187603 58.90931142 50.60553916 59.15916248 58.68261719 60.00146484 C59.01261719 61.32146484 59.34261719 62.64146484 59.68261719 64.00146484 C43.99732894 66.37949097 28.31076426 66.28231214 12.48783875 66.23718429 C8.65400406 66.22820846 4.82017118 66.23016542 0.98632812 66.23054504 C-5.48911581 66.22961208 -11.96451259 66.22100511 -18.43994141 66.20727539 C-24.95329727 66.19350929 -31.46660984 66.1862457 -37.97998047 66.18676758 C-79.10331203 66.18978899 -120.20252587 65.89056822 -161.31738281 65.00146484 C-161.31738281 63.68146484 -161.31738281 62.36146484 -161.31738281 61.00146484 C-158.52711611 60.07137594 -156.55208739 59.81447715 -153.64941406 59.68505859 C-152.75673828 59.64316406 -151.8640625 59.60126953 -150.94433594 59.55810547 C-150.01556641 59.51878906 -149.08679688 59.47947266 -148.12988281 59.43896484 C-147.18951172 59.39578125 -146.24914062 59.35259766 -145.28027344 59.30810547 C-142.95945427 59.2020782 -140.63852956 59.10001456 -138.31738281 59.00146484 C-139.02765625 58.95248047 -139.73792969 58.90349609 -140.46972656 58.85302734 C-141.38882813 58.77826172 -142.30792969 58.70349609 -143.25488281 58.62646484 C-144.17140625 58.55685547 -145.08792969 58.48724609 -146.03222656 58.41552734 C-146.78632813 58.27888672 -147.54042969 58.14224609 -148.31738281 58.00146484 C-148.64738281 57.34146484 -148.97738281 56.68146484 -149.31738281 56.00146484 C-150.67863281 56.27990234 -150.67863281 56.27990234 -152.06738281 56.56396484 C-155.86652522 57.07538786 -157.94958923 56.68536163 -161.31738281 55.00146484 C-161.42600114 52.29204092 -161.50496858 49.58702584 -161.56738281 46.87646484 C-161.61765625 45.73564453 -161.61765625 45.73564453 -161.66894531 44.57177734 C-161.78692222 37.7291166 -159.40808603 34.30123838 -154.81738281 29.25146484 C-151.222516 26.01608471 -148.87444433 25.00800166 -144.12988281 24.50146484 C-142.24269531 24.25396484 -142.24269531 24.25396484 -140.31738281 24.00146484 C-139.98738281 23.34146484 -139.65738281 22.68146484 -139.31738281 22.00146484 C-136.45800781 21.43896484 -136.45800781 21.43896484 -132.56738281 21.00146484 C-131.52263794 20.87964844 -131.52263794 20.87964844 -130.45678711 20.75537109 C-126.22939997 20.27556288 -121.99664087 19.87653487 -117.75878906 19.50146484 C-116.35741699 19.37578125 -116.35741699 19.37578125 -114.92773438 19.24755859 C-113.09052582 19.08596119 -111.25262028 18.93206615 -109.4140625 18.78662109 C-104.08225406 18.32597224 -99.99813839 17.34184263 -95.19238281 14.93896484 C-93.31738281 14.00146484 -93.31738281 14.00146484 -90.31738281 13.00146484 C-87.82381592 11.71071065 -85.34827037 10.40110671 -82.87988281 9.06396484 C-80.918074 8.00644206 -78.95577279 6.95005324 -76.98974609 5.90039062 C-75.68308891 5.19803855 -74.38676274 4.47645774 -73.09472656 3.74755859 C-71.31738281 3.00146484 -71.31738281 3.00146484 -67.31738281 3.00146484 C-66.98738281 2.34146484 -66.65738281 1.68146484 -66.31738281 1.00146484 C-65.32738281 1.49646484 -65.32738281 1.49646484 -64.31738281 2.00146484 C-63.98738281 1.34146484 -63.65738281 0.68146484 -63.31738281 0.00146484 C-62.32738281 0.33146484 -61.33738281 0.66146484 -60.31738281 1.00146484 C-59.98738281 0.34146484 -59.65738281 -0.31853516 -59.31738281 -0.99853516 C-39.50133728 -2.19009175 -19.74547702 -2.30577084 0 0 Z M-103.31738281 56.00146484 C-102.98738281 56.99146484 -102.65738281 57.98146484 -102.31738281 59.00146484 C-69.31738281 59.00146484 -36.31738281 59.00146484 -2.31738281 59.00146484 C-4.85132316 55.90828522 -4.85132316 55.90828522 -7.21702862 55.63232136 C-8.2969091 55.63646943 -8.2969091 55.63646943 -9.39860535 55.64070129 C-10.64167198 55.6345153 -10.64167198 55.6345153 -11.90985107 55.62820435 C-12.81543762 55.63899017 -13.72102417 55.649776 -14.65405273 55.66088867 C-16.08848473 55.66023155 -16.08848473 55.66023155 -17.55189514 55.65956116 C-20.71742058 55.66165365 -23.88241848 55.68500668 -27.04785156 55.70849609 C-29.24074514 55.7140904 -31.43364247 55.71836128 -33.62654114 55.72135925 C-39.40195036 55.73282098 -45.17713371 55.76229974 -50.95245361 55.79547119 C-56.84424789 55.82614338 -62.73607861 55.8398585 -68.62792969 55.85498047 C-80.19118003 55.88716803 -91.75426265 55.93838053 -103.31738281 56.00146484 Z " fill="#F7F8F9" transform="translate(169.3173828125,45.99853515625)"/>
<path d="M0 0 C5.56482427 3.15756883 8.10539144 7.17297092 10.3359375 13.12109375 C10.71054312 16.11793873 10.59990392 19.10434808 10.5859375 22.12109375 C11.7083358 22.07614525 11.7083358 22.07614525 12.85340881 22.0302887 C33.80969339 21.21513579 54.7298073 20.99054462 75.70031738 21.0524292 C79.65762767 21.06293018 83.61494523 21.06728215 87.57226562 21.07226562 C95.24350815 21.08277522 102.91471679 21.09968244 110.5859375 21.12109375 C110.64634216 20.5002742 110.70674683 19.87945465 110.76898193 19.23982239 C110.85263 18.42696274 110.93627808 17.61410309 111.02246094 16.77661133 C111.1034906 15.97016678 111.18452026 15.16372223 111.26800537 14.33283997 C112.0279074 9.04645874 115.40795774 5.2149321 119.2109375 1.68359375 C124.2858034 -1.65513381 129.70569295 -1.57069973 135.5859375 -0.87890625 C141.12983882 1.11503473 144.80163171 4.78676681 147.6875 9.8515625 C149.2618664 13.82854893 149.49028981 17.87781463 149.5859375 22.12109375 C148.2659375 22.12109375 146.9459375 22.12109375 145.5859375 22.12109375 C145.2559375 23.44109375 144.9259375 24.76109375 144.5859375 26.12109375 C145.52953125 26.10949219 146.473125 26.09789063 147.4453125 26.0859375 C155.55519634 26.02894032 163.50885947 26.27879139 171.5859375 27.12109375 C171.9159375 28.44109375 172.2459375 29.76109375 172.5859375 31.12109375 C156.90064925 33.49911987 141.21408457 33.40194105 125.39115906 33.35681319 C121.55732438 33.34783736 117.72349149 33.34979432 113.88964844 33.35017395 C107.4142045 33.34924099 100.93880772 33.34063401 94.46337891 33.3269043 C87.95002304 33.3131382 81.43671047 33.3058746 74.92333984 33.30639648 C33.80000828 33.3094179 -7.29920556 33.01019713 -48.4140625 32.12109375 C-48.4140625 30.80109375 -48.4140625 29.48109375 -48.4140625 28.12109375 C-45.6237958 27.19100485 -43.64876708 26.93410606 -40.74609375 26.8046875 C-39.85341797 26.76279297 -38.96074219 26.72089844 -38.04101562 26.67773438 C-37.11224609 26.63841797 -36.18347656 26.59910156 -35.2265625 26.55859375 C-34.28619141 26.51541016 -33.34582031 26.47222656 -32.37695312 26.42773438 C-30.05613396 26.3217071 -27.73520925 26.21964346 -25.4140625 26.12109375 C-26.12433594 26.07210937 -26.83460937 26.023125 -27.56640625 25.97265625 C-28.48550781 25.89789063 -29.40460937 25.823125 -30.3515625 25.74609375 C-31.26808594 25.67648438 -32.18460938 25.606875 -33.12890625 25.53515625 C-33.88300781 25.39851563 -34.63710938 25.261875 -35.4140625 25.12109375 C-35.7440625 24.46109375 -36.0740625 23.80109375 -36.4140625 23.12109375 C-37.3215625 23.30671875 -38.2290625 23.49234375 -39.1640625 23.68359375 C-42.96320491 24.19501677 -45.04626892 23.80499054 -48.4140625 22.12109375 C-48.4140625 16.51109375 -48.4140625 10.90109375 -48.4140625 5.12109375 C-48.0840625 5.12109375 -47.7540625 5.12109375 -47.4140625 5.12109375 C-47.4140625 7.10109375 -47.4140625 9.08109375 -47.4140625 11.12109375 C-41.9690625 10.62609375 -41.9690625 10.62609375 -36.4140625 10.12109375 C-35.4240625 13.09109375 -34.4340625 16.06109375 -33.4140625 19.12109375 C-32.7540625 19.12109375 -32.0940625 19.12109375 -31.4140625 19.12109375 C-31.4140625 19.78109375 -31.4140625 20.44109375 -31.4140625 21.12109375 C-30.4240625 20.79109375 -29.4340625 20.46109375 -28.4140625 20.12109375 C-27.56360629 17.52488761 -27.56360629 17.52488761 -27.0390625 14.43359375 C-25.46801751 7.57960472 -23.58409262 4.44062798 -17.8515625 0.24609375 C-12.0183369 -1.6629619 -5.84922235 -2.12957124 0 0 Z M9.5859375 23.12109375 C9.9159375 24.11109375 10.2459375 25.10109375 10.5859375 26.12109375 C43.5859375 26.12109375 76.5859375 26.12109375 110.5859375 26.12109375 C108.05199715 23.02791413 108.05199715 23.02791413 105.68629169 22.75195026 C104.60641121 22.75609833 104.60641121 22.75609833 103.50471497 22.7603302 C102.26164833 22.75414421 102.26164833 22.75414421 100.99346924 22.74783325 C100.08788269 22.75861908 99.18229614 22.76940491 98.24926758 22.78051758 C96.81483559 22.77986046 96.81483559 22.77986046 95.35142517 22.77919006 C92.18589973 22.78128255 89.02090183 22.80463559 85.85546875 22.828125 C83.66257517 22.83371931 81.46967784 22.83799019 79.27677917 22.84098816 C73.50136996 22.85244988 67.7261866 22.88192864 61.9508667 22.9151001 C56.05907242 22.94577229 50.1672417 22.9594874 44.27539062 22.97460938 C32.71214028 23.00679694 21.14905766 23.05800944 9.5859375 23.12109375 Z " fill="#0C0C0D" transform="translate(56.4140625,78.87890625)"/>
<path d="M0 0 C3.0117949 0.00164459 4.98070679 -0.71742526 7.68261719 -1.99853516 C7.35261719 -0.67853516 7.02261719 0.64146484 6.68261719 2.00146484 C7.67261719 2.49646484 7.67261719 2.49646484 8.68261719 3.00146484 C7.36261719 3.33146484 6.04261719 3.66146484 4.68261719 4.00146484 C4.68261719 4.66146484 4.68261719 5.32146484 4.68261719 6.00146484 C5.49085938 6.38818359 6.29910156 6.77490234 7.13183594 7.17333984 C8.20046875 7.69412109 9.26910156 8.21490234 10.37011719 8.75146484 C11.42585937 9.26193359 12.48160156 9.77240234 13.56933594 10.29833984 C16.58264802 11.94677656 19.07549367 13.77646147 21.68261719 16.00146484 C21.35261719 16.66146484 21.02261719 17.32146484 20.68261719 18.00146484 C-1.31738281 18.00146484 -23.31738281 18.00146484 -45.31738281 18.00146484 C-44.44238281 10.37646484 -44.44238281 10.37646484 -43.31738281 7.00146484 C-53.3292336 7.38877048 -61.79402387 9.65527196 -70.31738281 15.00146484 C-69.32738281 15.99146484 -69.32738281 15.99146484 -68.31738281 17.00146484 C-68.31738281 17.99146484 -68.31738281 18.98146484 -68.31738281 20.00146484 C-70.36816406 20.22932943 -72.41894531 20.45719401 -74.46972656 20.68505859 C-76.3287851 20.82033098 -76.3287851 20.82033098 -77.31738281 22.00146484 C-79.31696645 22.04227267 -81.31783535 22.04400841 -83.31738281 22.00146484 C-83.31738281 21.34146484 -83.31738281 20.68146484 -83.31738281 20.00146484 C-84.63738281 19.67146484 -85.95738281 19.34146484 -87.31738281 19.00146484 C-85.66738281 17.68146484 -84.01738281 16.36146484 -82.31738281 15.00146484 C-81.65738281 15.33146484 -80.99738281 15.66146484 -80.31738281 16.00146484 C-80.64738281 16.66146484 -80.97738281 17.32146484 -81.31738281 18.00146484 C-78.34738281 18.00146484 -75.37738281 18.00146484 -72.31738281 18.00146484 C-74.32467362 14.99052864 -75.15622506 14.37129987 -78.31738281 13.00146484 C-76.57056988 12.01662376 -74.81979771 11.03880297 -73.06738281 10.06396484 C-72.09285156 9.51869141 -71.11832031 8.97341797 -70.11425781 8.41162109 C-67.78127872 7.23535649 -65.86387519 6.48044793 -63.31738281 6.00146484 C-68.38740428 6.59497926 -72.39736603 8.9283772 -76.81738281 11.31396484 C-77.56375 11.70519531 -78.31011719 12.09642578 -79.07910156 12.49951172 C-86.75636304 16.35310408 -86.75636304 16.35310408 -91.62207031 23.09912109 C-92.48426614 27.9380741 -92.53413573 32.53724184 -92.44238281 37.43896484 C-92.43335937 38.36128906 -92.42433594 39.28361328 -92.41503906 40.23388672 C-92.39165941 42.49002293 -92.35889197 44.74560168 -92.31738281 47.00146484 C-90.33738281 47.00146484 -88.35738281 47.00146484 -86.31738281 47.00146484 C-86.31738281 47.33146484 -86.31738281 47.66146484 -86.31738281 48.00146484 C-88.29738281 48.00146484 -90.27738281 48.00146484 -92.31738281 48.00146484 C-92.31738281 48.66146484 -92.31738281 49.32146484 -92.31738281 50.00146484 C-91.23432861 49.99622803 -90.15127441 49.99099121 -89.03540039 49.9855957 C-84.95565644 49.96727679 -80.875916 49.9559362 -76.79614258 49.9465332 C-75.04190456 49.94155368 -73.28767057 49.93476764 -71.53344727 49.92602539 C-61.40420945 49.87686837 -51.40596835 49.98400318 -41.31738281 51.00146484 C-40.82238281 50.01146484 -40.82238281 50.01146484 -40.31738281 49.00146484 C-40.31738281 49.66146484 -40.31738281 50.32146484 -40.31738281 51.00146484 C-38.46306641 50.77136719 -38.46306641 50.77136719 -36.57128906 50.53662109 C-30.80930416 49.89640055 -25.04567314 49.66182807 -19.25488281 49.43896484 C-18.19849609 49.39578125 -17.14210937 49.35259766 -16.05371094 49.30810547 C-13.47503402 49.20309148 -10.89627847 49.10093608 -8.31738281 49.00146484 C-8.64738281 49.66146484 -8.97738281 50.32146484 -9.31738281 51.00146484 C-14.09722609 52.49565382 -19.26550022 52.20956453 -24.22753906 52.28271484 C-25.19082626 52.30112427 -26.15411346 52.31953369 -27.14659119 52.33850098 C-30.22429456 52.39708688 -33.30205435 52.44989863 -36.37988281 52.50146484 C-53.87703122 52.70821476 -53.87703122 52.70821476 -71.31738281 54.00146484 C-71.31738281 54.33146484 -71.31738281 54.66146484 -71.31738281 55.00146484 C-81.54738281 55.00146484 -91.77738281 55.00146484 -102.31738281 55.00146484 C-102.97738281 51.37146484 -103.63738281 47.74146484 -104.31738281 44.00146484 C-106.33589196 39.29161016 -108.42390247 36.00446907 -113.12988281 33.66162109 C-118.98238231 31.89542035 -125.80273304 31.79782983 -131.31738281 34.62646484 C-138.11326528 40.00653846 -139.20485421 45.77460859 -140.31738281 54.00146484 C-141.63738281 54.00146484 -142.95738281 54.00146484 -144.31738281 54.00146484 C-144.31738281 53.34146484 -144.31738281 52.68146484 -144.31738281 52.00146484 C-144.97738281 52.00146484 -145.63738281 52.00146484 -146.31738281 52.00146484 C-147.30738281 49.03146484 -148.29738281 46.06146484 -149.31738281 43.00146484 C-154.76238281 43.49646484 -154.76238281 43.49646484 -160.31738281 44.00146484 C-161.0383842 37.15195163 -161.0383842 37.15195163 -159.05175781 33.98193359 C-157.53775953 32.23642587 -155.98499303 30.59995132 -154.31738281 29.00146484 C-153.65738281 28.34146484 -152.99738281 27.68146484 -152.31738281 27.00146484 C-149.62114263 25.23853857 -147.27590974 24.82225829 -144.12988281 24.50146484 C-142.24269531 24.25396484 -142.24269531 24.25396484 -140.31738281 24.00146484 C-139.98738281 23.34146484 -139.65738281 22.68146484 -139.31738281 22.00146484 C-136.45800781 21.43896484 -136.45800781 21.43896484 -132.56738281 21.00146484 C-131.52263794 20.87964844 -131.52263794 20.87964844 -130.45678711 20.75537109 C-126.22939997 20.27556288 -121.99664087 19.87653487 -117.75878906 19.50146484 C-116.35741699 19.37578125 -116.35741699 19.37578125 -114.92773438 19.24755859 C-113.09052582 19.08596119 -111.25262028 18.93206615 -109.4140625 18.78662109 C-104.08225406 18.32597224 -99.99813839 17.34184263 -95.19238281 14.93896484 C-93.31738281 14.00146484 -93.31738281 14.00146484 -90.31738281 13.00146484 C-87.82381592 11.71071065 -85.34827037 10.40110671 -82.87988281 9.06396484 C-80.918074 8.00644206 -78.95577279 6.95005324 -76.98974609 5.90039062 C-75.68308891 5.19803855 -74.38676274 4.47645774 -73.09472656 3.74755859 C-71.31738281 3.00146484 -71.31738281 3.00146484 -67.31738281 3.00146484 C-66.98738281 2.34146484 -66.65738281 1.68146484 -66.31738281 1.00146484 C-65.32738281 1.49646484 -65.32738281 1.49646484 -64.31738281 2.00146484 C-63.98738281 1.34146484 -63.65738281 0.68146484 -63.31738281 0.00146484 C-62.32738281 0.33146484 -61.33738281 0.66146484 -60.31738281 1.00146484 C-59.98738281 0.34146484 -59.65738281 -0.31853516 -59.31738281 -0.99853516 C-39.50133728 -2.19009175 -19.74547702 -2.30577084 0 0 Z " fill="#E9E9E9" transform="translate(169.3173828125,45.99853515625)"/>
<path d="M0 0 C0.44988281 0.46664062 0.89976562 0.93328125 1.36328125 1.4140625 C3.39305293 3.38085797 5.30474287 4.11940555 7.9375 5.125 C8.79214844 5.45757812 9.64679688 5.79015625 10.52734375 6.1328125 C12.92148776 7.0181113 12.92148776 7.0181113 15.13671875 7.51953125 C17 8 17 8 19.875 9.5625 C23.22253476 11.10236599 25.3652877 11.25962231 29 11 C29 11.66 29 12.32 29 13 C31.64 12.67 34.28 12.34 37 12 C37 12.66 37 13.32 37 14 C39.475 14.495 39.475 14.495 42 15 C42.16435547 16.68029297 42.16435547 16.68029297 42.33203125 18.39453125 C42.49149893 19.86726222 42.65169317 21.33991465 42.8125 22.8125 C42.88275391 23.55048828 42.95300781 24.28847656 43.02539062 25.04882812 C43.48387783 29.10185503 43.8414927 31.36930692 47 34 C47.9417901 38.787433 48.63734911 43.30626589 47 48 C42.62157386 51.34143048 37.90480264 51.47618808 32.5859375 51.7890625 C30.05717812 51.92076615 30.05717812 51.92076615 27.89453125 52.546875 C24.82917922 53.28003136 22.05501953 52.57641878 19 52 C17.49842551 50.49842551 17.88890204 49.09559893 17.8125 47 C17.2253673 41.25710825 14.76143713 37.29497431 11 33 C6.29937318 29.30665036 1.58697576 29.80421211 -4.140625 29.9609375 C-7.19776591 30.00270172 -10.01597074 29.66311761 -13 29 C-12.34 26.36 -11.68 23.72 -11 21 C-14.96 21.33 -18.92 21.66 -23 22 C-23.33 21.01 -23.66 20.02 -24 19 C-19.38 19 -14.76 19 -10 19 C-10.33 18.01 -10.66 17.02 -11 16 C-8.73957429 14.86978715 -7.07089004 14.73065656 -4.5625 14.5 C-1.78512294 14.24376752 0.32662467 13.89112511 3 13 C-5.26384796 7.58197379 -5.26384796 7.58197379 -14 3 C-13.67 2.01 -13.34 1.02 -13 0 C-8.3768446 -0.83216797 -4.56657934 -1.24543073 0 0 Z " fill="#F5F5F5" transform="translate(187,49)"/>
<path d="M0 0 C-2.18490182 2.18490182 -4.28650812 3.04159977 -7.11328125 4.203125 C-9.8071708 5.34091686 -12.39828744 6.66741552 -15 8 C-14.34 8.45375 -13.68 8.9075 -13 9.375 C-12.34 9.91125 -11.68 10.4475 -11 11 C-11 11.66 -11 12.32 -11 13 C-14.63 13.33 -18.26 13.66 -22 14 C-21.67 13.01 -21.34 12.02 -21 11 C-22.32 11.99 -23.64 12.98 -25 14 C-24.01 14.33 -23.02 14.66 -22 15 C-22 15.66 -22 16.32 -22 17 C-20.948125 16.67 -19.89625 16.34 -18.8125 16 C-15.61126643 15.16033218 -13.2588992 14.80249096 -10 15 C-10 16.32 -10 17.64 -10 19 C-1.75 19 6.5 19 15 19 C15 19.66 15 20.32 15 21 C16.32 21 17.64 21 19 21 C20 26 20 26 19 38 C7.45 38.99 -4.1 39.98 -16 41 C-12.40867187 40.7834375 -8.81734375 40.566875 -5.1171875 40.34375 C-1.59559816 40.13426226 1.92607254 39.92619604 5.44775391 39.71826172 C7.87427464 39.57423639 10.30070971 39.42875935 12.72705078 39.28173828 C48.69544215 37.10497684 48.69544215 37.10497684 55 40 C54.67 40.99 54.34 41.98 54 43 C46.60892035 43.26601578 39.21767666 43.52702587 31.82621861 43.78230286 C28.39097734 43.9010884 24.95580378 44.0213556 21.52075195 44.14550781 C4.006192 44.77481189 -13.47373666 45.15502712 -31 45 C-34.12291957 20.88029652 -34.12291957 20.88029652 -29 14 C-26.25799019 11.50087218 -23.23964877 9.78708886 -20 8 C-19.40445313 7.6587207 -18.80890625 7.31744141 -18.1953125 6.96582031 C-16.22232572 5.83571092 -14.23900002 4.72665969 -12.25 3.625 C-11.61223633 3.26664063 -10.97447266 2.90828125 -10.31738281 2.5390625 C-6.73537931 0.61765255 -4.08306994 -0.45194286 0 0 Z " fill="#EAEAEA" transform="translate(108,51)"/>
<path d="M0 0 C2 2 2 2 2 4 C3.62626404 5.38232443 5.2925002 6.71937515 7 8 C6.67 8.66 6.34 9.32 6 10 C6.495 11.485 6.495 11.485 7 13 C7.7808157 19.69270597 7.7808157 19.69270597 5.80078125 23.0078125 C3.17938363 26.16405448 0.84666409 28.43729271 -3 30 C-6.25 30.125 -6.25 30.125 -9 30 C-9 30.33 -9 30.66 -9 31 C21.95461731 31.83162457 52.91182522 32.22322266 83.875 32.5625 C84.88791107 32.5736018 85.90082214 32.5847036 86.94442749 32.59614182 C99.62957635 32.73479969 112.31476686 32.86928957 125 33 C125 33.33 125 33.66 125 34 C107.37500768 34.03041336 89.7500149 34.05090849 72.125 34.0625 C70.83251972 34.06335602 69.54003944 34.06421204 68.2083931 34.06509399 C30.12859538 34.08739877 -7.9312772 33.98968677 -46 33 C-46 31.68 -46 30.36 -46 29 C-43.2097333 28.0699111 -41.23470458 27.81301231 -38.33203125 27.68359375 C-37.43935547 27.64169922 -36.54667969 27.59980469 -35.62695312 27.55664062 C-34.69818359 27.51732422 -33.76941406 27.47800781 -32.8125 27.4375 C-31.87212891 27.39431641 -30.93175781 27.35113281 -29.96289062 27.30664062 C-27.64207146 27.20061335 -25.32114675 27.09854971 -23 27 C-23.71027344 26.95101562 -24.42054687 26.90203125 -25.15234375 26.8515625 C-26.07144531 26.77679688 -26.99054687 26.70203125 -27.9375 26.625 C-28.85402344 26.55539063 -29.77054688 26.48578125 -30.71484375 26.4140625 C-31.46894531 26.27742188 -32.22304688 26.14078125 -33 26 C-33.33 25.34 -33.66 24.68 -34 24 C-34.9075 24.185625 -35.815 24.37125 -36.75 24.5625 C-40.54914241 25.07392302 -42.63220642 24.68389679 -46 23 C-46 17.39 -46 11.78 -46 6 C-45.67 6 -45.34 6 -45 6 C-45 7.98 -45 9.96 -45 12 C-39.555 11.505 -39.555 11.505 -34 11 C-33.01 13.97 -32.02 16.94 -31 20 C-30.34 20 -29.68 20 -29 20 C-29 20.66 -29 21.32 -29 22 C-28.01 21.67 -27.02 21.34 -26 21 C-25.14954379 18.40379386 -25.14954379 18.40379386 -24.625 15.3125 C-23.05395501 8.45851097 -21.17003012 5.31953423 -15.4375 1.125 C-10.376517 -0.53132171 -5.28210344 -0.60886522 0 0 Z " fill="#131414" transform="translate(54,78)"/>
<path d="M0 0 C-0.33 0.66 -0.66 1.32 -1 2 C-21.79 2 -42.58 2 -64 2 C-63 -6 -63 -6 -62 -9 C-72.01185079 -8.61269436 -80.47664105 -6.34619289 -89 -1 C-88.34 -0.34 -87.68 0.32 -87 1 C-87 1.99 -87 2.98 -87 4 C-89.05078125 4.22786458 -91.1015625 4.45572917 -93.15234375 4.68359375 C-95.01140229 4.81886614 -95.01140229 4.81886614 -96 6 C-97.99958364 6.04080783 -100.00045254 6.04254356 -102 6 C-102 5.34 -102 4.68 -102 4 C-103.32 3.67 -104.64 3.34 -106 3 C-104.35 1.68 -102.7 0.36 -101 -1 C-100.34 -0.67 -99.68 -0.34 -99 0 C-99.33 0.66 -99.66 1.32 -100 2 C-97.03 2 -94.06 2 -91 2 C-93.0072908 -1.0109362 -93.83884224 -1.63016497 -97 -3 C-69.29077603 -18.80373991 -26.18387762 -21.19647236 0 0 Z " fill="#292D30" transform="translate(188,62)"/>
<path d="M0 0 C6.93 0 13.86 0 21 0 C21 0.66 21 1.32 21 2 C24.96 2 28.92 2 33 2 C33 2.99 33 3.98 33 5 C33.99 4.67 34.98 4.34 36 4 C35.67 5.32 35.34 6.64 35 8 C37.475 8.495 37.475 8.495 40 9 C38.25 10.0625 38.25 10.0625 36 11 C34.68 10.67 33.36 10.34 32 10 C29.69 13.63 27.38 17.26 25 21 C23.80503906 20.67257813 22.61007813 20.34515625 21.37890625 20.0078125 C14.92775411 18.57422313 8.51361154 18.78410213 1.9375 18.875 C0.69033203 18.88402344 -0.55683594 18.89304687 -1.84179688 18.90234375 C-4.89473504 18.92573791 -7.94726306 18.95851826 -11 19 C-11.05383848 16.54137599 -11.09359038 14.0839245 -11.125 11.625 C-11.14175781 10.92632812 -11.15851563 10.22765625 -11.17578125 9.5078125 C-11.19344267 7.67102514 -11.10303261 5.83398037 -11 4 C-8.60236815 1.60236815 -7.66726502 1.65719414 -4.375 1.375 C-3.55773437 1.30023438 -2.74046875 1.22546875 -1.8984375 1.1484375 C-1.27195313 1.09945312 -0.64546875 1.05046875 0 1 C0 0.67 0 0.34 0 0 Z " fill="#ECECEC" transform="translate(140,69)"/>
<path d="M0 0 C0 6.93 0 13.86 0 21 C-0.99 20.01 -0.99 20.01 -2 19 C-2.928125 19.2475 -2.928125 19.2475 -3.875 19.5 C-6 20 -6 20 -8 19.5 C-10 18 -10 18 -11.8125 14.625 C-13.9915722 10.62585983 -16.61376851 8.323702 -21 7 C-26.49448151 6.27586317 -31.96231027 6.0410126 -37 8.625 C-43.79588247 14.00507362 -44.8874714 19.77314375 -46 28 C-47.32 28 -48.64 28 -50 28 C-50 27.34 -50 26.68 -50 26 C-50.66 26 -51.32 26 -52 26 C-52.99 23.03 -53.98 20.06 -55 17 C-58.63 17.33 -62.26 17.66 -66 18 C-66.602537 11.01057082 -66.602537 11.01057082 -64.88671875 8.1328125 C-63.66254412 6.69138998 -62.33721771 5.33721771 -61 4 C-60.34 4.33 -59.68 4.66 -59 5 C-60.485 7.475 -60.485 7.475 -62 10 C-54.48123582 10.02206069 -54.48123582 10.02206069 -48.125 6.5625 C-47.42375 5.716875 -46.7225 4.87125 -46 4 C-32.35281581 -2.51980203 -14.6381733 -0.19010615 0 0 Z " fill="#F4F4F5" transform="translate(75,72)"/>
<path d="M0 0 C3.53567375 3.53567375 5.15874592 6.36360864 5.375 11.3125 C5.33356225 15.00045961 5.15106937 15.80145169 2.8125 18.875 C1.884375 19.57625 0.95625 20.2775 0 21 C-0.721875 21.598125 -1.44375 22.19625 -2.1875 22.8125 C-6.50950417 24.6373462 -10.41290439 25.1467739 -15 24 C-17.91797256 21.71839379 -20.08082831 19.16472683 -22 16 C-22 15.34 -22 14.68 -22 14 C-22.66 14 -23.32 14 -24 14 C-24.495 12.515 -24.495 12.515 -25 11 C-25.0825 11.94875 -25.165 12.8975 -25.25 13.875 C-26 17 -26 17 -27.75 18.1875 C-30.24637478 19.08896867 -32.10596082 19.20276586 -34.75 19.125 C-35.54921875 19.10695313 -36.3484375 19.08890625 -37.171875 19.0703125 C-37.77515625 19.04710938 -38.3784375 19.02390625 -39 19 C-39 18.34 -39 17.68 -39 17 C-57.81 17 -76.62 17 -96 17 C-96 16.67 -96 16.34 -96 16 C-73.23 16 -50.46 16 -27 16 C-26.67 13.03 -26.34 10.06 -26 7 C-25.505 7.99 -25.505 7.99 -25 9 C-23.12119128 8.95231597 -23.12119128 8.95231597 -21 8 C-19.6273318 6.02678947 -18.29572383 4.02456848 -17 2 C-11.69851163 -2.80447383 -6.44658937 -2.44117171 0 0 Z " fill="#B1B2B2" transform="translate(194,84)"/>
<path d="M0 0 C5.08070458 2.84827378 8.54076905 6.73342096 10.6875 12.15625 C11.32575703 15.49519162 11.61095092 18.76025426 11.6875 22.15625 C10.3675 22.15625 9.0475 22.15625 7.6875 22.15625 C7.3575 23.47625 7.0275 24.79625 6.6875 26.15625 C7.63109375 26.14464844 8.5746875 26.13304688 9.546875 26.12109375 C17.65675884 26.06409657 25.61042197 26.31394764 33.6875 27.15625 C34.1825 29.13625 34.1825 29.13625 34.6875 31.15625 C19.35903228 33.42713411 4.15778229 33.37116095 -11.3125 33.15625 C-11.6425 31.50625 -11.9725 29.85625 -12.3125 28.15625 C-11.301875 28.23875 -10.29125 28.32125 -9.25 28.40625 C-4.32909077 28.09381132 -2.34427924 26.92315732 1.6875 24.15625 C4.3977342 20.0908987 4.31413192 16.92516303 3.6875 12.15625 C2.23082262 8.67289105 1.15748758 6.82029845 -2.3359375 5.2421875 C-6.43529884 4.08093497 -8.95324316 4.0620187 -13.125 5.15625 C-17.59675425 7.96205659 -19.73074228 10.92617874 -21.0625 16.03125 C-21.145 16.7325 -21.2275 17.43375 -21.3125 18.15625 C-21.6425 16.83625 -21.9725 15.51625 -22.3125 14.15625 C-23.3025 14.15625 -24.2925 14.15625 -25.3125 14.15625 C-24.92265648 8.69844073 -23.15710059 6.00085059 -19.3125 2.15625 C-13.6994691 -1.85305779 -6.44849439 -2.35282903 0 0 Z " fill="#0E0F10" transform="translate(194.3125,78.84375)"/>
<path d="M0 0 C0.85305168 2.90669462 1.07289715 5.31048873 0.87890625 8.328125 C0.83056641 9.12734375 0.78222656 9.9265625 0.73242188 10.75 C0.67634766 11.575 0.62027344 12.4 0.5625 13.25 C0.51029297 14.09046875 0.45808594 14.9309375 0.40429688 15.796875 C0.27504311 17.8649352 0.13825726 19.9325222 0 22 C0.77077881 21.9592334 1.54155762 21.9184668 2.33569336 21.87646484 C5.86911698 21.69673184 9.40316323 21.5357347 12.9375 21.375 C14.14986328 21.31054688 15.36222656 21.24609375 16.61132812 21.1796875 C23.49710623 20.88111718 29.35740026 21.12258778 36 23 C39.465 17.555 39.465 17.555 43 12 C44.65 12.66 46.3 13.32 48 14 C47.60167969 14.42410156 47.20335937 14.84820312 46.79296875 15.28515625 C41.51825784 21.1245564 39.31228496 26.12629023 38 34 C5.99 34 -26.02 34 -59 34 C-59 33.67 -59 33.34 -59 33 C-57.41599396 32.96574669 -57.41599396 32.96574669 -55.79998779 32.93080139 C-45.85300931 32.71511067 -35.90614648 32.49465083 -25.95937729 32.26950932 C-20.84552618 32.15391283 -15.73164904 32.0400028 -10.61767578 31.92993164 C-5.68334907 31.8236653 -0.74913927 31.71298896 4.18502045 31.59924126 C6.0684535 31.55660025 7.95192336 31.51555424 9.83542633 31.4761219 C12.47145383 31.42066369 15.10729402 31.35955989 17.74316406 31.29711914 C18.52359573 31.28201294 19.3040274 31.26690674 20.10810852 31.25134277 C23.55792491 31.16420976 26.67732278 30.91649649 30 30 C29.12899658 30.03029297 28.25799316 30.06058594 27.3605957 30.09179688 C24.06361396 30.20538798 20.76657562 30.31695534 17.46948242 30.42724609 C16.05474221 30.47496455 14.64002732 30.52344097 13.2253418 30.57275391 C-10.92721613 31.41299199 -10.92721613 31.41299199 -21.3125 30.5 C-22.94638672 30.36078125 -22.94638672 30.36078125 -24.61328125 30.21875 C-25.40089844 30.1465625 -26.18851563 30.074375 -27 30 C-27 29.67 -27 29.34 -27 29 C-7.2 28.34 12.6 27.68 33 27 C33.33 26.34 33.66 25.68 34 25 C20.30034184 21.8575607 4.75352672 24.55933261 -9.125 25.5 C-35.48805476 27.28091061 -35.48805476 27.28091061 -45 27 C-45 26.67 -45 26.34 -45 26 C-40.96646961 25.56398445 -36.93206566 25.13723374 -32.89672852 24.71826172 C-31.53026298 24.57516459 -30.16403884 24.42973891 -28.7980957 24.28173828 C-19.82891332 23.31191863 -11.0218014 22.79204897 -2 23 C-2.0103125 22.17089111 -2.020625 21.34178223 -2.03125 20.48754883 C-2.20305733 4.40611465 -2.20305733 4.40611465 0 0 Z " fill="#D8D8D8" transform="translate(129,66)"/>
<path d="M0 0 C0.44988281 0.46664062 0.89976562 0.93328125 1.36328125 1.4140625 C3.39305293 3.38085797 5.30474287 4.11940555 7.9375 5.125 C9.21947266 5.62386719 9.21947266 5.62386719 10.52734375 6.1328125 C12.92148776 7.0181113 12.92148776 7.0181113 15.13671875 7.51953125 C17 8 17 8 19.875 9.5625 C23.22253476 11.10236599 25.3652877 11.25962231 29 11 C29 11.66 29 12.32 29 13 C31.64 12.67 34.28 12.34 37 12 C37 12.66 37 13.32 37 14 C38.32 14 39.64 14 41 14 C41 15.98 41 17.96 41 20 C16.25 19.505 16.25 19.505 -9 19 C-9 17.68 -9 16.36 -9 15 C-8.38511719 14.93941406 -7.77023438 14.87882812 -7.13671875 14.81640625 C-5.92435547 14.69072266 -5.92435547 14.69072266 -4.6875 14.5625 C-3.88699219 14.48128906 -3.08648437 14.40007813 -2.26171875 14.31640625 C0.16087179 14.04734307 0.16087179 14.04734307 3 13 C-5.26384796 7.58197379 -5.26384796 7.58197379 -14 3 C-13.67 2.01 -13.34 1.02 -13 0 C-8.3768446 -0.83216797 -4.56657934 -1.24543073 0 0 Z " fill="#F6F5F6" transform="translate(187,49)"/>
<path d="M0 0 C4.63308978 1.74176307 8.57232103 4.59983187 11 9 C11 9.66 11 10.32 11 11 C11.71567139 10.84152588 12.43134277 10.68305176 13.16870117 10.51977539 C15.91594802 10.01543043 18.5123923 9.79773833 21.30078125 9.68359375 C22.27724609 9.64169922 23.25371094 9.59980469 24.25976562 9.55664062 C25.26716797 9.51732422 26.27457031 9.47800781 27.3125 9.4375 C28.33923828 9.39431641 29.36597656 9.35113281 30.42382812 9.30664062 C32.94909569 9.20093175 35.47445562 9.09883532 38 9 C38 8.34 38 7.68 38 7 C38.66 7 39.32 7 40 7 C41.50357995 16.68973747 41.50357995 16.68973747 40 21 C35.62157386 24.34143048 30.90480264 24.47618808 25.5859375 24.7890625 C23.05717812 24.92076615 23.05717812 24.92076615 20.89453125 25.546875 C17.82917922 26.28003136 15.05501953 25.57641878 12 25 C10.49842551 23.49842551 10.88890204 22.09559893 10.8125 20 C10.2253673 14.25710825 7.76143713 10.29497431 4 6 C-0.76500138 2.25607034 -5.58901513 2.80842238 -11.390625 3.08984375 C-14 3 -14 3 -16 1 C-11.31848973 -1.34075513 -5.0775399 -0.5005242 0 0 Z " fill="#DEDEDE" transform="translate(194,76)"/>
<path d="M0 0 C2.68777802 -0.0544207 5.37443212 -0.09387266 8.0625 -0.125 C8.81466797 -0.14175781 9.56683594 -0.15851562 10.34179688 -0.17578125 C15.29327709 -0.21865121 19.30414451 0.41600625 24 2 C24.33 4.64 24.66 7.28 25 10 C28.3 9.67 31.6 9.34 35 9 C35 8.01 35 7.02 35 6 C33.02 6 31.04 6 29 6 C28.34 4.68 27.68 3.36 27 2 C27.99 2 28.98 2 30 2 C30.33 1.34 30.66 0.68 31 0 C31.5775 0.350625 32.155 0.70125 32.75 1.0625 C34.9056941 2.25994942 34.9056941 2.25994942 36.75 1.35546875 C40.27110263 0.79918344 42.24977305 2.46725645 45.25 4.25 C46.32765625 4.87390625 47.4053125 5.4978125 48.515625 6.140625 C49.33546875 6.75421875 50.1553125 7.3678125 51 8 C51 8.99 51 9.98 51 11 C34.5 11 18 11 1 11 C-0.28317892 7.15046324 -0.06643637 4.05261865 0 0 Z " fill="#3E4142" transform="translate(136,53)"/>
<path d="M0 0 C3 1 6 2 9 3 C9.495 3.99 9.495 3.99 10 5 C40.95461731 5.83162457 71.91182522 6.22322266 102.875 6.5625 C103.88791107 6.5736018 104.90082214 6.5847036 105.94442749 6.59614182 C118.62957635 6.73479969 131.31476686 6.86928957 144 7 C144 7.33 144 7.66 144 8 C126.37500768 8.03041336 108.7500149 8.05090849 91.125 8.0625 C89.83251972 8.06335602 88.54003944 8.06421204 87.2083931 8.06509399 C49.12859538 8.08739877 11.0687228 7.98968677 -27 7 C-27 5.68 -27 4.36 -27 3 C-24.01477895 2.00492632 -21.8353772 1.81927964 -18.7109375 1.71875 C-17.68742187 1.68136719 -16.66390625 1.64398438 -15.609375 1.60546875 C-13.44532078 1.53490176 -11.28125819 1.46459109 -9.1171875 1.39453125 C-7.58578125 1.33845703 -7.58578125 1.33845703 -6.0234375 1.28125 C-5.08419434 1.25095703 -4.14495117 1.22066406 -3.17724609 1.18945312 C-1.02274551 1.23712805 -1.02274551 1.23712805 0 0 Z " fill="#292929" transform="translate(35,104)"/>
<path d="M0 0 C1.27551005 2.5510201 0.70705635 3.29806721 0 6 C-0.07866959 7.58692639 -0.10784114 9.17678249 -0.09765625 10.765625 C-0.09443359 11.65507813 -0.09121094 12.54453125 -0.08789062 13.4609375 C-0.07951172 14.38132812 -0.07113281 15.30171875 -0.0625 16.25 C-0.05798828 17.18585938 -0.05347656 18.12171875 -0.04882812 19.0859375 C-0.03706918 21.39069041 -0.02063426 23.69531227 0 26 C1.98 26 3.96 26 6 26 C6 26.33 6 26.66 6 27 C4.02 27 2.04 27 0 27 C0 27.66 0 28.32 0 29 C1.0830542 28.99476318 2.1661084 28.98952637 3.28198242 28.98413086 C7.36172637 28.96581195 11.44146681 28.95447136 15.52124023 28.94506836 C17.27547826 28.94008884 19.02971224 28.9333028 20.78393555 28.92456055 C30.91317337 28.87540353 40.91141446 28.98253833 51 30 C51.33 29.34 51.66 28.68 52 28 C52 28.66 52 29.32 52 30 C53.23621094 29.84660156 54.47242188 29.69320312 55.74609375 29.53515625 C61.50807865 28.89493571 67.27170967 28.66036322 73.0625 28.4375 C74.64708008 28.37272461 74.64708008 28.37272461 76.26367188 28.30664062 C78.84234879 28.20162663 81.42110435 28.09947123 84 28 C83.67 28.66 83.34 29.32 83 30 C78.22015672 31.49418898 73.05188259 31.20809968 68.08984375 31.28125 C67.12655655 31.29965942 66.16326935 31.31806885 65.17079163 31.33703613 C62.09308825 31.39562203 59.01532846 31.44843378 55.9375 31.5 C38.44035159 31.70674991 38.44035159 31.70674991 21 33 C21 33.33 21 33.66 21 34 C10.77 34 0.54 34 -10 34 C-10.33 30.7 -10.66 27.4 -11 24 C-9.02 24 -7.04 24 -5 24 C-4.67 23.34 -4.34 22.68 -4 22 C-3.67 22 -3.34 22 -3 22 C-3.03480469 21.16597656 -3.06960937 20.33195312 -3.10546875 19.47265625 C-3.27964644 12.23184082 -2.7316536 6.71531509 0 0 Z " fill="#B5B5B5" transform="translate(77,67)"/>
<path d="M0 0 C3.63 0 7.26 0 11 0 C11.33 0.66 11.66 1.32 12 2 C9.525 1.505 9.525 1.505 7 1 C6.67 4.3 6.34 7.6 6 11 C9.3 9.02 12.6 7.04 16 5 C18.1017211 8.15258165 18.53640631 10.1056482 18.453125 13.8671875 C17.61875389 17.79448602 14.99731408 20.45640777 12 23 C8.44644092 25.0364627 6.12581448 25.63474069 2 25 C-1.05783192 23.37289678 -3.62008381 21.52191597 -6 19 C-7 15.625 -7 15.625 -7 13 C-5 16 -5 16 -4 18 C-0.90837736 16.61410019 0.49183541 15.50816459 3 13 C-0.3 12.67 -3.6 12.34 -7 12 C-7 10.35 -7 8.7 -7 7 C-4 6 -4 6 -1.95703125 6.99609375 C-1.24933594 7.47175781 -0.54164062 7.94742188 0.1875 8.4375 C0.90292969 8.91058594 1.61835937 9.38367188 2.35546875 9.87109375 C3.16951172 10.42990234 3.16951172 10.42990234 4 11 C3.71890887 9.35232753 3.42481474 7.70686855 3.125 6.0625 C2.96257813 5.14597656 2.80015625 4.22945313 2.6328125 3.28515625 C2.42398438 2.53105469 2.21515625 1.77695313 2 1 C1.34 0.67 0.68 0.34 0 0 Z " fill="#C1C2C2" transform="translate(43,83)"/>
<path d="M0 0 C-0.33 0.99 -0.66 1.98 -1 3 C-8.39107965 3.26601578 -15.78232334 3.52702587 -23.17378139 3.78230286 C-26.60902266 3.9010884 -30.04419622 4.0213556 -33.47924805 4.14550781 C-50.993808 4.77481189 -68.47373666 5.15502712 -86 5 C-86 4.67 -86 4.34 -86 4 C-72.63641436 1.58382261 -59.38187117 0.26430785 -45.82788086 -0.50805664 C-42.67295104 -0.68833134 -39.51916283 -0.88312538 -36.36523438 -1.08007812 C-6.30287845 -2.91328885 -6.30287845 -2.91328885 0 0 Z " fill="#F8F8F8" transform="translate(163,91)"/>
<path d="M0 0 C-0.66 3.63 -1.32 7.26 -2 11 C2.62 11 7.24 11 12 11 C12 11.33 12 11.66 12 12 C-0.33173224 13.19684056 -12.62367928 13.10396237 -25 13 C-25.33 12.01 -25.66 11.02 -26 10 C-26.66 9.34 -27.32 8.68 -28 8 C-18.69936532 1.5883908 -11.30917301 -0.42946227 0 0 Z " fill="#C5CDCB" transform="translate(126,53)"/>
<path d="M0 0 C-0.66 0.33 -1.32 0.66 -2 1 C-2 1.66 -2 2.32 -2 3 C0.31 3 2.62 3 5 3 C5 3.33 5 3.66 5 4 C4.33355469 4.02578125 3.66710937 4.0515625 2.98046875 4.078125 C-6.28804618 4.64849515 -14.12081753 7.05786046 -22 12 C-21.34 12.66 -20.68 13.32 -20 14 C-20 14.99 -20 15.98 -20 17 C-22.05078125 17.22786458 -24.1015625 17.45572917 -26.15234375 17.68359375 C-28.01140229 17.81886614 -28.01140229 17.81886614 -29 19 C-30.99958364 19.04080783 -33.00045254 19.04254356 -35 19 C-35 18.34 -35 17.68 -35 17 C-36.32 16.67 -37.64 16.34 -39 16 C-37.35 14.68 -35.7 13.36 -34 12 C-33.34 12.33 -32.68 12.66 -32 13 C-32.33 13.66 -32.66 14.32 -33 15 C-30.03 15 -27.06 15 -24 15 C-26.0072908 11.9890638 -26.83884224 11.36983503 -30 10 C-11.19976816 -0.72256569 -11.19976816 -0.72256569 0 0 Z " fill="#3E4244" transform="translate(121,49)"/>
<path d="M0 0 C0.33 0 0.66 0 1 0 C1 1.98 1 3.96 1 6 C6.445 5.505 6.445 5.505 12 5 C12.99 7.97 13.98 10.94 15 14 C15.66 14 16.32 14 17 14 C17 14.66 17 15.32 17 16 C17.99 15.67 18.98 15.34 20 15 C20.33 13.02 20.66 11.04 21 9 C21.33 9 21.66 9 22 9 C22 11.97 22 14.94 22 18 C14.74 18 7.48 18 0 18 C0 12.06 0 6.12 0 0 Z " fill="#ADAFAF" transform="translate(8,84)"/>
<path d="M0 0 C2.68777802 -0.0544207 5.37443212 -0.09387266 8.0625 -0.125 C8.81466797 -0.14175781 9.56683594 -0.15851562 10.34179688 -0.17578125 C15.29327709 -0.21865121 19.30414451 0.41600625 24 2 C24.33 3.65 24.66 5.3 25 7 C21.64908229 7.75363052 18.56890188 8.11979937 15.13671875 8.09765625 C13.80737305 8.09282227 13.80737305 8.09282227 12.45117188 8.08789062 C11.53916016 8.07951172 10.62714844 8.07113281 9.6875 8.0625 C8.75615234 8.05798828 7.82480469 8.05347656 6.86523438 8.04882812 C4.57675627 8.03709234 2.28841192 8.02067363 0 8 C0 5.36 0 2.72 0 0 Z " fill="#656D6E" transform="translate(136,53)"/>
<path d="M0 0 C1.28132812 0.00902344 2.56265625 0.01804688 3.8828125 0.02734375 C4.87023437 0.03894531 5.85765625 0.05054688 6.875 0.0625 C6.68035156 0.81273437 6.48570312 1.56296875 6.28515625 2.3359375 C5.70445548 6.19621498 7.26343801 8.5815261 8.875 12.0625 C8.875 13.0525 8.875 14.0425 8.875 15.0625 C4.585 15.0625 0.295 15.0625 -4.125 15.0625 C-3.125 6.49107143 -3.125 6.49107143 -2.125 3.0625 C-4.435 3.0625 -6.745 3.0625 -9.125 3.0625 C-9.125 2.4025 -9.125 1.7425 -9.125 1.0625 C-6.12186252 -0.43906874 -3.33432478 -0.03031204 0 0 Z " fill="#32383A" transform="translate(128.125,48.9375)"/>
<path d="M0 0 C0.33 0.66 0.66 1.32 1 2 C0.67 2.66 0.34 3.32 0 4 C0.66 4.33 1.32 4.66 2 5 C0.68 5.33 -0.64 5.66 -2 6 C-2 6.66 -2 7.32 -2 8 C-0.78763672 8.58007812 -0.78763672 8.58007812 0.44921875 9.171875 C1.51785156 9.69265625 2.58648437 10.2134375 3.6875 10.75 C4.74324219 11.26046875 5.79898438 11.7709375 6.88671875 12.296875 C9.90003083 13.94531172 12.39287648 15.77499662 15 18 C14.67 18.66 14.34 19.32 14 20 C13.21238281 19.48050781 12.42476562 18.96101563 11.61328125 18.42578125 C-0.03516422 10.96801912 -11.11412091 6.52267414 -25 5 C-25 4.67 -25 4.34 -25 4 C-23.35 3.67 -21.7 3.34 -20 3 C-23.63 2.67 -27.26 2.34 -31 2 C-31 1.67 -31 1.34 -31 1 C-22.73395297 0.89836827 -14.70627157 0.95357615 -6.48828125 1.9765625 C-3.73661344 2.00248088 -2.32068046 1.4239304 0 0 Z " fill="#A7A9A9" transform="translate(176,44)"/>
<path d="M0 0 C0.73154297 0.09539063 1.46308594 0.19078125 2.21679688 0.2890625 C3.999223 0.52205938 5.78094104 0.76046266 7.5625 1 C7.2325 1.66 6.9025 2.32 6.5625 3 C0.35146813 3.19223085 -5.85974882 3.37095948 -12.0715332 3.53710938 C-14.1852463 3.59555754 -16.29886022 3.65771362 -18.41235352 3.72363281 C-21.44789576 3.81766979 -24.48354332 3.89842601 -27.51953125 3.9765625 C-28.46649368 4.00875885 -29.41345612 4.0409552 -30.38911438 4.0741272 C-31.71014412 4.10438492 -31.71014412 4.10438492 -33.05786133 4.13525391 C-33.83285477 4.15746002 -34.60784821 4.17966614 -35.40632629 4.20254517 C-37.4375 4 -37.4375 4 -40.4375 2 C-40.1075 1.34 -39.7775 0.68 -39.4375 0 C-35.58343663 -0.16911283 -31.72923507 -0.33485038 -27.875 -0.5 C-26.78896484 -0.54769531 -25.70292969 -0.59539063 -24.58398438 -0.64453125 C-16.25777252 -0.99883814 -8.26449647 -1.1190718 0 0 Z " fill="#C0C0C1" transform="translate(149.4375,45)"/>
<path d="M0 0 C0.495 0.99 0.495 0.99 1 2 C1.99 2 2.98 2 4 2 C4 3.32 4 4.64 4 6 C4.66 6 5.32 6 6 6 C6.4125 6.969375 6.825 7.93875 7.25 8.9375 C8.64899168 12.12260099 8.64899168 12.12260099 11.1875 12.875 C11.785625 12.91625 12.38375 12.9575 13 13 C13 14.32 13 15.64 13 17 C8.71095765 15.4114658 6.67654474 12.56872632 4 9 C4 8.34 4 7.68 4 7 C3.34 7 2.68 7 2 7 C1.505 5.515 1.505 5.515 1 4 C0.9175 4.94875 0.835 5.8975 0.75 6.875 C0 10 0 10 -1.75 11.1875 C-4.24637478 12.08896867 -6.10596082 12.20276586 -8.75 12.125 C-9.54921875 12.10695313 -10.3484375 12.08890625 -11.171875 12.0703125 C-11.77515625 12.04710938 -12.3784375 12.02390625 -13 12 C-13 11.34 -13 10.68 -13 10 C-31.81 10 -50.62 10 -70 10 C-70 9.67 -70 9.34 -70 9 C-47.23 9 -24.46 9 -1 9 C-0.67 6.03 -0.34 3.06 0 0 Z " fill="#48494A" transform="translate(168,91)"/>
<path d="M0 0 C0.99 0.33 1.98 0.66 3 1 C2.34 1 1.68 1 1 1 C1 1.66 1 2.32 1 3 C1.66 3 2.32 3 3 3 C4.31626692 6.61973402 5 9.09567131 5 13 C0 11 0 11 -5 9 C-5.33 10.65 -5.66 12.3 -6 14 C-2.7 14 0.6 14 4 14 C4 14.99 4 15.98 4 17 C1.6875 19.25 1.6875 19.25 -1 21 C-4.46365398 19.84544867 -5.19137152 19.09440861 -7 16 C-7.29296875 13.421875 -7.29296875 13.421875 -7.1875 10.75 C-7.16042969 9.85796875 -7.13335937 8.9659375 -7.10546875 8.046875 C-7.07066406 7.37140625 -7.03585938 6.6959375 -7 6 C-6.01 6 -5.02 6 -4 6 C-3.896875 5.38125 -3.79375 4.7625 -3.6875 4.125 C-3 2 -3 2 0 0 Z " fill="#1E1E1F" transform="translate(42,81)"/>
<path d="M0 0 C0.99 0.66 1.98 1.32 3 2 C-0.96 3.98 -0.96 3.98 -5 6 C-2.03 6.495 -2.03 6.495 1 7 C-2.75 12.875 -2.75 12.875 -5 14 C-6.87379605 14.07033769 -8.75001102 14.0843022 -10.625 14.0625 C-11.62789062 14.05347656 -12.63078125 14.04445313 -13.6640625 14.03515625 C-14.43492188 14.02355469 -15.20578125 14.01195313 -16 14 C-14.17007874 6.41889764 -14.17007874 6.41889764 -10.375 3.9375 C-6.95495812 2.58748347 -3.6560057 2.36560057 0 2 C0 1.34 0 0.68 0 0 Z " fill="#B1B2B3" transform="translate(29,68)"/>
<path d="M0 0 C3.59739874 3.59739874 5.14979848 6.34822399 5.25 11.375 C5.22965178 14.53406178 5.13033041 15.77735222 3.5 18.5625 C3.005 19.036875 2.51 19.51125 2 20 C0.125 19.6875 0.125 19.6875 -2 19 C-2.66 18.01 -3.32 17.02 -4 16 C-2.35 16.33 -0.7 16.66 1 17 C1.99 14.69 2.98 12.38 4 10 C1.03 10 -1.94 10 -5 10 C-3 8 -1 6 1 4 C-0.98 2.68 -2.96 1.36 -5 0 C-5.1546875 1.670625 -5.1546875 1.670625 -5.3125 3.375 C-5.539375 4.57125 -5.76625 5.7675 -6 7 C-6.99 7.66 -7.98 8.32 -9 9 C-9.33 6.03 -9.66 3.06 -10 0 C-10.928125 0.66 -11.85625 1.32 -12.8125 2 C-16 4 -16 4 -19 4 C-12.55874997 -1.70928979 -8.37413703 -3.17108866 0 0 Z " fill="#BFC0C0" transform="translate(194,84)"/>
<path d="M0 0 C8.06350113 -0.12867289 15.97497656 0.20318916 24 1 C24.33 2.32 24.66 3.64 25 5 C21.3535194 5.8410478 18.00049093 6.11764968 14.26171875 6.09765625 C13.19501953 6.09443359 12.12832031 6.09121094 11.02929688 6.08789062 C9.37510742 6.07532227 9.37510742 6.07532227 7.6875 6.0625 C6.56537109 6.05798828 5.44324219 6.05347656 4.28710938 6.04882812 C1.5246849 6.03707313 -1.23762998 6.02064077 -4 6 C-4 5.67 -4 5.34 -4 5 C-0.7 5 2.6 5 6 5 C6 4.01 6 3.02 6 2 C4.02 2 2.04 2 0 2 C0 1.34 0 0.68 0 0 Z " fill="#4A4849" transform="translate(204,105)"/>
<path d="M0 0 C0.99 0.66 1.98 1.32 3 2 C2.030625 2.47308594 1.06125 2.94617187 0.0625 3.43359375 C-7.37386807 7.09145258 -14.71614334 10.86930421 -21.9375 14.9375 C-22.62908203 15.32671631 -23.32066406 15.71593262 -24.03320312 16.11694336 C-27.20491608 17.79712776 -27.20491608 17.79712776 -30 20 C-32.69082872 19.82364548 -35.32851446 19.38164079 -38 19 C-36.02579865 16.47740939 -35.03254358 16.0070192 -31.8125 15.3125 C-30.884375 15.209375 -29.95625 15.10625 -29 15 C-29 14.34 -29 13.68 -29 13 C-28.31035156 12.90589844 -27.62070313 12.81179687 -26.91015625 12.71484375 C-23.36963843 11.84515951 -20.61973227 10.33614278 -17.4375 8.5625 C-15.29199321 7.37441011 -13.14619401 6.18684803 -11 5 C-10.28972656 4.59652344 -9.57945313 4.19304688 -8.84765625 3.77734375 C-7 3 -7 3 -3 3 C-2.67 2.34 -2.34 1.68 -2 1 C-1.34 1.33 -0.68 1.66 0 2 C0 1.34 0 0.68 0 0 Z " fill="#A2A3A2" transform="translate(105,46)"/>
<path d="M0 0 C0.45503906 0.46664062 0.91007813 0.93328125 1.37890625 1.4140625 C3.39832834 3.38968989 5.30628034 4.11999279 7.9375 5.125 C9.21947266 5.62386719 9.21947266 5.62386719 10.52734375 6.1328125 C12.92148776 7.0181113 12.92148776 7.0181113 15.13671875 7.51953125 C17 8 17 8 19.875 9.5625 C23.22253476 11.10236599 25.3652877 11.25962231 29 11 C29 11.66 29 12.32 29 13 C31.64 12.67 34.28 12.34 37 12 C37 12.66 37 13.32 37 14 C33.37 14.33 29.74 14.66 26 15 C26 14.67 26 14.34 26 14 C25.39124023 13.90203125 24.78248047 13.8040625 24.15527344 13.703125 C17.75485552 12.56396355 12.17028425 10.64829571 6.25 8 C4.63109671 7.28963862 3.01132364 6.58125567 1.390625 5.875 C0.63974609 5.54757813 -0.11113281 5.22015625 -0.88476562 4.8828125 C-3.54499973 3.77253936 -6.24722012 2.85247377 -9 2 C-9 1.34 -9 0.68 -9 0 C-5.45026831 -1.1832439 -3.60040463 -0.90010116 0 0 Z " fill="#707272" transform="translate(187,49)"/>
<path d="M0 0 C0.6875 1.5625 0.6875 1.5625 1 4 C0.28664049 5.71854792 -0.4334495 7.43580442 -1.23046875 9.1171875 C-2.40741138 11.99681362 -2.68622982 14.92505227 -3 18 C-4.32 18 -5.64 18 -7 18 C-7 17.34 -7 16.68 -7 16 C-7.66 16 -8.32 16 -9 16 C-12 9.375 -12 9.375 -12 6 C-9.03 6 -6.06 6 -3 6 C-2.690625 5.195625 -2.38125 4.39125 -2.0625 3.5625 C-1 1 -1 1 0 0 Z " fill="#DCDEDD" transform="translate(32,82)"/>
<path d="M0 0 C7.26 0 14.52 0 22 0 C22 0.66 22 1.32 22 2 C26.62 2 31.24 2 36 2 C36 2.33 36 2.66 36 3 C23.66826776 4.19684056 11.37632072 4.10396237 -1 4 C-0.67 2.68 -0.34 1.36 0 0 Z " fill="#AFB3B2" transform="translate(102,62)"/>
<path d="M0 0 C2.48223187 3.72334781 2.73735934 7.67356629 2 12 C-0.20740681 14.96858157 -1.48597373 15.82865791 -5 17 C-6.80924876 17.19887925 -8.62258498 17.36209601 -10.4375 17.5 C-14.35218793 17.7876903 -14.35218793 17.7876903 -18.16015625 18.65625 C-20 19 -20 19 -23 17 C-21.80503906 16.87044922 -21.80503906 16.87044922 -20.5859375 16.73828125 C-13.83682802 15.84332634 -9.72969448 14.99245528 -5 10 C-6.32 9.34 -7.64 8.68 -9 8 C-4.545 7.505 -4.545 7.505 0 7 C0 4.69 0 2.38 0 0 Z " fill="#645757" transform="translate(233,83)"/>
<path d="M0 0 C0 0.99 0 1.98 0 3 C8.58 3 17.16 3 26 3 C26 3.33 26 3.66 26 4 C9.5 4 -7 4 -24 4 C-24 3.01 -24 2.02 -24 1 C-20.93758173 0.83170223 -17.87508013 0.66530338 -14.8125 0.5 C-13.94818359 0.45230469 -13.08386719 0.40460937 -12.19335938 0.35546875 C-8.12442913 0.13721196 -4.07665227 -0.06752219 0 0 Z " fill="#505455" transform="translate(161,60)"/>
<path d="M0 0 C-0.99 1.485 -0.99 1.485 -2 3 C10.54 3 23.08 3 36 3 C36 3.33 36 3.66 36 4 C34.88310791 4.029729 34.88310791 4.029729 33.74365234 4.06005859 C15.71440418 4.48272315 15.71440418 4.48272315 -2.16796875 6.58984375 C-6.45161393 7.21023374 -10.68337399 7.17903057 -15 7 C-15.33 6.34 -15.66 5.68 -16 5 C-14.27656245 4.15488176 -12.54595947 3.32436646 -10.8125 2.5 C-9.36810547 1.80390625 -9.36810547 1.80390625 -7.89453125 1.09375 C-5.01077307 0.00407079 -3.04645139 -0.22277524 0 0 Z " fill="#DDDDDD" transform="translate(39,68)"/>
<path d="M0 0 C1.32 0.66 2.64 1.32 4 2 C4 2.66 4 3.32 4 4 C5.62626404 5.38232443 7.2925002 6.71937515 9 8 C8.67 8.66 8.34 9.32 8 10 C7.67 9.67 7.34 9.34 7 9 C6.278125 9.78375 5.55625 10.5675 4.8125 11.375 C2.16700959 13.84412438 0.39626389 14.93260278 -3 16 C-2.67 12.7 -2.34 9.4 -2 6 C-0.68 6 0.64 6 2 6 C-0.97 5.505 -0.97 5.505 -4 5 C-4 6.65 -4 8.3 -4 10 C-4.33 10 -4.66 10 -5 10 C-5.33 8.02 -5.66 6.04 -6 4 C-2.535 3.505 -2.535 3.505 1 3 C0.67 2.01 0.34 1.02 0 0 Z " fill="#161818" transform="translate(52,78)"/>
<path d="M0 0 C0.66 0.33 1.32 0.66 2 1 C0.515 3.475 0.515 3.475 -1 6 C4.94 5.505 4.94 5.505 11 5 C11 5.66 11 6.32 11 7 C11.66 7.33 12.32 7.66 13 8 C9.950445 9.33418031 6.98579582 10.26670814 3.75 11 C2.5125 11.33 1.275 11.66 0 12 C-0.33 12.66 -0.66 13.32 -1 14 C-2.32 14 -3.64 14 -5 14 C-5.602537 7.01057082 -5.602537 7.01057082 -3.88671875 4.1328125 C-2.66254412 2.69138998 -1.33721771 1.33721771 0 0 Z " fill="#E4E4E5" transform="translate(14,76)"/>
<path d="M0 0 C-2.18490182 2.18490182 -4.28650812 3.04159977 -7.11328125 4.203125 C-9.8071708 5.34091686 -12.39828744 6.66741552 -15 8 C-14.34 8.45375 -13.68 8.9075 -13 9.375 C-12.34 9.91125 -11.68 10.4475 -11 11 C-11 11.66 -11 12.32 -11 13 C-16.445 13.495 -16.445 13.495 -22 14 C-21.67 13.01 -21.34 12.02 -21 11 C-22.32 11.99 -23.64 12.98 -25 14 C-24.01 14.66 -23.02 15.32 -22 16 C-24.64 16 -27.28 16 -30 16 C-26.10316286 11.69136402 -22.03221236 9.05365138 -16.9375 6.3125 C-15.87692383 5.72758789 -15.87692383 5.72758789 -14.79492188 5.13085938 C-12.87000637 4.07351142 -10.94187999 3.02584549 -9 2 C-8.3201001 1.63156982 -7.6402002 1.26313965 -6.93969727 0.88354492 C-4.5263972 -0.2157292 -2.62120808 -0.14562267 0 0 Z " fill="#A2A6A7" transform="translate(108,51)"/>
<path d="M0 0 C5.67160161 3.42011515 9.28377342 7.76549799 11.44140625 14.05859375 C9.69140625 13.99609375 9.69140625 13.99609375 7.44140625 13.05859375 C6.49245727 11.32430769 5.54471325 9.58932058 4.609375 7.84765625 C2.54317544 4.68270842 -0.03130894 3.10487539 -3.55859375 2.05859375 C-9.38237841 1.45560687 -14.33873332 1.25937189 -19.55859375 4.05859375 C-21.80859375 3.68359375 -21.80859375 3.68359375 -23.55859375 3.05859375 C-17.08221102 -2.07784773 -7.79016564 -2.86630522 0 0 Z " fill="#DADBDB" transform="translate(57.55859375,76.94140625)"/>
<path d="M0 0 C0.84755859 0.00322266 1.69511719 0.00644531 2.56835938 0.00976562 C3.8899707 0.02233398 3.8899707 0.02233398 5.23828125 0.03515625 C6.57729492 0.04192383 6.57729492 0.04192383 7.94335938 0.04882812 C10.14590112 0.06060642 12.34830724 0.07705461 14.55078125 0.09765625 C14.55078125 0.42765625 14.55078125 0.75765625 14.55078125 1.09765625 C13.58140625 1.22140625 12.61203125 1.34515625 11.61328125 1.47265625 C10.09734375 1.78203125 10.09734375 1.78203125 8.55078125 2.09765625 C8.22078125 2.75765625 7.89078125 3.41765625 7.55078125 4.09765625 C10.52078125 4.09765625 13.49078125 4.09765625 16.55078125 4.09765625 C16.55078125 4.42765625 16.55078125 4.75765625 16.55078125 5.09765625 C8.63078125 5.09765625 0.71078125 5.09765625 -7.44921875 5.09765625 C-7.44921875 3.77765625 -7.44921875 2.45765625 -7.44921875 1.09765625 C-4.6251011 0.1562837 -2.92003843 -0.01959757 0 0 Z " fill="#484849" transform="translate(15.44921875,105.90234375)"/>
<path d="M0 0 C1.65 0.66 3.3 1.32 5 2 C4.113125 2.928125 3.22625 3.85625 2.3125 4.8125 C-1.64229399 9.37789164 -3.67449728 14.45983176 -6 20 C-9.63 20 -13.26 20 -17 20 C-17 19.67 -17 19.34 -17 19 C-16.0925 18.7525 -15.185 18.505 -14.25 18.25 C-10.74476733 16.90183359 -9.29768077 15.93152374 -7 13 C-5.96898053 10.68020619 -4.97063483 8.34570085 -4 6 C-2.75107763 3.9245181 -1.40030917 1.97974745 0 0 Z " fill="#E1E2E3" transform="translate(172,78)"/>
<path d="M0 0 C0.33 0 0.66 0 1 0 C1 2.97 1 5.94 1 9 C3.97 9 6.94 9 10 9 C10 9.33 10 9.66 10 10 C-29.33996383 13.23284153 -29.33996383 13.23284153 -43 13 C-43 12.67 -43 12.34 -43 12 C-38.96646961 11.56398445 -34.93206566 11.13723374 -30.89672852 10.71826172 C-29.53026298 10.57516459 -28.16403884 10.42973891 -26.7980957 10.28173828 C-17.82891332 9.31191863 -9.0218014 8.79204897 0 9 C0 6.03 0 3.06 0 0 Z " fill="#C7C7C7" transform="translate(127,80)"/>
<path d="M0 0 C0.33 1.32 0.66 2.64 1 4 C5.29 4 9.58 4 14 4 C14 4.66 14 5.32 14 6 C13.01 6.33 12.02 6.66 11 7 C12.65 7.33 14.3 7.66 16 8 C16 8.33 16 8.66 16 9 C13.35491639 9.36082877 10.70920453 9.71395352 8.0625 10.0625 C7.30775391 10.16626953 6.55300781 10.27003906 5.77539062 10.37695312 C3.85525872 10.62665638 1.92771856 10.81790281 0 11 C-0.33 10.67 -0.66 10.34 -1 10 C-0.91036938 8.30858344 -0.75422324 6.62040398 -0.5625 4.9375 C-0.46066406 4.01839844 -0.35882813 3.09929687 -0.25390625 2.15234375 C-0.17011719 1.44207031 -0.08632812 0.73179688 0 0 Z " fill="#BDBEBE" transform="translate(206,90)"/>
<path d="M0 0 C4.26672384 0.47408043 6.2455048 2.88307122 9 6 C11.16123732 8.94714181 11.00236865 9.97631348 10.625 13.75 C10.41875 14.8225 10.2125 15.895 10 17 C9.34 17 8.68 17 8 17 C7.67 18.32 7.34 19.64 7 21 C6.01 21 5.02 21 4 21 C4.33 20.34 4.66 19.68 5 19 C5.2430836 14.05730019 5.25495121 10.50990242 3 6 C3.66 6 4.32 6 5 6 C4.175 5.38125 3.35 4.7625 2.5 4.125 C1.675 3.42375 0.85 2.7225 0 2 C0 1.34 0 0.68 0 0 Z " fill="#111213" transform="translate(55,80)"/>
<path d="M0 0 C3.63 0 7.26 0 11 0 C11.33 0.66 11.66 1.32 12 2 C9.525 1.505 9.525 1.505 7 1 C6.93941406 1.61488281 6.87882812 2.22976562 6.81640625 2.86328125 C6.73261719 3.67152344 6.64882813 4.47976562 6.5625 5.3125 C6.48128906 6.11300781 6.40007813 6.91351563 6.31640625 7.73828125 C6 10 6 10 5 13 C1.04 12.67 -2.92 12.34 -7 12 C-7 10.35 -7 8.7 -7 7 C-4 6 -4 6 -1.95703125 6.99609375 C-1.24933594 7.47175781 -0.54164062 7.94742188 0.1875 8.4375 C0.90292969 8.91058594 1.61835937 9.38367188 2.35546875 9.87109375 C3.16951172 10.42990234 3.16951172 10.42990234 4 11 C3.71890887 9.35232753 3.42481474 7.70686855 3.125 6.0625 C2.96257813 5.14597656 2.80015625 4.22945313 2.6328125 3.28515625 C2.42398438 2.53105469 2.21515625 1.77695313 2 1 C1.34 0.67 0.68 0.34 0 0 Z " fill="#A1A1A1" transform="translate(43,83)"/>
<path d="M0 0 C0.33 0 0.66 0 1 0 C1.98248524 4.0527516 2.08159574 7.83861737 2 12 C-1.05321024 12.29357791 -3.95646143 12.43479122 -7 12 C-9.5625 9.625 -9.5625 9.625 -11 7 C-11 6.34 -11 5.68 -11 5 C-7.37 5 -3.74 5 0 5 C0 3.35 0 1.7 0 0 Z " fill="#8C3F3E" transform="translate(228,64)"/>
<path d="M0 0 C1.28132812 0.00902344 2.56265625 0.01804688 3.8828125 0.02734375 C4.87023437 0.03894531 5.85765625 0.05054688 6.875 0.0625 C6.25961538 6.58557692 6.25961538 6.58557692 4.3125 9 C3.838125 9.350625 3.36375 9.70125 2.875 10.0625 C2.875 9.4025 2.875 8.7425 2.875 8.0625 C2.215 8.0625 1.555 8.0625 0.875 8.0625 C0.545 8.7225 0.215 9.3825 -0.125 10.0625 C-0.785 8.0825 -1.445 6.1025 -2.125 4.0625 C-4.435 3.7325 -6.745 3.4025 -9.125 3.0625 C-9.125 2.4025 -9.125 1.7425 -9.125 1.0625 C-6.12186252 -0.43906874 -3.33432478 -0.03031204 0 0 Z " fill="#1D2123" transform="translate(128.125,48.9375)"/>
<path d="M0 0 C1.4540625 0.0309375 1.4540625 0.0309375 2.9375 0.0625 C4.43571059 3.43347383 4.9375 5.26692119 4.9375 9.0625 C1.3075 8.7325 -2.3225 8.4025 -6.0625 8.0625 C-3.88526119 0.07929104 -3.88526119 0.07929104 0 0 Z " fill="#0C0E0E" transform="translate(17.0625,88.9375)"/>
<path d="M0 0 C5.46169087 2.35961319 9.34872096 5.58216892 12 11 C11.8284131 14.08856423 11.21356952 14.78643048 9 17 C8.773125 15.783125 8.54625 14.56625 8.3125 13.3125 C7.1874986 8.96660419 5.76585875 6.64411359 2 4 C-0.36426463 3.5255109 -2.60247715 3.31521502 -5.01171875 3.23828125 C-7 3 -7 3 -9 1 C-5.82912985 -0.58543507 -3.52009516 -0.34065437 0 0 Z " fill="#272828" transform="translate(190,80)"/>
<path d="M0 0 C2 3 2 3 3 5 C3.5775 4.67 4.155 4.34 4.75 4 C7 3 7 3 11 3 C10.34 4.98 9.68 6.96 9 9 C11.31 9.33 13.62 9.66 16 10 C16.33 9.34 16.66 8.68 17 8 C17 8.99 17 9.98 17 11 C14.02536663 12.48731668 12.32721157 12.4313052 9 12 C5.93784094 10.38214996 3.3790988 8.5210498 1 6 C0 2.625 0 2.625 0 0 Z " fill="#99999A" transform="translate(36,96)"/>
<path d="M0 0 C0.33 0.99 0.66 1.98 1 3 C1.99 2.34 2.98 1.68 4 1 C2.25 4.875 2.25 4.875 0 6 C-1.87379605 6.07033769 -3.75001102 6.0843022 -5.625 6.0625 C-6.62789062 6.05347656 -7.63078125 6.04445313 -8.6640625 6.03515625 C-9.43492188 6.02355469 -10.20578125 6.01195313 -11 6 C-10.125 2.125 -10.125 2.125 -9 1 C-7.48530552 0.76807135 -5.96245438 0.58784762 -4.4375 0.4375 C-3.19806641 0.31181641 -3.19806641 0.31181641 -1.93359375 0.18359375 C-0.97646484 0.09271484 -0.97646484 0.09271484 0 0 Z " fill="#606263" transform="translate(24,76)"/>
<path d="M0 0 C0.66 0.33 1.32 0.66 2 1 C1.67 1.66 1.34 2.32 1 3 C3.97 3 6.94 3 10 3 C10 2.34 10 1.68 10 1 C11.32 1.33 12.64 1.66 14 2 C14 2.99 14 3.98 14 5 C11.94921875 5.22786458 9.8984375 5.45572917 7.84765625 5.68359375 C5.98859771 5.81886614 5.98859771 5.81886614 5 7 C3.00041636 7.04080783 0.99954746 7.04254356 -1 7 C-1 6.34 -1 5.68 -1 5 C-2.32 4.67 -3.64 4.34 -5 4 C-3.35 2.68 -1.7 1.36 0 0 Z " fill="#27292B" transform="translate(87,61)"/>
<path d="M0 0 C3.96 0 7.92 0 12 0 C12 0.66 12 1.32 12 2 C12.99 2 13.98 2 15 2 C15 2.66 15 3.32 15 4 C8.65176798 6.30844801 2.70518586 6.19818283 -4 6 C-4 5.67 -4 5.34 -4 5 C-0.7 5 2.6 5 6 5 C6 4.01 6 3.02 6 2 C4.02 2 2.04 2 0 2 C0 1.34 0 0.68 0 0 Z " fill="#2D3130" transform="translate(204,105)"/>
<path d="M0 0 C1.125 3.75 1.125 3.75 0 6 C-7.26 6 -14.52 6 -22 6 C-22.33 6.66 -22.66 7.32 -23 8 C-23.99 7.01 -24.98 6.02 -26 5 C-23.625 3.4375 -23.625 3.4375 -21 2 C-19 3 -19 3 -18 4 C-11.93718558 4.40182396 -5.99329281 3.88789523 0 3 C0 2.01 0 1.02 0 0 Z " fill="#D6DCDB" transform="translate(124,56)"/>
<path d="M0 0 C0.73154297 0.09539063 1.46308594 0.19078125 2.21679688 0.2890625 C3.999223 0.52205938 5.78094104 0.76046266 7.5625 1 C7.2325 1.66 6.9025 2.32 6.5625 3 C-6.3075 2.505 -6.3075 2.505 -19.4375 2 C-19.4375 1.34 -19.4375 0.68 -19.4375 0 C-13.12364027 -2.02043512 -6.43284403 -0.87105299 0 0 Z " fill="#E6E6E7" transform="translate(149.4375,45)"/>
<path d="M0 0 C1.0828125 0.4640625 1.0828125 0.4640625 2.1875 0.9375 C4.911369 2.06878482 4.911369 2.06878482 7.5625 2.4375 C10.33419163 3.07712115 11.85394747 4.17188118 14 6 C8.11733557 6.98711376 3.57749942 7.32395809 -2 5 C-2.33 4.01 -2.66 3.02 -3 2 C-2.01 2 -1.02 2 0 2 C0 1.34 0 0.68 0 0 Z " fill="#53585B" transform="translate(166,53)"/>
<path d="M0 0 C0.33 0.66 0.66 1.32 1 2 C0.67 2.66 0.34 3.32 0 4 C0.66 4.33 1.32 4.66 2 5 C1.38125 5.12375 0.7625 5.2475 0.125 5.375 C-2.19120832 5.87197356 -2.19120832 5.87197356 -4 8 C-4.680625 7.690625 -5.36125 7.38125 -6.0625 7.0625 C-9.07687845 5.85434136 -9.07687845 5.85434136 -12.75 5.5 C-13.8225 5.335 -14.895 5.17 -16 5 C-16.33 4.34 -16.66 3.68 -17 3 C-16.10796875 2.95101562 -15.2159375 2.90203125 -14.296875 2.8515625 C-12.54117188 2.73941406 -12.54117188 2.73941406 -10.75 2.625 C-9.00976562 2.52058594 -9.00976562 2.52058594 -7.234375 2.4140625 C-4.29305666 2.03751692 -2.50050989 1.5225877 0 0 Z " fill="#F4F4F4" transform="translate(176,44)"/>
<path d="M0 0 C0.98484375 0.19464844 1.9696875 0.38929687 2.984375 0.58984375 C4.10585937 0.82380859 4.10585937 0.82380859 5.25 1.0625 C-0.09642608 5.39744006 -2.71740854 7.32788081 -9.75 7.0625 C-9.42 6.4025 -9.09 5.7425 -8.75 5.0625 C-7.76 5.0625 -6.77 5.0625 -5.75 5.0625 C-5.75 4.0725 -5.75 3.0825 -5.75 2.0625 C-7.07 1.4025 -8.39 0.7425 -9.75 0.0625 C-6.21905698 -1.13970203 -3.62101018 -0.73282349 0 0 Z " fill="#D3D1D2" transform="translate(225.75,90.9375)"/>
<path d="M0 0 C0.46019531 0.46535156 0.92039063 0.93070313 1.39453125 1.41015625 C3.33141169 3.32818628 5.18281769 4.13480744 7.6875 5.1875 C8.49574219 5.53167969 9.30398437 5.87585937 10.13671875 6.23046875 C10.75160156 6.48441406 11.36648437 6.73835938 12 7 C8.80042565 8.05711427 7.03354912 7.95184778 3.890625 6.78515625 C3.13652344 6.51123047 2.38242188 6.23730469 1.60546875 5.95507812 C0.82816406 5.66052734 0.05085937 5.36597656 -0.75 5.0625 C-1.54277344 4.77181641 -2.33554688 4.48113281 -3.15234375 4.18164062 C-5.10512629 3.46405186 -7.05305941 2.73329094 -9 2 C-9 1.34 -9 0.68 -9 0 C-5.45026831 -1.1832439 -3.60040463 -0.90010116 0 0 Z " fill="#595A5C" transform="translate(187,49)"/>
<path d="M0 0 C-0.48828125 6.0546875 -0.48828125 6.0546875 -1 8 C-1.99 8.66 -2.98 9.32 -4 10 C-4.33 7.03 -4.66 4.06 -5 1 C-5.928125 1.66 -6.85625 2.32 -7.8125 3 C-11 5 -11 5 -14 5 C-6.1344086 -1.97177419 -6.1344086 -1.97177419 0 0 Z " fill="#ABABAB" transform="translate(189,83)"/>
<path d="M0 0 C3.65316671 1.24976756 4.78065836 1.67098753 7 5 C5.87926138 5.83905565 4.75325453 6.67107831 3.625 7.5 C2.99851563 7.9640625 2.37203125 8.428125 1.7265625 8.90625 C0 10 0 10 -2 10 C-1.34 6.7 -0.68 3.4 0 0 Z " fill="#050606" transform="translate(189,84)"/>
<path d="M0 0 C3.3 0 6.6 0 10 0 C8.14418503 3.71162994 7.44285416 5.01775064 4 7 C3.01 6.67 2.02 6.34 1 6 C0.67 4.02 0.34 2.04 0 0 Z " fill="#0E0E0E" transform="translate(175,95)"/>
<path d="M0 0 C0.33 3.3 0.66 6.6 1 10 C-2.91402949 8.73058503 -4.79072873 7.48832306 -7 4 C-2.25 0 -2.25 0 0 0 Z " fill="#040404" transform="translate(184,84)"/>
<path d="M0 0 C1.31626692 3.61973402 2 6.09567131 2 10 C-0.9719385 8.87548273 -3.33440687 7.77706209 -6 6 C-5.6875 4.125 -5.6875 4.125 -5 2 C-2 0 -2 0 0 0 Z " fill="#131313" transform="translate(45,84)"/>
<path d="M0 0 C0 0.99 0 1.98 0 3 C4.62 3 9.24 3 14 3 C14 3.33 14 3.66 14 4 C6.08 4 -1.84 4 -10 4 C-10 3.01 -10 2.02 -10 1 C-2.25 0 -2.25 0 0 0 Z " fill="#101213" transform="translate(171,59)"/>
<path d="M0 0 C1.32 0.66 2.64 1.32 4 2 C3.505 2.474375 3.01 2.94875 2.5 3.4375 C0.88457803 4.75923698 0.88457803 4.75923698 1 6 C0.25234375 6.06058594 -0.4953125 6.12117188 -1.265625 6.18359375 C-2.25046875 6.26738281 -3.2353125 6.35117188 -4.25 6.4375 C-5.71179688 6.55931641 -5.71179688 6.55931641 -7.203125 6.68359375 C-9.92709047 6.90609989 -9.92709047 6.90609989 -12.171875 7.66015625 C-14 8 -14 8 -17 6 C-15.78763672 5.85304688 -15.78763672 5.85304688 -14.55078125 5.703125 C-6.46310609 4.69576857 -6.46310609 4.69576857 0 0 Z " fill="#2C2D2D" transform="translate(227,94)"/>
<path d="M0 0 C-0.75 5.75 -0.75 5.75 -3 8 C-4.16959987 7.02433888 -5.33561177 6.044375 -6.5 5.0625 C-7.1496875 4.51722656 -7.799375 3.97195312 -8.46875 3.41015625 C-8.9740625 2.94480469 -9.479375 2.47945313 -10 2 C-10 1.67 -10 1.34 -10 1 C-6.56484998 0.37542727 -3.50935186 0 0 0 Z " fill="#0F0F0F" transform="translate(198,94)"/>
<path d="M0 0 C1.32 0.66 2.64 1.32 4 2 C4 2.66 4 3.32 4 4 C5.62626404 5.38232443 7.2925002 6.71937515 9 8 C8.67 8.66 8.34 9.32 8 10 C6.125 9.6875 6.125 9.6875 4 9 C3.34 8.01 2.68 7.02 2 6 C-1.06556598 5.26656572 -1.06556598 5.26656572 -4 5 C-4 6.65 -4 8.3 -4 10 C-4.33 10 -4.66 10 -5 10 C-5.33 8.02 -5.66 6.04 -6 4 C-2.535 3.505 -2.535 3.505 1 3 C0.67 2.01 0.34 1.02 0 0 Z " fill="#424443" transform="translate(52,78)"/>
<path d="M0 0 C3.31012244 3.31012244 3.50351065 4.53159589 4 9 C1.36 9 -1.28 9 -4 9 C-2.68 6.03 -1.36 3.06 0 0 Z " fill="#151616" transform="translate(48,97)"/>
<path d="M0 0 C-0.33 1.98 -0.66 3.96 -1 6 C-2.6875 6.75 -2.6875 6.75 -5 7 C-7.75 5.1875 -7.75 5.1875 -10 3 C-10 2.34 -10 1.68 -10 1 C-3.375 0 -3.375 0 0 0 Z " fill="#151616" transform="translate(60,94)"/>
<path d="M0 0 C2.52259061 1.97420135 2.9929808 2.96745642 3.6875 6.1875 C3.790625 7.115625 3.89375 8.04375 4 9 C1.69 9 -0.62 9 -3 9 C-2.44271087 5.65626525 -1.64826111 2.96687001 0 0 Z " fill="#151515" transform="translate(186,97)"/>
<path d="M0 0 C1.27875 -0.061875 2.5575 -0.12375 3.875 -0.1875 C4.95394531 -0.23970703 4.95394531 -0.23970703 6.0546875 -0.29296875 C6.69664063 -0.19628906 7.33859375 -0.09960938 8 0 C8.66 0.99 9.32 1.98 10 3 C9.67 3.66 9.34 4.32 9 5 C5.7 5 2.4 5 -1 5 C-0.67 3.35 -0.34 1.7 0 0 Z " fill="#F7F8F9" transform="translate(78,67)"/>
<path d="M0 0 C2.475 0.99 2.475 0.99 5 2 C3.06745228 4.0245738 1.36841312 5.42105792 -1 7 C-3.73990408 6.96856707 -6.28417854 6.44521663 -9 6 C-7.02579865 3.47740939 -6.03254358 3.0070192 -2.8125 2.3125 C-1.4203125 2.1578125 -1.4203125 2.1578125 0 2 C0 1.34 0 0.68 0 0 Z " fill="#666868" transform="translate(76,59)"/>
<path d="M0 0 C0 0.99 0 1.98 0 3 C-2.0625 4.8125 -2.0625 4.8125 -5 6 C-8.8125 5.1875 -8.8125 5.1875 -12 4 C-7.66457495 0.67617413 -5.52858726 -0.12018668 0 0 Z " fill="#4E5355" transform="translate(103,56)"/>
<path d="M0 0 C-1 3 -1 3 -4.0625 4.6875 C-5.031875 5.120625 -6.00125 5.55375 -7 6 C-7 6.66 -7 7.32 -7 8 C-8.98 8 -10.96 8 -13 8 C-13.33 6.35 -13.66 4.7 -14 3 C-12.948125 3.061875 -11.89625 3.12375 -10.8125 3.1875 C-6.49585262 2.97520587 -3.91779798 0 0 0 Z " fill="#1E1F1E" transform="translate(196,104)"/>
<path d="M0 0 C0.33 0 0.66 0 1 0 C1 2.31 1 4.62 1 7 C-2.06246747 8.78409802 -4.22079273 9.22880021 -7.75 9.125 C-8.54921875 9.10695313 -9.3484375 9.08890625 -10.171875 9.0703125 C-10.77515625 9.04710938 -11.3784375 9.02390625 -12 9 C-12.33 8.01 -12.66 7.02 -13 6 C-8.71 6 -4.42 6 0 6 C0 4.02 0 2.04 0 0 Z " fill="#414143" transform="translate(167,94)"/>
<path d="M0 0 C-0.33 1.65 -0.66 3.3 -1 5 C-2.27875 5.061875 -3.5575 5.12375 -4.875 5.1875 C-5.59429687 5.22230469 -6.31359375 5.25710937 -7.0546875 5.29296875 C-7.69664063 5.19628906 -8.33859375 5.09960938 -9 5 C-9.66 4.01 -10.32 3.02 -11 2 C-7.17679443 0.57741188 -4.08718695 -0.24042276 0 0 Z " fill="#B3B4B6" transform="translate(98,66)"/>
<path d="M0 0 C1 3 1 3 0.22265625 4.82421875 C-0.8515625 6.54947917 -1.92578125 8.27473958 -3 10 C-5.475 9.01 -5.475 9.01 -8 8 C-5.33333333 5.33333333 -2.66666667 2.66666667 0 0 Z " fill="#CFCFCF" transform="translate(185,96)"/>
<path d="M0 0 C4.62 0 9.24 0 14 0 C13.34 2.31 12.68 4.62 12 7 C10.68 7 9.36 7 8 7 C8 5.35 8 3.7 8 2 C5.36 1.67 2.72 1.34 0 1 C0 0.67 0 0.34 0 0 Z " fill="#111316" transform="translate(121,49)"/>
<path d="M0 0 C0 0.66 0 1.32 0 2 C-1.98 2.99 -1.98 2.99 -4 4 C-4 4.33 -4 4.66 -4 5 C-6.97 5 -9.94 5 -13 5 C-12.67 4.01 -12.34 3.02 -12 2 C-7.92532275 0.51117562 -4.33458585 -0.26270217 0 0 Z " fill="#151716" transform="translate(36,105)"/>
<path d="M0 0 C0.66 0.33 1.32 0.66 2 1 C1.01 2.485 1.01 2.485 0 4 C0.33 4.66 0.66 5.32 1 6 C0.39239518 8.3494053 -0.27129528 10.68529088 -1 13 C-1.33 11.68 -1.66 10.36 -2 9 C-2.99 9 -3.98 9 -5 9 C-4.50769231 3.46153846 -4.50769231 3.46153846 -1.9375 1.125 C-1.298125 0.75375 -0.65875 0.3825 0 0 Z " fill="#0B0B0D" transform="translate(174,84)"/>
<path d="M0 0 C3.63 0 7.26 0 11 0 C11.33 0.66 11.66 1.32 12 2 C10.35 1.67 8.7 1.34 7 1 C6.87625 2.134375 6.7525 3.26875 6.625 4.4375 C6.41875 5.613125 6.2125 6.78875 6 8 C5.01 8.495 5.01 8.495 4 9 C3.87882812 8.43410156 3.75765625 7.86820312 3.6328125 7.28515625 C3.38144531 6.18494141 3.38144531 6.18494141 3.125 5.0625 C2.96257813 4.33160156 2.80015625 3.60070312 2.6328125 2.84765625 C2.17038477 0.79299706 2.17038477 0.79299706 0 0 Z " fill="#C6C8C7" transform="translate(43,83)"/>
<path d="M0 0 C4.62 0 9.24 0 14 0 C13.67 0.99 13.34 1.98 13 3 C9.04 3 5.08 3 1 3 C0.67 2.01 0.34 1.02 0 0 Z " fill="#E3E3E3" transform="translate(163,68)"/>
<path d="M0 0 C0.33 0 0.66 0 1 0 C1 1.98 1 3.96 1 6 C2.32 6 3.64 6 5 6 C4.34 8.31 3.68 10.62 3 13 C2.01 13 1.02 13 0 13 C0 8.71 0 4.42 0 0 Z " fill="#AFB1B1" transform="translate(8,84)"/>
<path d="M0 0 C2.475 0.495 2.475 0.495 5 1 C4.34 2.98 3.68 4.96 3 7 C6.465 6.505 6.465 6.505 10 6 C7.25002779 7.4731994 5.10380501 8.22404875 2 9 C1.34 6.03 0.68 3.06 0 0 Z " fill="#C5C6C8" transform="translate(66,91)"/>
<path d="M0 0 C0.33 0.66 0.66 1.32 1 2 C1.33 1.34 1.66 0.68 2 0 C4.9375 0.375 4.9375 0.375 8 1 C8.33 1.66 8.66 2.32 9 3 C6.69 3 4.38 3 2 3 C2.99 5.64 3.98 8.28 5 11 C2 10 2 10 0.8125 7.75 C0.00061706 5.00208853 -0.16260121 2.84552111 0 0 Z " fill="#89898B" transform="translate(173,92)"/>
<path d="M0 0 C1.28132812 0.00902344 2.56265625 0.01804687 3.8828125 0.02734375 C4.87023437 0.03894531 5.85765625 0.05054687 6.875 0.0625 C7.205 1.0525 7.535 2.0425 7.875 3.0625 C5.41637599 3.11633848 2.9589245 3.15609038 0.5 3.1875 C-0.54800781 3.21263672 -0.54800781 3.21263672 -1.6171875 3.23828125 C-3.45397486 3.25594267 -5.29101963 3.16553261 -7.125 3.0625 C-7.785 2.4025 -8.445 1.7425 -9.125 1.0625 C-6.12186252 -0.43906874 -3.33432478 -0.03031204 0 0 Z " fill="#DCDCDC" transform="translate(187.125,75.9375)"/>
<path d="M0 0 C0 1.65 0 3.3 0 5 C-2.31 5 -4.62 5 -7 5 C-7 3.68 -7 2.36 -7 1 C-4 0 -4 0 0 0 Z " fill="#757877" transform="translate(15,106)"/>
<path d="M0 0 C0.66 0.33 1.32 0.66 2 1 C2.73075648 3.3140622 3.40138258 5.64828869 4 8 C1.69 8.33 -0.62 8.66 -3 9 C-2.30058404 5.85262818 -1.23921302 2.97411124 0 0 Z " fill="#D9DADA" transform="translate(72,89)"/>
<path d="M0 0 C0 0.99 0 1.98 0 3 C-4.29 3 -8.58 3 -13 3 C-10.37358828 1.24905885 -8.89308789 0.54725362 -5.9375 -0.1875 C-5.24527344 -0.36667969 -4.55304688 -0.54585937 -3.83984375 -0.73046875 C-2 -1 -2 -1 0 0 Z " fill="#0F1314" transform="translate(137,61)"/>
<path d="M0 0 C0.721875 0.268125 1.44375 0.53625 2.1875 0.8125 C2.5175 1.8025 2.8475 2.7925 3.1875 3.8125 C-0.4425 4.1425 -4.0725 4.4725 -7.8125 4.8125 C-3.50480769 -0.23365385 -3.50480769 -0.23365385 0 0 Z " fill="#ECEFEF" transform="translate(93.8125,60.1875)"/>
<path d="M0 0 C1.98 0 3.96 0 6 0 C6 1.98 6 3.96 6 6 C3.03 5.505 3.03 5.505 0 5 C0 3.35 0 1.7 0 0 Z " fill="#521315" transform="translate(224,70)"/>
<path d="M0 0 C3.49873271 1.39655297 4.70891831 2.71260484 6.25 6.125 C6.58515625 6.84945312 6.9203125 7.57390625 7.265625 8.3203125 C7.62914063 9.15175781 7.62914063 9.15175781 8 10 C5.54291673 9.62317841 4.33157047 9.4083229 2.734375 7.44140625 C0 2.22222222 0 2.22222222 0 0 Z " fill="#D5D5D5" transform="translate(61,81)"/>
<path d="M0 0 C0.99 0.66 1.98 1.32 3 2 C1.4274835 2.89429374 -0.15853741 3.76487427 -1.75 4.625 C-2.63171875 5.11226562 -3.5134375 5.59953125 -4.421875 6.1015625 C-7 7 -7 7 -9.328125 6.1484375 C-9.87984375 5.76945312 -10.4315625 5.39046875 -11 5 C-7.91190305 3.23537317 -6.76687864 3 -3 3 C-2.67 2.34 -2.34 1.68 -2 1 C-1.34 1.33 -0.68 1.66 0 2 C0 1.34 0 0.68 0 0 Z " fill="#6C6D6F" transform="translate(105,46)"/>
<path d="M0 0 C0.66 0.33 1.32 0.66 2 1 C-0.31 2.65 -2.62 4.3 -5 6 C-4.01 6.66 -3.02 7.32 -2 8 C-4.64 8 -7.28 8 -10 8 C-6.91367389 4.7373124 -4.06516496 1.97764782 0 0 Z " fill="#B8BABB" transform="translate(88,59)"/>
<path d="M0 0 C2.475 0.99 2.475 0.99 5 2 C1.25 5 1.25 5 -1 5 C-2.38938077 6.96147874 -3.7260411 8.96166576 -5 11 C-5.33 10.34 -5.66 9.68 -6 9 C-4.02 6.03 -2.04 3.06 0 0 Z " fill="#C3C3C3" transform="translate(172,78)"/>
<path d="M0 0 C3.62276315 1.3255581 6.63505348 2.94346955 9.8125 5.125 C10.60269531 5.66382813 11.39289063 6.20265625 12.20703125 6.7578125 C12.79871094 7.16773438 13.39039063 7.57765625 14 8 C13.67 8.66 13.34 9.32 13 10 C10.82778513 8.716961 8.6624676 7.42427887 6.5 6.125 C5.87996094 5.76019531 5.25992188 5.39539062 4.62109375 5.01953125 C3.04632542 4.0677482 1.51870947 3.03889741 0 2 C0 1.34 0 0.68 0 0 Z " fill="#BABCBB" transform="translate(177,54)"/>
<path d="M0 0 C0.33 0 0.66 0 1 0 C1.36923077 5.41538462 1.36923077 5.41538462 -0.5 8.375 C-0.995 8.91125 -1.49 9.4475 -2 10 C-3.875 9.6875 -3.875 9.6875 -6 9 C-6.66 8.01 -7.32 7.02 -8 6 C-5.525 6.495 -5.525 6.495 -3 7 C-2.01 4.69 -1.02 2.38 0 0 Z " fill="#99999A" transform="translate(198,94)"/>
<path d="M0 0 C2.31 0.33 4.62 0.66 7 1 C6.375 2.9375 6.375 2.9375 5 5 C1.875 5.75 1.875 5.75 -1 6 C-0.01 5.01 0.98 4.02 2 3 C1.34 2.01 0.68 1.02 0 0 Z " fill="#4B4C4C" transform="translate(228,93)"/>
<path d="M0 0 C1.98 0 3.96 0 6 0 C7 3 7 3 6.0625 5.1875 C5.5365625 6.0846875 5.5365625 6.0846875 5 7 C5 6.34 5 5.68 5 5 C3.68 5 2.36 5 1 5 C0.67 3.35 0.34 1.7 0 0 Z " fill="#313333" transform="translate(14,89)"/>
<path d="M0 0 C3.99455527 0.61454696 6.74466336 2.70646737 10 5 C6.21637439 6.26120854 4.68605054 5.25482572 1 4 C0.01 4.495 0.01 4.495 -1 5 C-0.67 3.35 -0.34 1.7 0 0 Z " fill="#E1E0E1" transform="translate(175,89)"/>
<path d="M0 0 C0 1.32 0 2.64 0 4 C-3.63 4 -7.26 4 -11 4 C-11 3.67 -11 3.34 -11 3 C-10.05125 2.690625 -9.1025 2.38125 -8.125 2.0625 C-2.05882353 0 -2.05882353 0 0 0 Z " fill="#D5D6D7" transform="translate(166,94)"/>
<path d="M0 0 C-0.33 0.66 -0.66 1.32 -1 2 C1.97 2 4.94 2 8 2 C8 2.33 8 2.66 8 3 C6.04233719 3.08082094 4.08373272 3.13910778 2.125 3.1875 C0.48917969 3.23970703 0.48917969 3.23970703 -1.1796875 3.29296875 C-2.11039063 3.19628906 -3.04109375 3.09960938 -4 3 C-4.66 2.01 -5.32 1.02 -6 0 C-3 -1 -3 -1 0 0 Z " fill="#363535" transform="translate(24,108)"/>
<path d="M0 0 C1.98 0 3.96 0 6 0 C6.33 1.32 6.66 2.64 7 4 C5.02 4 3.04 4 1 4 C0.67 2.68 0.34 1.36 0 0 Z " fill="#515151" transform="translate(222,106)"/>
<path d="M0 0 C0.66 0.33 1.32 0.66 2 1 C2.625 4.0625 2.625 4.0625 3 7 C0.69 6.67 -1.62 6.34 -4 6 C-3.34 4.68 -2.68 3.36 -2 2 C-1.34 2 -0.68 2 0 2 C0 1.34 0 0.68 0 0 Z " fill="#D8D4D4" transform="translate(228,75)"/>
<path d="M0 0 C1.65 0.33 3.3 0.66 5 1 C5 2.33333333 5 3.66666667 5 5 C2.69 5 0.38 5 -2 5 C-2 4.34 -2 3.68 -2 3 C-1.34 3 -0.68 3 0 3 C0 2.01 0 1.02 0 0 Z " fill="#EDEDEC" transform="translate(222,77)"/>
<path d="M0 0 C2 3 2 3 3 5 C4.65 4.67 6.3 4.34 8 4 C7.34 5.65 6.68 7.3 6 9 C2.83884224 7.63016497 2.0072908 7.0109362 0 4 C0 2.68 0 1.36 0 0 Z " fill="#C9C8CA" transform="translate(36,96)"/>
<path d="M0 0 C0.99 0.33 1.98 0.66 3 1 C2.34 1 1.68 1 1 1 C0.67 2.32 0.34 3.64 0 5 C-0.66 5 -1.32 5 -2 5 C-2.33 5.99 -2.66 6.98 -3 8 C-3.66 7.67 -4.32 7.34 -5 7 C-3.75023244 3.34683329 -3.32901247 2.21934164 0 0 Z " fill="#535353" transform="translate(42,81)"/>
<path d="M0 0 C3.63 0 7.26 0 11 0 C11 0.33 11 0.66 11 1 C8.36 1.33 5.72 1.66 3 2 C3 2.66 3 3.32 3 4 C1.68 4.33 0.36 4.66 -1 5 C-0.67 3.35 -0.34 1.7 0 0 Z " fill="#676A69" transform="translate(9,97)"/>
<path d="M0 0 C2 1.5625 2 1.5625 4 4 C4.25 7.75 4.25 7.75 4 11 C0 5 0 5 0 0 Z " fill="#D9DADA" transform="translate(202,83)"/>
<path d="M0 0 C0.66 0.66 1.32 1.32 2 2 C0.515 4.475 0.515 4.475 -1 7 C-2.32 6.67 -3.64 6.34 -5 6 C-4.34 5.67 -3.68 5.34 -3 5 C-3.99 4.34 -4.98 3.68 -6 3 C-4.02 2.01 -2.04 1.02 0 0 Z " fill="#EEEDF0" transform="translate(30,81)"/>
<path d="M0 0 C0.66 0.66 1.32 1.32 2 2 C1.67 2.66 1.34 3.32 1 4 C-1.32156597 4.40729228 -3.6568787 4.74438677 -6 5 C-6.33 4.34 -6.66 3.68 -7 3 C-4.69 2.01 -2.38 1.02 0 0 Z " fill="#F9F8F9" transform="translate(30,70)"/>
<path d="M0 0 C5.26053037 -0.31563182 8.44573816 0.33409063 13 3 C9.57056481 4.18771723 7.62215325 3.80226223 4.25 2.5625 C3.45078125 2.27503906 2.6515625 1.98757812 1.828125 1.69140625 C1.22484375 1.46324219 0.6215625 1.23507813 0 1 C0 0.67 0 0.34 0 0 Z " fill="#6E7171" transform="translate(186,53)"/>
<path d="M0 0 C3 1 3 1 4 3 C6.01669827 4.13350534 6.01669827 4.13350534 8 5 C5.36 5 2.72 5 0 5 C-0.5625 3.0625 -0.5625 3.0625 -1 1 C-0.67 0.67 -0.34 0.34 0 0 Z " fill="#42484B" transform="translate(161,55)"/>
<path d="M0 0 C0.33 0.99 0.66 1.98 1 3 C1.99 3.33 2.98 3.66 4 4 C3.67 4.99 3.34 5.98 3 7 C0.9375 7.6875 0.9375 7.6875 -1 8 C-0.67 5.36 -0.34 2.72 0 0 Z " fill="#2D2D2D" transform="translate(188,86)"/>
<path d="M0 0 C-1.65 1.65 -3.3 3.3 -5 5 C-5.33 4.01 -5.66 3.02 -6 2 C-8.01508358 1.26676204 -8.01508358 1.26676204 -10 1 C-6.78548731 -0.60725635 -3.56387464 -0.05748185 0 0 Z " fill="#8F9091" transform="translate(30,75)"/>
<path d="M0 0 C3.3 0.66 6.6 1.32 10 2 C10 2.33 10 2.66 10 3 C6.37 3 2.74 3 -1 3 C-0.67 2.01 -0.34 1.02 0 0 Z " fill="#292B2D" transform="translate(172,59)"/>
<path d="M0 0 C0.66 0.33 1.32 0.66 2 1 C1.45773019 4.79588866 -0.20127563 6.47211993 -3 9 C-2.44271087 5.65626525 -1.64826111 2.96687001 0 0 Z " fill="#0F0F0F" transform="translate(186,97)"/>
<path d="M0 0 C4.875 1.75 4.875 1.75 6 4 C5.21625 3.95875 4.4325 3.9175 3.625 3.875 C0.83883881 3.71271266 0.83883881 3.71271266 -1 6 C-1.042721 4.33388095 -1.04063832 2.66617115 -1 1 C-0.67 0.67 -0.34 0.34 0 0 Z " fill="#E1E1E1" transform="translate(37,89)"/>
<path d="M0 0 C0.33 0.66 0.66 1.32 1 2 C-1 4 -1 4 -4.125 4.125 C-5.548125 4.063125 -5.548125 4.063125 -7 4 C-6.67 3.01 -6.34 2.02 -6 1 C-4.02 0.67 -2.04 0.34 0 0 Z " fill="#999B9D" transform="translate(58,91)"/>
<path d="M0 0 C0 1.98 0 3.96 0 6 C-2.475 5.01 -2.475 5.01 -5 4 C-4.67 3.01 -4.34 2.02 -4 1 C-1 0 -1 0 0 0 Z " fill="#262626" transform="translate(185,88)"/>
<path d="M0 0 C5.75 1.75 5.75 1.75 8 4 C5.69 4 3.38 4 1 4 C0.67 2.68 0.34 1.36 0 0 Z " fill="#74777A" transform="translate(172,55)"/>
<path d="M0 0 C0.33 0.66 0.66 1.32 1 2 C-1.31 2.33 -3.62 2.66 -6 3 C-6.33 2.01 -6.66 1.02 -7 0 C-3.88407501 -1.03864166 -2.9737344 -1.09036928 0 0 Z " fill="#1B2022" transform="translate(117,51)"/>
<path d="M0 0 C0.33 0.66 0.66 1.32 1 2 C0.67 2.66 0.34 3.32 0 4 C0.66 4.33 1.32 4.66 2 5 C-0.64 4.67 -3.28 4.34 -6 4 C-4.03617993 2.49440461 -2.21736634 1.10868317 0 0 Z " fill="#434344" transform="translate(176,44)"/>
<path d="M0 0 C1.65 0 3.3 0 5 0 C4.34 1.32 3.68 2.64 3 4 C2.01 4 1.02 4 0 4 C0 2.68 0 1.36 0 0 Z " fill="#2C2C2C" transform="translate(180,95)"/>
<path d="M0 0 C2 2 2 2 2 6 C-1.3 5.67 -4.6 5.34 -8 5 C-8 4.67 -8 4.34 -8 4 C-5.36 4 -2.72 4 0 4 C0 2.68 0 1.36 0 0 Z " fill="#060707" transform="translate(20,92)"/>
<path d="M0 0 C2 2 2 2 2 6 C0.68 5.67 -0.64 5.34 -2 5 C-1.01 5 -0.02 5 1 5 C-0.65 4.67 -2.3 4.34 -4 4 C-2.68 2.68 -1.36 1.36 0 0 Z " fill="#E6E6E8" transform="translate(58,88)"/>
<path d="M0 0 C0.66 0.33 1.32 0.66 2 1 C0.515 3.475 0.515 3.475 -1 6 C-0.01 6.33 0.98 6.66 2 7 C-0.97 6.505 -0.97 6.505 -4 6 C-2.84826645 3.53199953 -1.95216435 1.95216435 0 0 Z " fill="#D3D4D5" transform="translate(14,76)"/>
<path d="M0 0 C0 0.66 0 1.32 0 2 C-1.96466413 3.06775224 -3.96855359 4.06553465 -6 5 C-6.66 4.67 -7.32 4.34 -8 4 C-5.29881977 1.17603885 -4.05589853 0 0 0 Z " fill="#959697" transform="translate(96,52)"/>
<path d="M0 0 C0 0.33 0 0.66 0 1 C-2.97 1 -5.94 1 -9 1 C-9 0.34 -9 -0.32 -9 -1 C-5.38055101 -2.34053666 -3.42632833 -1.61798838 0 0 Z " fill="#F4F4F6" transform="translate(139,46)"/>
<path d="M0 0 C1.98 0 3.96 0 6 0 C6 0.99 6 1.98 6 3 C4.02 3 2.04 3 0 3 C0 2.01 0 1.02 0 0 Z " fill="#0C0F0F" transform="translate(204,107)"/>
<path d="M0 0 C1.32 0.66 2.64 1.32 4 2 C1 4 1 4 -3 4 C-3 3.34 -3 2.68 -3 2 C-2.01 1.34 -1.02 0.68 0 0 Z " fill="#131414" transform="translate(227,94)"/>
<path d="M0 0 C1.32 0.33 2.64 0.66 4 1 C3.67 1.66 3.34 2.32 3 3 C3.99 3.33 4.98 3.66 6 4 C4.02 4.33 2.04 4.66 0 5 C0 3.35 0 1.7 0 0 Z " fill="#CCCDCE" transform="translate(206,95)"/>
<path d="M0 0 C1.65 0 3.3 0 5 0 C4.34 1.32 3.68 2.64 3 4 C1.68 4 0.36 4 -1 4 C-0.67 2.68 -0.34 1.36 0 0 Z " fill="#424345" transform="translate(14,78)"/>
<path d="M0 0 C2.64 0.33 5.28 0.66 8 1 C6 3 6 3 2.875 3.125 C1.451875 3.063125 1.451875 3.063125 0 3 C0 2.01 0 1.02 0 0 Z " fill="#FCFCFC" transform="translate(36,69)"/>
<path d="M0 0 C0.66 0.33 1.32 0.66 2 1 C0.35 2.32 -1.3 3.64 -3 5 C-1.125 1.125 -1.125 1.125 0 0 Z " fill="#000001" transform="translate(13,74)"/>
<path d="M0 0 C0.66 0 1.32 0 2 0 C1.67 0.66 1.34 1.32 1 2 C0.67 1.34 0.34 0.68 0 0 Z " fill="#000000" transform="translate(228,62)"/>
<path d="" fill="#000000" transform="translate(0,0)"/>
<path d="" fill="#010000" transform="translate(0,0)"/>
<path d="" fill="#000000" transform="translate(0,0)"/>
<path d="" fill="#030205" transform="translate(0,0)"/>
<path d="" fill="#040105" transform="translate(0,0)"/>
<path d="M0 0 C2 1 2 1 2 1 Z " fill="#000000" transform="translate(15,73)"/>
<path d="M0 0 C2 1 2 1 2 1 Z " fill="#010101" transform="translate(21,70)"/>
<path d="M0 0 C2 1 2 1 2 1 Z " fill="#000000" transform="translate(24,69)"/>
<path d="M0 0 C2 1 2 1 2 1 Z " fill="#000000" transform="translate(72,61)"/>
<path d="M0 0 C2 1 2 1 2 1 Z " fill="#000200" transform="translate(74,60)"/>
<path d="M0 0 C2 1 2 1 2 1 Z " fill="#000203" transform="translate(207,58)"/>
<path d="M0 0 C2 1 2 1 2 1 Z " fill="#010101" transform="translate(205,57)"/>
<path d="M0 0 C2 1 2 1 2 1 Z " fill="#010101" transform="translate(79,57)"/>
<path d="M0 0 C2 1 2 1 2 1 Z " fill="#000000" transform="translate(81,56)"/>
<path d="M0 0 C2 1 2 1 2 1 Z " fill="#000000" transform="translate(200,55)"/>
<path d="M0 0 C2 1 2 1 2 1 Z " fill="#020202" transform="translate(83,55)"/>
<path d="M0 0 C2 1 2 1 2 1 Z " fill="#000101" transform="translate(198,54)"/>
<path d="M0 0 C2 1 2 1 2 1 Z " fill="#020202" transform="translate(85,54)"/>
<path d="M0 0 C2 1 2 1 2 1 Z " fill="#000000" transform="translate(195,53)"/>
<path d="M0 0 C2 1 2 1 2 1 Z " fill="#010101" transform="translate(87,53)"/>
<path d="M0 0 C2 1 2 1 2 1 Z " fill="#000000" transform="translate(193,52)"/>
<path d="M0 0 C2 1 2 1 2 1 Z " fill="#010101" transform="translate(89,52)"/>
<path d="M0 0 C2 1 2 1 2 1 Z " fill="#010102" transform="translate(190,51)"/>
<path d="M0 0 C2 1 2 1 2 1 Z " fill="#000102" transform="translate(91,51)"/>
<path d="M0 0 C2 1 2 1 2 1 Z " fill="#000103" transform="translate(98,48)"/>
<path d="M0 0 C2 1 2 1 2 1 Z " fill="#010101" transform="translate(172,44)"/>
<path d="" fill="#01020A" transform="translate(0,0)"/>
<path d="" fill="#000000" transform="translate(0,0)"/>
<path d="" fill="#010103" transform="translate(0,0)"/>
<path d="" fill="#000000" transform="translate(0,0)"/>
<path d="" fill="#020204" transform="translate(0,0)"/>
<path d="" fill="#000201" transform="translate(0,0)"/>
<path d="" fill="#000000" transform="translate(0,0)"/>
<path d="" fill="#010101" transform="translate(0,0)"/>
<path d="" fill="#000000" transform="translate(0,0)"/>
<path d="" fill="#030303" transform="translate(0,0)"/>
<path d="" fill="#000000" transform="translate(0,0)"/>
<path d="" fill="#010101" transform="translate(0,0)"/>
<path d="" fill="#000000" transform="translate(0,0)"/>
<path d="" fill="#010101" transform="translate(0,0)"/>
<path d="" fill="#000000" transform="translate(0,0)"/>
<path d="" fill="#000000" transform="translate(0,0)"/>
<path d="" fill="#030000" transform="translate(0,0)"/>
<path d="" fill="#000000" transform="translate(0,0)"/>
<path d="" fill="#010101" transform="translate(0,0)"/>
<path d="" fill="#030303" transform="translate(0,0)"/>
<path d="" fill="#020202" transform="translate(0,0)"/>
<path d="" fill="#050505" transform="translate(0,0)"/>
<path d="" fill="#010304" transform="translate(0,0)"/>
<path d="" fill="#020403" transform="translate(0,0)"/>
<path d="" fill="#000000" transform="translate(0,0)"/>
<path d="" fill="#000002" transform="translate(0,0)"/>
<path d="" fill="#000002" transform="translate(0,0)"/>
<path d="" fill="#030303" transform="translate(0,0)"/>
<path d="" fill="#050505" transform="translate(0,0)"/>
</svg>
