<?xml version="1.0" encoding="UTF-8"?>
<svg version="1.1" xmlns="http://www.w3.org/2000/svg" width="240" height="146">
<path d="M0 0 C0 0.99 0 1.98 0 3 C0.99 4.485 0.99 4.485 2 6 C3.093125 6.12375 4.18625 6.2475 5.3125 6.375 C9.86117081 7.14596115 11.07385643 8.52026171 14 12 C15.11375 13.299375 15.11375 13.299375 16.25 14.625 C18 17 18 17 19 20 C19.66 20.165 20.32 20.33 21 20.5 C21.66 20.665 22.32 20.83 23 21 C23.33 21.99 23.66 22.98 24 24 C24.35191406 24.58652344 24.70382813 25.17304687 25.06640625 25.77734375 C26.71039765 29.69128144 25.97150324 33.83184496 25.77734375 38.00390625 C26.03922106 41.52776404 26.62422605 41.66040535 29 44 C29.51171875 47.13671875 29.51171875 47.13671875 29.6875 50.6875 C29.75324219 51.86699219 29.81898438 53.04648438 29.88671875 54.26171875 C29.94279297 55.61716797 29.94279297 55.61716797 30 57 C29.34 57 28.68 57 28 57 C27.67 58.32 27.34 59.64 27 61 C26.22914063 61.03738281 25.45828125 61.07476562 24.6640625 61.11328125 C23.15972656 61.21189453 23.15972656 61.21189453 21.625 61.3125 C20.62726563 61.37050781 19.62953125 61.42851563 18.6015625 61.48828125 C17.31378906 61.74158203 17.31378906 61.74158203 16 62 C15.34 62.99 14.68 63.98 14 65 C15.01320312 65.03738281 16.02640625 65.07476562 17.0703125 65.11328125 C18.42190939 65.17898388 19.77347029 65.24542971 21.125 65.3125 C21.79015625 65.33505859 22.4553125 65.35761719 23.140625 65.38085938 C27.75917371 65.62989877 31.01375105 66.68400178 35 69 C35 69.33 35 69.66 35 70 C30.45895953 71.11443875 25.95830267 71.22190448 21.30859375 71.31640625 C20.41397934 71.33727798 19.51936493 71.35814972 18.59764099 71.37965393 C15.54435965 71.44731164 12.4910061 71.50592014 9.4375 71.5625 C8.3562384 71.58334656 7.27497681 71.60419312 6.16094971 71.62567139 C-30.88672396 72.31519949 -67.94805606 72.18790766 -105 72 C-105.84602783 71.99574257 -106.69205566 71.99148514 -107.5637207 71.98709869 C-117.82133249 71.93390491 -128.07833435 71.85563041 -138.33538818 71.73553467 C-141.18127469 71.70233664 -144.02710838 71.67546018 -146.87310791 71.65411377 C-150.76205626 71.62414347 -154.65042433 71.56965893 -158.5390625 71.51171875 C-159.68370972 71.50531876 -160.82835693 71.49891876 -162.00769043 71.49232483 C-163.55776794 71.4626487 -163.55776794 71.4626487 -165.13916016 71.43237305 C-166.03607574 71.42126999 -166.93299133 71.41016693 -167.85708618 71.39872742 C-168.56424774 71.26714737 -169.2714093 71.13556732 -170 71 C-170.66 70.01 -171.32 69.02 -172 68 C-166.53210377 62.53210377 -142.62614345 65.30395112 -135 65 C-138.03571299 64.35982462 -141.01183755 63.84576756 -144.1015625 63.5703125 C-144.83890625 63.49683594 -145.57625 63.42335937 -146.3359375 63.34765625 C-147.86898917 63.19853689 -149.40289709 63.05798522 -150.9375 62.92578125 C-156.50504437 62.34949157 -156.50504437 62.34949157 -159.046875 60.5546875 C-160 59 -160 59 -159.625 57 C-159.41875 56.34 -159.2125 55.68 -159 55 C-159.495 53.515 -159.495 53.515 -160 52 C-160.41188864 47.26328058 -159.66519316 44.89528231 -157 41 C-156.690625 40.319375 -156.38125 39.63875 -156.0625 38.9375 C-154.7164156 36.4828755 -153.06484006 34.88264829 -151 33 C-150.401875 32.443125 -149.80375 31.88625 -149.1875 31.3125 C-145.41273058 29.04763835 -141.3211075 29 -137 29 C-137 28.34 -137 27.68 -137 27 C-135.68 27.33 -134.36 27.66 -133 28 C-132.67 27.34 -132.34 26.68 -132 26 C-129.89807347 25.72878367 -127.79387864 25.46927194 -125.68359375 25.2734375 C-122.83031194 24.9827101 -120.01787276 24.58849728 -117.1875 24.125 C-115.84751953 23.91230469 -115.84751953 23.91230469 -114.48046875 23.6953125 C-111.68839492 22.91265243 -110.30983865 21.73610287 -108 20 C-103.95874328 17.67436055 -99.8176163 15.53805691 -95.6875 13.375 C-94.57181641 12.776875 -93.45613281 12.17875 -92.30664062 11.5625 C-91.21931641 10.99273437 -90.13199219 10.42296875 -89.01171875 9.8359375 C-87.53384888 9.05549072 -87.53384888 9.05549072 -86.02612305 8.25927734 C-82.65958082 6.85833948 -79.61312977 6.39307944 -76 6 C-74.66458649 5.67510055 -73.33112102 5.34206098 -72 5 C-54.9832605 1.78885219 -37.03843673 2.20800428 -19.828125 3.37109375 C-18.91643555 3.43256592 -18.00474609 3.49403809 -17.06542969 3.55737305 C-15.41324497 3.68142841 -13.76240005 3.82585837 -12.11425781 3.99536133 C-6.56643801 4.43886793 -4.15846321 3.39520097 0 0 Z M-104 62 C-104 62.66 -104 63.32 -104 64 C-104.66 64.66 -105.32 65.32 -106 66 C-95.9855044 66.02323256 -85.97101527 66.04097054 -75.95649815 66.05181217 C-71.30570583 66.05701719 -66.65493205 66.06407135 -62.00415039 66.07543945 C-57.51079566 66.08635325 -53.01745869 66.09229475 -48.52409172 66.09487724 C-46.81500914 66.09671624 -45.10592746 66.1003072 -43.39685249 66.10573006 C-31.16579279 66.15894944 -31.16579279 66.15894944 -19 65 C-19 64.01 -19 63.02 -19 62 C-21.91672884 61.97299325 -24.83320677 61.95315763 -27.75 61.9375 C-28.9875 61.92493164 -28.9875 61.92493164 -30.25 61.91210938 C-31.04921875 61.90888672 -31.8484375 61.90566406 -32.671875 61.90234375 C-33.4050293 61.89710693 -34.13818359 61.89187012 -34.89355469 61.88647461 C-36.964215 61.91823467 -36.964215 61.91823467 -38.74182129 62.5057373 C-41.62930075 63.13773927 -44.2810658 63.07494082 -47.23730469 63.02172852 C-48.49830994 63.00163223 -49.75931519 62.98153595 -51.05853271 62.96083069 C-52.42964907 62.9336365 -53.80076312 62.90632562 -55.171875 62.87890625 C-56.57862568 62.85459244 -57.98538457 62.83074952 -59.39215088 62.80735779 C-63.08788432 62.7446422 -66.78347169 62.6755404 -70.47906494 62.60510254 C-74.25290293 62.53430568 -78.02684417 62.46955674 -81.80078125 62.40429688 C-89.20063506 62.27544608 -96.60034498 62.13984765 -104 62 Z " fill="#F2F3F3" transform="translate(188,40)"/>
<path d="M0 0 C4.33208825 2.43519754 7.26306776 5.75486378 8.8125 10.5 C8.8125 13.47 8.8125 16.44 8.8125 19.5 C38.1825 19.5 67.5525 19.5 97.8125 19.5 C97.8125 16.53 97.8125 13.56 97.8125 10.5 C99.32164774 6.06992116 102.16775896 2.58741537 106.0625 0 C110.81592137 -2.31470954 115.76368215 -2.53050043 120.765625 -0.83984375 C125.30378653 1.43910258 128.79341077 4.8069818 130.8125 9.5 C131.19180742 12.55391104 131.12442842 15.44310151 130.8125 18.5 C132.1325 18.83 133.4525 19.16 134.8125 19.5 C134.02875 19.603125 133.245 19.70625 132.4375 19.8125 C129.48204819 20.27595022 129.48204819 20.27595022 127.8125 23.5 C129.33230469 23.55607422 129.33230469 23.55607422 130.8828125 23.61328125 C132.23440939 23.67898388 133.58597029 23.74542971 134.9375 23.8125 C135.60265625 23.83505859 136.2678125 23.85761719 136.953125 23.88085938 C141.57167371 24.12989877 144.82625105 25.18400178 148.8125 27.5 C148.8125 27.83 148.8125 28.16 148.8125 28.5 C144.27145953 29.61443875 139.77080267 29.72190448 135.12109375 29.81640625 C134.22647934 29.83727798 133.33186493 29.85814972 132.41014099 29.87965393 C129.35685965 29.94731164 126.3035061 30.00592014 123.25 30.0625 C121.6281076 30.09376984 121.6281076 30.09376984 119.97344971 30.12567139 C82.92577604 30.81519949 45.86444394 30.68790766 8.8125 30.5 C7.96647217 30.49574257 7.12044434 30.49148514 6.2487793 30.48709869 C-4.00883249 30.43390491 -14.26583435 30.35563041 -24.52288818 30.23553467 C-27.36877469 30.20233664 -30.21460838 30.17546018 -33.06060791 30.15411377 C-36.94955626 30.12414347 -40.83792433 30.06965893 -44.7265625 30.01171875 C-45.87120972 30.00531876 -47.01585693 29.99891876 -48.19519043 29.99232483 C-49.74526794 29.9626487 -49.74526794 29.9626487 -51.32666016 29.93237305 C-52.22357574 29.92126999 -53.12049133 29.91016693 -54.04458618 29.89872742 C-54.75174774 29.76714737 -55.4589093 29.63556732 -56.1875 29.5 C-56.8475 28.51 -57.5075 27.52 -58.1875 26.5 C-52.71960377 21.03210377 -28.81364345 23.80395112 -21.1875 23.5 C-24.2517644 22.86092882 -27.28487766 22.32091096 -30.39453125 21.96484375 C-31.14541016 21.87783203 -31.89628906 21.79082031 -32.66992188 21.70117188 C-33.43884766 21.61416016 -34.20777344 21.52714844 -35 21.4375 C-35.78826172 21.34662109 -36.57652344 21.25574219 -37.38867188 21.16210938 C-39.32140203 20.93955257 -41.25442286 20.71952254 -43.1875 20.5 C-43.1875 20.17 -43.1875 19.84 -43.1875 19.5 C-37.2475 19.5 -31.3075 19.5 -25.1875 19.5 C-25.1875 17.19 -25.1875 14.88 -25.1875 12.5 C-23.46135074 6.63109251 -20.10759923 2.95453775 -15.1875 -0.5 C-9.87825405 -2.26974865 -5.1133605 -2.19835764 0 0 Z M9.8125 20.5 C9.8125 21.16 9.8125 21.82 9.8125 22.5 C9.1525 23.16 8.4925 23.82 7.8125 24.5 C17.8269956 24.52323256 27.84148473 24.54097054 37.85600185 24.55181217 C42.50679417 24.55701719 47.15756795 24.56407135 51.80834961 24.57543945 C56.30170434 24.58635325 60.79504131 24.59229475 65.28840828 24.59487724 C66.99749086 24.59671624 68.70657254 24.6003072 70.41564751 24.60573006 C82.64670721 24.65894944 82.64670721 24.65894944 94.8125 23.5 C94.8125 22.51 94.8125 21.52 94.8125 20.5 C91.89577116 20.47299325 88.97929323 20.45315763 86.0625 20.4375 C84.825 20.42493164 84.825 20.42493164 83.5625 20.41210938 C82.76328125 20.40888672 81.9640625 20.40566406 81.140625 20.40234375 C80.4074707 20.39710693 79.67431641 20.39187012 78.91894531 20.38647461 C76.848285 20.41823467 76.848285 20.41823467 75.07067871 21.0057373 C72.18319925 21.63773927 69.5314342 21.57494082 66.57519531 21.52172852 C65.31419006 21.50163223 64.05318481 21.48153595 62.75396729 21.46083069 C61.38285093 21.4336365 60.01173688 21.40632562 58.640625 21.37890625 C57.23387432 21.35459244 55.82711543 21.33074952 54.42034912 21.30735779 C50.72461568 21.2446422 47.02902831 21.1755404 43.33343506 21.10510254 C39.55959707 21.03430568 35.78565583 20.96955674 32.01171875 20.90429688 C24.61186494 20.77544608 17.21215502 20.63984765 9.8125 20.5 Z " fill="#151717" transform="translate(74.1875,81.5)"/>
<path d="M0 0 C0 0.33 0 0.66 0 1 C12.21 1 24.42 1 37 1 C38.65 4.3 40.3 7.6 42 11 C40 16 40 16 38 17 C38 16.34 38 15.68 38 15 C35.36 14.67 32.72 14.34 30 14 C30 14.66 30 15.32 30 16 C29.02160156 16.14695312 29.02160156 16.14695312 28.0234375 16.296875 C22.54139935 17.23480483 18.14374115 18.05357986 14 22 C12.36750604 25.24458174 11.11994286 28.54794082 10 32 C8.5 30.625 8.5 30.625 7 29 C7 28.34 7 27.68 7 27 C-2.76426193 26.90560864 -12.49799857 26.8985258 -22.25 27.4375 C-33.26435616 28.04438198 -44.28573958 28.29799779 -55.3125 28.5625 C-56.23381714 28.58464569 -57.15513428 28.60679138 -58.10437012 28.62960815 C-63.40284694 28.75626568 -68.70139615 28.87857904 -74 29 C-74 21.08 -74 13.16 -74 5 C-73.01 5.495 -73.01 5.495 -72 6 C-70.73240845 5.30994873 -70.73240845 5.30994873 -69.43920898 4.60595703 C-65.15082966 2.60347537 -61.64472164 2.44805968 -56.97265625 2.3046875 C-56.1066832 2.26691193 -55.24071014 2.22913635 -54.34849548 2.19021606 C-51.58684727 2.07234017 -48.82491527 1.97307963 -46.0625 1.875 C-43.34105639 1.76601632 -40.61979043 1.65318226 -37.89851379 1.54011536 C-36.12115207 1.46676682 -34.34371546 1.39521003 -32.56620789 1.32548523 C-26.07378864 1.06611709 -19.60009556 0.6754701 -13.12060547 0.1940918 C-8.74386034 -0.07812792 -4.38284193 -0.09281312 0 0 Z " fill="#F4F4F4" transform="translate(162,64)"/>
<path d="M0 0 C0.89871826 0.05309326 1.79743652 0.10618652 2.72338867 0.16088867 C7.05947567 0.54905092 9.05890867 0.90684759 12.53515625 3.70703125 C16.5625 8.88282755 16.5625 8.88282755 16.5625 13.3125 C2.98744403 18.14515436 -12.1197178 18.02893809 -26.375 18.875 C-27.42788208 18.93909058 -28.48076416 19.00318115 -29.56555176 19.06921387 C-42.9336302 19.8814143 -56.30205029 20.6102539 -69.6875 21.0625 C-70.94554443 21.10705322 -72.20358887 21.15160645 -73.49975586 21.19750977 C-74.63936768 21.23030029 -75.77897949 21.26309082 -76.953125 21.296875 C-77.92540039 21.32491211 -78.89767578 21.35294922 -79.89941406 21.38183594 C-82.25337911 21.31752985 -84.19189495 20.9913423 -86.4375 20.3125 C-84.21934367 13.65803102 -73.16801613 9.58218706 -67.02709961 6.40356445 C-46.42293758 -3.71667492 -22.27955753 -1.62146403 0 0 Z " fill="#31383A" transform="translate(171.4375,46.6875)"/>
<path d="M0 0 C2 2 2 2 2.01171875 5.51953125 C1.91449176 6.95129864 1.80593786 8.38233098 1.6875 9.8125 C1.63916016 10.52470703 1.59082031 11.23691406 1.54101562 11.97070312 C1.26742886 15.71433969 0.84111462 19.34079193 0 23 C-0.66 23 -1.32 23 -2 23 C-2 23.66 -2 24.32 -2 25 C-22.31579425 26.17014991 -42.65877573 26.53386761 -63 27 C-63 19.08 -63 11.16 -63 3 C-62.01 3.495 -62.01 3.495 -61 4 C-60.154375 3.525625 -59.30875 3.05125 -58.4375 2.5625 C-54.11588448 0.59812931 -50.66199755 0.72028015 -46 1 C-46.99 1.495 -46.99 1.495 -48 2 C-48 3.32 -48 4.64 -48 6 C-43.52084729 6.0292814 -39.04171958 6.04689296 -34.5625 6.0625 C-33.30244141 6.07087891 -32.04238281 6.07925781 -30.74414062 6.08789062 C-22.82356174 6.11066611 -22.82356174 6.11066611 -14.9375 5.46875 C-11.56059076 5.066737 -8.787229 5.01288646 -5.4375 5.4375 C-4.59058594 5.53933594 -3.74367187 5.64117187 -2.87109375 5.74609375 C-1.94490234 5.87177734 -1.94490234 5.87177734 -1 6 C-0.67 4.02 -0.34 2.04 0 0 Z " fill="#E6E7E7" transform="translate(151,66)"/>
<path d="M0 0 C0.495 0.99 0.495 0.99 1 2 C1.61875 1.67 2.2375 1.34 2.875 1 C7.36748318 -0.43759462 11.34188138 -0.92316723 16 0 C19.3010345 1.8445394 21.76712509 3.94352369 24 7 C24.5 10.4375 24.5 10.4375 24 13 C23.34 13 22.68 13 22 13 C21.9175 14.051875 21.835 15.10375 21.75 16.1875 C20.93735303 20.31845545 19.68897099 21.87732401 17 25 C17 25.99 17 26.98 17 28 C9.20383922 28.07586402 1.40777307 28.12852114 -6.38867188 28.16479492 C-9.04267941 28.17991145 -11.69666186 28.20040495 -14.35058594 28.22631836 C-18.158266 28.26257521 -21.96561675 28.27969763 -25.7734375 28.29296875 C-27.56254044 28.31619453 -27.56254044 28.31619453 -29.38778687 28.33988953 C-30.48877716 28.34011612 -31.58976746 28.34034271 -32.72412109 28.34057617 C-33.69674896 28.34723801 -34.66937683 28.35389984 -35.67147827 28.36076355 C-36.43989044 28.24171158 -37.20830261 28.12265961 -38 28 C-38.66 27.01 -39.32 26.02 -40 25 C-34.53210377 19.53210377 -10.62614345 22.30395112 -3 22 C-6.0642644 21.36092882 -9.09737766 20.82091096 -12.20703125 20.46484375 C-12.95791016 20.37783203 -13.70878906 20.29082031 -14.48242188 20.20117188 C-15.25134766 20.11416016 -16.02027344 20.02714844 -16.8125 19.9375 C-17.60076172 19.84662109 -18.38902344 19.75574219 -19.20117188 19.66210938 C-21.13390203 19.43955257 -23.06692286 19.21952254 -25 19 C-25 18.67 -25 18.34 -25 18 C-19.06 18 -13.12 18 -7 18 C-7 15.69 -7 13.38 -7 11 C-6.23046875 8.671875 -6.23046875 8.671875 -5.1875 6.75 C-4.85105469 6.10546875 -4.51460937 5.4609375 -4.16796875 4.796875 C-2.95688647 2.93367149 -1.62477516 1.50838725 0 0 Z " fill="#151617" transform="translate(56,83)"/>
<path d="M0 0 C0.33 0 0.66 0 1 0 C1.33 6.93 1.66 13.86 2 21 C4.57167969 20.9278125 7.14335938 20.855625 9.79296875 20.78125 C44.9421771 19.81391466 44.9421771 19.81391466 62 20 C62.33 19.34 62.66 18.68 63 18 C63 18.66 63 19.32 63 20 C63.56509277 19.99476318 64.13018555 19.98952637 64.71240234 19.98413086 C67.2665903 19.96337578 69.82076053 19.9503446 72.375 19.9375 C73.70917969 19.92493164 73.70917969 19.92493164 75.0703125 19.91210938 C75.92109375 19.90888672 76.771875 19.90566406 77.6484375 19.90234375 C78.43395996 19.89710693 79.21948242 19.89187012 80.02880859 19.88647461 C82 20 82 20 84 21 C84.495 25.455 84.495 25.455 85 30 C55.63 30 26.26 30 -4 30 C-4 28.68 -4 27.36 -4 26 C-2.68 26 -1.36 26 0 26 C0 17.42 0 8.84 0 0 Z " fill="#C3C4C4" transform="translate(87,71)"/>
<path d="M0 0 C6.34548922 -0.51799912 11.00551647 -0.18892167 16 4 C18.90553478 6.83933272 20.79569365 9.35507197 21.3046875 13.453125 C21.31162774 15.66012251 21.22394624 17.80532685 21 20 C22.32 20.33 23.64 20.66 25 21 C24.21625 21.103125 23.4325 21.20625 22.625 21.3125 C19.66954819 21.77595022 19.66954819 21.77595022 18 25 C19.01320312 25.03738281 20.02640625 25.07476562 21.0703125 25.11328125 C22.42190939 25.17898388 23.77347029 25.24542971 25.125 25.3125 C25.79015625 25.33505859 26.4553125 25.35761719 27.140625 25.38085938 C31.75917371 25.62989877 35.01375105 26.68400178 39 29 C39 29.33 39 29.66 39 30 C35.64908229 30.75363052 32.56890188 31.11979937 29.13671875 31.09765625 C27.80737305 31.09282227 27.80737305 31.09282227 26.45117188 31.08789062 C25.53916016 31.07951172 24.62714844 31.07113281 23.6875 31.0625 C22.75615234 31.05798828 21.82480469 31.05347656 20.86523438 31.04882812 C18.57675627 31.03709234 16.28841192 31.02067363 14 31 C14.33 30.401875 14.66 29.80375 15 29.1875 C16.20787988 26.94613529 16.20787988 26.94613529 16 24 C15.154375 24.639375 14.30875 25.27875 13.4375 25.9375 C10.00731714 28.19738518 7.15795799 28.92575075 3 29 C-1.19469429 27.43727076 -4.21888252 25.50894184 -7 22 C-7.70608286 16.52290868 -7.70309333 10.33567085 -4.359375 5.75 C-2.636511 4.29326947 -0.97599503 3.08344375 1 2 C0.67 1.34 0.34 0.68 0 0 Z " fill="#1C1E1E" transform="translate(184,80)"/>
<path d="M0 0 C-0.66 2.31 -1.32 4.62 -2 7 C-29.72 7 -57.44 7 -86 7 C-85.67 5.68 -85.34 4.36 -85 3 C-74.42222236 1.11958283 -63.7360872 0.85013156 -53.015625 0.71875 C-51.24406036 0.69113586 -51.24406036 0.69113586 -49.43670654 0.66296387 C-44.44567829 0.58520991 -39.45453656 0.51661965 -34.46337891 0.44775391 C-30.79323278 0.39575262 -27.12319016 0.33864284 -23.453125 0.28125 C-22.33730042 0.26767456 -21.22147583 0.25409912 -20.07183838 0.2401123 C-15.2876936 0.16455353 -10.59743165 0.01012737 -5.84667969 -0.58007812 C-2 -1 -2 -1 0 0 Z " fill="#4F5151" transform="translate(171,105)"/>
<path d="M0 0 C0 0.99 0 1.98 0 3 C-0.66 3 -1.32 3 -2 3 C-2 6.3 -2 9.6 -2 13 C-6.04063703 13.74016884 -9.95082109 14.1683286 -14.0546875 14.31640625 C-15.71757812 14.37924805 -15.71757812 14.37924805 -17.4140625 14.44335938 C-18.55617187 14.48267578 -19.69828125 14.52199219 -20.875 14.5625 C-22.0403125 14.60568359 -23.205625 14.64886719 -24.40625 14.69335938 C-27.27072625 14.79901629 -30.13528321 14.90111799 -33 15 C-33.66 13.35 -34.32 11.7 -35 10 C-35 11.65 -35 13.3 -35 15 C-36.32 15 -37.64 15 -39 15 C-39 13.35 -39 11.7 -39 10 C-39.99 10 -40.98 10 -42 10 C-42 10.99 -42 11.98 -42 13 C-46.455 13.495 -46.455 13.495 -51 14 C-51 13.01 -51 12.02 -51 11 C-47.91554084 9.20073215 -44.84821419 8.50016563 -41.39453125 7.69921875 C-38.53501125 6.86422025 -35.91145136 5.7047567 -33.1875 4.5 C-22.1940538 -0.152657 -11.73267234 -0.2649788 0 0 Z " fill="#CDD2D3" transform="translate(144,51)"/>
<path d="M0 0 C2.82708969 4.47714204 2.01484624 8.90049913 1.77734375 14.00390625 C2.03922106 17.52776404 2.62422605 17.66040535 5 20 C5.51171875 23.13671875 5.51171875 23.13671875 5.6875 26.6875 C5.78611328 28.45673828 5.78611328 28.45673828 5.88671875 30.26171875 C5.92410156 31.16535156 5.96148437 32.06898437 6 33 C5.34 33 4.68 33 4 33 C3.67 34.32 3.34 35.64 3 37 C-0.3 36.67 -3.6 36.34 -7 36 C-7.061875 34.659375 -7.12375 33.31875 -7.1875 31.9375 C-7.76755213 26.88389513 -9.35840753 23.55861948 -13 20 C-15.27832084 18.40564711 -17.48967819 17.23054991 -20 16 C-20 15.34 -20 14.68 -20 14 C-17.98177083 14.26041667 -15.96354167 14.52083333 -13.9453125 14.78125 C-11.99501656 15.0372485 -11.99501656 15.0372485 -10 15 C-10 14.34 -10 13.68 -10 13 C-9.34 13 -8.68 13 -8 13 C-8.3609375 12.37351562 -8.721875 11.74703125 -9.09375 11.1015625 C-9.5578125 10.28429687 -10.021875 9.46703125 -10.5 8.625 C-10.9640625 7.81289062 -11.428125 7.00078125 -11.90625 6.1640625 C-13 4 -13 4 -13 2 C-12.22914063 2.02320312 -11.45828125 2.04640625 -10.6640625 2.0703125 C-9.15972656 2.09738281 -9.15972656 2.09738281 -7.625 2.125 C-6.62726563 2.14820312 -5.62953125 2.17140625 -4.6015625 2.1953125 C-1.83737827 2.27216848 -1.83737827 2.27216848 0 0 Z " fill="#EEEFEF" transform="translate(212,64)"/>
<path d="M0 0 C12.87960164 -0.78427885 12.87960164 -0.78427885 17.125 2.1875 C18.053125 3.5796875 18.053125 3.5796875 19 5 C20.11375 6.299375 20.11375 6.299375 21.25 7.625 C23 10 23 10 24 13 C26.01508358 13.73323796 26.01508358 13.73323796 28 14 C28 15.98 28 17.96 28 20 C27.16855469 19.9278125 26.33710938 19.855625 25.48046875 19.78125 C23.85044922 19.64203125 23.85044922 19.64203125 22.1875 19.5 C21.10855469 19.4071875 20.02960938 19.314375 18.91796875 19.21875 C15.98909189 18.96262162 15.98909189 18.96262162 13 19 C1.33333333 19 -10.33333333 19 -22 19 C-21.67 18.34 -21.34 17.68 -21 17 C-18.49975586 16.40576172 -18.49975586 16.40576172 -15.21484375 15.9296875 C-14.04501953 15.75566406 -12.87519531 15.58164062 -11.66992188 15.40234375 C-10.43822266 15.22832031 -9.20652344 15.05429687 -7.9375 14.875 C-6.70193359 14.69324219 -5.46636719 14.51148438 -4.19335938 14.32421875 C-1.12998566 13.87476624 1.93437048 13.43375296 5 13 C4.319375 11.453125 4.319375 11.453125 3.625 9.875 C2.23292639 6.63562492 1.06619122 3.36260307 0 0 Z " fill="#F6F7F7" transform="translate(183,47)"/>
<path d="M0 0 C2.93423195 1.79646854 4.47205355 2.9441071 6 6 C6.48305373 10.83053734 6.50426174 13.06102986 4.1875 17.375 C0.49761555 21.32231825 -4.881389 21.48007104 -10 22 C-16.58828874 13.7503167 -16.58828874 13.7503167 -16.1875 8.75 C-13.48794336 0.22508429 -8.34291012 -1.52062894 0 0 Z " fill="#6C6E6D" transform="translate(71,86)"/>
<path d="M0 0 C1.21236328 0.02707031 1.21236328 0.02707031 2.44921875 0.0546875 C3.37154297 0.08949219 3.37154297 0.08949219 4.3125 0.125 C3.6525 1.775 2.9925 3.425 2.3125 5.125 C1.9825 4.135 1.6525 3.145 1.3125 2.125 C0.3225 1.795 -0.6675 1.465 -1.6875 1.125 C-1.3575 2.775 -1.0275 4.425 -0.6875 6.125 C-0.0275 6.125 0.6325 6.125 1.3125 6.125 C1.6425 6.785 1.9725 7.445 2.3125 8.125 C4.6225 6.805 6.9325 5.485 9.3125 4.125 C11.14876701 6.82539267 11.30847623 8.23565361 11.1875 11.5625 C10.19345077 15.60970045 9.49374767 17.42093948 6.3125 20.125 C2.04506236 21.41719607 -1.42049568 21.64832787 -5.5625 19.9375 C-9.09843626 16.92155437 -10.54378044 15.44242933 -11.0625 10.6875 C-10.6657558 6.91843007 -9.98158672 5.09881612 -7.6875 2.125 C-4.48369983 -0.01086678 -3.66810033 -0.10632175 0 0 Z " fill="#B1B4B5" transform="translate(188.6875,85.875)"/>
<path d="M0 0 C-0.75 2.375 -0.75 2.375 -2 5 C-2.67160156 5.29261719 -3.34320313 5.58523437 -4.03515625 5.88671875 C-6.20877992 6.81304727 -6.20877992 6.81304727 -6.57421875 9.05859375 C-6.61160156 9.84363281 -6.64898437 10.62867187 -6.6875 11.4375 C-6.85155892 14.28275042 -7.08572975 16.25718925 -8 19 C-8 19.99 -8 20.98 -8 22 C-12.17737474 23.59138085 -15.53160785 24.21278058 -20 24 C-22.00441422 19.86589566 -22.40848636 16.57504719 -22 12 C-20.625 9.3125 -20.625 9.3125 -19 7 C-18.6596875 5.948125 -18.6596875 5.948125 -18.3125 4.875 C-14.35870142 -0.77328369 -6.16127286 -0.38507955 0 0 Z " fill="#E5E7E7" transform="translate(50,74)"/>
<path d="M0 0 C0.68707555 2.49064888 1 4.37886292 1 7 C2.32 7 3.64 7 5 7 C5.309375 6.195625 5.61875 5.39125 5.9375 4.5625 C7 2 7 2 8 1 C11.33300702 0.77515429 14.66283219 0.90599527 18 1 C19.24910156 1.00773437 19.24910156 1.00773437 20.5234375 1.015625 C22.83694726 1.12323011 24.79261879 1.2941775 27 2 C31 6.58536585 31 6.58536585 31 10 C23.04264468 11.88849677 15.15484303 12.55348122 7 13 C7 11.68 7 10.36 7 9 C2.71 9 -1.58 9 -6 9 C-5.67 7.35 -5.34 5.7 -5 4 C-4.34 4 -3.68 4 -3 4 C-2.67 3.34 -2.34 2.68 -2 2 C-1.34 2.33 -0.68 2.66 0 3 C0 2.01 0 1.02 0 0 Z " fill="#808B8D" transform="translate(147,50)"/>
<path d="M0 0 C4.29 0 8.58 0 13 0 C13 1.32 13 2.64 13 4 C13.66 3.67 14.32 3.34 15 3 C16.42410042 2.78144638 17.85560536 2.60985524 19.2890625 2.46484375 C20.14886719 2.37783203 21.00867188 2.29082031 21.89453125 2.20117188 C22.79558594 2.11416016 23.69664062 2.02714844 24.625 1.9375 C25.94177734 1.80118164 25.94177734 1.80118164 27.28515625 1.66210938 C32.55258805 1.14162763 37.70749556 0.9074737 43 1 C35.92024468 8.07975532 13.72171381 5.98921826 4.0625 6.5625 C3.00961792 6.62659058 1.95673584 6.69068115 0.87194824 6.75671387 C-12.4961302 7.5689143 -25.86455029 8.2977539 -39.25 8.75 C-41.13706665 8.81682983 -41.13706665 8.81682983 -43.06225586 8.88500977 C-44.20186768 8.91780029 -45.34147949 8.95059082 -46.515625 8.984375 C-47.48790039 9.01241211 -48.46017578 9.04044922 -49.46191406 9.06933594 C-51.81587911 9.00502985 -53.75439495 8.6788423 -56 8 C-55 5 -55 5 -51.9375 3.3125 C-50.968125 2.879375 -49.99875 2.44625 -49 2 C-49 2.66 -49 3.32 -49 4 C-49.99 4.495 -49.99 4.495 -51 5 C-47.04 5 -43.08 5 -39 5 C-39 4.01 -39 3.02 -39 2 C-38.01 2 -37.02 2 -36 2 C-36 3.65 -36 5.3 -36 7 C-34.68 7 -33.36 7 -32 7 C-32.33 5.02 -32.66 3.04 -33 1 C-32.34 1.33 -31.68 1.66 -31 2 C-30.375 4.5625 -30.375 4.5625 -30 7 C-29.30237549 6.84152588 -28.60475098 6.68305176 -27.88598633 6.51977539 C-24.83289832 5.96990445 -21.92395403 5.79048117 -18.82421875 5.68359375 C-17.66728516 5.64169922 -16.51035156 5.59980469 -15.31835938 5.55664062 C-14.12017578 5.51732422 -12.92199219 5.47800781 -11.6875 5.4375 C-9.8612207 5.37272461 -9.8612207 5.37272461 -7.99804688 5.30664062 C-4.9988053 5.20078504 -1.99948409 5.09870274 1 5 C0.505 2.525 0.505 2.525 0 0 Z " fill="#383D3F" transform="translate(141,59)"/>
<path d="M0 0 C0 1.32 0 2.64 0 4 C-20.31552146 5.1701342 -40.65893056 5.53739871 -61 6 C-61 5.01 -61 4.02 -61 3 C-40.71861288 1.13326461 -20.38198333 -0.35827705 0 0 Z " fill="#FBFCFC" transform="translate(149,87)"/>
<path d="M0 0 C1.09731445 0.00676758 1.09731445 0.00676758 2.21679688 0.01367188 C3.99873419 0.02531852 5.78062863 0.04324809 7.5625 0.0625 C7.5625 1.0525 7.5625 2.0425 7.5625 3.0625 C6.9025 3.0625 6.2425 3.0625 5.5625 3.0625 C4.9025 4.3825 4.2425 5.7025 3.5625 7.0625 C-12.7725 7.5575 -12.7725 7.5575 -29.4375 8.0625 C-29.4375 7.4025 -29.4375 6.7425 -29.4375 6.0625 C-27.2531809 5.24148686 -25.06487564 4.43107518 -22.875 3.625 C-21.65683594 3.17253906 -20.43867187 2.72007813 -19.18359375 2.25390625 C-12.76696127 0.21316287 -6.65959764 -0.07920839 0 0 Z " fill="#D2D8D9" transform="translate(136.4375,50.9375)"/>
<path d="M0 0 C1.20628008 2.33214148 2.1654738 4.49642139 3 7 C4.65 7 6.3 7 8 7 C7.690625 7.845625 7.38125 8.69125 7.0625 9.5625 C5.73678294 13.53231978 5.73678294 13.53231978 5 20 C-1.6 20 -8.2 20 -15 20 C-15.33 18.68 -15.66 17.36 -16 16 C-15.34 15.67 -14.68 15.34 -14 15 C-14 15.66 -14 16.32 -14 17 C-10.04 16.34 -6.08 15.68 -2 15 C-2.33 13.35 -2.66 11.7 -3 10 C-2.67 9.01 -2.34 8.02 -2 7 C-1.96125079 5.33378384 -1.9549714 3.66605828 -2 2 C-1.34 2 -0.68 2 0 2 C0 1.34 0 0.68 0 0 Z " fill="#D7DADA" transform="translate(44,81)"/>
<path d="M0 0 C2.93423195 1.79646854 4.47205355 2.9441071 6 6 C6.58608059 13.26739927 6.58608059 13.26739927 4 16.5 C3.34 16.995 2.68 17.49 2 18 C2.66 16.02 3.32 14.04 4 12 C1.03 11.505 1.03 11.505 -2 11 C-1.6875 9.125 -1.6875 9.125 -1 7 C-0.01 6.34 0.98 5.68 2 5 C1.360625 4.71125 0.72125 4.4225 0.0625 4.125 C-2 3 -2 3 -3 1 C-4.32 1 -5.64 1 -7 1 C-6.67 2.32 -6.34 3.64 -6 5 C-6.99 4.34 -7.98 3.68 -9 3 C-9.66 3.66 -10.32 4.32 -11 5 C-10.01 6.485 -10.01 6.485 -9 8 C-11.475 7.01 -11.475 7.01 -14 6 C-14 7.32 -14 8.64 -14 10 C-12.35 10 -10.7 10 -9 10 C-9 10.33 -9 10.66 -9 11 C-10.65 11 -12.3 11 -14 11 C-13.34 12.32 -12.68 13.64 -12 15 C-11.38125 14.505 -10.7625 14.01 -10.125 13.5 C-8 12 -8 12 -6 12 C-6.33 14.31 -6.66 16.62 -7 19 C-5.35 19.33 -3.7 19.66 -2 20 C-2 20.33 -2 20.66 -2 21 C-5.96 21.495 -5.96 21.495 -10 22 C-16.58828874 13.7503167 -16.58828874 13.7503167 -16.1875 8.75 C-13.48794336 0.22508429 -8.34291012 -1.52062894 0 0 Z " fill="#B4B6B7" transform="translate(71,86)"/>
<path d="M0 0 C4.44491592 2.49862138 6.98963784 5.75888602 8.8125 10.5 C9.84779644 15.5152475 9.43190455 18.51623984 6.6875 22.875 C3.84748994 25.46805266 1.34537375 27.02112262 -2.1875 28.5 C-1.06298273 25.5280615 0.03543791 23.16559313 1.8125 20.5 C2.26851261 17.99103314 2.26851261 17.99103314 2.4375 15.3125 C2.51226562 14.41144531 2.58703125 13.51039062 2.6640625 12.58203125 C2.71304688 11.89496094 2.76203125 11.20789063 2.8125 10.5 C3.1425 11.82 3.4725 13.14 3.8125 14.5 C4.4725 14.5 5.1325 14.5 5.8125 14.5 C4.86729283 9.67944343 3.85417514 6.46719513 -0.27734375 3.37109375 C-5.36076353 1.052888 -11.93965115 2.10057364 -17.1875 3.5 C-17.1875 2.51 -17.1875 1.52 -17.1875 0.5 C-11.4263652 -2.3805674 -5.85148961 -2.4951635 0 0 Z " fill="#0F1111" transform="translate(74.1875,81.5)"/>
<path d="M0 0 C1.72206188 2.99126319 2.24179923 5.10685713 2.1953125 8.546875 C2.18886719 9.39121094 2.18242188 10.23554687 2.17578125 11.10546875 C2.15902344 11.97816406 2.14226562 12.85085937 2.125 13.75 C2.11597656 14.63816406 2.10695313 15.52632812 2.09765625 16.44140625 C2.07414577 18.62788058 2.04128499 20.81380094 2 23 C0.68 23 -0.64 23 -2 23 C-2.15855469 22.40832031 -2.31710938 21.81664063 -2.48046875 21.20703125 C-4.04041644 15.9238935 -5.53366513 12.50926311 -10 9 C-12.66533035 7.680982 -12.66533035 7.680982 -15 7 C-14.67 6.01 -14.34 5.02 -14 4 C-8.97307937 4.45699278 -5.85103739 6.99241748 -2 10 C-2.74438917 6.8614943 -3.75837359 3.97990339 -5 1 C-3.35 0.67 -1.7 0.34 0 0 Z " fill="#ECEDED" transform="translate(85,74)"/>
<path d="M0 0 C3.12498063 -0.02895976 6.2499269 -0.04678483 9.375 -0.0625 C10.70917969 -0.07506836 10.70917969 -0.07506836 12.0703125 -0.08789062 C13.34648437 -0.09272461 13.34648437 -0.09272461 14.6484375 -0.09765625 C15.43395996 -0.10289307 16.21948242 -0.10812988 17.02880859 -0.11352539 C19 0 19 0 21 1 C21.33 2.98 21.66 4.96 22 7 C11.44 7 0.88 7 -10 7 C-10 6.67 -10 6.34 -10 6 C-7.36 5.67 -4.72 5.34 -2 5 C-1.34 3.35 -0.68 1.7 0 0 Z " fill="#DCDEDE" transform="translate(150,91)"/>
<path d="M0 0 C0.845625 0.639375 1.69125 1.27875 2.5625 1.9375 C5.99268286 4.19738518 8.84204201 4.92575075 13 5 C16.23394361 3.71677553 16.23394361 3.71677553 19 2 C19.99 1.67 20.98 1.34 22 1 C22.33 2.65 22.66 4.3 23 6 C19.41577704 8.38948197 17.62767404 8.30233168 13.36328125 8.4140625 C12.06455078 8.45273438 10.76582031 8.49140625 9.42773438 8.53125 C8.05599427 8.56270517 6.68424939 8.59395251 5.3125 8.625 C3.92901215 8.66319197 2.54554777 8.70224442 1.16210938 8.7421875 C-2.2251245 8.83660517 -5.61235069 8.92218118 -9 9 C-8.67 7.35 -8.34 5.7 -8 4 C-5.69 4 -3.38 4 -1 4 C-0.67 2.68 -0.34 1.36 0 0 Z " fill="#060809" transform="translate(178,103)"/>
<path d="M0 0 C0.66 0.99 1.32 1.98 2 3 C-6.88140496 6.74911767 -15.53111035 9.98984465 -25 12 C-25 12.99 -25 13.98 -25 15 C-26.32 14.67 -27.64 14.34 -29 14 C-28.01 13.67 -27.02 13.34 -26 13 C-26 12.01 -26 11.02 -26 10 C-22.89779023 8.35045833 -19.79290789 6.7060119 -16.6875 5.0625 C-15.80642578 4.59392578 -14.92535156 4.12535156 -14.01757812 3.64257812 C-13.17001953 3.19462891 -12.32246094 2.74667969 -11.44921875 2.28515625 C-10.27879028 1.66459351 -10.27879028 1.66459351 -9.0847168 1.03149414 C-5.6601306 -0.66295213 -3.5997039 -1.39343377 0 0 Z " fill="#2F3436" transform="translate(118,50)"/>
<path d="M0 0 C0.495 3.465 0.495 3.465 1 7 C-0.32 6.67 -1.64 6.34 -3 6 C-2.34 4.68 -1.68 3.36 -1 2 C-4.47939051 2.14076889 -7.95845059 2.28855667 -11.4375 2.4375 C-12.89833008 2.49647461 -12.89833008 2.49647461 -14.38867188 2.55664062 C-20.30061599 2.81368167 -26.12645997 3.27719621 -32 4 C-32 5.65 -32 7.3 -32 9 C-33.32 9 -34.64 9 -36 9 C-36 7.35 -36 5.7 -36 4 C-36.99 4 -37.98 4 -39 4 C-39 4.99 -39 5.98 -39 7 C-43.455 7.495 -43.455 7.495 -48 8 C-48 7.01 -48 6.02 -48 5 C-38.54102533 -0.07153002 -27.39160665 0.59145514 -16.9375 0.375 C-15.40167276 0.33672999 -13.8658649 0.29767336 -12.33007812 0.2578125 C-2.18980133 0 -2.18980133 0 0 0 Z " fill="#D9DFE0" transform="translate(141,57)"/>
<path d="M0 0 C-0.61875 0.433125 -1.2375 0.86625 -1.875 1.3125 C-4.2197245 2.99740483 -4.2197245 2.99740483 -6 6 C-6 5.34 -6 4.68 -6 4 C-6.61407715 4.35304199 -7.2281543 4.70608398 -7.86083984 5.06982422 C-10.69090445 6.68601698 -13.53265379 8.2805131 -16.375 9.875 C-17.82326172 10.70837891 -17.82326172 10.70837891 -19.30078125 11.55859375 C-27.31901282 16.02512543 -34.73533402 18.487614 -44 18 C-44 17.67 -44 17.34 -44 17 C-43.32453125 16.89042969 -42.6490625 16.78085938 -41.953125 16.66796875 C-41.06109375 16.50941406 -40.1690625 16.35085937 -39.25 16.1875 C-38.36828125 16.03667969 -37.4865625 15.88585937 -36.578125 15.73046875 C-33.72884567 14.92317294 -32.35360683 13.77273446 -30 12 C-25.91836753 9.63052557 -21.73646353 7.4518072 -17.5625 5.25 C-16.43005859 4.63511719 -15.29761719 4.02023438 -14.13085938 3.38671875 C-13.03708984 2.81050781 -11.94332031 2.23429687 -10.81640625 1.640625 C-9.82068604 1.10985352 -8.82496582 0.57908203 -7.79907227 0.03222656 C-4.67094529 -1.12134699 -3.14025535 -0.97749464 0 0 Z " fill="#B0B2B3" transform="translate(110,48)"/>
<path d="M0 0 C7.59 0 15.18 0 23 0 C23.33 0.99 23.66 1.98 24 3 C16.04264468 4.88849677 8.15484303 5.55348122 0 6 C0 4.02 0 2.04 0 0 Z " fill="#949EA0" transform="translate(154,57)"/>
<path d="M0 0 C3.63 0 7.26 0 11 0 C13.125 8.75 13.125 8.75 12 11 C9.69 11 7.38 11 5 11 C4.16151196 9.54462432 3.32936066 8.08559627 2.5 6.625 C1.80390625 5.40683594 1.80390625 5.40683594 1.09375 4.1640625 C0 2 0 2 0 0 Z " fill="#553535" transform="translate(199,66)"/>
<path d="M0 0 C2.52506835 0.0106693 5.00808528 0.10820568 7.5234375 0.32421875 C5.5234375 2.32421875 5.5234375 2.32421875 2.8984375 2.44921875 C2.1146875 2.40796875 1.3309375 2.36671875 0.5234375 2.32421875 C0.1934375 2.98421875 -0.1365625 3.64421875 -0.4765625 4.32421875 C6.4534375 4.65421875 13.3834375 4.98421875 20.5234375 5.32421875 C20.5234375 5.65421875 20.5234375 5.98421875 20.5234375 6.32421875 C14.2534375 6.65421875 7.9834375 6.98421875 1.5234375 7.32421875 C0.8634375 8.64421875 0.2034375 9.96421875 -0.4765625 11.32421875 C-4.1065625 10.99421875 -7.7365625 10.66421875 -11.4765625 10.32421875 C-11.1465625 9.33421875 -10.8165625 8.34421875 -10.4765625 7.32421875 C-9.8784375 7.03546875 -9.2803125 6.74671875 -8.6640625 6.44921875 C-6.23477437 5.43747757 -6.23477437 5.43747757 -4.8515625 2.69921875 C-2.4765625 0.32421875 -2.4765625 0.32421875 0 0 Z " fill="#1A1C1C" transform="translate(84.4765625,100.67578125)"/>
<path d="M0 0 C2.70894767 -0.08144943 5.41541263 -0.14070614 8.125 -0.1875 C8.88554687 -0.21263672 9.64609375 -0.23777344 10.4296875 -0.26367188 C15.4024261 -0.32797453 18.63616482 0.34405558 23 3 C23 3.33 23 3.66 23 4 C19.64908229 4.75363052 16.56890188 5.11979937 13.13671875 5.09765625 C11.80737305 5.09282227 11.80737305 5.09282227 10.45117188 5.08789062 C9.53916016 5.07951172 8.62714844 5.07113281 7.6875 5.0625 C6.75615234 5.05798828 5.82480469 5.05347656 4.86523438 5.04882812 C2.57675627 5.03709234 0.28841192 5.02067363 -2 5 C-1.67 4.360625 -1.34 3.72125 -1 3.0625 C0.07271225 1.23205433 0.07271225 1.23205433 0 0 Z " fill="#595959" transform="translate(200,106)"/>
<path d="M0 0 C0.77923828 0.00451172 1.55847656 0.00902344 2.36132812 0.01367188 C4.26175268 0.02533092 6.16213706 0.04326123 8.0625 0.0625 C7.19140625 2.53125 7.19140625 2.53125 5.0625 5.0625 C1.70724843 5.80236393 -1.57955675 5.66796566 -5 5.5625 C-6.38541992 5.56636719 -6.38541992 5.56636719 -7.79882812 5.5703125 C-12.85479803 5.49644881 -12.85479803 5.49644881 -14.9375 5.0625 C-15.5975 4.0725 -16.2575 3.0825 -16.9375 2.0625 C-13.5728581 -1.3021419 -4.46730306 -0.0497643 0 0 Z " fill="#5B5E5C" transform="translate(32.9375,105.9375)"/>
<path d="M0 0 C1.4606285 2.64738916 2 3.89448334 2 7 C-2.17737474 8.59138085 -5.53160785 9.21278058 -10 9 C-9.79375 8.236875 -9.5875 7.47375 -9.375 6.6875 C-8.66608797 3.78114056 -8.66608797 3.78114056 -11 1 C-7.32589215 -0.17571451 -3.83070817 -0.07366746 0 0 Z " fill="#37393A" transform="translate(40,89)"/>
<path d="M0 0 C-0.99 0.495 -0.99 0.495 -2 1 C-2 1.66 -2 2.32 -2 3 C-2.9075 3.4125 -3.815 3.825 -4.75 4.25 C-8.00608998 5.79253875 -8.00608998 5.79253875 -10.0625 8.125 C-12.34984338 10.33855811 -13.88525126 10.65391681 -17 11 C-18.76462683 7.91190305 -19 6.76687864 -19 3 C-18.32453125 2.95101562 -17.6490625 2.90203125 -16.953125 2.8515625 C-16.06109375 2.77679688 -15.1690625 2.70203125 -14.25 2.625 C-13.36828125 2.55539063 -12.4865625 2.48578125 -11.578125 2.4140625 C-7.23220283 1.71608106 -4.5969451 -0.25538584 0 0 Z " fill="#DADCDD" transform="translate(64,78)"/>
<path d="M0 0 C1.28132813 0.00902344 2.56265625 0.01804687 3.8828125 0.02734375 C4.87023438 0.03894531 5.85765625 0.05054687 6.875 0.0625 C7.205 0.7225 7.535 1.3825 7.875 2.0625 C7.545 2.7225 7.215 3.3825 6.875 4.0625 C8.195 4.3925 9.515 4.7225 10.875 5.0625 C3.945 5.0625 -2.985 5.0625 -10.125 5.0625 C-9.795 3.7425 -9.465 2.4225 -9.125 1.0625 C-6.12186252 -0.43906874 -3.33432478 -0.03031204 0 0 Z " fill="#2B2E2C" transform="translate(48.125,105.9375)"/>
<path d="M0 0 C0.66 1.32 1.32 2.64 2 4 C6.455 3.505 6.455 3.505 11 3 C11.33 4.32 11.66 5.64 12 7 C11.34 7 10.68 7 10 7 C9.67 8.32 9.34 9.64 9 11 C5.7 10.67 2.4 10.34 -1 10 C-0.67 6.7 -0.34 3.4 0 0 Z " fill="#D9D6D6" transform="translate(206,90)"/>
<path d="M0 0 C0.66 0 1.32 0 2 0 C2 1.98 2 3.96 2 6 C-1.86723631 7.26582219 -5.73151262 7.1118765 -9.75 7.0625 C-10.44738281 7.05798828 -11.14476562 7.05347656 -11.86328125 7.04882812 C-13.57555803 7.0371002 -15.28779033 7.01916653 -17 7 C-17.33 5.68 -17.66 4.36 -18 3 C-17.34 2.67 -16.68 2.34 -16 2 C-16 2.66 -16 3.32 -16 4 C-13.51986371 3.52546129 -11.04096744 3.04561015 -8.5625 2.5625 C-7.85544922 2.42779297 -7.14839844 2.29308594 -6.41992188 2.15429688 C-2.91570736 1.71593102 -2.91570736 1.71593102 0 0 Z " fill="#BDBFBF" transform="translate(46,94)"/>
<path d="M0 0 C-1.28289108 3.95558082 -2.42907639 5.84766248 -6 8 C-8.796875 8.51171875 -8.796875 8.51171875 -11.75 8.6875 C-12.73484375 8.75324219 -13.7196875 8.81898437 -14.734375 8.88671875 C-15.48203125 8.92410156 -16.2296875 8.96148437 -17 9 C-16.67 8.34 -16.34 7.68 -16 7 C-12.9375 6.375 -12.9375 6.375 -10 6 C-10.66 5.34 -11.32 4.68 -12 4 C-12 4.66 -12 5.32 -12 6 C-12.66 6 -13.32 6 -14 6 C-14 4.68 -14 3.36 -14 2 C-9.35150485 -0.3992233 -5.08913926 -0.19957409 0 0 Z " fill="#4B4E50" transform="translate(50,74)"/>
<path d="M0 0 C0.99 0 1.98 0 3 0 C3.84161854 2.08000011 4.67300763 4.16414146 5.5 6.25 C5.9640625 7.41015625 6.428125 8.5703125 6.90625 9.765625 C8 13 8 13 8 17 C6.68 17 5.36 17 4 17 C3.67 15.02 3.34 13.04 3 11 C0.525 12.485 0.525 12.485 -2 14 C-2.66 12.35 -3.32 10.7 -4 9 C-0.535 8.505 -0.535 8.505 3 8 C2.319375 7.4225 1.63875 6.845 0.9375 6.25 C0.298125 5.5075 -0.34125 4.765 -1 4 C-0.75 1.75 -0.75 1.75 0 0 Z " fill="#4A4C4E" transform="translate(183,88)"/>
<path d="M0 0 C3.3010345 1.8445394 5.76712509 3.94352369 8 7 C8.5 10.4375 8.5 10.4375 8 13 C7.34 13 6.68 13 6 13 C6 11.68 6 10.36 6 9 C5.34 9 4.68 9 4 9 C3.071875 7.7625 3.071875 7.7625 2.125 6.5 C0.09665081 4.33070812 -0.91334904 4.01087475 -3.92578125 3.6328125 C-9.63834402 3.44169666 -9.63834402 3.44169666 -15 5 C-15 4.01 -15 3.02 -15 2 C-10.24516191 -0.53591365 -5.24021092 -1.03852894 0 0 Z " fill="#424544" transform="translate(72,83)"/>
<path d="M0 0 C0.33 0.66 0.66 1.32 1 2 C0.01 2.495 0.01 2.495 -1 3 C2.96 3 6.92 3 11 3 C11 2.01 11 1.02 11 0 C11.99 0 12.98 0 14 0 C14 1.65 14 3.3 14 5 C15.32 5.33 16.64 5.66 18 6 C14.75052139 6.19738568 11.50041127 6.3811754 8.25 6.5625 C7.32960938 6.61857422 6.40921875 6.67464844 5.4609375 6.73242188 C4.57148437 6.78076172 3.68203125 6.82910156 2.765625 6.87890625 C1.94868164 6.9260376 1.13173828 6.97316895 0.29003906 7.02172852 C-1.97882075 7.00020095 -3.83320921 6.64612135 -6 6 C-4.75453595 2.26360784 -3.36595047 1.81243487 0 0 Z " fill="#24282A" transform="translate(91,61)"/>
<path d="M0 0 C1.68272986 0.62501395 3.34630643 1.30177383 5 2 C6.3303125 2.5259375 6.3303125 2.5259375 7.6875 3.0625 C11.19607338 6.00211553 11.38317258 9.60855702 12 14 C10.02 14 8.04 14 6 14 C6.66 11.36 7.32 8.72 8 6 C5.69 7.32 3.38 8.64 1 10 C0.37542727 6.56484998 0 3.50935186 0 0 Z " fill="#545657" transform="translate(57,92)"/>
<path d="M0 0 C5.03372844 1.43820813 6.98955889 3.90245515 10 8 C10.33 8.99 10.66 9.98 11 11 C13.01508358 11.73323796 13.01508358 11.73323796 15 12 C14.67 12.99 14.34 13.98 14 15 C9.71905751 14.69917701 7.81251971 13.18283484 5.00585938 10.00195312 C4.57080078 9.48568359 4.13574219 8.96941406 3.6875 8.4375 C3.23310547 7.91736328 2.77871094 7.39722656 2.31054688 6.86132812 C1.19660757 5.58322934 0.09685112 4.29279345 -1 3 C-0.67 2.01 -0.34 1.02 0 0 Z " fill="#717374" transform="translate(196,49)"/>
<path d="M0 0 C1.09731445 0.00676758 1.09731445 0.00676758 2.21679688 0.01367188 C3.99873419 0.02531852 5.78062863 0.04324809 7.5625 0.0625 C7.5625 1.0525 7.5625 2.0425 7.5625 3.0625 C3.1246439 4.17415232 -1.20706386 4.17777763 -5.75 4.125 C-6.49056641 4.12048828 -7.23113281 4.11597656 -7.99414062 4.11132812 C-9.80862899 4.09962175 -11.62307534 4.08168898 -13.4375 4.0625 C-13.4375 3.4025 -13.4375 2.7425 -13.4375 2.0625 C-14.0975 1.7325 -14.7575 1.4025 -15.4375 1.0625 C-10.23576905 0.19440561 -5.26771184 -0.06265348 0 0 Z " fill="#BCC2C5" transform="translate(136.4375,50.9375)"/>
<path d="M0 0 C0.66 0 1.32 0 2 0 C2 1.32 2 2.64 2 4 C3.91666921 6.25065102 3.91666921 6.25065102 6 8 C3.69 8.66 1.38 9.32 -1 10 C-0.01 11.485 -0.01 11.485 1 13 C1.99 13 2.98 13 4 13 C4 14.32 4 15.64 4 17 C1 17 1 17 -1.1875 14.9375 C-3.45373867 11.26463043 -3.53167742 9.25341939 -3 5 C-1.625 2.0625 -1.625 2.0625 0 0 Z " fill="#A7AAAC" transform="translate(181,88)"/>
<path d="M0 0 C-5.28 1.32 -10.56 2.64 -16 4 C-16 4.99 -16 5.98 -16 7 C-20.29 7.66 -24.58 8.32 -29 9 C-28.67 7.68 -28.34 6.36 -28 5 C-23.79628985 2.67232578 -18.78732164 1.53671081 -14 2 C-14 1.34 -14 0.68 -14 0 C-12.68 0.33 -11.36 0.66 -10 1 C-9.67 0.34 -9.34 -0.32 -9 -1 C-3.609375 -2.40625 -3.609375 -2.40625 0 0 Z " fill="#DFDFDF" transform="translate(65,67)"/>
<path d="M0 0 C0.99 0.33 1.98 0.66 3 1 C2.67 1.99 2.34 2.98 2 4 C4.31 4 6.62 4 9 4 C8.60348083 5.31872662 8.18201309 6.62997101 7.75 7.9375 C7.51796875 8.66839844 7.2859375 9.39929688 7.046875 10.15234375 C6 12 6 12 3.890625 12.75390625 C2.95476562 12.87572266 2.95476562 12.87572266 2 13 C1.46845258 11.39935157 0.95011647 9.79431126 0.4375 8.1875 C0.14746094 7.29417969 -0.14257812 6.40085937 -0.44140625 5.48046875 C-1 3 -1 3 0 0 Z " fill="#5E6061" transform="translate(67,93)"/>
<path d="M0 0 C0.33 0 0.66 0 1 0 C1.33 1.98 1.66 3.96 2 6 C2.33 6 2.66 6 3 6 C3.33 4.35 3.66 2.7 4 1 C6.20009864 4.30014795 6.62319003 5.1718327 6 9 C2.87595459 13.59418443 0.20891296 15.81952481 -5 18 C-3.87548273 15.0280615 -2.77706209 12.66559313 -1 10 C-0.54398739 7.49103314 -0.54398739 7.49103314 -0.375 4.8125 C-0.30023438 3.91144531 -0.22546875 3.01039062 -0.1484375 2.08203125 C-0.09945312 1.39496094 -0.05046875 0.70789063 0 0 Z " fill="#060708" transform="translate(77,92)"/>
<path d="M0 0 C2.60578866 0.08695958 5.2081279 0.19381408 7.8125 0.3125 C8.55048828 0.33505859 9.28847656 0.35761719 10.04882812 0.38085938 C14.52555298 0.60368278 15.70319365 0.70319365 19 4 C12.4 4.33 5.8 4.66 -1 5 C-0.67 3.35 -0.34 1.7 0 0 Z " fill="#F9FBFB" transform="translate(151,86)"/>
<path d="M0 0 C6.43255401 -0.12086218 12.61773055 0.17648136 19 1 C14.41487138 4.05675241 11.22893676 4.11219208 5.8125 4.0625 C4.54019531 4.05347656 3.26789063 4.04445313 1.95703125 4.03515625 C0.49330078 4.01775391 0.49330078 4.01775391 -1 4 C-0.67 2.68 -0.34 1.36 0 0 Z " fill="#697376" transform="translate(155,51)"/>
<path d="M0 0 C0.66 0.33 1.32 0.66 2 1 C1 4 1 4 -1 5 C-3.17674783 5.15469367 -5.3578348 5.25002106 -7.5390625 5.31640625 C-8.84101563 5.35830078 -10.14296875 5.40019531 -11.484375 5.44335938 C-12.86458045 5.48317299 -14.24478883 5.52288522 -15.625 5.5625 C-17.01303415 5.60569407 -18.40105528 5.64930865 -19.7890625 5.69335938 C-23.19260256 5.79972 -26.59621778 5.90174714 -30 6 C-29.67 4.35 -29.34 2.7 -29 1 C-27.83597656 1.47566406 -27.83597656 1.47566406 -26.6484375 1.9609375 C-21.95032677 3.29894334 -17.48668711 3.45855137 -12.625 3.625 C-11.69816406 3.66367188 -10.77132812 3.70234375 -9.81640625 3.7421875 C-7.5444623 3.83587591 -5.27251404 3.92159348 -3 4 C-3 3.34 -3 2.68 -3 2 C-2.01 1.34 -1.02 0.68 0 0 Z " fill="#1E2020" transform="translate(199,106)"/>
<path d="M0 0 C0 0.99 0 1.98 0 3 C0.94978897 5.15028304 0.94978897 5.15028304 2 7 C0.02 7.33 -1.96 7.66 -4 8 C-3.67 8.66 -3.34 9.32 -3 10 C-7.29 9.34 -11.58 8.68 -16 8 C-12.05170423 5.03877817 -9.63516173 4.30109803 -5 3 C-2.1665257 1.48537267 -2.1665257 1.48537267 0 0 Z " fill="#CACBCC" transform="translate(188,40)"/>
<path d="M0 0 C0.845625 0.721875 1.69125 1.44375 2.5625 2.1875 C2.5625 3.1775 2.5625 4.1675 2.5625 5.1875 C1.94375 4.506875 1.325 3.82625 0.6875 3.125 C-3.27821272 0.66625811 -5.54374907 0.91898308 -10.0546875 1.55859375 C-13.21366638 2.39235703 -15.18186294 3.85667503 -17.4375 6.1875 C-17.4375 2.1875 -17.4375 2.1875 -16.1875 0.5 C-11.36253611 -3.11872291 -5.13417719 -2.70711161 0 0 Z " fill="#3F4143" transform="translate(196.4375,84.8125)"/>
<path d="M0 0 C2.64 0.33 5.28 0.66 8 1 C8 1.99 8 2.98 8 4 C6.02 4 4.04 4 2 4 C2.33 4.99 2.66 5.98 3 7 C2.01 7.33 1.02 7.66 0 8 C0.66 9.32 1.32 10.64 2 12 C0.68 12 -0.64 12 -2 12 C-2.05422947 10.5629191 -2.09289723 9.12524538 -2.125 7.6875 C-2.14820312 6.88699219 -2.17140625 6.08648437 -2.1953125 5.26171875 C-2 3 -2 3 0 0 Z " fill="#C5C6C6" transform="translate(30,83)"/>
<path d="M0 0 C0.99 0.99 1.98 1.98 3 3 C3.61875 2.505 4.2375 2.01 4.875 1.5 C7 0 7 0 9 0 C8.67 2.31 8.34 4.62 8 7 C9.65 7.33 11.3 7.66 13 8 C13 8.33 13 8.66 13 9 C10.36 9.33 7.72 9.66 5 10 C4.15801693 8.90241493 3.32669329 7.79664683 2.5 6.6875 C2.0359375 6.07261719 1.571875 5.45773438 1.09375 4.82421875 C0 3 0 3 0 0 Z " fill="#B3B5B7" transform="translate(56,98)"/>
<path d="M0 0 C0.68707555 2.49064888 1 4.37886292 1 7 C2.32 7 3.64 7 5 7 C5.33 6.34 5.66 5.68 6 5 C6.33 6.32 6.66 7.64 7 9 C2.71 9 -1.58 9 -6 9 C-5.67 7.35 -5.34 5.7 -5 4 C-4.34 4 -3.68 4 -3 4 C-2.67 3.34 -2.34 2.68 -2 2 C-1.34 2.33 -0.68 2.66 0 3 C0 2.01 0 1.02 0 0 Z " fill="#727A7C" transform="translate(147,50)"/>
<path d="M0 0 C0.66 0.33 1.32 0.66 2 1 C1.360625 1.78375 0.72125 2.5675 0.0625 3.375 C-1.98142313 5.79539281 -1.98142313 5.79539281 -3 8 C-4.95825873 8.02694851 -6.91662226 8.04637218 -8.875 8.0625 C-9.96554688 8.07410156 -11.05609375 8.08570312 -12.1796875 8.09765625 C-15 8 -15 8 -17 7 C-17 6.34 -17 5.68 -17 5 C-15.89591797 4.94392578 -15.89591797 4.94392578 -14.76953125 4.88671875 C-6.64806663 4.39973145 -6.64806663 4.39973145 0 0 Z " fill="#080A0B" transform="translate(75,102)"/>
<path d="M0 0 C1.4540625 0.0309375 1.4540625 0.0309375 2.9375 0.0625 C3.42980769 7.44711538 3.42980769 7.44711538 0.9375 10.5625 C0.2775 11.0575 -0.3825 11.5525 -1.0625 12.0625 C-0.4025 10.0825 0.2575 8.1025 0.9375 6.0625 C-2.0325 5.5675 -2.0325 5.5675 -5.0625 5.0625 C-3.9375 0.08035714 -3.9375 0.08035714 0 0 Z " fill="#8C8E90" transform="translate(74.0625,91.9375)"/>
<path d="M0 0 C0.86625 0.2784375 0.86625 0.2784375 1.75 0.5625 C4.20692525 1.04023546 5.64397534 0.75729364 8 0 C8.66 1.32 9.32 2.64 10 4 C8.02 5.32 6.04 6.64 4 8 C3.34 7.67 2.68 7.34 2 7 C2.33 6.34 2.66 5.68 3 5 C2.34 5 1.68 5 1 5 C0.67 3.35 0.34 1.7 0 0 Z " fill="#373A3B" transform="translate(187,87)"/>
<path d="M0 0 C5.35152885 0.32433508 8.28280043 3.49704824 12 7 C11.67 7.99 11.34 8.98 11 10 C8 9 8 9 6.125 7.0625 C3.84760538 4.85208757 1.98291902 3.99430634 -1 3 C-0.67 2.01 -0.34 1.02 0 0 Z " fill="#DCDEDD" transform="translate(71,78)"/>
<path d="M0 0 C0.33 0 0.66 0 1 0 C1 2.31 1 4.62 1 7 C2.32 7 3.64 7 5 7 C5 5.35 5 3.7 5 2 C6.32 2.66 7.64 3.32 9 4 C8.67 4.66 8.34 5.32 8 6 C7.34 6 6.68 6 6 6 C6 6.99 6 7.98 6 9 C0.46153846 9.36923077 0.46153846 9.36923077 -1.875 7.5 C-2.24625 7.005 -2.6175 6.51 -3 6 C-1.125 1.125 -1.125 1.125 0 0 Z " fill="#7D7F80" transform="translate(186,98)"/>
<path d="M0 0 C7.42857143 1 7.42857143 1 11 2 C11 2.99 11 3.98 11 5 C6.71 5 2.42 5 -2 5 C-1.34 3.68 -0.68 2.36 0 1 C0 0.67 0 0.34 0 0 Z " fill="#444646" transform="translate(200,106)"/>
<path d="M0 0 C0 0.33 0 0.66 0 1 C-1.485 1.309375 -1.485 1.309375 -3 1.625 C-7.14523148 2.77317002 -10.01213805 5.05711926 -13.30078125 7.7578125 C-15 9 -15 9 -17 9 C-16.06026802 5.61696486 -15.0726148 4.06553043 -12.4375 1.6875 C-8.09935347 -0.44213557 -4.73624704 -0.37889976 0 0 Z " fill="#0F0F10" transform="translate(191,81)"/>
<path d="M0 0 C4.29 0 8.58 0 13 0 C12.67 1.32 12.34 2.64 12 4 C11.01 4 10.02 4 9 4 C8.67 3.34 8.34 2.68 8 2 C7.401875 2.495 6.80375 2.99 6.1875 3.5 C4 5 4 5 1 5 C0.67 3.35 0.34 1.7 0 0 Z " fill="#273031" transform="translate(141,59)"/>
<path d="M0 0 C1.98 0 3.96 0 6 0 C6.33 0.99 6.66 1.98 7 3 C7.99 3.33 8.98 3.66 10 4 C6.47005387 5.17664871 3.70544587 5.19850603 0 5 C-0.99 4.34 -1.98 3.68 -3 3 C-2.01 2.67 -1.02 2.34 0 2 C0 1.34 0 0.68 0 0 Z " fill="#3A3C3B" transform="translate(160,107)"/>
<path d="M0 0 C11.91768846 -0.78520641 11.91768846 -0.78520641 16.1875 2.3125 C20 7.96551724 20 7.96551724 20 12 C18 11 18 11 17.0625 8.625 C15.94052547 5.85306293 15.35127482 4.79073884 13 3 C9.81453528 2.20272437 9.81453528 2.20272437 6.3125 1.8125 C5.13300781 1.65394531 3.95351562 1.49539062 2.73828125 1.33203125 C1.83464844 1.22246094 0.93101562 1.11289062 0 1 C0 0.67 0 0.34 0 0 Z " fill="#1D2123" transform="translate(168,48)"/>
<path d="M0 0 C7.26 0 14.52 0 22 0 C22 0.33 22 0.66 22 1 C14.74 1.66 7.48 2.32 0 3 C0 2.01 0 1.02 0 0 Z " fill="#666D6F" transform="translate(154,60)"/>
<path d="M0 0 C0.99 0.66 1.98 1.32 3 2 C2.67 3.32 2.34 4.64 2 6 C-0.64 5.67 -3.28 5.34 -6 5 C-6.33 4.01 -6.66 3.02 -7 2 C-3.6875 0.875 -3.6875 0.875 0 0 Z " fill="#586063" transform="translate(184,55)"/>
<path d="M0 0 C2.631724 2.45627573 4.81527263 4.55352037 6 8 C5.62816493 10.97468053 4.4070473 13.3735117 3 16 C2.34 16 1.68 16 1 16 C1 14.68 1 13.36 1 12 C1.66 12 2.32 12 3 12 C1.99806563 8.20696275 1.18975773 5.28463659 -1 2 C-0.67 1.34 -0.34 0.68 0 0 Z " fill="#17191A" transform="translate(77,84)"/>
<path d="M0 0 C1.22589844 0.01353516 1.22589844 0.01353516 2.4765625 0.02734375 C3.41628906 0.04474609 3.41628906 0.04474609 4.375 0.0625 C3.385 0.5575 3.385 0.5575 2.375 1.0625 C2.375 2.3825 2.375 3.7025 2.375 5.0625 C0.125 5.3125 0.125 5.3125 -2.625 5.0625 C-4.9375 3.0625 -4.9375 3.0625 -6.625 1.0625 C-4.21954362 -0.14022819 -2.67503047 -0.03821472 0 0 Z " fill="#CACCCB" transform="translate(100.625,66.9375)"/>
<path d="M0 0 C0.8353125 0.433125 0.8353125 0.433125 1.6875 0.875 C4.72942835 2.35485704 7.66073437 2.61470012 11 3 C11 3.33 11 3.66 11 4 C4.30324864 5.03026944 -2.2314676 5.10152799 -9 5 C-9 4.67 -9 4.34 -9 4 C-8.21625 3.87625 -7.4325 3.7525 -6.625 3.625 C-3.85942178 3.20882007 -3.85942178 3.20882007 -2 1 C-1.34 0.67 -0.68 0.34 0 0 Z " fill="#1C2123" transform="translate(149,60)"/>
<path d="M0 0 C0 0.66 0 1.32 0 2 C-1.41225926 2.67595315 -2.83002905 3.34040059 -4.25 4 C-5.43335937 4.556875 -5.43335937 4.556875 -6.640625 5.125 C-9 6 -9 6 -13 6 C-13 5.34 -13 4.68 -13 4 C-8.38987758 1.04952165 -5.63470383 -0.5497272 0 0 Z " fill="#697272" transform="translate(112,54)"/>
<path d="M0 0 C3.375 0.3125 3.375 0.3125 7 1 C7.66 1.99 8.32 2.98 9 4 C6.69 4.66 4.38 5.32 2 6 C1.01 5.01 0.02 4.02 -1 3 C-0.67 2.01 -0.34 1.02 0 0 Z " fill="#40494D" transform="translate(176,51)"/>
<path d="M0 0 C0.66 1.32 1.32 2.64 2 4 C1.34 4 0.68 4 0 4 C-0.33 5.32 -0.66 6.64 -1 8 C-2.65 8 -4.3 8 -6 8 C-6.33 7.34 -6.66 6.68 -7 6 C-6.01 5.67 -5.02 5.34 -4 5 C-4.66 4.34 -5.32 3.68 -6 3 C-4.02 2.01 -2.04 1.02 0 0 Z " fill="#777172" transform="translate(216,93)"/>
<path d="M0 0 C2.31 0 4.62 0 7 0 C7 1.32 7 2.64 7 4 C4.69 4.33 2.38 4.66 0 5 C0 3.35 0 1.7 0 0 Z " fill="#4F5153" transform="translate(33,89)"/>
<path d="M0 0 C3.3 0.33 6.6 0.66 10 1 C10 1.99 10 2.98 10 4 C9.34 4 8.68 4 8 4 C7.67 4.66 7.34 5.32 7 6 C5.68 6 4.36 6 3 6 C0 2.78571429 0 2.78571429 0 0 Z " fill="#BD6461" transform="translate(199,66)"/>
<path d="M0 0 C0 1.32 0 2.64 0 4 C-4.455 4.495 -4.455 4.495 -9 5 C-9 4.01 -9 3.02 -9 2 C-5.86501708 0.14223235 -3.62528568 -0.20140476 0 0 Z " fill="#D5D9DA" transform="translate(102,60)"/>
<path d="M0 0 C-0.66 0 -1.32 0 -2 0 C-2.66 1.32 -3.32 2.64 -4 4 C-7.63 3.67 -11.26 3.34 -15 3 C-5 -2 -5 -2 0 0 Z " fill="#242628" transform="translate(88,108)"/>
<path d="M0 0 C-0.99 0.495 -0.99 0.495 -2 1 C-2 1.99 -2 2.98 -2 4 C-0.02 4 1.96 4 4 4 C4 4.33 4 4.66 4 5 C0.04 5 -3.92 5 -8 5 C-7.67 3.68 -7.34 2.36 -7 1 C-4.53721199 -0.231394 -2.7204945 -0.07159196 0 0 Z " fill="#3F4241" transform="translate(46,106)"/>
<path d="M0 0 C0.66 0.66 1.32 1.32 2 2 C1.67 2.66 1.34 3.32 1 4 C1.66 4 2.32 4 3 4 C3 3.34 3 2.68 3 2 C6 3 6 3 8 5 C6.56274129 5.16873478 5.12518162 5.33490737 3.6875 5.5 C2.88699219 5.5928125 2.08648437 5.685625 1.26171875 5.78125 C-1 6 -1 6 -4 6 C-3.67 4.35 -3.34 2.7 -3 1 C-2.01 0.67 -1.02 0.34 0 0 Z " fill="#A9ACAD" transform="translate(35,76)"/>
<path d="M0 0 C6.27 0 12.54 0 19 0 C19 0.66 19 1.32 19 2 C18.34 2 17.68 2 17 2 C17 2.99 17 3.98 17 5 C15.68 4.34 14.36 3.68 13 3 C13 2.34 13 1.68 13 1 C8.71 1 4.42 1 0 1 C0 0.67 0 0.34 0 0 Z " fill="#3F464A" transform="translate(130,48)"/>
<path d="M0 0 C-0.66 1.65 -1.32 3.3 -2 5 C-2.66 5 -3.32 5 -4 5 C-4.33 4.34 -4.66 3.68 -5 3 C-7.32156597 2.59270772 -9.6568787 2.25561323 -12 2 C-11.67 1.34 -11.34 0.68 -11 0 C-9.00390625 -0.44921875 -9.00390625 -0.44921875 -6.5625 -0.6875 C-5.75941406 -0.77386719 -4.95632812 -0.86023438 -4.12890625 -0.94921875 C-2 -1 -2 -1 0 0 Z " fill="#474949" transform="translate(171,105)"/>
<path d="M0 0 C0.33 2.31 0.66 4.62 1 7 C-0.32 6.67 -1.64 6.34 -3 6 C-2.34 4.68 -1.68 3.36 -1 2 C-7.6 2 -14.2 2 -21 2 C-21 1.67 -21 1.34 -21 1 C-17.68752012 0.83293193 -14.37501287 0.66641273 -11.0625 0.5 C-10.11697266 0.45230469 -9.17144531 0.40460937 -8.19726562 0.35546875 C-7.29814453 0.31035156 -6.39902344 0.26523437 -5.47265625 0.21875 C-4.64000244 0.17685547 -3.80734863 0.13496094 -2.94946289 0.09179688 C-1.96692123 0.04553067 -0.98363035 0 0 0 Z " fill="#E3E8EA" transform="translate(141,57)"/>
<path d="M0 0 C0.66 0.33 1.32 0.66 2 1 C2.59355614 3.64860427 2.74209269 6.29197322 3 9 C2.01 9.495 2.01 9.495 1 10 C1 9.34 1 8.68 1 8 C-0.32 8 -1.64 8 -3 8 C-1.125 1.125 -1.125 1.125 0 0 Z " fill="#CECFCF" transform="translate(215,83)"/>
<path d="M0 0 C0.99 0.33 1.98 0.66 3 1 C3 1.66 3 2.32 3 3 C1.28515625 4.21875 1.28515625 4.21875 -0.9375 5.5 C-4.05432026 7.18454879 -4.05432026 7.18454879 -6 10 C-6.66 9.67 -7.32 9.34 -8 9 C-3.64309032 1.99782372 -3.64309032 1.99782372 0 0 Z " fill="#E6E6E7" transform="translate(181,78)"/>
<path d="M0 0 C3.3 0 6.6 0 10 0 C10.66 2.97 11.32 5.94 12 9 C11.67 8.34 11.34 7.68 11 7 C9.35 7 7.7 7 6 7 C6.33 6.01 6.66 5.02 7 4 C7.66 4 8.32 4 9 4 C9 3.01 9 2.02 9 1 C6.03 1 3.06 1 0 1 C0 0.67 0 0.34 0 0 Z " fill="#824F4D" transform="translate(200,66)"/>
<path d="M0 0 C2.56864728 1.28432364 2.946539 2.36634751 4 5 C4 6.32 4 7.64 4 9 C2.68 9 1.36 9 0 9 C-0.66 6.36 -1.32 3.72 -2 1 C-1.34 0.67 -0.68 0.34 0 0 Z " fill="#D5D7D8" transform="translate(83,88)"/>
<path d="M0 0 C0.99 0.33 1.98 0.66 3 1 C2.690625 1.680625 2.38125 2.36125 2.0625 3.0625 C0.86629351 6.36965912 0.40994603 9.51545878 0 13 C-1.65 13 -3.3 13 -5 13 C-3.68 12.67 -2.36 12.34 -1 12 C-1.14308594 10.95199219 -1.14308594 10.95199219 -1.2890625 9.8828125 C-1.39992187 8.97273438 -1.51078125 8.06265625 -1.625 7.125 C-1.74101563 6.22007813 -1.85703125 5.31515625 -1.9765625 4.3828125 C-1.98429687 3.59648438 -1.99203125 2.81015625 -2 2 C-1.34 1.34 -0.68 0.68 0 0 Z " fill="#CED0D2" transform="translate(49,88)"/>
<path d="M0 0 C2.31 0.33 4.62 0.66 7 1 C5.68 3.31 4.36 5.62 3 8 C2.34 7.67 1.68 7.34 1 7 C0.59270772 4.67843403 0.25561323 2.3431213 0 0 Z " fill="#ECF0EF" transform="translate(45,81)"/>
<path d="M0 0 C-0.66 1.98 -1.32 3.96 -2 6 C-3.5 4.625 -3.5 4.625 -5 3 C-5 2.34 -5 1.68 -5 1 C-9.29 1 -13.58 1 -18 1 C-18 0.67 -18 0.34 -18 0 C-15.56288386 -0.19484938 -13.12562602 -0.38115178 -10.6875 -0.5625 C-9.99720703 -0.61857422 -9.30691406 -0.67464844 -8.59570312 -0.73242188 C-5.37487726 -0.96581505 -3.09672655 -1.03224218 0 0 Z " fill="#E3E4E5" transform="translate(174,90)"/>
<path d="M0 0 C-2.70045182 1.80030122 -5.06677881 2.93377066 -8.0625 4.125 C-9.37927734 4.65480469 -9.37927734 4.65480469 -10.72265625 5.1953125 C-13 6 -13 6 -15 6 C-14 3 -14 3 -12.36328125 2.05078125 C-8.08873693 0.5119453 -4.61594432 -0.34619582 0 0 Z " fill="#EFF1F2" transform="translate(120,47)"/>
<path d="M0 0 C2.37706418 3.66539668 2.05094317 6.49056835 1.625 10.75 C1.51414063 11.92046875 1.40328125 13.0909375 1.2890625 14.296875 C1.19367188 15.18890625 1.09828125 16.0809375 1 17 C0.34 16.67 -0.32 16.34 -1 16 C-0.979375 14.783125 -0.95875 13.56625 -0.9375 12.3125 C-0.92389261 9.74523924 -1.06348824 7.71430291 -1.625 5.1875 C-2 3 -2 3 0 0 Z " fill="#D2CFD0" transform="translate(212,64)"/>
<path d="M0 0 C0.99 0.33 1.98 0.66 3 1 C3.33 2.98 3.66 4.96 4 7 C2.02 7 0.04 7 -2 7 C-1.34 4.69 -0.68 2.38 0 0 Z " fill="#2E2F31" transform="translate(65,99)"/>
<path d="M0 0 C3 0 3 0 5 1 C4.360625 1.598125 3.72125 2.19625 3.0625 2.8125 C0.79689611 4.90810337 0.79689611 4.90810337 0 8 C-0.99 8.33 -1.98 8.66 -3 9 C-2.25 2.25 -2.25 2.25 0 0 Z " fill="#1C1E1F" transform="translate(56,86)"/>
<path d="M0 0 C1.4370809 -0.05422947 2.87475462 -0.09289723 4.3125 -0.125 C5.11300781 -0.14820312 5.91351563 -0.17140625 6.73828125 -0.1953125 C9 0 9 0 12 2 C8.79619983 4.13586678 7.98060033 4.23132175 4.3125 4.125 C3.10013672 4.09792969 3.10013672 4.09792969 1.86328125 4.0703125 C0.94095703 4.03550781 0.94095703 4.03550781 0 4 C0 2.66666667 0 1.33333333 0 0 Z " fill="#212324" transform="translate(184,80)"/>
<path d="M0 0 C4.96258091 0.68924735 7.51287625 2.51287625 11 6 C11.125 9.125 11.125 9.125 11 12 C10.7421875 11.40445313 10.484375 10.80890625 10.21875 10.1953125 C8.90066947 7.82107771 7.59933194 6.57403559 5.5 4.875 C3.5704306 3.29700469 1.76541706 1.76541706 0 0 Z " fill="#222426" transform="translate(191,85)"/>
<path d="M0 0 C0.99 0 1.98 0 3 0 C3.66 2.31 4.32 4.62 5 7 C2.5625 6.1875 2.5625 6.1875 0 5 C-0.33 4.01 -0.66 3.02 -1 2 C-0.67 1.34 -0.34 0.68 0 0 Z " fill="#242828" transform="translate(183,88)"/>
<path d="M0 0 C3.3 0 6.6 0 10 0 C10 1.32 10 2.64 10 4 C6.7 3.34 3.4 2.68 0 2 C0 1.34 0 0.68 0 0 Z " fill="#EEEFF0" transform="translate(32,87)"/>
<path d="M0 0 C1.875 0.8125 1.875 0.8125 3.875 3.8125 C1.895 4.1425 -0.085 4.4725 -2.125 4.8125 C-2.455 4.1525 -2.785 3.4925 -3.125 2.8125 C-4.115 2.4825 -5.105 2.1525 -6.125 1.8125 C-3.90523089 0.46478304 -2.62352224 -0.23148726 0 0 Z " fill="#293133" transform="translate(116.125,49.1875)"/>
<path d="M0 0 C2.64 0 5.28 0 8 0 C8.33 0.99 8.66 1.98 9 3 C6.03 3 3.06 3 0 3 C0 2.01 0 1.02 0 0 Z " fill="#F0F0F0" transform="translate(62,77)"/>
<path d="M0 0 C1.4540625 0.0309375 1.4540625 0.0309375 2.9375 0.0625 C2.9375 1.3825 2.9375 2.7025 2.9375 4.0625 C0.5625 4.25 0.5625 4.25 -2.0625 4.0625 C-2.7225 3.0725 -3.3825 2.0825 -4.0625 1.0625 C-3.0625 0.0625 -3.0625 0.0625 0 0 Z " fill="#717071" transform="translate(20.0625,106.9375)"/>
<path d="M0 0 C2.64 0 5.28 0 8 0 C6.35 1.65 4.7 3.3 3 5 C2.34 4.67 1.68 4.34 1 4 C0.375 1.9375 0.375 1.9375 0 0 Z " fill="#17181A" transform="translate(179,97)"/>
<path d="M0 0 C0.66 0 1.32 0 2 0 C1.67 2.31 1.34 4.62 1 7 C-0.32 6.67 -1.64 6.34 -3 6 C-1.125 1.125 -1.125 1.125 0 0 Z " fill="#787A7B" transform="translate(63,98)"/>
<path d="M0 0 C0 1.98 0 3.96 0 6 C-1.98 6 -3.96 6 -6 6 C-3.4 0 -3.4 0 0 0 Z " fill="#747678" transform="translate(198,90)"/>
<path d="M0 0 C3.65316671 1.24976756 4.78065836 1.67098753 7 5 C6.34 5.66 5.68 6.32 5 7 C3.02 5.35 1.04 3.7 -1 2 C-0.67 1.34 -0.34 0.68 0 0 Z " fill="#0B0D0C" transform="translate(195,82)"/>
<path d="M0 0 C1.98 0 3.96 0 6 0 C5.67 1.32 5.34 2.64 5 4 C3.68 4.33 2.36 4.66 1 5 C0.67 3.35 0.34 1.7 0 0 Z " fill="#929697" transform="translate(43,75)"/>
<path d="M0 0 C2.31 0 4.62 0 7 0 C5.35 1.65 3.7 3.3 2 5 C1.34 4.34 0.68 3.68 0 3 C0 2.01 0 1.02 0 0 Z " fill="#1F2122" transform="translate(57,97)"/>
<path d="M0 0 C2.2477975 2.05233685 3.0022242 3.00667261 4 6 C3.0625 8.1875 3.0625 8.1875 2 10 C-1.07692308 4.58461538 -1.07692308 4.58461538 -0.6875 1.625 C-0.460625 1.08875 -0.23375 0.5525 0 0 Z " fill="#DDDFDF" transform="translate(203,84)"/>
<path d="M0 0 C3.63 0.33 7.26 0.66 11 1 C11 1.33 11 1.66 11 2 C9.02 2 7.04 2 5 2 C4.67 2.99 4.34 3.98 4 5 C2 3.625 2 3.625 0 2 C0 1.34 0 0.68 0 0 Z " fill="#43484A" transform="translate(117,48)"/>
<path d="M0 0 C0.33 0.66 0.66 1.32 1 2 C3.31 2 5.62 2 8 2 C7.67 2.66 7.34 3.32 7 4 C4.67843403 4.40729228 2.3431213 4.74438677 0 5 C0 3.35 0 1.7 0 0 Z " fill="#B7B6B6" transform="translate(205,95)"/>
<path d="M0 0 C1.32 0.33 2.64 0.66 4 1 C4 2.32 4 3.64 4 5 C3.01 5.33 2.02 5.66 1 6 C0.67 4.02 0.34 2.04 0 0 Z " fill="#545658" transform="translate(192,87)"/>
<path d="M0 0 C1.89213369 2.38573379 3.02391783 4.07175348 4 7 C0.34683329 5.75023244 -0.78065836 5.32901247 -3 2 C-2.01 1.34 -1.02 0.68 0 0 Z " fill="#1D1E1E" transform="translate(62,88)"/>
<path d="M0 0 C0.625 1.8125 0.625 1.8125 1 4 C0.01 5.485 0.01 5.485 -1 7 C-2.32 7 -3.64 7 -5 7 C-5 6.01 -5 5.02 -5 4 C-4.34 4 -3.68 4 -3 4 C-2.67 3.34 -2.34 2.68 -2 2 C-1.34 2.33 -0.68 2.66 0 3 C0 2.01 0 1.02 0 0 Z " fill="#5B6367" transform="translate(147,50)"/>
<path d="M0 0 C-3.68734758 2.45823172 -6.69699971 3.01242616 -11 4 C-11 3.01 -11 2.02 -11 1 C-6.92630576 -1.03684712 -4.41062136 -1.0257259 0 0 Z " fill="#313334" transform="translate(68,84)"/>
<path d="M0 0 C2.31 0.33 4.62 0.66 7 1 C7 1.66 7 2.32 7 3 C4.36 3.33 1.72 3.66 -1 4 C-0.67 2.68 -0.34 1.36 0 0 Z " fill="#CCD2D4" transform="translate(121,53)"/>
<path d="M0 0 C-2.59901958 1.73267972 -4.13842116 2.48482049 -7.0625 3.25 C-8.10083984 3.53617188 -8.10083984 3.53617188 -9.16015625 3.828125 C-9.76730469 3.88484375 -10.37445313 3.9415625 -11 4 C-11.66 3.34 -12.32 2.68 -13 2 C-8.50343896 -0.24828052 -4.92127034 -0.16682272 0 0 Z " fill="#D3D3D3" transform="translate(121,45)"/>
<path d="M0 0 C0.33 0 0.66 0 1 0 C1.125 2.875 1.125 2.875 1 6 C0.34 6.66 -0.32 7.32 -1 8 C-1.66 6.68 -2.32 5.36 -3 4 C-2.02727325 2.64664105 -1.0260734 1.31337396 0 0 Z " fill="#757678" transform="translate(186,98)"/>
<path d="M0 0 C2.31 0 4.62 0 7 0 C6.67 1.65 6.34 3.3 6 5 C3.98079663 3.69593116 1.98075027 2.36176581 0 1 C0 0.67 0 0.34 0 0 Z " fill="#252727" transform="translate(191,97)"/>
<path d="M0 0 C1.485 0.99 1.485 0.99 3 2 C3.1875 5.125 3.1875 5.125 3 8 C2.34 8 1.68 8 1 8 C1 6.68 1 5.36 1 4 C0.34 4 -0.32 4 -1 4 C-0.67 2.68 -0.34 1.36 0 0 Z " fill="#2F3133" transform="translate(77,88)"/>
<path d="M0 0 C-0.99 0.495 -0.99 0.495 -2 1 C-2 1.66 -2 2.32 -2 3 C-3.65 3.33 -5.3 3.66 -7 4 C-7.33 3.01 -7.66 2.02 -8 1 C-5.07175348 0.02391783 -3.04386724 -0.08226668 0 0 Z " fill="#E1E2E3" transform="translate(64,78)"/>
<path d="M0 0 C-0.33 0.66 -0.66 1.32 -1 2 C-3.31 2 -5.62 2 -8 2 C-8 1.34 -8 0.68 -8 0 C-4.71023192 -1.09658936 -3.28696233 -0.79953138 0 0 Z " fill="#768385" transform="translate(176,54)"/>
<path d="M0 0 C1.65 0.33 3.3 0.66 5 1 C4.25 2.9375 4.25 2.9375 3 5 C0.875 5.75 0.875 5.75 -1 6 C-1 4 -1 4 1 2 C0.67 1.34 0.34 0.68 0 0 Z " fill="#BFC1C0" transform="translate(193,100)"/>
<path d="M0 0 C0.33 0.99 0.66 1.98 1 3 C-0.8125 5.6875 -0.8125 5.6875 -3 8 C-3.66 8 -4.32 8 -5 8 C-3.8141763 4.62496331 -2.72426311 2.35277269 0 0 Z " fill="#040607" transform="translate(56,83)"/>
<path d="M0 0 C0.99 0.33 1.98 0.66 3 1 C3 1.66 3 2.32 3 3 C4.65 3 6.3 3 8 3 C8 3.66 8 4.32 8 5 C2.46153846 4.38461538 2.46153846 4.38461538 0.125 2.4375 C-0.24625 1.963125 -0.6175 1.48875 -1 1 C-0.67 0.67 -0.34 0.34 0 0 Z " fill="#84201D" transform="translate(203,70)"/>
<path d="M0 0 C0.66 0.33 1.32 0.66 2 1 C0.35 2.98 -1.3 4.96 -3 7 C-3.99 6.67 -4.98 6.34 -6 6 C-6 5.34 -6 4.68 -6 4 C-4.36368108 2.95107762 -2.69514137 1.95093297 -1 1 C-0.67 0.67 -0.34 0.34 0 0 Z " fill="#202223" transform="translate(75,102)"/>
<path d="M0 0 C1.32 0 2.64 0 4 0 C4 1.32 4 2.64 4 4 C5.98 4 7.96 4 10 4 C10 4.33 10 4.66 10 5 C6.6875 5.3125 6.6875 5.3125 3 5 C1.0625 2.5 1.0625 2.5 0 0 Z " fill="#08090B" transform="translate(29,90)"/>
<path d="M0 0 C2.475 0.99 2.475 0.99 5 2 C4.01 2.99 3.02 3.98 2 5 C1.01 4.67 0.02 4.34 -1 4 C-0.67 2.68 -0.34 1.36 0 0 Z " fill="#1E1F21" transform="translate(69,88)"/>
<path d="M0 0 C4.8 2.46153846 4.8 2.46153846 5.8125 5.1875 C5.874375 5.785625 5.93625 6.38375 6 7 C3.2805761 5.18705073 1.25740623 3.33524782 -1 1 C-0.67 0.67 -0.34 0.34 0 0 Z " fill="#A3A5A6" transform="translate(70,86)"/>
<path d="M0 0 C1.65 0 3.3 0 5 0 C4.67 1.32 4.34 2.64 4 4 C3.01 4 2.02 4 1 4 C0.67 2.68 0.34 1.36 0 0 Z " fill="#3B4244" transform="translate(141,60)"/>
<path d="M0 0 C0 0.99 0 1.98 0 3 C-1.98 3.33 -3.96 3.66 -6 4 C-6 3.34 -6 2.68 -6 2 C-3 0 -3 0 0 0 Z " fill="#7B8083" transform="translate(105,56)"/>
<path d="M0 0 C1.98 0 3.96 0 6 0 C5.67 0.99 5.34 1.98 5 3 C3.35 3.33 1.7 3.66 0 4 C0 2.68 0 1.36 0 0 Z " fill="#3E474A" transform="translate(147,54)"/>
<path d="M0 0 C2.31 0 4.62 0 7 0 C6.01 0.495 6.01 0.495 5 1 C5 1.99 5 2.98 5 4 C2.03 3.505 2.03 3.505 -1 3 C-0.67 2.01 -0.34 1.02 0 0 Z " fill="#424C4D" transform="translate(109,51)"/>
<path d="M0 0 C0.66 0 1.32 0 2 0 C1.67 0.66 1.34 1.32 1 2 C0.67 1.34 0.34 0.68 0 0 Z " fill="#000000" transform="translate(13,108)"/>
<path d="" fill="#404241" transform="translate(0,0)"/>
<path d="" fill="#404040" transform="translate(0,0)"/>
<path d="" fill="#020202" transform="translate(0,0)"/>
<path d="" fill="#808080" transform="translate(0,0)"/>
<path d="" fill="#828282" transform="translate(0,0)"/>
<path d="" fill="#FEFEFE" transform="translate(0,0)"/>
<path d="" fill="#CDCDCD" transform="translate(0,0)"/>
<path d="" fill="#CCCCCC" transform="translate(0,0)"/>
<path d="" fill="#9A9A9A" transform="translate(0,0)"/>
<path d="" fill="#BEBEBE" transform="translate(0,0)"/>
<path d="" fill="#9D9D9D" transform="translate(0,0)"/>
<path d="" fill="#FDFDFD" transform="translate(0,0)"/>
<path d="" fill="#BCBEC0" transform="translate(0,0)"/>
<path d="" fill="#FCFEFF" transform="translate(0,0)"/>
<path d="" fill="#CBCDCF" transform="translate(0,0)"/>
<path d="" fill="#C8C8C8" transform="translate(0,0)"/>
<path d="" fill="#FDFDFD" transform="translate(0,0)"/>
<path d="" fill="#FCFBFC" transform="translate(0,0)"/>
<path d="" fill="#7E8182" transform="translate(0,0)"/>
<path d="" fill="#969698" transform="translate(0,0)"/>
<path d="" fill="#9B9A9D" transform="translate(0,0)"/>
<path d="" fill="#ABABAB" transform="translate(0,0)"/>
<path d="" fill="#FAFAFA" transform="translate(0,0)"/>
<path d="" fill="#FFFFFF" transform="translate(0,0)"/>
<path d="" fill="#FFFFFF" transform="translate(0,0)"/>
<path d="" fill="#FCFBFC" transform="translate(0,0)"/>
<path d="" fill="#FBFDFD" transform="translate(0,0)"/>
<path d="" fill="#838587" transform="translate(0,0)"/>
<path d="" fill="#FFFFFF" transform="translate(0,0)"/>
</svg>
