<svg xmlns="http://www.w3.org/2000/svg" width="240" height="146"><path fill="#F2F3F3" d="M188 40v3l2 3 3.313.375c4.548.771 5.76 2.145 8.687 5.625l2.25 2.625C206 57 206 57 207 60l2 .5 2 .5 1 3 1.066 1.777c1.644 3.914.906 8.055.711 12.227.262 3.524.847 3.656 3.223 5.996.512 3.137.512 3.137.688 6.688l.199 3.574L218 97h-2l-1 4-2.336.113-3.039.2-3.023.175L204 102l-2 3 3.07.113q2.028.099 4.055.2l2.016.068c4.618.249 7.873 1.303 11.859 3.619v1c-4.541 1.114-9.042 1.222-13.691 1.316l-2.711.064q-4.58.099-9.16.183l-3.277.063c-37.048.69-74.11.562-111.161.374l-2.564-.013a4718 4718 0 0 1-30.771-.251q-4.269-.05-8.538-.082c-3.89-.03-7.777-.084-11.666-.142l-3.469-.02-3.131-.06-2.718-.033L18 111l-2-3c5.468-5.468 29.374-2.696 37-3-3.036-.64-6.012-1.154-9.102-1.43l-2.234-.222q-2.3-.225-4.602-.422c-5.567-.577-5.567-.577-8.109-2.371C28 99 28 99 28.375 97L29 95l-1-3c-.412-4.737.335-7.105 3-11l.938-2.062C33.284 76.483 34.935 74.883 37 73l1.813-1.687C42.587 69.048 46.679 69 51 69v-2l4 1 1-2c2.102-.271 4.206-.53 6.316-.727 2.854-.29 5.666-.685 8.496-1.148l2.708-.43c2.792-.782 4.17-1.959 6.48-3.695 4.041-2.326 8.182-4.462 12.313-6.625l3.38-1.812 3.295-1.727 2.986-1.577c3.366-1.4 6.413-1.866 10.026-2.259q2.003-.487 4-1c17.017-3.211 34.962-2.792 52.172-1.629l2.763.186a181 181 0 0 1 4.95.438c5.549.444 7.957-.6 12.115-3.995M84 102v2l-2 2q15.021.035 30.044.052 6.975.007 13.952.023 6.74.016 13.48.02 2.564.003 5.127.01c12.231.054 12.231.054 24.397-1.105v-3q-4.375-.04-8.75-.062l-2.5-.026-2.422-.01-2.222-.016c-2.07.032-2.07.032-3.848.62-2.887.632-5.54.569-8.495.516l-3.822-.061-4.113-.082-4.22-.072q-5.543-.094-11.087-.202-5.661-.104-11.322-.2Q95.1 102.21 84 102"/><path fill="#151717" d="M74.188 81.5C78.52 83.935 81.45 87.255 83 92v9h89v-9c1.51-4.43 4.355-7.913 8.25-10.5 4.753-2.315 9.701-2.53 14.703-.84 4.538 2.28 8.028 5.647 10.047 10.34.38 3.054.312 5.943 0 9l4 1-2.375.313c-2.955.463-2.955.463-4.625 3.687l3.07.113q2.028.099 4.055.2l2.016.068c4.618.249 7.873 1.303 11.859 3.619v1c-4.541 1.114-9.042 1.222-13.691 1.316l-2.711.064q-4.58.099-9.16.183c-1.622.03-1.622.03-3.277.063-37.048.69-74.11.562-111.161.374l-2.564-.013a4718 4718 0 0 1-30.771-.251q-4.269-.05-8.538-.082c-3.89-.03-7.777-.084-11.666-.142l-3.469-.02-3.131-.06-2.718-.033L18 111l-2-3c5.468-5.468 29.374-2.696 37-3-3.064-.64-6.097-1.18-9.207-1.535l-2.275-.264-2.33-.263-2.39-.276Q33.9 102.33 31 102v-1h18v-7c1.726-5.869 5.08-9.545 10-13 5.31-1.77 10.074-1.698 15.188.5M84 102v2l-2 2q15.021.035 30.044.052 6.975.007 13.952.023 6.74.016 13.48.02 2.564.003 5.127.01c12.231.054 12.231.054 24.397-1.105v-3q-4.375-.04-8.75-.062l-2.5-.026-2.422-.01-2.222-.016c-2.07.032-2.07.032-3.848.62-2.887.632-5.54.569-8.495.516l-3.822-.061-4.113-.082-4.22-.072q-5.543-.094-11.087-.202-5.661-.104-11.322-.2Q95.1 102.21 84 102"/><path fill="#F4F4F4" d="M162 64v1h37l5 10c-2 5-2 5-4 6v-2l-8-1v2l-1.977.297c-5.482.938-9.88 1.757-14.023 5.703-1.632 3.245-2.88 6.548-4 10-1.5-1.375-1.5-1.375-3-3v-2c-9.764-.094-19.498-.101-29.25.438-11.014.606-22.036.86-33.062 1.124l-2.792.068Q95.948 92.819 88 93V69l2 1 2.56-1.394c4.29-2.003 7.795-2.158 12.467-2.301l2.625-.115c2.761-.118 5.523-.217 8.285-.315q4.083-.165 8.164-.335 2.667-.11 5.333-.215c6.492-.259 12.966-.65 19.445-1.13 4.377-.273 8.738-.288 13.121-.195"/><path fill="#31383A" d="m171.438 46.688 2.723.16c4.336.389 6.335.746 9.812 3.547C188 55.57 188 55.57 188 60c-13.575 4.833-28.682 4.716-42.937 5.563l-3.191.194c-13.368.812-26.737 1.54-40.122 1.993l-3.812.135-3.454.1-2.946.084C89.184 68.005 87.246 67.68 85 67c2.218-6.654 13.27-10.73 19.41-13.909 20.605-10.12 44.748-8.025 67.028-6.404"/><path fill="#E6E7E7" d="M151 66c2 2 2 2 2.012 5.52a291 291 0 0 1-.325 4.293l-.146 2.158c-.274 3.743-.7 7.37-1.541 11.029h-2v2c-20.316 1.17-40.659 1.534-61 2V69l2 1 2.563-1.437C96.884 66.598 100.338 66.72 105 67l-2 1v4c4.48.03 8.958.047 13.438.063l3.818.025c7.92.023 7.92.023 15.807-.62 3.376-.401 6.15-.455 9.5-.03l2.566.308L150 72z"/><path fill="#151617" d="m56 83 1 2 1.875-1c4.492-1.438 8.467-1.923 13.125-1 3.301 1.845 5.767 3.944 8 7 .5 3.438.5 3.438 0 6h-2l-.25 3.188c-.813 4.13-2.061 5.69-4.75 8.812v3q-11.694.112-23.389.165-3.981.022-7.962.061c-3.807.037-7.615.054-11.422.067l-3.615.047h-3.336l-2.947.02L18 111l-2-3c5.468-5.468 29.374-2.696 37-3-3.064-.64-6.097-1.18-9.207-1.535l-2.275-.264-2.33-.263-2.39-.276Q33.9 102.33 31 102v-1h18v-7c.77-2.328.77-2.328 1.813-4.25l1.019-1.953C53.043 85.934 54.375 84.508 56 83"/><path fill="#C3C4C4" d="M87 71h1l1 21 7.793-.219c35.15-.967 35.15-.967 52.207-.781l1-2v2l1.712-.016q3.832-.029 7.663-.046l2.695-.026 2.578-.01 2.38-.016C169 91 169 91 171 92l1 9H83v-4h4z"/><path fill="#1C1E1E" d="M184 80c6.345-.518 11.006-.189 16 4 2.906 2.84 4.796 5.355 5.305 9.453A62 62 0 0 1 205 100l4 1-2.375.313c-2.955.463-2.955.463-4.625 3.687l3.07.113q2.028.099 4.055.2l2.016.068c4.618.249 7.873 1.303 11.859 3.619v1c-3.35.754-6.431 1.12-9.863 1.098l-2.686-.01-2.763-.025-2.823-.014A1758 1758 0 0 1 198 111l1-1.812c1.208-2.242 1.208-2.242 1-5.188l-2.562 1.938c-3.43 2.26-6.28 2.988-10.438 3.062-4.195-1.563-7.219-3.491-10-7-.706-5.477-.703-11.664 2.64-16.25 1.723-1.457 3.384-2.667 5.36-3.75z"/><path fill="#4F5151" d="m171 105-2 7H85l1-4c10.578-1.88 21.264-2.15 31.984-2.281l3.58-.056c4.99-.078 9.981-.146 14.973-.215q5.505-.08 11.01-.167l3.381-.04c4.784-.076 9.475-.23 14.225-.821C169 104 169 104 171 105"/><path fill="#CDD2D3" d="M144 51v3h-2v10c-4.04.74-7.95 1.168-12.055 1.316l-3.36.127-3.46.12-3.531.13q-4.298.159-8.594.307l-2-5v5h-4v-5h-3v3l-9 1v-3c3.084-1.8 6.152-2.5 9.605-3.3 2.86-.836 5.484-1.995 8.207-3.2 10.994-4.653 21.455-4.765 33.188-4.5"/><path fill="#EEEFEF" d="M212 64c2.827 4.477 2.015 8.9 1.777 14.004.262 3.524.847 3.656 3.223 5.996.512 3.137.512 3.137.688 6.688l.199 3.574L218 97h-2l-1 4-10-1-.187-4.062c-.58-5.054-2.171-8.38-5.813-11.938-2.278-1.594-4.49-2.77-7-4v-2l6.055.781c1.95.256 1.95.256 3.945.219v-2h2l-1.094-1.898-1.406-2.477-1.406-2.46C199 68 199 68 199 66l2.336.07 3.039.055 3.023.07c2.765.077 2.765.077 4.602-2.195"/><path fill="#F6F7F7" d="M183 47c12.88-.784 12.88-.784 17.125 2.188L202 52l2.25 2.625C206 57 206 57 207 60c2.015.733 2.015.733 4 1v6l-2.52-.219-3.292-.281-3.27-.281c-2.929-.256-2.929-.256-5.918-.219h-35l1-2c2.5-.594 2.5-.594 5.785-1.07l3.545-.528 3.732-.527 3.745-.55Q183.4 60.65 188 60l-1.375-3.125c-1.392-3.24-2.559-6.512-3.625-9.875"/><path fill="#6C6E6D" d="M71 86c2.934 1.796 4.472 2.944 6 6 .483 4.83.504 7.061-1.812 11.375-3.69 3.947-9.07 4.105-14.188 4.625-6.588-8.25-6.588-8.25-6.187-13.25C57.513 86.225 62.657 84.48 71 86"/><path fill="#B1B4B5" d="m188.688 85.875 2.449.055L193 86l-2 5-1-3-3-1 1 5h2l1 2 7-4c1.836 2.7 1.996 4.11 1.875 7.438-.994 4.047-1.694 5.858-4.875 8.562-4.267 1.292-7.733 1.523-11.875-.187-3.536-3.016-4.981-4.496-5.5-9.25.397-3.77 1.08-5.59 3.375-8.563 3.204-2.136 4.02-2.231 7.688-2.125"/><path fill="#E5E7E7" d="M50 74c-.75 2.375-.75 2.375-2 5l-2.035.887c-2.174.926-2.174.926-2.54 3.172l-.112 2.379c-.165 2.845-.399 4.82-1.313 7.562v3c-4.177 1.591-7.532 2.213-12 2-2.004-4.134-2.408-7.425-2-12 1.375-2.687 1.375-2.687 3-5l.688-2.125C35.64 73.227 43.838 73.615 50 74"/><path fill="#808B8D" d="M147 50c.687 2.49 1 4.379 1 7h4l.938-2.437C154 52 154 52 155 51c3.333-.225 6.663-.094 10 0l2.523.016c2.314.107 4.27.278 6.477.984 4 4.585 4 4.585 4 8-7.957 1.888-15.845 2.553-24 3v-4h-13l1-5h2l1-2 2 1z"/><path fill="#383D3F" d="M141 59h13v4l2-1a84 84 0 0 1 4.29-.535l2.605-.264 2.73-.264 2.66-.275c5.268-.52 10.422-.755 15.715-.662-7.08 7.08-29.278 4.99-38.937 5.563l-3.191.194c-13.368.812-26.737 1.54-40.122 1.993l-3.812.135-3.454.1-2.946.084C89.184 68.005 87.246 67.68 85 67c1-3 1-3 4.063-4.687L92 61v2l-2 1h12v-3h3v5h4l-1-6 2 1c.625 2.563.625 2.563 1 5l2.114-.48c3.053-.55 5.962-.73 9.062-.836l3.506-.127 3.63-.12 3.69-.13q4.5-.159 8.998-.307z"/><path fill="#FBFCFC" d="M149 87v4c-20.316 1.17-40.659 1.537-61 2v-3c20.281-1.867 40.618-3.358 61-3"/><path fill="#D2D8D9" d="m136.438 50.938 2.216.013q2.673.02 5.346.049v3h-2l-2 4-33 1v-2q3.277-1.23 6.563-2.437l3.69-1.372c6.418-2.04 12.525-2.333 19.185-2.254"/><path fill="#D7DADA" d="M44 81c1.206 2.332 2.165 4.496 3 7h5l-.937 2.563C49.737 94.533 49.737 94.533 49 101H29l-1-4 2-1v2l12-2-1-5 1-3a100 100 0 0 0 0-5h2z"/><path fill="#B4B6B7" d="M71 86c2.934 1.796 4.472 2.944 6 6 .586 7.267.586 7.267-2 10.5l-2 1.5 2-6-6-1c.313-1.875.313-1.875 1-4l3-2-1.937-.875C69 89 69 89 68 87h-4l1 4-3-2-2 2 2 3-5-2v4h5v1h-5l2 4 1.875-1.5C63 98 63 98 65 98l-1 7 5 1v1l-8 1c-6.588-8.25-6.588-8.25-6.187-13.25C57.513 86.225 62.657 84.48 71 86"/><path fill="#0F1111" d="M74.188 81.5c4.444 2.499 6.99 5.759 8.812 10.5 1.035 5.015.62 8.016-2.125 12.375-2.84 2.593-5.342 4.146-8.875 5.625 1.125-2.972 2.223-5.334 4-8 .456-2.509.456-2.509.625-5.187l.227-2.731L77 92l1 4h2c-.945-4.82-1.958-8.033-6.09-11.129-5.083-2.318-11.662-1.27-16.91.129v-3c5.761-2.88 11.336-2.995 17.188-.5"/><path fill="#ECEDED" d="M85 74c1.722 2.991 2.242 5.107 2.195 8.547l-.02 2.558-.05 2.645-.027 2.691A807 807 0 0 1 87 97h-4l-.48-1.793C80.96 89.924 79.466 86.509 75 83c-2.665-1.319-2.665-1.319-5-2l1-3c5.027.457 8.149 2.992 12 6-.744-3.139-1.758-6.02-3-9z"/><path fill="#DCDEDE" d="M150 91c3.125-.029 6.25-.047 9.375-.062l2.695-.026 2.578-.01 2.38-.016C169 91 169 91 171 92l1 6h-32v-1l8-1z"/><path fill="#060809" d="m178 103 2.563 1.938c3.43 2.26 6.279 2.988 10.437 3.062 3.234-1.283 3.234-1.283 6-3l3-1 1 5c-3.584 2.39-5.372 2.302-9.637 2.414l-3.935.117-4.115.094q-2.076.057-4.15.117-5.082.142-10.163.258l1-5h7z"/><path fill="#2F3436" d="m118 50 2 3c-8.881 3.75-17.531 6.99-27 9v3l-4-1 3-1v-3q4.654-2.474 9.313-4.937c.88-.47 1.762-.938 2.67-1.42l2.568-1.358 2.364-1.254C112.34 49.337 114.4 48.607 118 50"/><path fill="#D9DFE0" d="m141 57 1 7-4-1 2-4c-3.48.14-6.958.289-10.437.438l-2.952.119c-5.912.257-11.737.72-17.611 1.443v5h-4v-5h-3v3l-9 1v-3c9.459-5.072 20.608-4.409 31.063-4.625l4.607-.117C138.81 57 138.81 57 141 57"/><path fill="#B0B2B3" d="m110 48-1.875 1.313C105.78 50.997 105.78 50.997 104 54v-2l-1.86 1.07c-2.83 1.616-5.673 3.21-8.515 4.805l-2.926 1.684C82.681 64.025 75.265 66.488 66 66v-1c.675-.11 1.35-.22 2.047-.332l2.703-.48 2.672-.458c2.85-.807 4.224-1.957 6.578-3.73 4.082-2.37 8.264-4.548 12.438-6.75l3.431-1.863 3.315-1.746 3.017-1.609c3.128-1.153 4.659-1.01 7.799-.032"/><path fill="#949EA0" d="M154 57h23l1 3c-7.957 1.888-15.845 2.553-24 3z"/><path fill="#553535" d="M199 66h11c2.125 8.75 2.125 8.75 1 11h-7a805 805 0 0 1-2.5-4.375l-1.406-2.46C199 68 199 68 199 66"/><path fill="#1A1C1C" d="M84.477 100.676A92 92 0 0 1 92 101c-2 2-2 2-4.625 2.125L85 103l-1 2 21 1v1l-19 1-2 4-11-1 1-3 1.813-.875c2.429-1.012 2.429-1.012 3.812-3.75C82 101 82 101 84.477 100.675"/><path fill="#595959" d="M200 106c2.709-.081 5.415-.14 8.125-.187l2.305-.077c4.972-.064 8.206.608 12.57 3.264v1c-3.35.754-6.431 1.12-9.863 1.098l-2.686-.01-2.763-.025-2.823-.014A1758 1758 0 0 1 198 111l1-1.937c1.073-1.83 1.073-1.83 1-3.063"/><path fill="#5B5E5C" d="m32.938 105.938 2.36.013q2.852.02 5.702.049c-.871 2.469-.871 2.469-3 5-3.355.74-6.642.605-10.062.5l-2.8.008c-5.055-.074-5.055-.074-7.138-.508l-2-3c3.365-3.365 12.47-2.112 16.938-2.062"/><path fill="#37393A" d="M40 89c1.46 2.647 2 3.894 2 7-4.177 1.591-7.532 2.213-12 2l.625-2.312C31.334 92.78 31.334 92.78 29 90c3.674-1.176 7.17-1.074 11-1"/><path fill="#DADCDD" d="m64 78-2 1v2l-2.75 1.25c-3.256 1.543-3.256 1.543-5.312 3.875C51.65 88.339 50.115 88.654 47 89c-1.765-3.088-2-4.233-2-8l2.047-.148 2.703-.227c.882-.07 1.763-.14 2.672-.21 4.346-.7 6.981-2.671 11.578-2.415"/><path fill="#2B2E2C" d="m48.125 105.938 3.883.027L55 106l1 2-1 2 4 1H38l1-4c3.003-1.502 5.79-1.093 9.125-1.062"/><path fill="#D9D6D6" d="m206 90 2 4 9-1 1 4h-2l-1 4-10-1z"/><path fill="#BDBFBF" d="M46 94h2v6c-3.867 1.266-7.732 1.112-11.75 1.063l-2.113-.014q-2.57-.02-5.137-.049l-1-4 2-1v2q3.72-.712 7.438-1.437l2.142-.409c3.504-.438 3.504-.438 6.42-2.154"/><path fill="#4B4E50" d="M50 74c-1.283 3.956-2.43 5.848-6 8-2.797.512-2.797.512-5.75.688l-2.984.199L33 83l1-2c3.063-.625 3.063-.625 6-1l-2-2v2h-2v-4c4.648-2.4 8.91-2.2 14-2"/><path fill="#4A4C4E" d="M183 88h3q1.261 3.12 2.5 6.25l1.406 3.516C191 101 191 101 191 105h-4l-1-6-5 3-2-5 7-1-2.062-1.75L182 92c.25-2.25.25-2.25 1-4"/><path fill="#424544" d="M72 83c3.301 1.845 5.767 3.944 8 7 .5 3.438.5 3.438 0 6h-2v-4h-2l-1.875-2.5c-2.028-2.17-3.038-2.49-6.05-2.867C62.361 86.442 62.361 86.442 57 88v-3c4.755-2.536 9.76-3.039 15-2"/><path fill="#24282A" d="m91 61 1 2-2 1h12v-3h3v5l4 1c-3.25.197-6.5.381-9.75.563l-2.79.17-2.694.146-2.476.143C89.021 68 87.167 67.646 85 67c1.245-3.736 2.634-4.188 6-6"/><path fill="#545657" d="M57 92a123 123 0 0 1 5 2l2.688 1.063c3.508 2.94 3.695 6.546 4.312 10.937h-6l2-8-7 4c-.625-3.435-1-6.49-1-10"/><path fill="#717374" d="M196 49c5.034 1.438 6.99 3.902 10 8l1 3c2.015.733 2.015.733 4 1l-1 3c-4.28-.3-6.187-1.817-8.994-4.998l-1.319-1.565-1.376-1.576A383 383 0 0 1 195 52z"/><path fill="#BCC2C5" d="m136.438 50.938 2.216.013q2.673.02 5.346.049v3c-4.438 1.112-8.77 1.115-13.312 1.063l-2.245-.014q-2.721-.02-5.443-.049v-2l-2-1c5.202-.868 10.17-1.125 15.438-1.062"/><path fill="#A7AAAC" d="M181 88h2v4c1.917 2.25 1.917 2.25 4 4l-7 2 2 3h3v4c-3 0-3 0-5.187-2.062-2.267-3.673-2.345-5.685-1.813-9.938 1.375-2.937 1.375-2.937 3-5"/><path fill="#DFDFDF" d="m65 67-16 4v3l-13 2 1-4c4.204-2.328 9.213-3.463 14-3v-2l4 1 1-2c5.39-1.406 5.39-1.406 9 1"/><path fill="#5E6061" d="m67 93 3 1-1 3h7c-.397 1.319-.818 2.63-1.25 3.938l-.703 2.214C73 105 73 105 70.89 105.754L69 106a429 429 0 0 1-1.562-4.812l-.88-2.708C66 96 66 96 67 93"/><path fill="#060708" d="M77 92h1l1 6h1l1-5c2.2 3.3 2.623 4.172 2 8-3.124 4.594-5.791 6.82-11 9 1.125-2.972 2.223-5.334 4-8 .456-2.509.456-2.509.625-5.187l.227-2.731z"/><path fill="#F9FBFB" d="M151 86q3.907.133 7.813.313l2.236.068c4.477.223 5.654.322 8.951 3.619l-20 1z"/><path fill="#697376" d="M155 51c6.433-.12 12.618.176 19 1-4.585 3.057-7.771 3.112-13.187 3.063l-3.856-.028L154 55z"/><path fill="#1E2020" d="m199 106 2 1c-1 3-1 3-3 4-2.177.155-4.358.25-6.54.316l-3.944.127-4.141.12-4.164.13q-5.105.16-10.211.307l1-5 2.352.96c4.698 1.339 9.161 1.499 14.023 1.665l2.809.117q3.407.141 6.816.258v-2z"/><path fill="#CACBCC" d="M188 40v3c.95 2.15.95 2.15 2 4l-6 1 1 2-13-2c3.948-2.961 6.365-3.699 11-5 2.833-1.515 2.833-1.515 5-3"/><path fill="#3F4143" d="M196.438 84.813 199 87v3l-1.875-2.062c-3.966-2.46-6.231-2.207-10.742-1.567-3.16.834-5.127 2.298-7.383 4.629 0-4 0-4 1.25-5.687 4.825-3.62 11.053-3.208 16.188-.5"/><path fill="#C5C6C6" d="m30 83 8 1v3h-6l1 3-3 1 2 4h-4a280 280 0 0 1-.125-4.312l-.07-2.426C28 86 28 86 30 83"/><path fill="#B3B5B7" d="m56 98 3 3 1.875-1.5C63 98 63 98 65 98l-1 7 5 1v1l-8 1a300 300 0 0 1-2.5-3.312l-1.406-1.864C56 101 56 101 56 98"/><path fill="#727A7C" d="M147 50c.687 2.49 1 4.379 1 7h4l1-2 1 4h-13l1-5h2l1-2 2 1z"/><path fill="#080A0B" d="m75 102 2 1-1.937 2.375c-2.044 2.42-2.044 2.42-3.063 4.625q-2.937.039-5.875.063l-3.305.035C60 110 60 110 58 109v-2l2.23-.113C68.352 106.4 68.352 106.4 75 102"/><path fill="#8C8E90" d="M74.063 91.938 77 92c.492 7.385.492 7.385-2 10.5l-2 1.5 2-6-6-1c1.125-4.982 1.125-4.982 5.063-5.062"/><path fill="#373A3B" d="m187 87 1.75.563c2.457.477 3.894.194 6.25-.563l2 4-6 4-2-1 1-2h-2z"/><path fill="#DCDEDD" d="M71 78c5.352.324 8.283 3.497 12 7l-1 3c-3-1-3-1-4.875-2.937C74.848 82.853 72.983 81.994 70 81z"/><path fill="#7D7F80" d="M186 98h1v7h4v-5l4 2-1 2h-2v3c-5.538.37-5.538.37-7.875-1.5L183 104c1.875-4.875 1.875-4.875 3-6"/><path fill="#444646" d="M200 106c7.429 1 7.429 1 11 2v3h-13l2-4z"/><path fill="#0F0F10" d="M191 81v1l-3 .625c-4.145 1.148-7.012 3.432-10.3 6.133C176 90 176 90 174 90c.94-3.383 1.927-4.934 4.563-7.312 4.338-2.13 7.7-2.067 12.437-1.688"/><path fill="#273031" d="M141 59h13l-1 4h-3l-1-2-1.812 1.5C145 64 145 64 142 64z"/><path fill="#3A3C3B" d="M160 107h6l1 3 3 1c-3.53 1.177-6.295 1.199-10 1l-3-2 3-1z"/><path fill="#1D2123" d="M168 48c11.918-.785 11.918-.785 16.188 2.313C188 55.966 188 55.966 188 60c-2-1-2-1-2.937-3.375C183.94 53.853 183.35 52.791 181 51c-3.185-.797-3.185-.797-6.687-1.187-1.18-.16-2.36-.318-3.575-.481L168 49z"/><path fill="#666D6F" d="M154 60h22v1l-22 2z"/><path fill="#586063" d="m184 55 3 2-1 4-8-1-1-3c3.313-1.125 3.313-1.125 7-2"/><path fill="#17191A" d="M77 84c2.632 2.456 4.815 4.554 6 8-.372 2.975-1.593 5.374-3 8h-2v-4h2c-1.002-3.793-1.81-6.715-4-10z"/><path fill="#CACCCB" d="m100.625 66.938 2.477.027L105 67l-2 1v4c-2.25.25-2.25.25-5 0-2.312-2-2.312-2-4-4 2.405-1.203 3.95-1.1 6.625-1.062"/><path fill="#1C2123" d="m149 60 1.688.875c3.041 1.48 5.973 1.74 9.312 2.125v1c-6.697 1.03-13.231 1.102-20 1v-1l2.375-.375c2.766-.416 2.766-.416 4.625-2.625z"/><path fill="#697272" d="M112 54v2a411 411 0 0 1-4.25 2l-2.39 1.125C103 60 103 60 99 60v-2c4.61-2.95 7.365-4.55 13-4"/><path fill="#40494D" d="M176 51c3.375.313 3.375.313 7 1l2 3-7 2-3-3z"/><path fill="#777172" d="m216 93 2 4h-2l-1 4h-5l-1-2 3-1-2-2z"/><path fill="#4F5153" d="M33 89h7v4l-7 1z"/><path fill="#BD6461" d="m199 66 10 1v3h-2l-1 2h-4c-3-3.214-3-3.214-3-6"/><path fill="#D5D9DA" d="M102 60v4l-9 1v-3c3.135-1.858 5.375-2.201 9-2"/><path fill="#242628" d="M88 108h-2l-2 4-11-1c10-5 10-5 15-3"/><path fill="#3F4241" d="m46 106-2 1v3h6v1H38l1-4c2.463-1.231 4.28-1.072 7-1"/><path fill="#A9ACAD" d="m35 76 2 2-1 2h2v-2c3 1 3 1 5 3q-2.156.253-4.312.5l-2.426.281C34 82 34 82 31 82l1-5z"/><path fill="#3F464A" d="M130 48h19v2h-2v3l-4-2v-2h-13z"/><path fill="#474949" d="m171 105-2 5h-2l-1-2a109 109 0 0 0-7-1l1-2c1.996-.45 1.996-.45 4.438-.687l2.433-.262C169 104 169 104 171 105"/><path fill="#E3E8EA" d="m141 57 1 7-4-1 2-4h-20v-1l9.938-.5 2.865-.145 2.724-.136 2.524-.127A63 63 0 0 1 141 57"/><path fill="#CECFCF" d="m215 83 2 1c.594 2.649.742 5.292 1 8l-2 1v-2h-4c1.875-6.875 1.875-6.875 3-8"/><path fill="#E6E6E7" d="m181 78 3 1v2c-1.715 1.219-1.715 1.219-3.937 2.5-3.117 1.685-3.117 1.685-5.063 4.5l-2-1c4.357-7.002 4.357-7.002 8-9"/><path fill="#824F4D" d="M200 66h10l2 9-1-2h-5l1-3h2v-3h-9z"/><path fill="#D5D7D8" d="M83 88c2.569 1.284 2.947 2.366 4 5v4h-4l-2-8z"/><path fill="#CED0D2" d="m49 88 3 1c-.31.68-.619 1.361-.937 2.063C49.866 94.37 49.41 97.515 49 101h-5l4-1-.29-2.117c-.11-.91-.22-1.82-.335-2.758l-.352-2.742L47 90z"/><path fill="#ECF0EF" d="m45 81 7 1-4 7-2-1a109 109 0 0 1-1-7"/><path fill="#E3E4E5" d="m174 90-2 6c-1.5-1.375-1.5-1.375-3-3v-2h-13v-1q3.655-.291 7.313-.562l2.091-.17c3.221-.234 5.5-.3 8.596.732"/><path fill="#EFF1F2" d="M120 47c-2.7 1.8-5.067 2.934-8.062 4.125l-2.66 1.07C107 53 107 53 105 53c1-3 1-3 2.637-3.95 4.274-1.538 7.747-2.396 12.363-2.05"/><path fill="#D2CFD0" d="M212 64c2.377 3.665 2.05 6.49 1.625 10.75l-.336 3.547L213 81l-2-1 .063-3.687c.013-2.568-.126-4.599-.688-7.126C210 67 210 67 212 64"/><path fill="#2E2F31" d="m65 99 3 1 1 6h-6z"/><path fill="#1C1E1F" d="M56 86c3 0 3 0 5 1l-1.937 1.813C56.797 90.908 56.797 90.908 56 94l-3 1c.75-6.75.75-6.75 3-9"/><path fill="#212324" d="M184 80c1.437-.054 2.875-.093 4.313-.125l2.425-.07C193 80 193 80 196 82c-3.204 2.136-4.02 2.231-7.687 2.125l-2.45-.055L184 84z"/><path fill="#222426" d="M191 85c4.963.69 7.513 2.513 11 6 .125 3.125.125 3.125 0 6l-.781-1.805c-1.318-2.374-2.62-3.621-4.719-5.32-1.93-1.578-3.735-3.11-5.5-4.875"/><path fill="#242828" d="M183 88h3l2 7c-2.437-.812-2.437-.812-5-2l-1-3z"/><path fill="#EEEFF0" d="M32 87h10v4l-10-2z"/><path fill="#293133" d="M116.125 49.188C118 50 118 50 120 53l-6 1-1-2-3-1c2.22-1.348 3.501-2.044 6.125-1.812"/><path fill="#F0F0F0" d="M62 77h8l1 3h-9z"/><path fill="#717071" d="M20.063 106.938 23 107v4c-2.375.188-2.375.188-5 0l-2-3c1-1 1-1 4.063-1.062"/><path fill="#17181A" d="M179 97h8l-5 5-2-1c-.625-2.062-.625-2.062-1-4"/><path fill="#787A7B" d="M63 98h2l-1 7-4-1c1.875-4.875 1.875-4.875 3-6"/><path fill="#747678" d="M198 90v6h-6c2.6-6 2.6-6 6-6"/><path fill="#0B0D0C" d="M195 82c3.653 1.25 4.78 1.671 7 5l-2 2-6-5z"/><path fill="#929697" d="M43 75h6l-1 4-4 1z"/><path fill="#1F2122" d="M57 97h7l-5 5-2-2z"/><path fill="#DDDFDF" d="M203 84c2.248 2.052 3.002 3.007 4 6-.937 2.188-.937 2.188-2 4-3.077-5.415-3.077-5.415-2.687-8.375z"/><path fill="#43484A" d="m117 48 11 1v1h-6l-1 3c-2-1.375-2-1.375-4-3z"/><path fill="#B7B6B6" d="m205 95 1 2h7l-1 2c-2.322.407-4.657.744-7 1z"/><path fill="#545658" d="m192 87 4 1v4l-3 1z"/><path fill="#1D1E1E" d="M62 88c1.892 2.386 3.024 4.072 4 7-3.653-1.25-4.78-1.671-7-5z"/><path fill="#5B6367" d="M147 50c.625 1.813.625 1.813 1 4l-2 3h-4v-3h2l1-2 2 1z"/><path fill="#313334" d="M68 84c-3.687 2.458-6.697 3.012-11 4v-3c4.074-2.037 6.59-2.026 11-1"/><path fill="#CCD2D4" d="m121 53 7 1v2l-8 1z"/><path fill="#D3D3D3" d="M121 45c-2.599 1.733-4.138 2.485-7.062 3.25l-2.098.578L110 49l-2-2c4.497-2.248 8.079-2.167 13-2"/><path fill="#757678" d="M186 98h1c.125 2.875.125 2.875 0 6l-2 2-2-4a125 125 0 0 1 3-4"/><path fill="#252727" d="M191 97h7l-1 5a250 250 0 0 1-6-4z"/><path fill="#2F3133" d="m77 88 3 2c.188 3.125.188 3.125 0 6h-2v-4h-2z"/><path fill="#E1E2E3" d="m64 78-2 1v2l-5 1-1-3c2.928-.976 4.956-1.082 8-1"/><path fill="#768385" d="m176 54-1 2h-7v-2c3.29-1.097 4.713-.8 8 0"/><path fill="#BFC1C0" d="m193 100 5 1c-.75 1.938-.75 1.938-2 4-2.125.75-2.125.75-4 1 0-2 0-2 2-4z"/><path fill="#040607" d="m56 83 1 3c-1.812 2.688-1.812 2.688-4 5h-2c1.186-3.375 2.276-5.647 5-8"/><path fill="#84201D" d="m203 70 3 1v2h5v2c-5.538-.615-5.538-.615-7.875-2.562L202 71z"/><path fill="#202223" d="m75 102 2 1-5 6-3-1v-2a99 99 0 0 1 5-3z"/><path fill="#08090B" d="M29 90h4v4h6v1c-3.312.313-3.312.313-7 0-1.937-2.5-1.937-2.5-3-5"/><path fill="#1E1F21" d="m69 88 5 2-3 3-3-1z"/><path fill="#A3A5A6" d="M70 86c4.8 2.462 4.8 2.462 5.813 5.188L76 93c-2.72-1.813-4.743-3.665-7-6z"/><path fill="#3B4244" d="M141 60h5l-1 4h-3z"/><path fill="#7B8083" d="M105 56v3l-6 1v-2c3-2 3-2 6-2"/><path fill="#3E474A" d="M147 54h6l-1 3-5 1z"/><path fill="#424C4D" d="M109 51h7l-2 1v3l-6-1z"/><path d="M13 108h2l-1 2z"/></svg>