<?xml version="1.0" encoding="UTF-8"?>
<svg version="1.1" xmlns="http://www.w3.org/2000/svg" width="240" height="146">
<path d="M0 0 C2.39548757 -0.00067606 4.79097507 -0.00164859 7.1864624 -0.00289917 C12.16826033 -0.0043608 17.15004014 -0.0022708 22.13183594 0.00244141 C28.4710852 0.00815024 34.81029221 0.00484253 41.14953995 -0.00113106 C46.08274649 -0.0047678 51.01594323 -0.00358407 55.94915009 -0.00100327 C58.28519445 -0.00034323 60.62123975 -0.00112952 62.95728302 -0.00348282 C75.8380667 -0.0136209 88.6367958 0.16448871 101.484375 1.1328125 C101.484375 2.1228125 101.484375 3.1128125 101.484375 4.1328125 C101.96058752 6.87953829 102.5045203 9.60937837 103.046875 12.34375 C103.46282887 14.99545593 103.56228655 17.45460303 103.484375 20.1328125 C104.144375 20.4628125 104.804375 20.7928125 105.484375 21.1328125 C105.484375 23.7728125 105.484375 26.4128125 105.484375 29.1328125 C106.144375 29.4628125 106.804375 29.7928125 107.484375 30.1328125 C107.154375 31.4528125 106.824375 32.7728125 106.484375 34.1328125 C107.144375 34.4628125 107.804375 34.7928125 108.484375 35.1328125 C108.154375 39.4228125 107.824375 43.7128125 107.484375 48.1328125 C108.144375 48.4628125 108.804375 48.7928125 109.484375 49.1328125 C109.46117187 49.80828125 109.43796875 50.48375 109.4140625 51.1796875 C109.39601562 52.07171875 109.37796875 52.96375 109.359375 53.8828125 C109.33617187 54.76453125 109.31296875 55.64625 109.2890625 56.5546875 C109.49606458 59.2871149 110.14735215 60.77569074 111.484375 63.1328125 C111.814375 64.1228125 112.144375 65.1128125 112.484375 66.1328125 C109.14179425 69.47539325 106.99631486 70.38673366 102.37890625 70.546875 C101.39599609 70.58554688 100.41308594 70.62421875 99.40039062 70.6640625 C98.37623047 70.695 97.35207031 70.7259375 96.296875 70.7578125 C95.26111328 70.79648438 94.22535156 70.83515625 93.15820312 70.875 C90.60043878 70.96929546 88.04268213 71.05489452 85.484375 71.1328125 C85.154375 72.1228125 84.824375 73.1128125 84.484375 74.1328125 C92.734375 74.7928125 100.984375 75.4528125 109.484375 76.1328125 C109.154375 77.4528125 108.824375 78.7728125 108.484375 80.1328125 C98.08766683 81.10631553 87.82211059 81.20515885 77.38867188 81.09375 C70.21569573 81.04769558 63.16804282 81.33507062 56.01879883 81.90136719 C49.86349139 82.30443629 43.71307494 82.27968954 37.546875 82.2578125 C36.8772876 82.25692627 36.2077002 82.25604004 35.51782227 82.25512695 C26.82965307 82.24175896 18.162974 82.06628776 9.484375 81.6328125 C-12.10893065 80.55878025 -33.67906135 81.30424713 -55.27430725 81.9803772 C-58.02312751 82.06537484 -60.76524645 82.1328125 -63.515625 82.1328125 C-63.515625 81.4728125 -63.515625 80.8128125 -63.515625 80.1328125 C-64.65402832 80.16310547 -65.79243164 80.19339844 -66.96533203 80.22460938 C-71.25564922 80.33828137 -75.54602712 80.44950844 -79.83642578 80.56005859 C-81.6808438 80.60791133 -83.52524555 80.65639605 -85.36962891 80.70556641 C-90.62120517 80.8453422 -95.8728022 80.97440095 -101.12512207 81.08300781 C-102.66545744 81.11509977 -104.20574859 81.14943197 -105.74597168 81.18652344 C-107.70803684 81.23138372 -109.67043843 81.26077603 -111.6328125 81.2890625 C-112.70901855 81.30775391 -113.78522461 81.32644531 -114.89404297 81.34570312 C-117.515625 81.1328125 -117.515625 81.1328125 -120.515625 79.1328125 C-120.185625 78.1428125 -119.855625 77.1528125 -119.515625 76.1328125 C-116.20419494 75.40867877 -113.03718279 74.96926995 -109.65234375 74.81640625 C-108.76611328 74.77451172 -107.87988281 74.73261719 -106.96679688 74.68945312 C-106.05478516 74.65013672 -105.14277344 74.61082031 -104.203125 74.5703125 C-103.27177734 74.52712891 -102.34042969 74.48394531 -101.38085938 74.43945312 C-99.09258046 74.33384025 -96.80420128 74.23173498 -94.515625 74.1328125 C-94.515625 73.4728125 -94.515625 72.8128125 -94.515625 72.1328125 C-100.125625 71.8028125 -105.735625 71.4728125 -111.515625 71.1328125 C-111.515625 70.4728125 -111.515625 69.8128125 -111.515625 69.1328125 C-113.495625 69.1328125 -115.475625 69.1328125 -117.515625 69.1328125 C-118.175625 66.1628125 -118.835625 63.1928125 -119.515625 60.1328125 C-118.855625 60.1328125 -118.195625 60.1328125 -117.515625 60.1328125 C-117.845625 59.4728125 -118.175625 58.8128125 -118.515625 58.1328125 C-118.73423176 52.33973335 -118.58027515 47.18047158 -115.515625 42.1328125 C-114.525625 41.6378125 -114.525625 41.6378125 -113.515625 41.1328125 C-112.20927226 38.82748413 -111.35705426 36.65710027 -110.515625 34.1328125 C-109.525625 34.1328125 -108.535625 34.1328125 -107.515625 34.1328125 C-106.50995941 33.13851037 -105.51080581 32.13760858 -104.515625 31.1328125 C-102.2109375 30 -102.2109375 30 -99.640625 29.0078125 C-98.79757813 28.67523438 -97.95453125 28.34265625 -97.0859375 28 C-94.55289589 27.14538718 -92.1637459 26.50085642 -89.515625 26.1328125 C-88.855625 26.4628125 -88.195625 26.7928125 -87.515625 27.1328125 C-87.185625 26.4728125 -86.855625 25.8128125 -86.515625 25.1328125 C-84.703125 24.1328125 -84.703125 24.1328125 -82.515625 23.1328125 C-77.74480496 21.01241906 -77.74480496 21.01241906 -74.515625 17.1328125 C-73.525625 16.8028125 -72.535625 16.4728125 -71.515625 16.1328125 C-71.185625 15.4728125 -70.855625 14.8128125 -70.515625 14.1328125 C-69.525625 13.8028125 -68.535625 13.4728125 -67.515625 13.1328125 C-66.16226605 12.16008575 -64.82899896 11.1588859 -63.515625 10.1328125 C-62.525625 9.4728125 -61.535625 8.8128125 -60.515625 8.1328125 C-59.46375 7.17375 -59.46375 7.17375 -58.390625 6.1953125 C-51.96715809 1.58717319 -44.7803402 0.65867286 -37.04785156 0.45361328 C-36.14630466 0.42052629 -35.24475777 0.38743931 -34.31589127 0.35334969 C-22.88101101 -0.0241305 -11.43970888 -0.01157083 0 0 Z M-59.515625 70.1328125 C-60.505625 71.6178125 -60.505625 71.6178125 -61.515625 73.1328125 C-58.62586887 76.02256863 -50.55970982 74.58955255 -46.515625 74.6953125 C-45.38176865 74.72708084 -45.38176865 74.72708084 -44.2250061 74.75949097 C-13.00606235 75.60117915 18.25709022 75.21611951 49.484375 75.1328125 C49.484375 74.1428125 49.484375 73.1528125 49.484375 72.1328125 C47.06575074 69.71418824 46.50137814 69.88076643 43.19519043 69.87211609 C42.29501694 69.86503128 41.39484344 69.85794647 40.46739197 69.85064697 C38.9820974 69.8543631 38.9820974 69.8543631 37.46679688 69.8581543 C36.42608536 69.85304337 35.38537384 69.84793243 34.31312561 69.84266663 C30.85973421 69.82872226 27.40654127 69.8297309 23.953125 69.83203125 C21.56180751 69.82814728 19.1704907 69.82381324 16.7791748 69.81904602 C11.76210292 69.81157358 6.74510139 69.81188272 1.72802734 69.81713867 C-4.71535453 69.82293775 -11.15844937 69.80599644 -17.60178375 69.782794 C-22.54129737 69.7680951 -27.48074122 69.76717965 -32.42027283 69.77030373 C-34.79663156 69.76978868 -37.17299402 69.76451684 -39.54933167 69.75449181 C-42.86576245 69.74221777 -46.18162584 69.74886452 -49.49804688 69.76049805 C-50.48824326 69.75285431 -51.47843964 69.74521057 -52.49864197 69.73733521 C-53.84890221 69.74785667 -53.84890221 69.74785667 -55.22644043 69.7585907 C-56.40336079 69.75833909 -56.40336079 69.75833909 -57.60405731 69.75808239 C-58.55028332 69.94357379 -58.55028332 69.94357379 -59.515625 70.1328125 Z " fill="#EAEAEA" transform="translate(122.515625,29.8671875)"/>
<path d="M0 0 C14.04861253 -0.02349233 28.09722196 -0.04099188 42.14585018 -0.05181217 C48.67072676 -0.05700803 55.19559005 -0.06404508 61.72045898 -0.07543945 C68.02932934 -0.0863864 74.33818699 -0.09230161 80.64706612 -0.09487724 C83.04172528 -0.09671037 85.43638383 -0.10028953 87.83103752 -0.10573006 C100.9265787 -0.13427149 113.93867553 0.00075171 127 1 C127 1.99 127 2.98 127 4 C127.47621252 6.74672579 128.0201453 9.47656587 128.5625 12.2109375 C128.97845387 14.86264343 129.07791155 17.32179053 129 20 C129.66 20.33 130.32 20.66 131 21 C131 23.64 131 26.28 131 29 C131.66 29.33 132.32 29.66 133 30 C132.67 31.32 132.34 32.64 132 34 C132.66 34.33 133.32 34.66 134 35 C133.67 39.29 133.34 43.58 133 48 C133.66 48.33 134.32 48.66 135 49 C134.97679687 49.67546875 134.95359375 50.3509375 134.9296875 51.046875 C134.91164062 51.93890625 134.89359375 52.8309375 134.875 53.75 C134.85179687 54.63171875 134.82859375 55.5134375 134.8046875 56.421875 C135.01168958 59.1543024 135.66297715 60.64287824 137 63 C137.33 63.99 137.66 64.98 138 66 C136 68 136 68 133 70 C132.01 69.67 131.02 69.34 130 69 C127.26710707 68.77202438 124.54957796 68.58331813 121.8125 68.4375 C120.68811523 68.37272461 120.68811523 68.37272461 119.54101562 68.30664062 C117.69421625 68.20077315 115.84713166 68.0999024 114 68 C113.90203125 67.41992188 113.8040625 66.83984375 113.703125 66.2421875 C112.70727333 61.03972102 111.58832302 57.07323154 108 53 C102.50697356 49.70418414 97.33012672 49.24541536 91 50 C85.82084524 51.75895822 83.021312 54.468032 80 59 C79.34 61.97 78.68 64.94 78 68 C51.6 68 25.2 68 -2 68 C-1.01 67.505 -1.01 67.505 0 67 C-0.33 64.69 -0.66 62.38 -1 60 C0.98 60 2.96 60 5 60 C5 41.52 5 23.04 5 4 C5.66 4.33 6.32 4.66 7 5 C9.52520126 5 12.05035617 4.9407885 14.57525635 4.9032135 C25.67531222 4.73837346 36.77551347 4.58998288 47.87595272 4.45341206 C54.0257627 4.37721999 60.17539255 4.29539069 66.32495117 4.20092773 C72.25872414 4.10998942 78.19251933 4.03363461 84.12661934 3.96755028 C86.39419163 3.93969907 88.66170469 3.90651536 90.92912102 3.86800575 C94.09460386 3.81513093 97.25976409 3.78090288 100.42553711 3.7512207 C101.84305771 3.72101585 101.84305771 3.72101585 103.28921509 3.69020081 C104.14876297 3.68591064 105.00831085 3.68162048 105.89390564 3.67720032 C106.64294631 3.66706059 107.39198698 3.65692087 108.16372585 3.64647388 C108.76969632 3.7631375 109.37566679 3.87980112 110 4 C111.9451 6.91765 112.45276317 8.62537285 113 12 C113.04241723 9.66705225 113.04092937 7.33297433 113 5 C111.77994307 3.55126317 111.77994307 3.55126317 108.13528442 3.88647461 C106.36508406 3.88662457 104.59487951 3.8924068 102.82470703 3.90234375 C101.86021637 3.90380402 100.89572571 3.90526428 99.90200806 3.9067688 C97.79634215 3.91058749 95.69067951 3.91671721 93.58502579 3.92483521 C90.23602917 3.93758292 86.88707217 3.94411255 83.53805542 3.94897461 C75.20190411 3.96236426 66.86578932 3.9863183 58.52966309 4.01037598 C51.51520869 4.0302714 44.50076937 4.04585686 37.48629379 4.05593872 C34.21700097 4.06233528 30.94777038 4.07485379 27.67849731 4.08764648 C15.41696042 4.11716651 3.23602309 3.80105193 -9 3 C-9 2.67 -9 2.34 -9 2 C-6.03 2 -3.06 2 0 2 C0 1.34 0 0.68 0 0 Z " fill="#EEEDEE" transform="translate(97,30)"/>
<path d="M0 0 C0.33 0.66 0.66 1.32 1 2 C1.93021973 1.9292627 2.86043945 1.85852539 3.81884766 1.78564453 C14.68408318 1.02530521 25.48591218 0.84414004 36.375 0.875 C37.28334595 0.87588623 38.19169189 0.87677246 39.12756348 0.87768555 C65.75467097 0.90746082 92.3791137 1.46971365 119 2 C119.48560178 3.92728384 119.97018958 5.85482319 120.4543457 7.7824707 C120.72430862 8.85584183 120.99427155 9.92921295 121.27241516 11.03511047 C122.01807804 14.07366755 122.66662604 17.10232349 123.1875 20.1875 C123.34605469 21.08855469 123.50460938 21.98960938 123.66796875 22.91796875 C124.09950656 26.92365499 124 30.97113576 124 35 C84.73 35 45.46 35 5 35 C5 24.77 5 14.54 5 4 C5.66 4.33 6.32 4.66 7 5 C9.52520126 5 12.05035617 4.9407885 14.57525635 4.9032135 C25.67531222 4.73837346 36.77551347 4.58998288 47.87595272 4.45341206 C54.0257627 4.37721999 60.17539255 4.29539069 66.32495117 4.20092773 C72.25872414 4.10998942 78.19251933 4.03363461 84.12661934 3.96755028 C86.39419163 3.93969907 88.66170469 3.90651536 90.92912102 3.86800575 C94.09460386 3.81513093 97.25976409 3.78090288 100.42553711 3.7512207 C101.84305771 3.72101585 101.84305771 3.72101585 103.28921509 3.69020081 C104.14876297 3.68591064 105.00831085 3.68162048 105.89390564 3.67720032 C106.64294631 3.66706059 107.39198698 3.65692087 108.16372585 3.64647388 C108.76969632 3.7631375 109.37566679 3.87980112 110 4 C111.9451 6.91765 112.45276317 8.62537285 113 12 C113.04241723 9.66705225 113.04092937 7.33297433 113 5 C111.77994307 3.55126317 111.77994307 3.55126317 108.13528442 3.88647461 C106.36508406 3.88662457 104.59487951 3.8924068 102.82470703 3.90234375 C101.86021637 3.90380402 100.89572571 3.90526428 99.90200806 3.9067688 C97.79634215 3.91058749 95.69067951 3.91671721 93.58502579 3.92483521 C90.23602917 3.93758292 86.88707217 3.94411255 83.53805542 3.94897461 C75.20190411 3.96236426 66.86578932 3.9863183 58.52966309 4.01037598 C51.51520869 4.0302714 44.50076937 4.04585686 37.48629379 4.05593872 C34.21700097 4.06233528 30.94777038 4.07485379 27.67849731 4.08764648 C15.41696042 4.11716651 3.23602309 3.80105193 -9 3 C-9 2.67 -9 2.34 -9 2 C-6.03 2 -3.06 2 0 2 C0 1.34 0 0.68 0 0 Z " fill="#FDFDFD" transform="translate(97,30)"/>
<path d="M0 0 C4.51673763 2.64298185 7.4430534 7.02993199 8.7890625 12.046875 C8.816453 14.38004756 8.81907951 16.71373475 8.7890625 19.046875 C9.58306961 19.03434692 10.37707672 19.02181885 11.19514465 19.00891113 C21.33054227 18.84979787 31.46601461 18.69609882 41.6015625 18.546875 C42.81127653 18.52905912 42.81127653 18.52905912 44.04542923 18.51088333 C70.29462762 18.12626511 96.53667913 17.89917268 122.7890625 18.046875 C122.82354492 17.44866943 122.85802734 16.85046387 122.89355469 16.23413086 C123.46008066 9.13745842 125.4254798 5.76452086 130.7890625 1.046875 C135.20095421 -1.8148926 140.69343584 -1.57359704 145.7890625 -0.953125 C150.24888847 0.38863461 153.10070968 2.28792189 156.2265625 5.734375 C158.22714166 9.97560282 158.5060461 13.37710436 158.7890625 18.046875 C164.0690625 18.046875 169.3490625 18.046875 174.7890625 18.046875 C171.76813035 21.06780715 168.22534178 20.51364334 164.1640625 20.671875 C162.96136719 20.72988281 162.96136719 20.72988281 161.734375 20.7890625 C159.75298694 20.88341431 157.77105605 20.96623715 155.7890625 21.046875 C155.4590625 22.036875 155.1290625 23.026875 154.7890625 24.046875 C163.0390625 24.706875 171.2890625 25.366875 179.7890625 26.046875 C179.4590625 27.366875 179.1290625 28.686875 178.7890625 30.046875 C168.39235433 31.02037803 158.12679809 31.11922135 147.69335938 31.0078125 C140.52038323 30.96175808 133.47273032 31.24913312 126.32348633 31.81542969 C120.16817889 32.21849879 114.01776244 32.19375204 107.8515625 32.171875 C107.1819751 32.17098877 106.5123877 32.17010254 105.82250977 32.16918945 C97.13434057 32.15582146 88.4676615 31.98035026 79.7890625 31.546875 C58.19575685 30.47284275 36.62562615 31.21830963 15.03038025 31.8944397 C12.28155999 31.97943734 9.53944105 32.046875 6.7890625 32.046875 C6.7890625 31.386875 6.7890625 30.726875 6.7890625 30.046875 C5.65065918 30.07716797 4.51225586 30.10746094 3.33935547 30.13867188 C-0.95096172 30.25234387 -5.24133962 30.36357094 -9.53173828 30.47412109 C-11.3761563 30.52197383 -13.22055805 30.57045855 -15.06494141 30.61962891 C-20.31651767 30.7594047 -25.5681147 30.88846345 -30.82043457 30.99707031 C-32.36076994 31.02916227 -33.90106109 31.06349447 -35.44128418 31.10058594 C-37.40334934 31.14544622 -39.36575093 31.17483853 -41.328125 31.203125 C-42.40433105 31.22181641 -43.48053711 31.24050781 -44.58935547 31.25976562 C-47.2109375 31.046875 -47.2109375 31.046875 -50.2109375 29.046875 C-49.7159375 27.561875 -49.7159375 27.561875 -49.2109375 26.046875 C-45.89950744 25.32274127 -42.73249529 24.88333245 -39.34765625 24.73046875 C-38.46142578 24.68857422 -37.57519531 24.64667969 -36.66210938 24.60351562 C-35.75009766 24.56419922 -34.83808594 24.52488281 -33.8984375 24.484375 C-32.96708984 24.44119141 -32.03574219 24.39800781 -31.07617188 24.35351562 C-28.78789296 24.24790275 -26.49951378 24.14579748 -24.2109375 24.046875 C-24.2109375 23.386875 -24.2109375 22.726875 -24.2109375 22.046875 C-25.13777344 21.99789062 -26.06460937 21.94890625 -27.01953125 21.8984375 C-28.81583984 21.78628906 -28.81583984 21.78628906 -30.6484375 21.671875 C-31.84339844 21.60226563 -33.03835937 21.53265625 -34.26953125 21.4609375 C-35.24019531 21.32429688 -36.21085937 21.18765625 -37.2109375 21.046875 C-37.5409375 20.386875 -37.8709375 19.726875 -38.2109375 19.046875 C-34.9109375 19.046875 -31.6109375 19.046875 -28.2109375 19.046875 C-28.2728125 17.850625 -28.3346875 16.654375 -28.3984375 15.421875 C-28.36318912 10.41660436 -27.15737041 7.0117139 -23.55859375 3.37890625 C-16.51318144 -2.89195756 -8.73413589 -3.68851954 0 0 Z M10.7890625 20.046875 C9.7990625 21.531875 9.7990625 21.531875 8.7890625 23.046875 C11.67881863 25.93663113 19.74497768 24.50361505 23.7890625 24.609375 C24.92291885 24.64114334 24.92291885 24.64114334 26.0796814 24.67355347 C57.29862515 25.51524165 88.56177772 25.13018201 119.7890625 25.046875 C119.7890625 24.056875 119.7890625 23.066875 119.7890625 22.046875 C117.37043824 19.62825074 116.80606564 19.79482893 113.49987793 19.78617859 C112.59970444 19.77909378 111.69953094 19.77200897 110.77207947 19.76470947 C109.2867849 19.7684256 109.2867849 19.7684256 107.77148438 19.7722168 C106.73077286 19.76710587 105.69006134 19.76199493 104.61781311 19.75672913 C101.16442171 19.74278476 97.71122877 19.7437934 94.2578125 19.74609375 C91.86649501 19.74220978 89.4751782 19.73787574 87.0838623 19.73310852 C82.06679042 19.72563608 77.04978889 19.72594522 72.03271484 19.73120117 C65.58933297 19.73700025 59.14623813 19.72005894 52.70290375 19.6968565 C47.76339013 19.6821576 42.82394628 19.68124215 37.88441467 19.68436623 C35.50805594 19.68385118 33.13169348 19.67857934 30.75535583 19.66855431 C27.43892505 19.65628027 24.12306166 19.66292702 20.80664062 19.67456055 C19.81644424 19.66691681 18.82624786 19.65927307 17.80604553 19.65139771 C16.45578529 19.66191917 16.45578529 19.66191917 15.07824707 19.6726532 C13.90132671 19.67240159 13.90132671 19.67240159 12.70063019 19.67214489 C11.75440418 19.85763629 11.75440418 19.85763629 10.7890625 20.046875 Z " fill="#0D0E0E" transform="translate(52.2109375,79.953125)"/>
<path d="M0 0 C-0.66 7.92 -1.32 15.84 -2 24 C-7.91304951 24.6570055 -13.61803402 25.17889318 -19.53515625 25.31640625 C-20.68134682 25.3475779 -20.68134682 25.3475779 -21.85069275 25.37937927 C-24.25455094 25.44395383 -26.6585035 25.50332396 -29.0625 25.5625 C-30.70769144 25.60577319 -32.35287389 25.64939002 -33.99804688 25.69335938 C-37.9986034 25.80017524 -41.99924657 25.89992793 -46 26 C-46 32.6 -46 39.2 -46 46 C-48.31 45.34 -50.62 44.68 -53 44 C-58.66890235 43.30159123 -63.17438968 43.70981115 -68 47 C-73.41123818 51.91930744 -74.15200155 56.88693837 -75 64 C-75.68707031 64.06058594 -76.37414062 64.12117188 -77.08203125 64.18359375 C-77.98308594 64.26738281 -78.88414063 64.35117188 -79.8125 64.4375 C-80.70582031 64.51871094 -81.59914063 64.59992188 -82.51953125 64.68359375 C-85.12743559 64.93489767 -85.12743559 64.93489767 -88 66 C-88 65.34 -88 64.68 -88 64 C-89.98 64 -91.96 64 -94 64 C-94.66 61.03 -95.32 58.06 -96 55 C-95.34 55 -94.68 55 -94 55 C-94.33 54.34 -94.66 53.68 -95 53 C-95.21602529 47.27532971 -95.13505254 41.95008296 -92 37 C-88.69956693 33.93199179 -85.8498476 33.42717092 -81.4375 32.875 C-78.11420352 32.44497072 -75.18113067 32.06037689 -72 31 C-70.07906824 30.98416277 -68.15727672 31.03342391 -66.23828125 31.12109375 C-64.56088867 31.19360352 -64.56088867 31.19360352 -62.84960938 31.26757812 C-61.68236328 31.32365234 -60.51511719 31.37972656 -59.3125 31.4375 C-58.13365234 31.48970703 -56.95480469 31.54191406 -55.74023438 31.59570312 C-52.82655906 31.72546194 -49.91321922 31.86043132 -47 32 C-47 30.02 -47 28.04 -47 26 C-48.65 26 -50.3 26 -52 26 C-49.60584171 21.33139134 -46.45133373 18.43876476 -42.5 15.125 C-41.88213623 14.60123779 -41.26427246 14.07747559 -40.62768555 13.5378418 C-33.21304363 7.35976865 -25.78996314 1.33060098 -15.9375 0.4375 C-15.05964844 0.35371094 -14.18179688 0.26992188 -13.27734375 0.18359375 C-8.85806812 -0.06396996 -4.42620434 0 0 0 Z " fill="#DCDCDD" transform="translate(99,35)"/>
<path d="M0 0 C2.64 0 5.28 0 8 0 C8 16.66666667 8 33.33333333 8 50 C6.35 50 4.7 50 3 50 C2.67 52.64 2.34 55.28 2 58 C-13.84 58.495 -13.84 58.495 -30 59 C-30.495 61.475 -30.495 61.475 -31 64 C-31.33 64 -31.66 64 -32 64 C-32.09796875 63.41992188 -32.1959375 62.83984375 -32.296875 62.2421875 C-33.491502 56.00129126 -35.41856281 51.58143719 -40 47 C-40.22705078 44.93701172 -40.22705078 44.93701172 -40.1953125 42.4296875 C-40.18886719 41.53378906 -40.18242188 40.63789062 -40.17578125 39.71484375 C-40.15902344 38.77769531 -40.14226563 37.84054688 -40.125 36.875 C-40.11597656 35.93011719 -40.10695312 34.98523438 -40.09765625 34.01171875 C-40.07404522 31.67422708 -40.04111516 29.33723877 -40 27 C-34.71728567 26.14045007 -29.56978004 25.79917016 -24.22265625 25.68359375 C-23.41130722 25.66281265 -22.59995819 25.64203156 -21.76402283 25.62062073 C-19.19692661 25.55574357 -16.62973663 25.49653078 -14.0625 25.4375 C-12.31183964 25.39425582 -10.56118842 25.35063974 -8.81054688 25.30664062 C-4.54045829 25.2001265 -0.27027632 25.09868886 4 25 C3.98839844 24.21206055 3.97679687 23.42412109 3.96484375 22.61230469 C3.91714836 17.0472747 3.95470396 11.73780419 5 6.25 C5.2784375 4.74179687 5.2784375 4.74179687 5.5625 3.203125 C5.706875 2.47609375 5.85125 1.7490625 6 1 C4.02 1 2.04 1 0 1 C0 0.67 0 0.34 0 0 Z " fill="#E9E9E9" transform="translate(93,34)"/>
<path d="M0 0 C3.7383697 2.1674992 5.75483721 4.4102549 7.625 8.375 C8.20576771 11.40789804 8.4373712 14.27912483 8.625 17.375 C13.905 17.375 19.185 17.375 24.625 17.375 C21.60406785 20.39593215 18.06127928 19.84176834 14 20 C12.79730469 20.05800781 12.79730469 20.05800781 11.5703125 20.1171875 C9.58892444 20.21153931 7.60699355 20.29436215 5.625 20.375 C5.625 21.035 5.625 21.695 5.625 22.375 C4.4803125 22.2821875 4.4803125 22.2821875 3.3125 22.1875 C0.12160032 22.41012091 -0.33606145 23.05802438 -2.375 25.375 C-7.29884834 27.01628278 -11.96632519 27.55946385 -16.7421875 25.2109375 C-20.72598144 22.44638299 -20.72598144 22.44638299 -22.375 20.375 C-22.58984375 17.66796875 -22.58984375 17.66796875 -22.375 15.375 C-23.035 15.375 -23.695 15.375 -24.375 15.375 C-25.84831334 13.03503175 -26.406478 11.75582214 -26.17578125 8.96484375 C-25.20591771 5.82816312 -24.00955222 4.70250477 -21.5 2.625 C-20.80132812 2.03203125 -20.10265625 1.4390625 -19.3828125 0.828125 C-13.88617928 -3.14998309 -5.99179044 -2.70923358 0 0 Z " fill="#0A0B0B" transform="translate(202.375,80.625)"/>
<path d="M0 0 C3.04897676 1.80950143 4.75552415 4.19575661 6.796875 7.06640625 C6.136875 7.39640625 5.476875 7.72640625 4.796875 8.06640625 C4.136875 7.73640625 3.476875 7.40640625 2.796875 7.06640625 C2.466875 8.05640625 2.136875 9.04640625 1.796875 10.06640625 C1.013125 9.42703125 0.229375 8.78765625 -0.578125 8.12890625 C-4.73364333 4.86385613 -7.52282286 4.67336861 -12.71484375 4.7109375 C-15.50779442 4.90884342 -15.50779442 4.90884342 -18.328125 7.37890625 C-20.4892158 9.93031445 -20.4892158 9.93031445 -20.203125 13.06640625 C-19.81125 12.30328125 -19.419375 11.54015625 -19.015625 10.75390625 C-16.92659534 7.65637951 -15.67149402 6.45375386 -12.203125 5.06640625 C-9.31546942 4.81454177 -6.93288462 5.08127123 -4.203125 6.06640625 C-0.67023719 9.15768308 0.62554989 10.98134721 1.359375 15.62890625 C0.70511594 19.62715607 -0.40790023 21.19131792 -3.203125 24.06640625 C-3.821875 24.96359375 -3.821875 24.96359375 -4.453125 25.87890625 C-7.44603433 27.90980901 -10.76322293 27.57553787 -14.203125 27.06640625 C-16.2333839 26.12936368 -18.24009082 25.13715217 -20.203125 24.06640625 C-21.523125 24.06640625 -22.843125 24.06640625 -24.203125 24.06640625 C-24.203125 23.40640625 -24.203125 22.74640625 -24.203125 22.06640625 C-25.12996094 22.01742187 -26.05679687 21.9684375 -27.01171875 21.91796875 C-28.80802734 21.80582031 -28.80802734 21.80582031 -30.640625 21.69140625 C-31.83558594 21.62179688 -33.03054687 21.5521875 -34.26171875 21.48046875 C-35.23238281 21.34382813 -36.20304687 21.2071875 -37.203125 21.06640625 C-37.533125 20.40640625 -37.863125 19.74640625 -38.203125 19.06640625 C-34.903125 19.06640625 -31.603125 19.06640625 -28.203125 19.06640625 C-28.265 17.87015625 -28.326875 16.67390625 -28.390625 15.44140625 C-28.35537662 10.43613561 -27.14955791 7.03124515 -23.55078125 3.3984375 C-16.48651341 -2.88920893 -8.76236537 -3.62761926 0 0 Z " fill="#0C0D0D" transform="translate(52.203125,79.93359375)"/>
<path d="M0 0 C2.64 0 5.28 0 8 0 C8 11.88 8 23.76 8 36 C6.35 36.66 4.7 37.32 3 38 C3 37.34 3 36.68 3 36 C2.36723145 36.03029297 1.73446289 36.06058594 1.08251953 36.09179688 C-12.28846385 36.72056441 -25.61403603 37.15211323 -39 37 C-39 39.31 -39 41.62 -39 44 C-38.236875 44.2475 -37.47375 44.495 -36.6875 44.75 C-33.7635955 46.10995558 -32.69995644 47.31585826 -31 50 C-31.66 50.66 -32.32 51.32 -33 52 C-33.4125 51.360625 -33.825 50.72125 -34.25 50.0625 C-36.00723864 47.58535424 -36.00723864 47.58535424 -40 47 C-40 40.4 -40 33.8 -40 27 C-32.125 25.875 -32.125 25.875 -28.80883789 25.79467773 C-27.69847923 25.7647599 -27.69847923 25.7647599 -26.56568909 25.73423767 C-25.79248825 25.71752518 -25.01928741 25.70081268 -24.22265625 25.68359375 C-23.41130722 25.66281265 -22.59995819 25.64203156 -21.76402283 25.62062073 C-19.19692661 25.55574357 -16.62973663 25.49653078 -14.0625 25.4375 C-12.31183964 25.39425582 -10.56118842 25.35063974 -8.81054688 25.30664062 C-4.54045829 25.2001265 -0.27027632 25.09868886 4 25 C3.98839844 24.21206055 3.97679687 23.42412109 3.96484375 22.61230469 C3.91714836 17.0472747 3.95470396 11.73780419 5 6.25 C5.2784375 4.74179687 5.2784375 4.74179687 5.5625 3.203125 C5.706875 2.47609375 5.85125 1.7490625 6 1 C4.02 1 2.04 1 0 1 C0 0.67 0 0.34 0 0 Z " fill="#E7E7E8" transform="translate(93,34)"/>
<path d="M0 0 C0 0.99 0 1.98 0 3 C1.051875 2.505 2.10375 2.01 3.1875 1.5 C8.9771525 -0.72197474 14.89530352 -0.25126037 21 0 C20.85946128 2.62538284 20.71281053 5.25017427 20.5625 7.875 C20.52318359 8.62136719 20.48386719 9.36773437 20.44335938 10.13671875 C20.11328125 15.7734375 20.11328125 15.7734375 19 18 C15.93601549 18.13530844 12.87802874 18.2342407 9.8125 18.3125 C8.94818359 18.35439453 8.08386719 18.39628906 7.19335938 18.43945312 C0.8542447 18.5608921 0.8542447 18.5608921 -1.72900391 16.86474609 C-3.11328125 15.48046875 -3.11328125 15.48046875 -5 13 C-4.34 14.65 -3.68 16.3 -3 18 C-3.99 18 -4.98 18 -6 18 C-6 16.68 -6 15.36 -6 14 C-6.639375 14.474375 -7.27875 14.94875 -7.9375 15.4375 C-11.92181519 17.47031387 -15.58494074 17.7210529 -20 18 C-17.85257277 11.16727701 -7.48581917 0 0 0 Z " fill="#CED6D7" transform="translate(75,40)"/>
<path d="M0 0 C0.33 0 0.66 0 1 0 C1 18.15 1 36.3 1 55 C24.43 55 47.86 55 72 55 C72 55.33 72 55.66 72 56 C48.57 56 25.14 56 1 56 C1 58.31 1 60.62 1 63 C0.67 63 0.34 63 0 63 C0 60.69 0 58.38 0 56 C-1.65 56 -3.3 56 -5 56 C-4.505 59.465 -4.505 59.465 -4 63 C7.55 63.33 19.1 63.66 31 64 C31 64.33 31 64.66 31 65 C7.57 65 -15.86 65 -40 65 C-39.34 62.69 -38.68 60.38 -38 58 C-27.44 58 -16.88 58 -6 58 C-6 57.34 -6 56.68 -6 56 C-16.23 56 -26.46 56 -37 56 C-37 55.67 -37 55.34 -37 55 C-26.77 55 -16.54 55 -6 55 C-6 49.72 -6 44.44 -6 39 C-5.67 39 -5.34 39 -5 39 C-5 42.63 -5 46.26 -5 50 C-3.35 50 -1.7 50 0 50 C-0.495 44.06 -0.495 44.06 -1 38 C-1.99 37.67 -2.98 37.34 -4 37 C-2.02 36.505 -2.02 36.505 0 36 C0 35.01 0 34.02 0 33 C-12.54 33 -25.08 33 -38 33 C-38 32.67 -38 32.34 -38 32 C-25.46 32 -12.92 32 0 32 C0 21.44 0 10.88 0 0 Z " fill="#C2C2C2" transform="translate(101,34)"/>
<path d="M0 0 C2 3 2 3 1 9 C-25.4 9 -51.8 9 -79 9 C-78.34 8.67 -77.68 8.34 -77 8 C-77.33 5.69 -77.66 3.38 -78 1 C-76.35 1 -74.7 1 -73 1 C-72.67 1.66 -72.34 2.32 -72 3 C-36.855 2.505 -36.855 2.505 -1 2 C-0.67 1.34 -0.34 0.68 0 0 Z " fill="#D5D5D5" transform="translate(174,89)"/>
<path d="M0 0 C0.83354382 0.00085602 1.66708763 0.00171204 2.52589035 0.00259399 C12.89228253 0.01402697 23.25863981 0.03416467 33.625 0.0625 C33.295 1.3825 32.965 2.7025 32.625 4.0625 C-5.985 4.0625 -44.595 4.0625 -84.375 4.0625 C-84.375 10.3325 -84.375 16.6025 -84.375 23.0625 C-84.705 23.0625 -85.035 23.0625 -85.375 23.0625 C-85.375 15.8025 -85.375 8.5425 -85.375 1.0625 C-56.91282286 0.23192057 -28.47233783 -0.0294478 0 0 Z " fill="#FDFCFD" transform="translate(187.375,65.9375)"/>
<path d="M0 0 C0.66 0.33 1.32 0.66 2 1 C-0.38867479 5.7172031 -3.58521588 8.44597017 -7.625 11.6875 C-11.88312148 14.8531859 -11.88312148 14.8531859 -15 19 C-13.68 19.33 -12.36 19.66 -11 20 C-11 21.98 -11 23.96 -11 26 C-11.78125244 25.98952637 -12.56250488 25.97905273 -13.36743164 25.96826172 C-16.93242126 25.92649792 -20.49735922 25.90060902 -24.0625 25.875 C-25.29162109 25.85824219 -26.52074219 25.84148437 -27.78710938 25.82421875 C-33.96852469 25.79089576 -39.16626688 25.95198731 -45 28 C-46.63911346 28.25588516 -48.28555635 28.47251289 -49.9375 28.625 C-50.70964844 28.69976562 -51.48179688 28.77453125 -52.27734375 28.8515625 C-52.84582031 28.90054688 -53.41429687 28.94953125 -54 29 C-51.375 24.125 -51.375 24.125 -48 23 C-47.54367188 22.52820313 -47.08734375 22.05640625 -46.6171875 21.5703125 C-44.61258532 19.62381473 -42.7248006 18.87857044 -40.125 17.875 C-39.28195313 17.54242188 -38.43890625 17.20984375 -37.5703125 16.8671875 C-35.03727089 16.01257468 -32.6481209 15.36804392 -30 15 C-29.34 15.33 -28.68 15.66 -28 16 C-27.67 15.34 -27.34 14.68 -27 14 C-27 14.66 -27 15.32 -27 16 C-20.25843873 16.2210348 -17.33624433 14.87500509 -12.375 10.25 C-11.45847656 9.35023437 -10.54195312 8.45046875 -9.59765625 7.5234375 C-6.58911867 4.60085813 -3.48046427 2.32030951 0 0 Z " fill="#F2F2F2" transform="translate(63,41)"/>
<path d="M0 0 C2.31 0.33 4.62 0.66 7 1 C7.96070434 3.88211302 8.10581883 5.69850044 8.0625 8.6875 C8.05347656 9.49574219 8.04445312 10.30398437 8.03515625 11.13671875 C8.02355469 11.75160156 8.01195312 12.36648437 8 13 C8.66 13.33 9.32 13.66 10 14 C9.97679687 14.67546875 9.95359375 15.3509375 9.9296875 16.046875 C9.91164062 16.93890625 9.89359375 17.8309375 9.875 18.75 C9.85179687 19.63171875 9.82859375 20.5134375 9.8046875 21.421875 C10.01168958 24.1543024 10.66297715 25.64287824 12 28 C12.33 28.99 12.66 29.98 13 31 C11 33 11 33 8 35 C6.515 34.505 6.515 34.505 5 34 C2.26710707 33.77202438 -0.45042204 33.58331813 -3.1875 33.4375 C-4.31188477 33.37272461 -4.31188477 33.37272461 -5.45898438 33.30664062 C-7.30578375 33.20077315 -9.15286834 33.0999024 -11 33 C-11.66 29.7 -12.32 26.4 -13 23 C-8.71 23 -4.42 23 0 23 C0 20.03 0 17.06 0 14 C0.66 14 1.32 14 2 14 C1.34 13.67 0.68 13.34 0 13 C0 8.71 0 4.42 0 0 Z " fill="#E8E8E8" transform="translate(222,65)"/>
<path d="M0 0 C-0.66 7.92 -1.32 15.84 -2 24 C-7.28164314 24.58684924 -12.28271173 25.13142059 -17.546875 25.31640625 C-19.3103125 25.37924805 -19.3103125 25.37924805 -21.109375 25.44335938 C-22.31078125 25.48267578 -23.5121875 25.52199219 -24.75 25.5625 C-25.9359375 25.60568359 -27.121875 25.64886719 -28.34375 25.69335938 C-36.2321075 25.96462931 -44.10730042 26.05181743 -52 26 C-50.27365175 22.95195645 -48.68848629 20.42497804 -46.03125 18.1328125 C-45.46510986 17.64272705 -44.89896973 17.1526416 -44.31567383 16.64770508 C-43.71650146 16.1452124 -43.1173291 15.64271973 -42.5 15.125 C-41.88213623 14.60123779 -41.26427246 14.07747559 -40.62768555 13.5378418 C-33.21304363 7.35976865 -25.78996314 1.33060098 -15.9375 0.4375 C-15.05964844 0.35371094 -14.18179688 0.26992188 -13.27734375 0.18359375 C-8.85806812 -0.06396996 -4.42620434 0 0 0 Z M-37 13 C-39.50785693 15.54221113 -41.80570484 18.1841127 -44 21 C-43.67 21.66 -43.34 22.32 -43 23 C-37.80408388 22.55966813 -34.33664919 22.11696661 -30 19 C-30 20.32 -30 21.64 -30 23 C-29.01 22.67 -28.02 22.34 -27 22 C-27.66 20.68 -28.32 19.36 -29 18 C-28.37738281 18.81855469 -27.75476563 19.63710938 -27.11328125 20.48046875 C-24.62133778 22.97241222 -22.84918682 23.38038599 -19.35546875 23.48828125 C-17.63213249 23.45526715 -15.90913118 23.39594968 -14.1875 23.3125 C-13.30384766 23.28994141 -12.42019531 23.26738281 -11.50976562 23.24414062 C-9.3391109 23.18547428 -7.1693331 23.09579979 -5 23 C-3.59545452 16.88019467 -2.76731085 11.28260706 -3 5 C-10.7276932 4.68193946 -16.93924474 4.67729164 -24 8 C-24 7.01 -24 6.02 -24 5 C-28.72484467 5 -33.48019839 10.13774375 -37 13 Z " fill="#303538" transform="translate(99,35)"/>
<path d="M0 0 C1.25586914 0.08121094 1.25586914 0.08121094 2.53710938 0.1640625 C3.78717773 0.19886719 3.78717773 0.19886719 5.0625 0.234375 C9.48072522 0.3880524 13.75311938 0.81596689 18.09960938 1.6640625 C18.09960938 5.2940625 18.09960938 8.9240625 18.09960938 12.6640625 C17.29523437 12.4990625 16.49085937 12.3340625 15.66210938 12.1640625 C8.8402812 11.20661293 3.03221932 10.61910117 -2.90039062 14.6640625 C-4.73515399 16.57527434 -6.28265614 18.55202026 -7.90039062 20.6640625 C-8.56039063 21.3240625 -9.22039063 21.9840625 -9.90039062 22.6640625 C-12.02539063 22.2890625 -12.02539063 22.2890625 -13.90039062 21.6640625 C-12.52539063 19.1640625 -12.52539063 19.1640625 -10.90039062 16.6640625 C-10.24039062 16.6640625 -9.58039062 16.6640625 -8.90039062 16.6640625 C-8.63820313 13.51781257 -8.65284695 12.04569233 -10.40039062 9.3515625 C-10.89539063 8.7946875 -11.39039063 8.2378125 -11.90039062 7.6640625 C-8.63706821 1.73802916 -6.83311769 -0.15148638 0 0 Z " fill="#E5E5E5" transform="translate(33.900390625,67.3359375)"/>
<path d="M0 0 C3.53288781 3.09127683 4.82867489 4.91494096 5.5625 9.5625 C4.79248617 14.26814007 2.93327846 16.53337496 -0.8125 19.375 C-4.21936744 20.3483907 -6.59291615 19.89660101 -10 19 C-13.54281383 16.38139847 -14.78669043 14.74658348 -16 10.5 C-16 6.51887435 -15.5290797 5.03489564 -13 2 C-8.89831567 -1.51572942 -4.97124908 -1.79405965 0 0 Z " fill="#C4C6C8" transform="translate(48,86)"/>
<path d="M0 0 C3.21093673 2.44310404 4.69865985 4.11481331 6 7.9375 C6 11.81045073 5.14268559 13.78597162 3 17 C0.06189095 19.60232515 -2.16677533 20.25019085 -6 20.0625 C-9.42497574 19.45923723 -10.1998794 18.82510552 -13 16.375 C-15.36127039 12.39035621 -15.8126012 10.55056669 -15 6 C-11.19420772 -0.45392912 -7.17254464 -1.73130388 0 0 Z " fill="#7A7D7E" transform="translate(198,86)"/>
<path d="M0 0 C1.785155 0.0050245 3.57031136 0.00958572 5.35546875 0.01367188 C9.6953467 0.02460349 14.03515802 0.0418159 18.375 0.0625 C18.375 1.0525 18.375 2.0425 18.375 3.0625 C16.725 3.7225 15.075 4.3825 13.375 5.0625 C13.375 4.4025 13.375 3.7425 13.375 3.0625 C12.74223145 3.09279297 12.10946289 3.12308594 11.45751953 3.15429688 C-1.91346385 3.78306441 -15.23903603 4.21461323 -28.625 4.0625 C-28.625 6.3725 -28.625 8.6825 -28.625 11.0625 C-27.861875 11.31 -27.09875 11.5575 -26.3125 11.8125 C-23.3885955 13.17245558 -22.32495644 14.37835826 -20.625 17.0625 C-21.285 17.7225 -21.945 18.3825 -22.625 19.0625 C-23.0375 18.423125 -23.45 17.78375 -23.875 17.125 C-25.63223864 14.64785424 -25.63223864 14.64785424 -29.625 14.0625 C-29.625 9.7725 -29.625 5.4825 -29.625 1.0625 C-19.7618383 -0.23420966 -9.92702131 -0.04874302 0 0 Z " fill="#FCFBFC" transform="translate(82.625,66.9375)"/>
<path d="M0 0 C0.33 0.66 0.66 1.32 1 2 C3.31 2 5.62 2 8 2 C5.59310197 4.72675159 3.07528977 6.11966596 -0.1875 7.6875 C-1.53908203 8.34298828 -1.53908203 8.34298828 -2.91796875 9.01171875 C-3.60503906 9.33785156 -4.29210937 9.66398437 -5 10 C-4.67 10.66 -4.34 11.32 -4 12 C-4.845625 11.95875 -5.69125 11.9175 -6.5625 11.875 C-10.34619116 12.01258877 -13.36701531 12.9532078 -17 14 C-19.99210343 14.43495433 -22.98798752 14.74046151 -26 15 C-23.375 10.125 -23.375 10.125 -20 9 C-19.54367188 8.52820312 -19.08734375 8.05640625 -18.6171875 7.5703125 C-16.61258532 5.62381473 -14.7248006 4.87857044 -12.125 3.875 C-11.28195313 3.54242188 -10.43890625 3.20984375 -9.5703125 2.8671875 C-7.03727089 2.01257468 -4.6481209 1.36804392 -2 1 C-1.34 1.33 -0.68 1.66 0 2 C0 1.34 0 0.68 0 0 Z " fill="#F5F5F5" transform="translate(35,55)"/>
<path d="M0 0 C2.64 0 5.28 0 8 0 C8 10.56 8 21.12 8 32 C-2.23 32 -12.46 32 -23 32 C-23 31.67 -23 31.34 -23 31 C-10.625 30.505 -10.625 30.505 2 30 C-0.31 29.67 -2.62 29.34 -5 29 C-5 27.68 -5 26.36 -5 25 C-2.03 25 0.94 25 4 25 C3.97679688 24.27296875 3.95359375 23.5459375 3.9296875 22.796875 C3.79532331 15.3108699 4.54273001 8.33839529 6 1 C4.02 1 2.04 1 0 1 C0 0.67 0 0.34 0 0 Z " fill="#F9F9FA" transform="translate(93,34)"/>
<path d="M0 0 C6.32952437 -0.45210888 10.75787877 0.2689115 16 4 C20.28321307 8.72251698 20.62803085 12.862509 21 19 C26.28 19 31.56 19 37 19 C35 21 35 21 31.375 21.23046875 C29.9166018 21.22647678 28.45820257 21.2117184 27 21.1875 C26.26265625 21.18685547 25.5253125 21.18621094 24.765625 21.18554688 C19.28101809 21.14050904 19.28101809 21.14050904 17 20 C16.76171875 18.109375 16.76171875 18.109375 16.6875 15.75 C16.36741967 11.87825905 16.13971563 11.16016183 13.4375 8.0625 C12.633125 7.381875 11.82875 6.70125 11 6 C11 5.34 11 4.68 11 4 C8.9163691 4.14151828 6.83310062 4.28837936 4.75 4.4375 C3.58984375 4.51871094 2.4296875 4.59992188 1.234375 4.68359375 C-1.30977376 4.93247787 -3.55953248 5.28114942 -6 6 C-4.625 4.5 -4.625 4.5 -3 3 C-2.34 3 -1.68 3 -1 3 C-0.67 2.01 -0.34 1.02 0 0 Z " fill="#131314" transform="translate(190,79)"/>
<path d="M0 0 C1.98 0 3.96 0 6 0 C6 0.66 6 1.32 6 2 C7.65 1.34 9.3 0.68 11 0 C9.65117186 4.04648443 7.65173931 4.95502599 4 7 C3.01 6.67 2.02 6.34 1 6 C-3.1785813 7.39286043 -6.40933465 10.72723185 -9.6875 13.5625 C-10.28111328 14.06974609 -10.87472656 14.57699219 -11.48632812 15.09960938 C-14.30717074 17.47954718 -14.30717074 17.47954718 -17 20 C-18.51928038 20.07179964 -20.04167482 20.08392007 -21.5625 20.0625 C-22.38878906 20.05347656 -23.21507812 20.04445313 -24.06640625 20.03515625 C-25.02353516 20.01775391 -25.02353516 20.01775391 -26 20 C-23.48959337 17.31027861 -21.34678974 15.51145343 -18 14 C-14.95865509 12.33075929 -14.95865509 12.33075929 -14 10 C-13.01 9.67 -12.02 9.34 -11 9 C-10.67 8.34 -10.34 7.68 -10 7 C-9.01 6.67 -8.02 6.34 -7 6 C-5.64664105 5.02727325 -4.31337396 4.0260734 -3 3 C-2.01 2.34 -1.02 1.68 0 1 C0 0.67 0 0.34 0 0 Z " fill="#A5A8A9" transform="translate(62,37)"/>
<path d="M0 0 C0.91007812 0.00902344 1.82015625 0.01804687 2.7578125 0.02734375 C3.80582031 0.04474609 3.80582031 0.04474609 4.875 0.0625 C5.37 1.5475 5.37 1.5475 5.875 3.0625 C18.085 3.0625 30.295 3.0625 42.875 3.0625 C42.875 3.3925 42.875 3.7225 42.875 4.0625 C19.445 4.0625 -3.985 4.0625 -28.125 4.0625 C-27.795 3.4025 -27.465 2.7425 -27.125 2.0625 C-26.52961426 2.03744385 -25.93422852 2.0123877 -25.32080078 1.98657227 C-22.63030864 1.87072506 -19.9401766 1.74794804 -17.25 1.625 C-16.31285156 1.58568359 -15.37570313 1.54636719 -14.41015625 1.50585938 C-13.51425781 1.46396484 -12.61835937 1.42207031 -11.6953125 1.37890625 C-10.45418701 1.32391968 -10.45418701 1.32391968 -9.18798828 1.26782227 C-5.89492542 0.94007483 -3.48437433 -0.04467147 0 0 Z " fill="#9D9D9D" transform="translate(89.125,94.9375)"/>
<path d="M0 0 C3.72528805 3.25962704 4.91223813 4.91175277 5.3125 9.875 C5.209375 10.90625 5.10625 11.9375 5 13 C0.15670771 16.16296639 -3.02723957 17.90154874 -9 17 C-11.5264769 15.13838544 -12.68542477 13.76396841 -13.875 10.875 C-13.936875 9.946875 -13.936875 9.946875 -14 9 C-13.34 8.34 -12.68 7.68 -12 7 C-11.690625 7.969375 -11.38125 8.93875 -11.0625 9.9375 C-10.30476658 12.84065792 -10.30476658 12.84065792 -9 14 C-4.3151522 14.41018434 -4.3151522 14.41018434 0 12.875 C1.24019608 10.90379902 1.24019608 10.90379902 1 7.9375 C0.29161548 4.87103714 0.29161548 4.87103714 -2.1875 3.5625 C-5.42734492 2.91453102 -7.80075773 3.25599017 -11 4 C-11 4.66 -11 5.32 -11 6 C-12.32 5.67 -13.64 5.34 -15 5 C-10.73595777 -0.73440162 -7.01692514 -2.19790846 0 0 Z " fill="#5C5E5F" transform="translate(48,86)"/>
<path d="M0 0 C0.99 0.33 1.98 0.66 3 1 C3.66666667 2.66666667 4.33333333 4.33333333 5 6 C5.99 6.33 6.98 6.66 8 7 C-2.3489074 7.65043638 -12.6265501 8.16494885 -23 8 C-21.01174362 4.473551 -19.86444746 2.4658249 -16 1 C-15.34 1.99 -14.68 2.98 -14 4 C-8.41499433 3.80101292 -8.41499433 3.80101292 -4 1 C-3.01 1 -2.02 1 -1 1 C-1 2.32 -1 3.64 -1 5 C-0.34 4.67 0.32 4.34 1 4 C0.67 2.68 0.34 1.36 0 0 Z " fill="#15191A" transform="translate(70,53)"/>
<path d="M0 0 C0.33 1.32 0.66 2.64 1 4 C0.43410156 4.39832031 -0.13179687 4.79664063 -0.71484375 5.20703125 C-1.44832031 5.73683594 -2.18179688 6.26664063 -2.9375 6.8125 C-3.66839844 7.33457031 -4.39929688 7.85664062 -5.15234375 8.39453125 C-7.26883226 9.95867127 -7.26883226 9.95867127 -8 13 C-7.34 13.33 -6.68 13.66 -6 14 C-10.46726453 17.31442207 -14.62007164 17.66009167 -20 18 C-17.85257277 11.16727701 -7.48581917 0 0 0 Z " fill="#656C6E" transform="translate(75,40)"/>
<path d="M0 0 C4.07310397 1.06254886 6.20103836 2.89004262 9 6 C8.67 6.66 8.34 7.32 8 8 C7.21625 7.360625 6.4325 6.72125 5.625 6.0625 C1.47023711 2.79804345 -1.32175296 2.59620524 -6.515625 2.65625 C-9.27196347 2.84685052 -9.27196347 2.84685052 -12.0625 5.125 C-14.52244734 8.77524445 -15 11.66724087 -15 16 C-14.34 16 -13.68 16 -13 16 C-12.566875 16.78375 -12.13375 17.5675 -11.6875 18.375 C-9.6840019 21.49155259 -8.53544599 22.07404986 -5 23 C-2.29113059 23.16798262 -2.29113059 23.16798262 0 23 C0 23.66 0 24.32 0 25 C-5.78946864 25.29945527 -8.82430277 24.82310758 -14 22 C-15.32 22 -16.64 22 -18 22 C-17.34 21.34 -16.68 20.68 -16 20 C-16.30420546 18.19130534 -16.30420546 18.19130534 -17 16 C-18.04398127 11.66346242 -18.39945931 9.76932905 -16.3125 5.75 C-11.26873127 -0.24799524 -7.58490198 -0.70299092 0 0 Z " fill="#2C2D2E" transform="translate(46,82)"/>
<path d="M0 0 C-0.61875 0.04125 -1.2375 0.0825 -1.875 0.125 C-2.57625 0.41375 -3.2775 0.7025 -4 1 C-5.3045656 3.99615946 -5.3045656 3.99615946 -6 7 C-5.34 7 -4.68 7 -4 7 C-3.67 6.34 -3.34 5.68 -3 5 C-3.33 6.32 -3.66 7.64 -4 9 C-12.42857143 11.28571429 -12.42857143 11.28571429 -17 11 C-17.6875 8.1875 -17.6875 8.1875 -18 5 C-14.07834767 -0.26260442 -6.03635874 -0.30955686 0 0 Z " fill="#3F4144" transform="translate(24,68)"/>
<path d="M0 0 C3.04172719 -0.0271045 6.08320997 -0.04688964 9.125 -0.0625 C9.9809375 -0.07087891 10.836875 -0.07925781 11.71875 -0.08789062 C16.26678411 -0.10538306 20.52383164 0.06807642 25 1 C25 4.63 25 8.26 25 12 C24.34 11.34 23.68 10.68 23 10 C20.11282395 9.3162387 20.11282395 9.3162387 16.875 8.875 C15.77929688 8.70742187 14.68359375 8.53984375 13.5546875 8.3671875 C12.71164063 8.24601562 11.86859375 8.12484375 11 8 C11.33 7.34 11.66 6.68 12 6 C13.43739513 5.97287934 14.87493863 5.95354933 16.3125 5.9375 C17.51326172 5.92009766 17.51326172 5.92009766 18.73828125 5.90234375 C21 6 21 6 24 7 C24 5.68 24 4.36 24 3 C15.75 3 7.5 3 -1 3 C-0.67 2.01 -0.34 1.02 0 0 Z " fill="#FBFBFB" transform="translate(27,68)"/>
<path d="M0 0 C3.63 0 7.26 0 11 0 C11.33 1.65 11.66 3.3 12 5 C10 7 10 7 7 9 C6.01 8.67 5.02 8.34 4 8 C1.26710707 7.77202438 -1.45042204 7.58331813 -4.1875 7.4375 C-4.93708984 7.39431641 -5.68667969 7.35113281 -6.45898438 7.30664062 C-8.30578375 7.20077315 -10.15286834 7.0999024 -12 7 C-12 6.01 -12 5.02 -12 4 C-5.07 4 1.86 4 9 4 C9 3.34 9 2.68 9 2 C6.36 2 3.72 2 1 2 C0.67 1.34 0.34 0.68 0 0 Z " fill="#A8A4A5" transform="translate(223,91)"/>
<path d="M0 0 C0 0.66 0 1.32 0 2 C0.61875 2.268125 1.2375 2.53625 1.875 2.8125 C4 4 4 4 6 7 C6.1953125 9.26171875 6.1953125 9.26171875 6.125 11.6875 C6.10695312 12.49574219 6.08890625 13.30398437 6.0703125 14.13671875 C6.04710937 14.75160156 6.02390625 15.36648437 6 16 C6.66 16.33 7.32 16.66 8 17 C7.67 17.99 7.34 18.98 7 20 C5.8553125 19.9071875 5.8553125 19.9071875 4.6875 19.8125 C1.52219632 20.03333514 1.01513783 20.69698534 -1 23 C-1.66 23 -2.32 23 -3 23 C-3 21 -3 21 -1.125 19.0625 C-0.42375 18.381875 0.2775 17.70125 1 17 C3.34168764 13.48746854 3.49623677 12.13530644 3 8 C0.84909549 4.66238955 -0.20412799 3.26529067 -4 2 C-10.15841333 1.49521202 -13.03218348 1.97843425 -18 6 C-18.66 6.66 -19.32 7.32 -20 8 C-19.875 5.6875 -19.875 5.6875 -19 3 C-13.58024404 -1.36591452 -6.57846125 -0.26352886 0 0 Z " fill="#2D2D2F" transform="translate(201,83)"/>
<path d="M0 0 C2.31 0.33 4.62 0.66 7 1 C7.96070434 3.88211302 8.10581883 5.69850044 8.0625 8.6875 C8.05347656 9.49574219 8.04445312 10.30398437 8.03515625 11.13671875 C8.02355469 11.75160156 8.01195312 12.36648437 8 13 C5.36 13 2.72 13 0 13 C0 8.71 0 4.42 0 0 Z " fill="#8F2C31" transform="translate(222,65)"/>
<path d="M0 0 C0.33 0 0.66 0 1 0 C1 6.6 1 13.2 1 20 C0.67 20 0.34 20 0 20 C0 16.04 0 12.08 0 8 C-8.25 7.67 -16.5 7.34 -25 7 C-25.66 8.32 -26.32 9.64 -27 11 C-28.29470975 12.37086915 -29.62150897 13.71340837 -31 15 C-31.99 14.67 -32.98 14.34 -34 14 C-33.34 12.02 -32.68 10.04 -32 8 C-30.68 8 -29.36 8 -28 8 C-27.67 7.01 -27.34 6.02 -27 5 C-13.635 5.495 -13.635 5.495 0 6 C0 4.02 0 2.04 0 0 Z " fill="#999A9B" transform="translate(52,61)"/>
<path d="M0 0 C0.33 0 0.66 0 1 0 C1 3.63 1 7.26 1 11 C2.65 11 4.3 11 6 11 C6 12.98 6 14.96 6 17 C4.35 17 2.7 17 1 17 C1.495 20.465 1.495 20.465 2 24 C1.34 24 0.68 24 0 24 C0 21.69 0 19.38 0 17 C-10.23 17 -20.46 17 -31 17 C-31 16.67 -31 16.34 -31 16 C-20.77 16 -10.54 16 0 16 C0 10.72 0 5.44 0 0 Z " fill="#BEBEBE" transform="translate(95,73)"/>
<path d="M0 0 C0.95139197 3.10684065 1.01111621 5.54505121 0.66015625 8.765625 C0.5199707 10.09980469 0.5199707 10.09980469 0.37695312 11.4609375 C0.27318359 12.38132812 0.16941406 13.30171875 0.0625 14.25 C-0.03740234 15.18585937 -0.13730469 16.12171875 -0.24023438 17.0859375 C-0.48724564 19.39137599 -0.74071115 21.69591548 -1 24 C-10.64054559 25.14919535 -10.64054559 25.14919535 -15.375 25.1875 C-16.18710938 25.20167969 -16.99921875 25.21585938 -17.8359375 25.23046875 C-20 25 -20 25 -23 23 C-16.73 23 -10.46 23 -4 23 C-3.34 17.06 -2.68 11.12 -2 5 C-2.99 4.67 -3.98 4.34 -5 4 C-4.01 4 -3.02 4 -2 4 C-2 3.34 -2 2.68 -2 2 C-2.66 1.67 -3.32 1.34 -4 1 C-2.68 0.67 -1.36 0.34 0 0 Z " fill="#4C5153" transform="translate(98,35)"/>
<path d="M0 0 C4.62 0 9.24 0 14 0 C13.67 0.99 13.34 1.98 13 3 C15.97 3.495 15.97 3.495 19 4 C19 4.66 19 5.32 19 6 C18.07767578 6.09087891 18.07767578 6.09087891 17.13671875 6.18359375 C16.32847656 6.26738281 15.52023438 6.35117188 14.6875 6.4375 C13.88699219 6.51871094 13.08648437 6.59992188 12.26171875 6.68359375 C9.83912821 6.95265693 9.83912821 6.95265693 7 8 C7 7.34 7 6.68 7 6 C5.02 6 3.04 6 1 6 C0.67 4.02 0.34 2.04 0 0 Z " fill="#848485" transform="translate(4,93)"/>
<path d="M0 0 C0.97582031 0.00902344 1.95164062 0.01804687 2.95703125 0.02734375 C3.69308594 0.03894531 4.42914062 0.05054687 5.1875 0.0625 C5.1875 0.7225 5.1875 1.3825 5.1875 2.0625 C4.1975 2.0625 3.2075 2.0625 2.1875 2.0625 C2.1875 3.0525 2.1875 4.0425 2.1875 5.0625 C-0.1521669 6.23233345 -1.64641527 6.2286241 -4.25 6.25 C-5.42369141 6.27126953 -5.42369141 6.27126953 -6.62109375 6.29296875 C-8.8125 6.0625 -8.8125 6.0625 -11.8125 4.0625 C-11.4825 3.0725 -11.1525 2.0825 -10.8125 1.0625 C-7.13862505 0.20951624 -3.7677607 -0.04539471 0 0 Z " fill="#232425" transform="translate(13.8125,104.9375)"/>
<path d="M0 0 C1.79093191 -0.08086147 3.58289628 -0.13912702 5.375 -0.1875 C6.87160156 -0.23970703 6.87160156 -0.23970703 8.3984375 -0.29296875 C9.25695313 -0.19628906 10.11546875 -0.09960938 11 0 C13 3 13 3 13 6 C8.71 6 4.42 6 0 6 C0 4.02 0 2.04 0 0 Z " fill="#1D1F21" transform="translate(5,85)"/>
<path d="M0 0 C12.04753921 -0.11902069 23.98181423 0.13826069 36 1 C36 4.33333333 36 7.66666667 36 11 C34.0549 8.08235 33.54723683 6.37462715 33 3 C32.01 3 31.02 3 30 3 C30 4.65 30 6.3 30 8 C28 4.25 28 4.25 28 2 C27.10075806 2.00785522 27.10075806 2.00785522 26.18334961 2.01586914 C23.43474398 2.03681443 20.68615522 2.04971556 17.9375 2.0625 C16.99455078 2.07087891 16.05160156 2.07925781 15.08007812 2.08789062 C9.9369232 2.10581103 5.06741573 1.89259611 0 1 C0 0.67 0 0.34 0 0 Z " fill="#EBEBEB" transform="translate(188,30)"/>
<path d="M0 0 C-0.33 0.66 -0.66 1.32 -1 2 C-1.56976563 1.84015625 -2.13953125 1.6803125 -2.7265625 1.515625 C-9.38113814 0.0063398 -13.98254067 0.92129988 -20 4 C-22.375 3.1875 -22.375 3.1875 -24 2 C-23 -1 -23 -1 -19.5625 -2.8125 C-12.97298603 -5.08801561 -6.13043967 -2.86087185 0 0 Z " fill="#EBEBEC" transform="translate(51,78)"/>
<path d="M0 0 C2 2 2 2 2.25 4.5 C2 7 2 7 0 9 C-2.5 9.25 -2.5 9.25 -5 9 C-7 7 -7 7 -7.125 3.875 C-7.08375 2.92625 -7.0425 1.9775 -7 1 C-4.48718205 -0.25640898 -2.78302919 -0.20872719 0 0 Z " fill="#3F4345" transform="translate(196,90)"/>
<path d="M0 0 C1.485 0.99 1.485 0.99 3 2 C2.67 2.99 2.34 3.98 2 5 C2.73854232 7.63813861 2.73854232 7.63813861 4 10 C7.07194908 11.53597454 9.60244293 11.2265038 13 11 C16.35161246 9.61785878 16.35161246 9.61785878 19 8 C17.98949988 10.66404576 17.02766415 11.97707828 14.8125 13.8125 C11.01834462 15.41447672 8.94131902 15.12609115 5 14 C1.34046259 11.29512453 0.18095983 9.76261643 -0.875 5.3125 C-1 2 -1 2 0 0 Z " fill="#B4B7B7" transform="translate(33,91)"/>
<path d="M0 0 C2.00287872 0.06404554 4.00368415 0.20079319 6 0.375 C7.093125 0.46523437 8.18625 0.55546875 9.3125 0.6484375 C12 1 12 1 13 2 C14.34747084 2.23075082 15.70377565 2.41153063 17.0625 2.5625 C18.361875 2.706875 19.66125 2.85125 21 3 C21 3.66 21 4.32 21 5 C14.07 5 7.14 5 0 5 C-0.33 3.68 -0.66 2.36 -1 1 C-0.67 0.67 -0.34 0.34 0 0 Z " fill="#DFDEDE" transform="translate(211,90)"/>
<path d="M0 0 C1.875 0.5625 1.875 0.5625 4 2 C5.25 5.625 5.25 5.625 6 9 C7.66611905 9.042721 9.33382885 9.04063832 11 9 C12.27556818 7.94775333 12.27556818 7.94775333 12.125 5.5625 C12.17306676 3.01021378 12.17306676 3.01021378 11 1 C11.99 1.33 12.98 1.66 14 2 C15.00023253 5.18255804 15.15774716 6.61439583 13.875 9.75 C12 12 12 12 9.625 13.0625 C5.96992483 12.9754744 4.53378081 11.53378081 2 9 C2 8.34 2 7.68 2 7 C1.34 6.67 0.68 6.34 0 6 C-0.6875 3.5 -0.6875 3.5 -1 1 C-0.67 0.67 -0.34 0.34 0 0 Z " fill="#AEB1B3" transform="translate(185,89)"/>
<path d="M0 0 C0.1875 2.875 0.1875 2.875 0 6 C-3 8 -3 8 -5.0625 7.75 C-7 7 -7 7 -9 5 C-9.125 2.375 -9.125 2.375 -9 0 C-5.93109813 -1.53445094 -3.29905734 -0.54984289 0 0 Z " fill="#484C4E" transform="translate(47,91)"/>
<path d="M0 0 C3.64355647 1.61935843 6.12645605 3.45012726 8 7 C8.1875 10.75 8.1875 10.75 8 14 C6.70020952 11.58610339 5.89628229 9.56784289 5.25 6.875 C4.2581908 3.78059659 4.2581908 3.78059659 1.3125 2.5625 C-2.55926717 1.9050301 -5.20752638 1.9465351 -9 3 C-12.96684337 6.54928091 -13.59196057 9.79749723 -14 15 C-14.33 15 -14.66 15 -15 15 C-15.29033956 11.61915708 -15.43930648 8.37154491 -15 5 C-10.60155048 0.25430446 -6.32031388 -0.68064919 0 0 Z " fill="#0B0D0E" transform="translate(197,84)"/>
<path d="M0 0 C2.41734542 -0.08117951 4.83194949 -0.14056926 7.25 -0.1875 C7.93191406 -0.21263672 8.61382812 -0.23777344 9.31640625 -0.26367188 C12.59199289 -0.31137459 14.65348556 -0.21085076 17.484375 1.51171875 C17.98453125 2.00285156 18.4846875 2.49398437 19 3 C11.7081292 4.49292109 5.35523236 5.44693096 -2 4 C-2.33 3.34 -2.66 2.68 -3 2 C-2.01 2 -1.02 2 0 2 C0 1.34 0 0.68 0 0 Z " fill="#D4D5D5" transform="translate(82,31)"/>
<path d="M0 0 C0.33 0 0.66 0 1 0 C1 1.65 1 3.3 1 5 C1.66 5 2.32 5 3 5 C3.4125 5.639375 3.825 6.27875 4.25 6.9375 C5.89844909 9.26082451 5.89844909 9.26082451 8.9375 9.875 C12.14400107 10.00587759 13.45730966 9.90701775 16 8 C17.26804566 5.9664052 17.26804566 5.9664052 18 4 C18.66 4 19.32 4 20 4 C19.79522646 7.68592365 19.19363947 8.82052927 16.4375 11.375 C12.73619821 13.1247063 10.84454612 13.48737537 6.90234375 12.73828125 C3.27704316 11.33133708 2.00505731 9.32087617 0 6 C-0.3125 2.625 -0.3125 2.625 0 0 Z " fill="#BBBDBF" transform="translate(183,93)"/>
<path d="M0 0 C1.74565111 3.21639654 2.204437 5.32013404 2 9 C2.66 9.33 3.32 9.66 4 10 C4 12.64 4 15.28 4 18 C4.66 18.33 5.32 18.66 6 19 C5.67 20.32 5.34 21.64 5 23 C5.66 23.33 6.32 23.66 7 24 C6.34 25.32 5.68 26.64 5 28 C4.01 27.34 3.02 26.68 2 26 C2 24.16619324 2.03342406 22.33151879 2.125 20.5 C2.20140503 17.74694525 2.20140503 17.74694525 0 15 C-0.14221065 12.39754502 -0.18802932 9.90882316 -0.125 7.3125 C-0.11597656 6.61060547 -0.10695312 5.90871094 -0.09765625 5.18554688 C-0.07413704 3.45688475 -0.03826713 1.72839855 0 0 Z " fill="#D9C9CA" transform="translate(224,41)"/>
<path d="M0 0 C2.64 0 5.28 0 8 0 C8.3690205 13.6332574 8.3690205 13.6332574 6 20 C4 18 4 18 3.98828125 15.1015625 C4.09527344 13.95429687 4.20226562 12.80703125 4.3125 11.625 C4.41175781 10.48289062 4.51101562 9.34078125 4.61328125 8.1640625 C4.9172155 5.67732777 5.30846288 3.39969292 6 1 C4.02 1 2.04 1 0 1 C0 0.67 0 0.34 0 0 Z " fill="#EDF0F1" transform="translate(93,34)"/>
<path d="M0 0 C1.33157895 5.44736842 1.33157895 5.44736842 -0.125 7.875 C-2.53722513 9.32233508 -4.2351335 9.22417836 -7 9 C-8.125 3.25 -8.125 3.25 -7 1 C-4.61370553 0.38812962 -2.46459429 0 0 0 Z " fill="#848689" transform="translate(14,70)"/>
<path d="M0 0 C0.66 0 1.32 0 2 0 C2.33 1.32 2.66 2.64 3 4 C4.98 4 6.96 4 9 4 C8.67 4.99 8.34 5.98 8 7 C3.71 7 -0.58 7 -5 7 C-2 2 -2 2 0 0 Z " fill="#111315" transform="translate(52,54)"/>
<path d="M0 0 C1.5 1.125 1.5 1.125 3 3 C3.1875 6.1875 3.1875 6.1875 3 9 C2.01 9.33 1.02 9.66 0 10 C-0.3721042 11.32303717 -0.70630173 12.65737935 -1 14 C-1.99 14.495 -1.99 14.495 -3 15 C-2.88658363 12.68690295 -2.75896193 10.37449815 -2.625 8.0625 C-2.55539063 6.77472656 -2.48578125 5.48695312 -2.4140625 4.16015625 C-2.27742188 3.11730469 -2.14078125 2.07445313 -2 1 C-1.34 0.67 -0.68 0.34 0 0 Z " fill="#141615" transform="translate(55,88)"/>
<path d="M0 0 C0.99 0.33 1.98 0.66 3 1 C3.309375 1.78375 3.61875 2.5675 3.9375 3.375 C5.17361787 6.42893826 6.08150185 7.49905809 9 9 C11.6433774 9.08805146 11.6433774 9.08805146 14 8 C15.36020151 6.03241727 15.36020151 6.03241727 16 4 C16.66 4 17.32 4 18 4 C17.72776186 7.35760377 17.41629629 8.64317461 14.8125 10.875 C11.33681032 12.26527587 9.55736159 12.08267527 6 11 C4.125 9.5625 4.125 9.5625 3 8 C3 7.34 3 6.68 3 6 C2.34 6 1.68 6 1 6 C0.67 4.02 0.34 2.04 0 0 Z " fill="#404244" transform="translate(183,92)"/>
<path d="M0 0 C1.98 0 3.96 0 6 0 C6 0.66 6 1.32 6 2 C7.65 1.34 9.3 0.68 11 0 C9.65117186 4.04648443 7.65173931 4.95502599 4 7 C3.01 6.67 2.02 6.34 1 6 C1 5.67 1 5.34 1 5 C0.01 5 -0.98 5 -2 5 C-2.33 4.01 -2.66 3.02 -3 2 C-2.01 1.67 -1.02 1.34 0 1 C0 0.67 0 0.34 0 0 Z " fill="#C0C2C3" transform="translate(62,37)"/>
<path d="M0 0 C0 0.66 0 1.32 0 2 C1.32 2.66 2.64 3.32 4 4 C3.67 4.99 3.34 5.98 3 7 C2.1028125 6.0409375 2.1028125 6.0409375 1.1875 5.0625 C-2.1957447 1.87258357 -5.37017433 1.66501081 -9.93359375 1.70703125 C-14.176378 2.30856021 -17.07056945 5.07056945 -20 8 C-19.875 5.6875 -19.875 5.6875 -19 3 C-13.58024404 -1.36591452 -6.57846125 -0.26352886 0 0 Z " fill="#4F5152" transform="translate(201,83)"/>
<path d="M0 0 C0.66 0.33 1.32 0.66 2 1 C-0.44773169 6.20142984 -4.40211381 8.82188865 -9 12 C-9 9.375 -9 9.375 -8 6 C-5.53417612 3.68535771 -2.84145506 1.8252627 0 0 Z " fill="#C8CBCD" transform="translate(63,41)"/>
<path d="M0 0 C3.3 0 6.6 0 10 0 C9.67 1.32 9.34 2.64 9 4 C5.7 4.33 2.4 4.66 -1 5 C-0.67 3.35 -0.34 1.7 0 0 Z " fill="#565656" transform="translate(222,106)"/>
<path d="M0 0 C0.33 0.66 0.66 1.32 1 2 C1.99 2 2.98 2 4 2 C4 2.66 4 3.32 4 4 C-2.27 4 -8.54 4 -15 4 C-15 3.01 -15 2.02 -15 1 C-10.05 1.33 -5.1 1.66 0 2 C0 1.34 0 0.68 0 0 Z " fill="#F0F2F3" transform="translate(18,89)"/>
<path d="M0 0 C-0.33 1.32 -0.66 2.64 -1 4 C-3.64 4.66 -6.28 5.32 -9 6 C-9 4.02 -9 2.04 -9 0 C-5.52176885 -1.15941038 -3.54104422 -0.70820884 0 0 Z " fill="#373E41" transform="translate(84,37)"/>
<path d="M0 0 C2.97 0 5.94 0 9 0 C8.01 0.495 8.01 0.495 7 1 C6.855625 1.66 6.71125 2.32 6.5625 3 C6.376875 3.66 6.19125 4.32 6 5 C2.52176885 6.15941038 0.54104422 5.70820884 -3 5 C-1.68 4.67 -0.36 4.34 1 4 C0.67 2.68 0.34 1.36 0 0 Z " fill="#0F0F0F" transform="translate(215,105)"/>
<path d="M0 0 C1.4540625 0.0309375 1.4540625 0.0309375 2.9375 0.0625 C2.9375 1.7125 2.9375 3.3625 2.9375 5.0625 C-1.5175 5.5575 -1.5175 5.5575 -6.0625 6.0625 C-3.76028481 0.07674051 -3.76028481 0.07674051 0 0 Z " fill="#E1E4E6" transform="translate(61.0625,51.9375)"/>
<path d="M0 0 C0 1.98 0 3.96 0 6 C-5.625 6.25 -5.625 6.25 -9 4 C-8.67 3.01 -8.34 2.02 -8 1 C-5.23735711 0.40267181 -2.83967231 0 0 0 Z " fill="#6A6B6B" transform="translate(11,105)"/>
<path d="M0 0 C0.33 0 0.66 0 1 0 C1.309375 0.969375 1.61875 1.93875 1.9375 2.9375 C2.69523342 5.84065792 2.69523342 5.84065792 4 7 C8.23314767 7.23961213 11.36736489 7.32488647 15 5 C13.25 8.875 13.25 8.875 11 10 C4.78143361 10.57579318 4.78143361 10.57579318 1.625 8.25 C0.03276613 6.04536848 -0.73113753 4.68862471 -1 2 C-0.67 1.34 -0.34 0.68 0 0 Z " fill="#333536" transform="translate(35,93)"/>
<path d="M0 0 C0.33 0.66 0.66 1.32 1 2 C-0.32 1.67 -1.64 1.34 -3 1 C-3 1.66 -3 2.32 -3 3 C-3.78375 3.144375 -4.5675 3.28875 -5.375 3.4375 C-7.96421018 3.87798925 -7.96421018 3.87798925 -10 5 C-10.66 4.67 -11.32 4.34 -12 4 C-11.1875 2.0625 -11.1875 2.0625 -10 0 C-6.26840331 -1.24386556 -3.81984796 -0.77811718 0 0 Z " fill="#575A5B" transform="translate(198,86)"/>
<path d="M0 0 C4.29 0 8.58 0 13 0 C12.67 0.99 12.34 1.98 12 3 C8.37 3 4.74 3 1 3 C0.67 2.01 0.34 1.02 0 0 Z " fill="#444648" transform="translate(5,93)"/>
<path d="M0 0 C3.63 0 7.26 0 11 0 C10.01 0.495 10.01 0.495 9 1 C9 1.99 9 2.98 9 4 C2.25 4.125 2.25 4.125 0 3 C0 2.01 0 1.02 0 0 Z " fill="#101112" transform="translate(5,85)"/>
<path d="M0 0 C0.33 0 0.66 0 1 0 C1 2.31 1 4.62 1 7 C2.1446875 7.37125 2.1446875 7.37125 3.3125 7.75 C6.2364045 9.10995558 7.30004356 10.31585826 9 13 C8.34 13.66 7.68 14.32 7 15 C6.5875 14.360625 6.175 13.72125 5.75 13.0625 C3.99276136 10.58535424 3.99276136 10.58535424 0 10 C0 6.7 0 3.4 0 0 Z " fill="#F5F6F6" transform="translate(53,71)"/>
<path d="M0 0 C2.31 0.33 4.62 0.66 7 1 C6.34 1.66 5.68 2.32 5 3 C5.33 3.66 5.66 4.32 6 5 C5.34 5 4.68 5 4 5 C4 6.32 4 7.64 4 9 C3.01 8.67 2.02 8.34 1 8 C0.67 5.36 0.34 2.72 0 0 Z " fill="#BD3437" transform="translate(222,65)"/>
<path d="M0 0 C3.3 0 6.6 0 10 0 C10 3.33333333 10 6.66666667 10 10 C8.0549 7.08235 7.54723683 5.37462715 7 2 C6.01 2 5.02 2 4 2 C4 3.65 4 5.3 4 7 C2 3.25 2 3.25 2 1 C1.34 0.67 0.68 0.34 0 0 Z " fill="#D9D9D9" transform="translate(214,31)"/>
<path d="M0 0 C6.73742646 -0.11044961 13.29980211 0.29867087 20 1 C19.67 1.99 19.34 2.98 19 4 C18.01 3.67 17.02 3.34 16 3 C13.26710707 2.77202438 10.54957796 2.58331813 7.8125 2.4375 C7.06291016 2.39431641 6.31332031 2.35113281 5.54101562 2.30664062 C3.69421625 2.20077315 1.84713166 2.0999024 0 2 C0 1.34 0 0.68 0 0 Z " fill="#9C9C9C" transform="translate(211,96)"/>
<path d="M0 0 C3.72408792 0.94881221 5.1446887 2.6240328 7.453125 5.625 C7.123125 6.285 6.793125 6.945 6.453125 7.625 C5.669375 6.985625 4.885625 6.34625 4.078125 5.6875 C0.60914106 2.96186976 -1.34277774 2.45100873 -5.671875 2.0625 C-6.58195312 1.97871094 -7.49203125 1.89492187 -8.4296875 1.80859375 C-9.12835938 1.74800781 -9.82703125 1.68742187 -10.546875 1.625 C-6.65261179 -0.97117547 -4.51077928 -0.52757652 0 0 Z " fill="#47494A" transform="translate(47.546875,82.375)"/>
<path d="M0 0 C1.98 0 3.96 0 6 0 C6 0.66 6 1.32 6 2 C6.66 2.33 7.32 2.66 8 3 C8 3.66 8 4.32 8 5 C5.36 5.33 2.72 5.66 0 6 C0 4.02 0 2.04 0 0 Z " fill="#EAEBEB" transform="translate(53,61)"/>
<path d="M0 0 C0.66 1.32 1.32 2.64 2 4 C-0.75 4.6875 -0.75 4.6875 -4 5 C-6.375 3.5625 -6.375 3.5625 -8 2 C-4.77208445 -0.1519437 -3.71599191 -0.20086443 0 0 Z " fill="#C7C9C8" transform="translate(65,60)"/>
<path d="M0 0 C0.66 0 1.32 0 2 0 C2.515625 0.804375 3.03125 1.60875 3.5625 2.4375 C6.702379 5.73839843 8.77601238 5.69469751 13.171875 5.95703125 C13.77515625 5.97121094 14.3784375 5.98539062 15 6 C15 6.66 15 7.32 15 8 C7.06666667 8.62222222 7.06666667 8.62222222 3 6.25 C1.04170446 4.04691751 0.30974383 2.89094238 0 0 Z " fill="#333436" transform="translate(182,99)"/>
<path d="M0 0 C0.99 0.33 1.98 0.66 3 1 C1.60869565 5.17391304 1.60869565 5.17391304 -1 7 C-4.6875 7.1875 -4.6875 7.1875 -8 7 C-5.51047079 4.33264727 -3.36591866 2.44253657 0 1 C0 0.67 0 0.34 0 0 Z " fill="#C5C7C7" transform="translate(44,50)"/>
<path d="M0 0 C0.66 0.66 1.32 1.32 2 2 C0.35 3.98 -1.3 5.96 -3 8 C-4.32 7.34 -5.64 6.68 -7 6 C-4.69 4.02 -2.38 2.04 0 0 Z " fill="#F6F8F9" transform="translate(53,49)"/>
<path d="M0 0 C-0.33 1.32 -0.66 2.64 -1 4 C-2.875 4.625 -2.875 4.625 -5 5 C-5.66 4.34 -6.32 3.68 -7 3 C-7 2.01 -7 1.02 -7 0 C-4.3333581 -1.33332095 -2.83319697 -0.67102033 0 0 Z " fill="#181A1C" transform="translate(46,94)"/>
<path d="M0 0 C0.99 0.33 1.98 0.66 3 1 C4.00023253 4.18255804 4.15774716 5.61439583 2.875 8.75 C1 11 1 11 -1.5625 11.9375 C-2.366875 11.958125 -3.17125 11.97875 -4 12 C-4.66 11.34 -5.32 10.68 -6 10 C-4.02 10 -2.04 10 0 10 C0.185625 8.72125 0.37125 7.4425 0.5625 6.125 C0.66691406 5.40570313 0.77132812 4.68640625 0.87890625 3.9453125 C1.1684297 1.91859333 1.1684297 1.91859333 0 0 Z " fill="#D8DADC" transform="translate(196,90)"/>
<path d="M0 0 C0.66 0.33 1.32 0.66 2 1 C2.4140625 3.72265625 2.4140625 3.72265625 2.625 7.0625 C2.69976562 8.16722656 2.77453125 9.27195312 2.8515625 10.41015625 C2.90054688 11.26480469 2.94953125 12.11945313 3 13 C0 11 0 11 -0.546875 8.65234375 C-0.61390625 7.75644531 -0.6809375 6.86054687 -0.75 5.9375 C-0.82734375 5.03902344 -0.9046875 4.14054687 -0.984375 3.21484375 C-0.98953125 2.48394531 -0.9946875 1.75304687 -1 1 C-0.67 0.67 -0.34 0.34 0 0 Z " fill="#191A1C" transform="translate(180,90)"/>
<path d="M0 0 C0.33 0.66 0.66 1.32 1 2 C0.67 2.66 0.34 3.32 0 4 C-0.99 4 -1.98 4 -3 4 C-3.33 4.99 -3.66 5.98 -4 7 C-4.66 7 -5.32 7 -6 7 C-6 7.66 -6 8.32 -6 9 C-7.32 8.67 -8.64 8.34 -10 8 C-8.71064081 6.85157077 -7.41843421 5.70633773 -6.125 4.5625 C-5.04605469 3.60537109 -5.04605469 3.60537109 -3.9453125 2.62890625 C-2 1 -2 1 0 0 Z " fill="#9EA6A8" transform="translate(70,42)"/>
<path d="M0 0 C0.66 0.66 1.32 1.32 2 2 C1.01 3.485 1.01 3.485 0 5 C0.66 5.66 1.32 6.32 2 7 C-2.455 7.495 -2.455 7.495 -7 8 C-4.375 3.125 -4.375 3.125 -1 2 C-0.67 1.34 -0.34 0.68 0 0 Z " fill="#F0F0F1" transform="translate(16,62)"/>
<path d="M0 0 C1.65 0 3.3 0 5 0 C5 2.31 5 4.62 5 7 C3.68 6.67 2.36 6.34 1 6 C0.67 4.02 0.34 2.04 0 0 Z " fill="#DFE2E1" transform="translate(96,90)"/>
<path d="M0 0 C1.74565111 3.21639654 2.204437 5.32013404 2 9 C2.66 9.33 3.32 9.66 4 10 C3.67 10.33 3.34 10.66 3 11 C2.63239269 13.32817964 2.29758419 15.6618385 2 18 C-0.45391569 14.31912647 -0.22802759 11.55644412 -0.125 7.3125 C-0.11597656 6.61060547 -0.10695312 5.90871094 -0.09765625 5.18554688 C-0.07413704 3.45688475 -0.03826713 1.72839855 0 0 Z " fill="#E0E0E0" transform="translate(224,41)"/>
<path d="M0 0 C0.8971875 0.5259375 0.8971875 0.5259375 1.8125 1.0625 C-2.41699995 3.47935712 -5.31085991 4.41083144 -10.1875 4.0625 C-3.5320122 -1.51371951 -3.5320122 -1.51371951 0 0 Z " fill="#E3E4E3" transform="translate(74.1875,32.9375)"/>
<path d="M0 0 C0.33 0 0.66 0 1 0 C1 2.64 1 5.28 1 8 C2.32 8 3.64 8 5 8 C5.33 8.99 5.66 9.98 6 11 C4.02 11 2.04 11 0 11 C0 7.37 0 3.74 0 0 Z " fill="#5E1011" transform="translate(222,67)"/>
<path d="M0 0 C-0.9590625 0.1546875 -0.9590625 0.1546875 -1.9375 0.3125 C-2.618125 0.539375 -3.29875 0.76625 -4 1 C-4.33 1.99 -4.66 2.98 -5 4 C-6.093125 3.814375 -7.18625 3.62875 -8.3125 3.4375 C-11.93624133 2.7421932 -11.93624133 2.7421932 -15 4 C-15 3.34 -15 2.68 -15 2 C-9.92523206 0.73694665 -5.27203646 -0.27036084 0 0 Z " fill="#4A4D50" transform="translate(24,68)"/>
<path d="M0 0 C0.33 1.32 0.66 2.64 1 4 C-2.75 7 -2.75 7 -5 7 C-4.625 4.0625 -4.625 4.0625 -4 1 C-2 0 -2 0 0 0 Z " fill="#5D6768" transform="translate(75,40)"/>
<path d="M0 0 C0.99 0.33 1.98 0.66 3 1 C4.0625 3.375 4.0625 3.375 5 6 C5.99 7.485 5.99 7.485 7 9 C5.68 8.67 4.36 8.34 3 8 C3 7.34 3 6.68 3 6 C2.34 6 1.68 6 1 6 C0.67 4.02 0.34 2.04 0 0 Z " fill="#4A4C4E" transform="translate(183,92)"/>
<path d="M0 0 C2.97 0 5.94 0 9 0 C9.33 0.99 9.66 1.98 10 3 C8.5199159 2.88637738 7.04089926 2.75877092 5.5625 2.625 C4.73878906 2.55539063 3.91507813 2.48578125 3.06640625 2.4140625 C2.38449219 2.27742188 1.70257813 2.14078125 1 2 C0.67 1.34 0.34 0.68 0 0 Z " fill="#282728" transform="translate(14,99)"/>
<path d="M0 0 C0.99 0 1.98 0 3 0 C3.33 0.99 3.66 1.98 4 3 C3.67 3.66 3.34 4.32 3 5 C1.68 5 0.36 5 -1 5 C-0.67 3.35 -0.34 1.7 0 0 Z " fill="#181B1C" transform="translate(192,94)"/>
<path d="M0 0 C0.66 0.33 1.32 0.66 2 1 C2 2.98 2 4.96 2 7 C1.01 6.67 0.02 6.34 -1 6 C-1.33 4.35 -1.66 2.7 -2 1 C-1.34 0.67 -0.68 0.34 0 0 Z " fill="#222222" transform="translate(55,88)"/>
<path d="M0 0 C1.65 0 3.3 0 5 0 C5 1.32 5 2.64 5 4 C3.35 4 1.7 4 0 4 C0 2.68 0 1.36 0 0 Z " fill="#E7E8E8" transform="translate(96,85)"/>
<path d="M0 0 C0.1875 2.375 0.1875 2.375 0 5 C-0.99 5.66 -1.98 6.32 -3 7 C-3 5.35 -3 3.7 -3 2 C-3.99 1.67 -4.98 1.34 -6 1 C-3.92446352 0.4465236 -2.15634036 0 0 0 Z " fill="#66696A" transform="translate(198,92)"/>
<path d="M0 0 C3 1 3 1 4.1875 3.0625 C4.455625 3.701875 4.72375 4.34125 5 5 C2.69 5.33 0.38 5.66 -2 6 C-1.67 5.34 -1.34 4.68 -1 4 C-0.34 4 0.32 4 1 4 C0.67 2.68 0.34 1.36 0 0 Z " fill="#545A5B" transform="translate(70,53)"/>
<path d="M0 0 C0.66 0.33 1.32 0.66 2 1 C1.25 2.9375 1.25 2.9375 0 5 C-2 5.6875 -2 5.6875 -4 6 C-4.99 6.495 -4.99 6.495 -6 7 C-4.60667426 3.63279613 -3.0210714 2.0140476 0 0 Z " fill="#F1F3F4" transform="translate(63,41)"/>
<path d="M0 0 C1.485 0.99 1.485 0.99 3 2 C2.67 3.65 2.34 5.3 2 7 C1.01 7 0.02 7 -1 7 C-0.67 4.69 -0.34 2.38 0 0 Z " fill="#8B8D8E" transform="translate(33,91)"/>
<path d="M0 0 C2.64 0 5.28 0 8 0 C8 0.99 8 1.98 8 3 C6.35 3 4.7 3 3 3 C3 2.34 3 1.68 3 1 C2.01 0.67 1.02 0.34 0 0 Z " fill="#E3E4E6" transform="translate(88,59)"/>
<path d="M0 0 C0 1.65 0 3.3 0 5 C-1.32 5.33 -2.64 5.66 -4 6 C-4 3 -4 3 -2.5625 1.3125 C-1 0 -1 0 0 0 Z " fill="#424347" transform="translate(53,54)"/>
<path d="M0 0 C0.598125 0.20625 1.19625 0.4125 1.8125 0.625 C0.8225 0.625 -0.1675 0.625 -1.1875 0.625 C-1.5175 1.615 -1.8475 2.605 -2.1875 3.625 C-4.25 4.8125 -4.25 4.8125 -6.1875 5.625 C-5.875 3.75 -5.875 3.75 -5.1875 1.625 C-2.1875 -0.375 -2.1875 -0.375 0 0 Z " fill="#2C2E2E" transform="translate(38.1875,82.375)"/>
<path d="M0 0 C0.66 0.33 1.32 0.66 2 1 C0.68 2.65 -0.64 4.3 -2 6 C-2.66 5.01 -3.32 4.02 -4 3 C-3 1 -3 1 0 0 Z " fill="#F6F6F6" transform="translate(31,76)"/>
<path d="M0 0 C-0.66 0 -1.32 0 -2 0 C-2 0.66 -2 1.32 -2 2 C-3.98 2.66 -5.96 3.32 -8 4 C-8.33 3.34 -8.66 2.68 -9 2 C-3.375 -1.125 -3.375 -1.125 0 0 Z " fill="#CCCCCC" transform="translate(38,62)"/>
<path d="" fill="#CCCCCC" transform="translate(0,0)"/>
<path d="" fill="#FCFBFC" transform="translate(0,0)"/>
<path d="" fill="#BDBDBD" transform="translate(0,0)"/>
<path d="" fill="#F9F9F9" transform="translate(0,0)"/>
<path d="" fill="#FFFFFF" transform="translate(0,0)"/>
<path d="" fill="#FFFFFF" transform="translate(0,0)"/>
<path d="" fill="#FFFFFF" transform="translate(0,0)"/>
<path d="" fill="#FEFEFE" transform="translate(0,0)"/>
<path d="" fill="#F8F8F8" transform="translate(0,0)"/>
<path d="" fill="#FEFEFC" transform="translate(0,0)"/>
<path d="" fill="#FEFEFE" transform="translate(0,0)"/>
<path d="" fill="#FEFEFE" transform="translate(0,0)"/>
<path d="" fill="#FEFEFE" transform="translate(0,0)"/>
<path d="" fill="#FFFFFF" transform="translate(0,0)"/>
<path d="" fill="#FFFFFE" transform="translate(0,0)"/>
<path d="" fill="#FFFFFF" transform="translate(0,0)"/>
<path d="" fill="#FFFFFD" transform="translate(0,0)"/>
<path d="" fill="#F8FAF9" transform="translate(0,0)"/>
<path d="" fill="#FAFCFE" transform="translate(0,0)"/>
<path d="" fill="#FDFFFF" transform="translate(0,0)"/>
<path d="" fill="#FDFBFC" transform="translate(0,0)"/>
<path d="" fill="#FFFFFF" transform="translate(0,0)"/>
<path d="" fill="#FAFCFC" transform="translate(0,0)"/>
<path d="" fill="#FFFFFF" transform="translate(0,0)"/>
</svg>
