<svg xmlns="http://www.w3.org/2000/svg" width="240" height="146"><path fill="#EAEAEA" d="m122.516 29.867 7.186-.003q7.473-.002 14.945.006 9.51.006 19.018-.004 7.4-.005 14.8 0l7.008-.002c12.88-.01 25.68.168 38.527 1.136v3c.476 2.747 1.02 5.477 1.563 8.21.415 2.653.515 5.112.437 7.79l2 1v8l2 1-1 4 2 1-1 13 2 1-.07 2.047-.055 2.703-.07 2.672c.207 2.732.858 4.22 2.195 6.578l1 3c-3.343 3.343-5.488 4.254-10.105 4.414l-2.979.117-3.103.094-3.14.117q-3.836.141-7.673.258l-1 3 25 2-1 4c-10.397.974-20.662 1.072-31.096.96-7.173-.045-14.22.242-21.37.809-6.155.403-12.305.378-18.471.356l-2.03-.003c-8.688-.013-17.354-.189-26.033-.622-21.593-1.074-43.163-.329-64.759.348-2.749.085-5.49.152-8.241.152v-2l-3.45.092q-6.435.17-12.87.335l-5.534.146c-5.252.14-10.503.269-15.755.377q-2.31.048-4.621.104c-1.962.045-3.925.074-5.887.102l-3.261.057C5 111 5 111 2 109l1-3c3.311-.724 6.478-1.164 9.863-1.316l2.686-.127 2.764-.12 2.822-.13q3.432-.159 6.865-.307v-2l-17-1v-2H5l-2-9h2l-1-2c-.219-5.793-.065-10.952 3-16l2-1c1.306-2.305 2.159-4.476 3-7h3a405 405 0 0 0 3-3c2.305-1.133 2.305-1.133 4.875-2.125l2.555-1.008c2.533-.854 4.922-1.499 7.57-1.867l2 1 1-2c1.813-1 1.813-1 4-2 4.77-2.12 4.77-2.12 8-6l3-1 1-2 3-1a125 125 0 0 0 4-3l3-2 2.125-1.937c6.423-4.609 13.61-5.537 21.343-5.742l2.732-.1c11.435-.378 22.876-.365 34.316-.354M63 100l-2 3c2.89 2.89 10.956 1.457 15 1.563l2.29.064c31.22.841 62.483.456 93.71.373v-3c-2.419-2.419-2.983-2.252-6.29-2.26l-2.727-.022-3 .007-3.154-.015c-3.454-.014-6.907-.013-10.36-.01l-7.174-.014q-7.525-.01-15.051-.002a4295 4295 0 0 1-19.33-.034c-4.94-.015-9.88-.016-14.819-.013q-3.564 0-7.129-.015a1380 1380 0 0 0-9.948.006l-3.001-.023-2.728.02h-2.377z"/><path fill="#EEEDEE" d="M97 30q21.073-.035 42.146-.052 9.788-.007 19.574-.023 9.464-.016 18.927-.02 3.593-.003 7.184-.01C197.927 29.864 210.939 30 224 31v3c.476 2.747 1.02 5.477 1.563 8.21.415 2.653.515 5.112.437 7.79l2 1v8l2 1-1 4 2 1-1 13 2 1-.07 2.047-.055 2.703-.07 2.672c.207 2.732.858 4.22 2.195 6.578l1 3c-2 2-2 2-5 4l-3-1c-2.733-.228-5.45-.417-8.187-.562l-2.272-.131q-2.77-.158-5.541-.307l-.297-1.758C209.707 91.04 208.588 87.073 205 83c-5.493-3.296-10.67-3.755-17-3-5.18 1.759-7.979 4.468-11 9l-2 9H95l2-1-1-7h6V34l2 1c2.525 0 5.05-.06 7.575-.097q16.65-.246 33.301-.45 9.225-.112 18.449-.252 8.901-.135 17.802-.233 3.401-.042 6.802-.1c3.166-.053 6.33-.087 9.497-.117l2.863-.06 2.605-.014 2.27-.03L207 34c1.945 2.918 2.453 4.625 3 8q.061-3.5 0-7c-1.22-1.449-1.22-1.449-4.865-1.114q-2.655 0-5.31.016l-2.923.005q-3.159.006-6.317.018-5.024.019-10.047.024c-8.336.013-16.672.037-25.008.061q-10.523.03-21.044.046-4.903.01-9.808.032C112.417 34.118 100.236 33.8 88 33v-1h9z"/><path fill="#FDFDFD" d="m97 30 1 2 2.819-.214c10.865-.76 21.667-.942 32.556-.911l2.753.003c26.627.03 53.251.592 79.872 1.122l1.454 5.782.818 3.253a127 127 0 0 1 1.916 9.153l.48 2.73C221.1 56.924 221 60.971 221 65H102V34l2 1c2.525 0 5.05-.06 7.575-.097q16.65-.246 33.301-.45 9.225-.112 18.449-.252 8.901-.135 17.802-.233 3.401-.042 6.802-.1c3.166-.053 6.33-.087 9.497-.117l2.863-.06 2.605-.014 2.27-.03L207 34c1.945 2.918 2.453 4.625 3 8q.061-3.5 0-7c-1.22-1.449-1.22-1.449-4.865-1.114q-2.655 0-5.31.016l-2.923.005q-3.159.006-6.317.018-5.024.019-10.047.024c-8.336.013-16.672.037-25.008.061q-10.523.03-21.044.046-4.903.01-9.808.032C112.417 34.118 100.236 33.8 88 33v-1h9z"/><path fill="#0D0E0E" d="M52.21 79.953C56.729 82.596 59.655 86.983 61 92c.027 2.333.03 4.667 0 7l2.406-.038q15.203-.24 30.407-.462l2.443-.036c26.25-.385 52.492-.612 78.744-.464l.104-1.813c.567-7.096 2.532-10.47 7.896-15.187 4.412-2.862 9.904-2.62 15-2 4.46 1.342 7.312 3.241 10.438 6.688 2 4.24 2.279 7.642 2.562 12.312h16c-3.02 3.02-6.564 2.467-10.625 2.625l-2.43.117c-1.981.095-3.963.177-5.945.258l-1 3 25 2-1 4c-10.397.974-20.662 1.072-31.096.96-7.173-.045-14.22.242-21.37.809-6.155.403-12.305.378-18.471.356l-2.03-.003c-8.688-.013-17.354-.189-26.033-.622-21.593-1.074-43.163-.329-64.759.348-2.749.085-5.49.152-8.241.152v-2l-3.45.092q-6.435.17-12.87.335l-5.534.146c-5.252.14-10.503.269-15.755.377q-2.31.048-4.621.104c-1.962.045-3.925.074-5.887.102l-3.261.057C5 111 5 111 2 109l1-3c3.311-.724 6.478-1.164 9.863-1.316l2.686-.127 2.764-.12 2.822-.13q3.432-.159 6.865-.307v-2l-2.809-.148-3.628-.227c-1.195-.07-2.39-.14-3.622-.21-.97-.138-1.94-.274-2.941-.415l-1-2h10l-.187-3.625c.035-5.005 1.24-8.41 4.84-12.043 7.045-6.27 14.824-7.067 23.558-3.379M63 100l-2 3c2.89 2.89 10.956 1.457 15 1.563l2.29.064c31.22.841 62.483.456 93.71.373v-3c-2.419-2.419-2.983-2.252-6.29-2.26l-2.727-.022-3 .007-3.154-.015c-3.454-.014-6.907-.013-10.36-.01l-7.174-.014q-7.525-.01-15.051-.002a4295 4295 0 0 1-19.33-.034c-4.94-.015-9.88-.016-14.819-.013q-3.564 0-7.129-.015a1380 1380 0 0 0-9.948.006l-3.001-.023-2.728.02h-2.377z"/><path fill="#DCDCDD" d="m99 35-2 24c-5.913.657-11.618 1.179-17.535 1.316l-2.316.063q-3.606.096-7.212.184l-4.935.13q-6 .159-12.002.307v20l-7-2c-5.669-.698-10.174-.29-15 3-5.411 4.92-6.152 9.887-7 17l-2.082.184-2.73.254c-.894.08-1.787.162-2.708.246-2.607.25-2.607.25-5.48 1.316v-2H5l-2-9h2l-1-2c-.216-5.725-.135-11.05 3-16 3.3-3.068 6.15-3.573 10.563-4.125 3.323-.43 6.256-.815 9.437-1.875 1.92-.016 3.843.033 5.762.121l3.388.147 3.538.17 3.572.158q4.37.194 8.74.404v-6h-5c2.394-4.669 5.549-7.561 9.5-10.875l1.872-1.587c7.415-6.178 14.838-12.207 24.69-13.1l2.66-.254C90.143 34.936 94.575 35 99 35"/><path fill="#E9E9E9" d="M93 34h8v50h-5l-1 8-32 1-1 5h-1l-.297-1.758C59.508 90.002 57.581 85.582 53 81c-.227-2.063-.227-2.063-.195-4.57l.02-2.715.05-2.84.027-2.863Q52.938 64.505 53 61c5.283-.86 10.43-1.2 15.777-1.316l2.459-.063q3.85-.096 7.701-.184l5.252-.13Q90.594 59.147 97 59l-.035-2.388c-.048-5.565-.01-10.874 1.035-16.362l.563-3.047L99 35h-6z"/><path fill="#0A0B0B" d="M202.375 80.625c3.738 2.167 5.755 4.41 7.625 8.375.58 3.033.812 5.904 1 9h16c-3.02 3.02-6.564 2.467-10.625 2.625l-2.43.117c-1.981.095-3.963.177-5.945.258v2l-2.312-.187c-3.191.222-3.65.87-5.688 3.187-4.924 1.641-9.591 2.184-14.367-.164-3.984-2.765-3.984-2.765-5.633-4.836-.215-2.707-.215-2.707 0-5h-2c-1.473-2.34-2.031-3.62-1.8-6.41.97-3.137 2.165-4.262 4.675-6.34l2.117-1.797c5.497-3.978 13.391-3.537 19.383-.828"/><path fill="#0C0D0D" d="M52.203 79.934C55.253 81.744 56.96 84.129 59 87l-2 1-2-1-1 3-2.375-1.937c-4.156-3.266-6.945-3.456-12.137-3.418-2.793.197-2.793.197-5.613 2.668-2.161 2.55-2.161 2.55-1.875 5.687l1.188-2.312C35.277 87.59 36.532 86.388 40 85c2.888-.252 5.27.015 8 1 3.533 3.091 4.829 4.915 5.563 9.563-.655 3.998-1.768 5.562-4.563 8.437l-1.25 1.813c-2.993 2.03-6.31 1.696-9.75 1.187a100 100 0 0 1-6-3h-4v-2l-2.809-.148-3.628-.227c-1.195-.07-2.39-.14-3.622-.21-.97-.138-1.94-.274-2.941-.415l-1-2h10l-.187-3.625c.035-5.005 1.24-8.41 4.84-12.043 7.064-6.288 14.788-7.026 23.55-3.398"/><path fill="#E7E7E8" d="M93 34h8v36l-5 2v-2l-1.917.092C80.712 70.72 67.386 71.152 54 71v7l2.313.75C59.236 80.11 60.3 81.316 62 84l-2 2-1.25-1.937C56.993 81.585 56.993 81.585 53 81V61c7.875-1.125 7.875-1.125 11.191-1.205l2.243-.06 2.343-.051 2.459-.063q3.85-.096 7.701-.184l5.252-.13Q90.594 59.147 97 59l-.035-2.388c-.048-5.565-.01-10.874 1.035-16.362l.563-3.047L99 35h-6z"/><path fill="#CED6D7" d="M75 40v3l3.188-1.5C83.978 39.278 89.895 39.749 96 40q-.211 3.938-.437 7.875l-.12 2.262c-.33 5.636-.33 5.636-1.443 7.863-3.064.135-6.122.234-9.187.313l-2.62.126c-6.339.122-6.339.122-8.922-1.574C71.887 55.48 71.887 55.48 70 53l2 5h-3v-4l-1.937 1.438C63.078 57.47 59.415 57.72 55 58c2.147-6.833 12.514-18 20-18"/><path fill="#C2C2C2" d="M101 34h1v55h71v1h-71v7h-1v-7h-5l1 7 35 1v1H61l2-7h32v-2H64v-1h31V73h1v11h5l-1-12-3-1 4-1v-3H63v-1h38z"/><path fill="#D5D5D5" d="M174 89c2 3 2 3 1 9H95l2-1-1-7h5l1 2 71-1z"/><path fill="#FDFCFD" d="m187.375 65.938 2.526.002q15.55.018 31.099.06l-1 4H103v19h-1V67c28.462-.83 56.903-1.092 85.375-1.062"/><path fill="#F2F2F2" d="m63 41 2 1c-2.389 4.717-5.585 7.446-9.625 10.688C51.117 55.853 51.117 55.853 48 60l4 1v6c-.781-.01-1.563-.02-2.367-.032-3.565-.042-7.13-.067-10.696-.093l-3.724-.05C29.03 66.79 23.833 66.951 18 69a79 79 0 0 1-4.937.625l-2.34.227L9 70c2.625-4.875 2.625-4.875 6-6l1.383-1.43c2.004-1.946 3.892-2.691 6.492-3.695l2.555-1.008c2.533-.854 4.922-1.499 7.57-1.867l2 1 1-2v2c6.742.221 9.664-1.125 14.625-5.75l2.777-2.727C56.411 45.601 59.52 43.32 63 41"/><path fill="#E8E8E8" d="m222 65 7 1c.96 2.882 1.106 4.699 1.063 7.688l-.028 2.449L230 78l2 1-.07 2.047-.055 2.703-.07 2.672c.207 2.732.858 4.22 2.195 6.578l1 3c-2 2-2 2-5 4l-3-1c-2.733-.228-5.45-.417-8.187-.562l-2.272-.131q-2.77-.158-5.541-.307l-2-10h13v-9h2l-2-1z"/><path fill="#303538" d="m99 35-2 24c-5.282.587-10.283 1.131-15.547 1.316l-3.562.127-3.641.12-3.594.13A578 578 0 0 1 47 61c1.726-3.048 3.312-5.575 5.969-7.867l1.715-1.485 1.816-1.523 1.872-1.587c7.415-6.178 14.838-12.207 24.69-13.1l2.66-.254C90.143 34.936 94.575 35 99 35M62 48a91 91 0 0 0-7 8l1 2c5.196-.44 8.663-.883 13-4v4l3-1-2-4 1.887 2.48c2.492 2.492 4.264 2.9 7.758 3.008q2.585-.05 5.168-.175l2.677-.069c2.17-.059 4.34-.148 6.51-.244 1.405-6.12 2.233-11.717 2-18-7.728-.318-13.94-.323-21 3v-3c-4.725 0-9.48 5.138-13 8"/><path fill="#E5E5E5" d="m33.9 67.336 2.538.164 2.525.07c4.418.154 8.69.582 13.037 1.43v11l-2.437-.5C42.74 78.543 36.933 77.955 31 82c-1.835 1.911-3.382 3.888-5 6l-2 2c-2.125-.375-2.125-.375-4-1 1.375-2.5 1.375-2.5 3-5h2c.262-3.146.248-4.618-1.5-7.312L22 75c3.263-5.926 5.067-7.816 11.9-7.664"/><path fill="#C4C6C8" d="M48 86c3.533 3.091 4.829 4.915 5.563 9.563-.77 4.705-2.63 6.97-6.376 9.812-3.406.973-5.78.522-9.187-.375-3.543-2.619-4.787-4.253-6-8.5 0-3.981.47-5.465 3-8.5 4.102-3.516 8.029-3.794 13-2"/><path fill="#7A7D7E" d="M198 86c3.21 2.443 4.699 4.115 6 7.938 0 3.872-.857 5.848-3 9.062-2.938 2.602-5.167 3.25-9 3.063-3.425-.604-4.2-1.238-7-3.688-2.361-3.985-2.813-5.824-2-10.375 3.806-6.454 7.827-7.731 15-6"/><path fill="#FCFBFC" d="M82.625 66.938q2.677.008 5.355.013 6.51.017 13.02.049v3l-5 2v-2l-1.917.092C80.712 70.72 67.386 71.152 54 71v7l2.313.75C59.236 80.11 60.3 81.316 62 84l-2 2-1.25-1.937C56.993 81.585 56.993 81.585 53 81V68c9.863-1.297 19.698-1.111 29.625-1.062"/><path fill="#F5F5F5" d="m35 55 1 2h7c-2.407 2.727-4.925 4.12-8.187 5.688l-2.731 1.324L30 65l1 2-2.562-.125C24.654 67.013 21.633 67.953 18 69c-2.992.435-5.988.74-9 1 2.625-4.875 2.625-4.875 6-6l1.383-1.43c2.004-1.946 3.892-2.691 6.492-3.695l2.555-1.008c2.533-.854 4.922-1.499 7.57-1.867l2 1z"/><path fill="#F9F9FA" d="M93 34h8v32H70v-1l25-1-7-1v-4h9l-.07-2.203C96.795 49.31 97.543 42.338 99 35h-6z"/><path fill="#131314" d="M190 79c6.33-.452 10.758.269 16 4 4.283 4.723 4.628 8.863 5 15h16c-2 2-2 2-5.625 2.23a316 316 0 0 1-4.375-.043l-2.234-.001c-5.485-.045-5.485-.045-7.766-1.186-.238-1.89-.238-1.89-.312-4.25-.32-3.872-.548-4.59-3.25-7.687L201 85v-2q-3.126.213-6.25.438c-1.16.08-2.32.162-3.516.246-2.544.248-4.794.597-7.234 1.316 1.375-1.5 1.375-1.5 3-3h2z"/><path fill="#A5A8A9" d="M62 37h6v2l5-2c-1.349 4.046-3.348 4.955-7 7l-3-1c-4.179 1.393-7.41 4.727-10.687 7.563l-1.8 1.537c-2.82 2.38-2.82 2.38-5.513 4.9-1.52.072-3.042.084-4.562.063l-2.504-.028L36 57c2.51-2.69 4.653-4.489 8-6 3.041-1.67 3.041-1.67 4-4l3-1 1-2 3-1a125 125 0 0 0 4-3l3-2z"/><path fill="#9D9D9D" d="m89.125 94.938 2.758.027L94 95l1 3h37v1H61l1-2 1.804-.076q4.035-.176 8.071-.362l2.84-.119 2.715-.127 2.507-.11c3.293-.328 5.704-1.313 9.188-1.269"/><path fill="#5C5E5F" d="M48 86c3.725 3.26 4.912 4.912 5.313 9.875L53 99c-4.843 3.163-8.027 4.902-14 4-2.526-1.862-3.685-3.236-4.875-6.125L34 95l2-2 .938 2.938c.757 2.903.757 2.903 2.062 4.062 4.685.41 4.685.41 9-1.125 1.24-1.971 1.24-1.971 1-4.937-.708-3.067-.708-3.067-3.187-4.376-3.24-.647-5.614-.306-8.813.438v2l-4-1c4.264-5.734 7.983-7.198 15-5"/><path fill="#15191A" d="m70 53 3 1 2 5 3 1c-10.349.65-20.627 1.165-31 1 1.988-3.526 3.136-5.534 7-7l2 3c5.585-.199 5.585-.199 10-3h3v4l2-1z"/><path fill="#656C6E" d="m75 40 1 4-1.715 1.207-2.222 1.605-2.215 1.583C67.73 49.959 67.73 49.959 67 53l2 1c-4.467 3.314-8.62 3.66-14 4 2.147-6.833 12.514-18 20-18"/><path fill="#2C2D2E" d="M46 82c4.073 1.063 6.201 2.89 9 6l-1 2-2.375-1.937c-4.155-3.265-6.947-3.467-12.14-3.407-2.757.19-2.757.19-5.547 2.469C31.478 90.775 31 93.667 31 98h2l1.313 2.375c2.003 3.117 3.152 3.699 6.687 4.625 2.709.168 2.709.168 5 0v2c-5.79.3-8.824-.177-14-3h-4l2-2c-.304-1.809-.304-1.809-1-4-1.044-4.337-1.4-6.23.688-10.25C34.73 81.752 38.415 81.297 46 82"/><path fill="#3F4144" d="m24 68-1.875.125L20 69c-1.305 2.996-1.305 2.996-2 6h2l1-2-1 4c-8.429 2.286-8.429 2.286-13 2-.687-2.812-.687-2.812-1-6 3.922-5.263 11.964-5.31 18-5"/><path fill="#FBFBFB" d="M27 68q4.563-.04 9.125-.062l2.594-.026c4.548-.017 8.805.156 13.281 1.088v11l-2-2c-2.887-.684-2.887-.684-6.125-1.125l-3.32-.508L38 76l1-2q2.156-.04 4.313-.062l2.425-.036C48 74 48 74 51 75v-4H26z"/><path fill="#A8A4A5" d="M223 91h11l1 5c-2 2-2 2-5 4l-3-1c-2.733-.228-5.45-.417-8.187-.562l-2.272-.131q-2.77-.158-5.541-.307v-3h21v-2h-8z"/><path fill="#2D2D2F" d="M201 83v2l1.875.813C205 87 205 87 207 90c.195 2.262.195 2.262.125 4.688l-.055 2.449L207 99l2 1-1 3-2.312-.187c-3.166.22-3.673.884-5.688 3.187h-2c0-2 0-2 1.875-3.937L202 100c2.342-3.513 2.496-4.865 2-9-2.15-3.338-3.204-4.735-7-6-6.158-.505-9.032-.022-14 4l-2 2c.125-2.312.125-2.312 1-5 5.42-4.366 12.422-3.264 19-3"/><path fill="#8F2C31" d="m222 65 7 1c.96 2.882 1.106 4.699 1.063 7.688l-.028 2.449L230 78h-8z"/><path fill="#999A9B" d="M52 61h1v20h-1V69l-25-1-2 4a90 90 0 0 1-4 4l-3-1 2-6h4l1-3 27 1z"/><path fill="#BEBEBE" d="M95 73h1v11h5v6h-5l1 7h-2v-7H64v-1h31z"/><path fill="#4C5153" d="M98 35c.951 3.107 1.011 5.545.66 8.766l-.283 2.695-.314 2.789-.303 2.836Q97.39 55.544 97 59c-9.64 1.15-9.64 1.15-14.375 1.188l-2.46.042C78 60 78 60 75 58h19l2-18-3-1h3v-2l-2-1z"/><path fill="#848485" d="M4 93h14l-1 3 6 1v2c-.922.09-.922.09-1.863.184l-2.45.254c-.8.08-1.6.162-2.425.246-2.423.269-2.423.269-5.262 1.316v-2H5z"/><path fill="#232425" d="m13.813 104.938 2.957.027L19 105v2h-3v3c-2.34 1.17-3.834 1.166-6.437 1.188l-2.372.042C5 111 5 111 2 109l1-3c3.674-.853 7.045-1.108 10.813-1.062"/><path fill="#1D1F21" d="M5 85q2.686-.118 5.375-.187l3.023-.106L16 85c2 3 2 3 2 6H5z"/><path fill="#EBEBEB" d="M188 30c12.048-.119 23.982.138 36 1v10c-1.945-2.918-2.453-4.625-3-8h-3v5c-2-3.75-2-3.75-2-6l-1.817.016q-4.123.029-8.245.047l-2.858.025c-5.143.018-10.013-.195-15.08-1.088z"/><path fill="#EBEBEC" d="m51 78-1 2-1.727-.484C41.62 78.006 37.017 78.92 31 82c-2.375-.812-2.375-.812-4-2 1-3 1-3 4.438-4.812C38.027 72.912 44.87 75.139 51 78"/><path fill="#3F4345" d="M196 90c2 2 2 2 2.25 4.5C198 97 198 97 196 99c-2.5.25-2.5.25-5 0-2-2-2-2-2.125-5.125L189 91c2.513-1.256 4.217-1.209 7-1"/><path fill="#B4B7B7" d="m33 91 3 2-1 3c.739 2.638.739 2.638 2 5 3.072 1.536 5.602 1.227 9 1 3.352-1.382 3.352-1.382 6-3-1.01 2.664-1.972 3.977-4.187 5.813-3.795 1.601-5.872 1.313-9.813.187-3.66-2.705-4.819-4.237-5.875-8.687C32 93 32 93 33 91"/><path fill="#DFDEDE" d="M211 90c2.003.064 4.004.2 6 .375l3.313.273C223 91 223 91 224 92c1.347.23 2.704.412 4.063.563L232 93v2h-21l-1-4z"/><path fill="#AEB1B3" d="M185 89c1.875.563 1.875.563 4 2 1.25 3.625 1.25 3.625 2 7 1.666.043 3.334.04 5 0 1.276-1.052 1.276-1.052 1.125-3.437.048-2.553.048-2.553-1.125-4.563l3 1c1 3.183 1.158 4.614-.125 7.75C197 101 197 101 194.625 102.063c-3.655-.088-5.091-1.53-7.625-4.063v-2l-2-1c-.687-2.5-.687-2.5-1-5z"/><path fill="#484C4E" d="M47 91c.188 2.875.188 2.875 0 6-3 2-3 2-5.062 1.75C40 98 40 98 38 96c-.125-2.625-.125-2.625 0-5 3.069-1.534 5.7-.55 9 0"/><path fill="#0B0D0E" d="M197 84c3.644 1.62 6.126 3.45 8 7 .188 3.75.188 3.75 0 7-1.3-2.414-2.104-4.432-2.75-7.125-.992-3.094-.992-3.094-3.937-4.312-3.872-.658-6.52-.616-10.313.437-3.967 3.55-4.592 6.797-5 12h-1c-.29-3.38-.44-6.628 0-10 4.398-4.746 8.68-5.68 15-5"/><path fill="#D4D5D5" d="M82 31c2.417-.081 4.832-.14 7.25-.187l2.066-.077c3.276-.047 5.337.053 8.168 1.776L101 34c-7.292 1.493-13.645 2.447-21 1l-1-2h3z"/><path fill="#BBBDBF" d="M183 93h1v5h2l1.25 1.938c1.648 2.323 1.648 2.323 4.688 2.937 3.206.13 4.52.032 7.062-1.875 1.268-2.034 1.268-2.034 2-4h2c-.205 3.686-.806 4.82-3.562 7.375-3.702 1.75-5.593 2.112-9.536 1.363-3.625-1.407-4.897-3.417-6.902-6.738-.312-3.375-.312-3.375 0-6"/><path fill="#D9C9CA" d="M224 41c1.746 3.216 2.204 5.32 2 9l2 1v8l2 1-1 4 2 1-2 4-3-2c0-1.834.033-3.668.125-5.5.076-2.753.076-2.753-2.125-5.5a96 96 0 0 1-.125-7.687l.027-2.127c.024-1.73.06-3.458.098-5.186"/><path fill="#EDF0F1" d="M93 34h8c.369 13.633.369 13.633-2 20-2-2-2-2-2.012-4.898l.325-3.477.3-3.46C97.917 39.676 98.308 37.4 99 35h-6z"/><path fill="#848689" d="M14 70c1.332 5.447 1.332 5.447-.125 7.875C11.463 79.322 9.765 79.225 7 79c-1.125-5.75-1.125-5.75 0-8 2.386-.612 4.535-1 7-1"/><path fill="#111315" d="M52 54h2l1 4h6l-1 3H47c3-5 3-5 5-7"/><path fill="#141615" d="M55 88c1.5 1.125 1.5 1.125 3 3 .188 3.188.188 3.188 0 6l-3 1a70 70 0 0 0-1 4l-2 1c.113-2.313.241-4.626.375-6.937.07-1.288.14-2.576.21-3.903.138-1.043.274-2.086.415-3.16z"/><path fill="#404244" d="m183 92 3 1 .938 2.375c1.236 3.054 2.144 4.124 5.062 5.625 2.643.088 2.643.088 5-1 1.36-1.968 1.36-1.968 2-4h2c-.272 3.358-.584 4.643-3.187 6.875-3.476 1.39-5.256 1.208-8.813.125-1.875-1.437-1.875-1.437-3-3v-2h-2z"/><path fill="#C0C2C3" d="M62 37h6v2l5-2c-1.349 4.046-3.348 4.955-7 7l-3-1v-1h-3l-1-3 3-1z"/><path fill="#4F5152" d="M201 83v2l4 2-1 3-1.812-1.937c-3.384-3.19-6.558-3.398-11.122-3.356-4.242.602-7.137 3.364-10.066 6.293.125-2.312.125-2.312 1-5 5.42-4.366 12.422-3.264 19-3"/><path fill="#C8CBCD" d="m63 41 2 1c-2.448 5.201-6.402 7.822-11 11 0-2.625 0-2.625 1-6 2.466-2.315 5.159-4.175 8-6"/><path fill="#565656" d="M222 106h10l-1 4-10 1z"/><path fill="#F0F2F3" d="m18 89 1 2h3v2H3v-3l15 1z"/><path fill="#373E41" d="m84 37-1 4-8 2v-6c3.478-1.16 5.459-.708 9 0"/><path fill="#0F0F0F" d="M215 105h9l-2 1-.437 2-.563 2c-3.478 1.16-5.459.708-9 0l4-1z"/><path fill="#E1E4E6" d="M61.063 51.938 64 52v5l-9 1c2.302-5.986 2.302-5.986 6.063-6.062"/><path fill="#6A6B6B" d="M11 105v6c-5.625.25-5.625.25-9-2l1-3c2.763-.597 5.16-1 8-1"/><path fill="#333536" d="M35 93h1l.938 2.938c.757 2.903.757 2.903 2.062 4.062 4.233.24 7.367.325 11-2-1.75 3.875-1.75 3.875-4 5-6.219.576-6.219.576-9.375-1.75C35.033 99.045 34.269 97.689 34 95z"/><path fill="#575A5B" d="m198 86 1 2-4-1v2l-2.375.438c-2.59.44-2.59.44-4.625 1.562l-2-1c.813-1.937.813-1.937 2-4 3.732-1.244 6.18-.778 10 0"/><path fill="#444648" d="M5 93h13l-1 3H6z"/><path fill="#101112" d="M5 85h11l-2 1v3c-6.75.125-6.75.125-9-1z"/><path fill="#F5F6F6" d="M53 71h1v7l2.313.75C59.236 80.11 60.3 81.316 62 84l-2 2-1.25-1.937C56.993 81.585 56.993 81.585 53 81z"/><path fill="#BD3437" d="m222 65 7 1-2 2 1 2h-2v4l-3-1z"/><path fill="#D9D9D9" d="M214 31h10v10c-1.945-2.918-2.453-4.625-3-8h-3v5c-2-3.75-2-3.75-2-6z"/><path fill="#9C9C9C" d="M211 96c6.737-.11 13.3.299 20 1l-1 3-3-1c-2.733-.228-5.45-.417-8.187-.562l-2.272-.131q-2.77-.158-5.541-.307z"/><path fill="#47494A" d="M47.547 82.375C51.27 83.324 52.692 84.999 55 88l-1 2-2.375-1.937c-3.469-2.726-5.42-3.237-9.75-3.626l-2.758-.253L37 84c3.894-2.596 6.036-2.153 10.547-1.625"/><path fill="#EAEBEB" d="M53 61h6v2l2 1v2l-8 1z"/><path fill="#C7C9C8" d="m65 60 2 4c-2.75.688-2.75.688-6 1-2.375-1.437-2.375-1.437-4-3 3.228-2.152 4.284-2.2 8-2"/><path fill="#333436" d="M182 99h2l1.563 2.438c3.14 3.3 5.213 3.257 9.609 3.519L197 105v2c-7.933.622-7.933.622-12-1.75-1.958-2.203-2.69-3.36-3-6.25"/><path fill="#C5C7C7" d="m44 50 3 1c-1.391 4.174-1.391 4.174-4 6-3.687.188-3.687.188-7 0 2.49-2.667 4.634-4.557 8-6z"/><path fill="#F6F8F9" d="m53 49 2 2-5 6-4-2z"/><path fill="#181A1C" d="m46 94-1 4c-1.875.625-1.875.625-4 1l-2-2v-3c2.667-1.333 4.167-.671 7 0"/><path fill="#D8DADC" d="m196 90 3 1c1 3.183 1.158 4.614-.125 7.75C197 101 197 101 194.438 101.938L192 102l-2-2h6l.563-3.875.316-2.18c.29-2.026.29-2.026-.879-3.945"/><path fill="#191A1C" d="m180 90 2 1c.414 2.723.414 2.723.625 6.063l.227 3.347L183 103c-3-2-3-2-3.547-4.348l-.203-2.715-.234-2.722L179 91z"/><path fill="#9EA6A8" d="m70 42 1 2-1 2h-3l-1 3h-2v2l-4-1q1.935-1.722 3.875-3.437l2.18-1.934C68 43 68 43 70 42"/><path fill="#F0F0F1" d="m16 62 2 2-2 3 2 2-9 1c2.625-4.875 2.625-4.875 6-6z"/><path fill="#DFE2E1" d="M96 90h5v7l-4-1z"/><path fill="#E0E0E0" d="M224 41c1.746 3.216 2.204 5.32 2 9l2 1-1 1a236 236 0 0 0-1 7c-2.454-3.68-2.228-6.444-2.125-10.687l.027-2.127c.024-1.73.06-3.458.098-5.186"/><path fill="#E3E4E3" d="M74.188 32.938 76 34c-4.23 2.417-7.123 3.348-12 3 6.655-5.576 6.655-5.576 10.188-4.062"/><path fill="#5E1011" d="M222 67h1v8h4l1 3h-6z"/><path fill="#4A4D50" d="m24 68-1.937.313L20 69l-1 3-3.312-.562c-3.624-.696-3.624-.696-6.688.562v-2c5.075-1.263 9.728-2.27 15-2"/><path fill="#5D6768" d="m75 40 1 4c-3.75 3-3.75 3-6 3 .375-2.937.375-2.937 1-6 2-1 2-1 4-1"/><path fill="#4A4C4E" d="m183 92 3 1c1.063 2.375 1.063 2.375 2 5l2 3-4-1v-2h-2z"/><path fill="#282728" d="M14 99h9l1 3q-2.22-.172-4.437-.375c-.824-.07-1.648-.14-2.497-.21L15 101z"/><path fill="#181B1C" d="M192 94h3l1 3-1 2h-4z"/><path fill="#222" d="m55 88 2 1v6l-3-1-1-5z"/><path fill="#E7E8E8" d="M96 85h5v4h-5z"/><path fill="#66696A" d="M198 92c.188 2.375.188 2.375 0 5l-3 2v-5l-3-1c2.076-.553 3.844-1 6-1"/><path fill="#545A5B" d="M70 53c3 1 3 1 4.188 3.063L75 58l-7 1 1-2h2z"/><path fill="#F1F3F4" d="m63 41 2 1c-.75 1.938-.75 1.938-2 4-2 .688-2 .688-4 1l-2 1c1.393-3.367 2.979-4.986 6-7"/><path fill="#8B8D8E" d="m33 91 3 2-1 5h-3z"/><path fill="#E3E4E6" d="M88 59h8v3h-5v-2z"/><path fill="#424347" d="M53 54v5l-4 1c0-3 0-3 1.438-4.687C52 54 52 54 53 54"/><path fill="#2C2E2E" d="M38.188 82.375 40 83h-3l-1 3c-2.062 1.188-2.062 1.188-4 2 .313-1.875.313-1.875 1-4 3-2 3-2 5.188-1.625"/><path fill="#F6F6F6" d="m31 76 2 1-4 5-2-3c1-2 1-2 4-3"/><path fill="#CCC" d="M38 62h-2v2l-6 2-1-2c5.625-3.125 5.625-3.125 9-2"/></svg>