<svg xmlns="http://www.w3.org/2000/svg" xml:space="preserve" viewBox="0 0 1000 557.8"><path d="M94 450.7h24.3l55 104.7h-26.2l-11.3-21.7H76.1L65 555.4H39zm-9.3 65h42.5L106 473.3zm167.8 32.4c-6.8 5.4-18.9 9.4-30.2 9.7-19.2 0-36.6-6.4-36.6-32.8v-43.7h22.7V522c0 12.4 5.6 18.4 19.4 18.4 9.5 0 16.1-2.5 23.3-6.2v-52.9h22.7v74.2H254zm43.3-29.8c0-24.4 15.3-39.3 43.4-39.3 11 0 21.8 2.7 28.8 7.2v-35.4h22.7v104.7h-19.8l-1.6-8.1c-6.9 6.2-19.1 10.4-31.2 10.4-26.9 0-42.3-14.8-42.3-39.5m72.1 15.9v-31.5c-7.8-4-14.8-6.1-25.5-6.1-15.3 0-23.6 7.8-23.6 21.7s8.2 22 23.6 22c10.8 0 17.7-2.1 25.5-6.1m51.1-83.5h22.7v19.7H419zm0 30.6h22.7v74.2H419z" style="fill:#e40521"/><path d="M827 0c-41.3 0-79.2 14.5-109 38.7C688.2 14.5 650.3 0 609 0s-79.2 14.5-109 38.7C470.2 14.5 432.3 0 391 0s-79.2 14.5-109 38.7C252.2 14.5 214.3 0 173 0 77.5 0 0 77.5 0 173s77.5 173 173 173c41.3 0 79.2-14.5 109-38.7 29.8 24.2 67.7 38.7 109 38.7s79.2-14.5 109-38.7c29.8 24.2 67.7 38.7 109 38.7s79.2-14.5 109-38.7c29.8 24.2 67.7 38.7 109 38.7 95.5 0 173-77.5 173-173S922.5 0 827 0M718 250.7c-15.7-21.9-24.9-48.7-24.9-77.7s9.3-55.8 24.9-77.7c15.7 21.9 24.9 48.7 24.9 77.7s-9.2 55.8-24.9 77.7m-218 0c-15.7-21.9-24.9-48.7-24.9-77.7s9.2-55.8 24.9-77.7c15.7 21.9 24.9 48.7 24.9 77.7s-9.2 55.8-24.9 77.7m-218 0c-15.7-21.9-24.9-48.7-24.9-77.7s9.3-55.8 24.9-77.8c15.7 21.9 24.9 48.8 24.9 77.8s-9.2 55.8-24.9 77.7M39.1 173C39.1 99 99 39.1 173 39.1c30.7 0 58.9 10.3 81.5 27.7C231.7 96.1 218 132.9 218 173s13.7 76.9 36.5 106.2c-22.6 17.3-50.8 27.7-81.5 27.7C99 306.9 39.1 247 39.1 173m270.4 106.2C332.3 249.9 346 213.1 346 173s-13.7-76.9-36.5-106.2c22.6-17.4 50.8-27.7 81.5-27.7s58.9 10.3 81.5 27.7C449.7 96.1 436 132.9 436 173s13.7 76.9 36.5 106.2c-22.6 17.3-50.8 27.7-81.5 27.7s-58.9-10.3-81.5-27.7m218 0C550.4 249.9 564 213.1 564 173s-13.6-76.9-36.5-106.2c22.6-17.3 50.8-27.7 81.5-27.7s58.9 10.3 81.5 27.7C667.7 96.1 654 132.9 654 173s13.6 76.9 36.5 106.2c-22.6 17.3-50.8 27.7-81.5 27.7s-58.9-10.3-81.5-27.7M827 306.9c-30.7 0-58.9-10.3-81.5-27.7C768.4 249.9 782 213.1 782 173s-13.6-76.9-36.5-106.2c22.6-17.4 50.8-27.7 81.5-27.7 74 0 133.9 60 133.9 133.9 0 74-59.9 133.9-133.9 133.9"/></svg>