<svg xmlns="http://www.w3.org/2000/svg" xml:space="preserve" enable-background="new 0 0 1000 927.045166" viewBox="0 0 1000 927.045"><defs><filter id="a" width="407.475" height="728.303" x="296.263" y="0" filterUnits="userSpaceOnUse"><feColorMatrix values="1 0 0 0 0 0 1 0 0 0 0 0 1 0 0 0 0 0 1 0"/></filter></defs><mask id="b" width="407.475" height="728.303" x="296.263" y="0" maskUnits="userSpaceOnUse"><g filter="url(#a)"><path fill="#FFF" fill-rule="evenodd" d="M.352-25.993h996.687v814.687H.352z" clip-rule="evenodd"/></g></mask><path fill="#000001" fill-rule="evenodd" d="m313.534 55.224 175.339 570.538-175.339 81.506zm366.794-37.979L500.007 606.471 319.383 17.245zm6.138 690.023-175.339-81.506L686.466 55.224zm-344.828 3.803 158.369-71.303 158.368 71.276zm-34.831 17.232h386.4c7.016 0 10.53-3.515 10.53-10.518V10.531c0-7.016-3.514-10.531-10.53-10.531h-386.4c-7.03 0-10.544 3.515-10.544 10.518v707.254c0 7.016 3.514 10.531 10.544 10.531" clip-rule="evenodd" mask="url(#b)"/><path fill="#000001" fill-rule="evenodd" d="M93.224 834.383 0 927.045h14.422a25.04 25.04 0 0 0 17.662-7.284l63.042-62.668a6.963 6.963 0 0 1 9.815 0l63.056 62.668a25.03 25.03 0 0 0 17.648 7.27h14.435l-93.224-92.648a9.68 9.68 0 0 0-13.658 0m292.662-2.812a25.04 25.04 0 0 0-17.649 7.285l-63.042 62.667a6.963 6.963 0 0 1-9.816 0l-63.055-62.667a25.04 25.04 0 0 0-17.649-7.285h-14.435l93.225 92.662a9.68 9.68 0 0 0 13.645 0l93.21-92.662zm313.43 35.873h-8.623a4.446 4.446 0 0 0-4.46 4.46v50.682a4.446 4.446 0 0 0 4.46 4.446h8.623a4.446 4.446 0 0 0 4.46-4.432v-50.697a4.446 4.446 0 0 0-4.433-4.459zm80.089-28.575a25.12 25.12 0 0 0-17.703-7.271H600.375l10.203 10.11a25.08 25.08 0 0 0 17.69 7.284h161.314zm-285.873-4.486-93.198 92.662h14.421a25.04 25.04 0 0 0 17.65-7.284l63.055-62.668a6.963 6.963 0 0 1 9.815 0l63.042 62.668a25.03 25.03 0 0 0 17.649 7.27h14.435l-93.211-92.648a9.68 9.68 0 0 0-13.658 0m464.73 51.34h14.407c15.012.086 27.253-12.014 27.339-27.026q.003-.635-.022-1.269c-.643-14.595-13.324-25.843-28.013-25.843H828.173l10.23 10.123a25.17 25.17 0 0 0 17.73 7.284H972.04c5.128 0 9.734 3.723 10.176 8.798.459 5.342-3.5 10.044-8.842 10.503a10 10 0 0 1-.879.035h-139.85a4.46 4.46 0 0 0-4.473 4.446v49.812c0 2.464 2.01 4.446 4.473 4.446h8.65a4.46 4.46 0 0 0 4.46-4.446v-36.864h87.613l34.387 33.972a25.2 25.2 0 0 0 17.782 7.338H1000z" clip-rule="evenodd"/></svg>