<svg xmlns="http://www.w3.org/2000/svg" xml:space="preserve" viewBox="0 0 1000 196.297"><path fill="#D60C17" d="M604.689 196.295h-34.127a19.64 19.64 0 0 1-17.004-9.81l-45.459-78.746-30.647-53.058-.133-.238a19 19 0 0 0-.777-1.323 29 29 0 0 0-1.016-1.513 5 5 0 0 0-.37-.518c-4.35-5.904-10.429-9.595-16.949-11.072a6 6 0 0 0-.546-.127 15 15 0 0 0-.644-.119q-.275-.054-.56-.098a24 24 0 0 0-2.109-.28c-.252-.028-.497-.042-.742-.063-.175-.014-.35-.02-.525-.028-.203-.014-.406-.014-.61-.028a38 38 0 0 0-.91-.014q-.451.002-.903.014c-.21.014-.414.014-.61.028q-.271.009-.532.028c-.245.021-.49.035-.735.063q-1.064.093-2.115.28c-.19.028-.371.063-.56.098q-.329.054-.645.12a6 6 0 0 0-.546.126c-6.52 1.477-12.6 5.168-16.948 11.072a9 9 0 0 0-.371.518q-.526.735-1.009 1.513c-.28.427-.539.875-.784 1.323l-.133.238-30.64 53.058-45.465 78.745a19.64 19.64 0 0 1-17.004 9.811h-34.128l14.35-24.854 79.285-137.314c12.137-21.032 32.656-32.412 53.841-34.12h11.304c21.192 1.708 41.705 13.088 53.848 34.12L590.34 171.44zm-342.127-98.14a58.8 58.8 0 0 0 11.64-19.637 58.8 58.8 0 0 0 3.36-19.63c0-6.885-1.19-13.49-3.354-19.624a58.6 58.6 0 0 0-11.646-19.63 57 57 0 0 0-4.637-4.637c-5.658-5.063-12.304-9.062-19.623-11.639a58.8 58.8 0 0 0-19.63-3.355H0v19.63c.007 10.842 8.79 19.624 19.637 19.624v.007h199.035c10.841 0 19.63 8.79 19.63 19.624 0 10.848-8.789 19.63-19.63 19.63H19.637C8.79 78.518 0 87.307 0 98.155v78.507c0 10.848 8.79 19.63 19.637 19.63h199.035a58.8 58.8 0 0 0 19.63-3.354 58.6 58.6 0 0 0 19.623-11.64 56 56 0 0 0 4.637-4.636 58.8 58.8 0 0 0 11.64-19.623 58.8 58.8 0 0 0 3.36-19.63c0-6.884-1.19-13.489-3.36-19.63a58.8 58.8 0 0 0-11.64-19.624m-43.89 58.884H39.26v-39.26h179.41c10.842 0 19.631 8.781 19.631 19.63 0 10.834-8.789 19.63-19.63 19.63M663.562 0c-10.84 0-19.63 8.79-19.63 19.63v176.667h19.63c10.834 0 19.624-8.79 19.624-19.631V0zM1000 0v19.63c-.007 10.849-8.796 19.624-19.63 19.624v.007H820.589c-17.438 0-33.112 7.578-43.883 19.63a58.6 58.6 0 0 0-11.647 19.63 58.6 58.6 0 0 0-3.361 19.63 58.7 58.7 0 0 0 3.354 19.624 58.6 58.6 0 0 0 11.647 19.63c10.771 12.053 26.444 19.63 43.89 19.63H1000v19.631c0 10.841-8.796 19.63-19.63 19.63H820.589c-22.096 0-42.482-7.297-58.891-19.616v-.014h-.014a98.8 98.8 0 0 1-19.616-19.623v-.007h-.008a97.8 97.8 0 0 1-11.45-19.63 96.5 96.5 0 0 1-6.198-19.631 98.5 98.5 0 0 1-1.968-19.623c0-6.723.68-13.293 1.968-19.63a96.4 96.4 0 0 1 6.205-19.63A98 98 0 0 1 742.06 39.26h.008v-.014A98.6 98.6 0 0 1 761.69 19.63h.007v-.008C778.107 7.305 798.493 0 820.588 0z"/></svg>