<svg xmlns="http://www.w3.org/2000/svg" xml:space="preserve" id="Слой_1" x="0" y="0" version="1.1" viewBox="0 0 1000 1000"><style>.st0{fill-rule:evenodd;clip-rule:evenodd;fill:#6a6d6d}</style><path d="M.5 500C.5 224.1 224.1.5 500 .5S999.5 224.2 999.5 500c0 275.9-223.7 499.5-499.5 499.5C224.1 999.5.5 775.9.5 500M500 967c258 0 467-209.1 467-467S757.9 33 500 33 33 242.1 33 500s209 467 467 467" class="st0"/><path d="M500 220v-16.3c163.6 0 296.2 132.6 296.2 296.2H780C780 345.6 654.4 220 500 220M220 500c0 154.4 125.6 280 280 280v16.2c-163.6 0-296.2-132.6-296.2-296.2z" class="st0"/><path d="M742.1 288.1c6.8 7.3 16.6 19 22.1 26.2L865.3 250c-6.2-8.1-12.6-16-19.1-23.7l-64.1 42.4-4.4 3.8 3.3-4.8 28.3-56.5-20-20-56.5 28.3-4.8 3.3 3.8-4.4 42.4-64c-7.8-6.6-15.7-13-23.8-19.2l-64.2 101c8.1 6.3 18.9 15.4 25.7 21.7l60.4-31.4 3.9-2.8-2.9 3.9c.1-.1-31.2 60.5-31.2 60.5M512.6 160l27.6-61.9 1.8-5.5-.5 5.7 2.9 82.7c9.7.9 19.7 2.3 29.6 3.9l-4.5-122.5c-13.7-1.5-27.5-2.6-41.3-3.2L501 126.8l-1 5-1-5-27.2-67.6c-13.8.6-27.6 1.7-41.3 3.2L426 184.9c9.8-1.6 19.7-2.9 29.6-3.9l2.9-82.7-.5-5.7 1.8 5.5 27.6 61.9z" style="fill:#6a6d6d"/><path d="M289 257.6c16-16.8 25-36.3 9-54.8-8.7-10.1-23.3-12.3-35.4-7.3l-1.2.5.4-1c1.8-4.8 2.9-20.1-10.1-30.6-6.3-5-14.4-7.2-22.4-6.2-15 1.5-26.5 11.8-58 46.8-10.9 12.3-21.5 25-31.6 38.1L226 325c22.6-25 34.6-37.6 49.8-53.5.2-.2 13.2-13.9 13.2-13.9m-112.6-20c17.4-21.3 35.9-40.6 44.2-48.2 2.6-2.4 5.5-4.8 9-5.8 5.7-1.5 11.5 2.5 12.8 8.3s-2.3 11.4-6.4 16c-9.2 10.4-42.9 45.6-42.9 45.6zm77.4-13.7c-10.7 11.1-43.6 45.8-43.6 45.8l17.5 16.6 43.5-46.6c3.3-3.6 7.4-8.3 8.5-13.3.9-4.2-.8-8.5-4.4-10.8-3.7-2.5-7.9-2.1-11.6-.2-3 1.4-5.7 4.1-9.9 8.5" class="st0"/><path d="M500 203.8V500H203.8c0-163.7 132.5-296.2 296.2-296.2M796.2 500c0 163.7-132.5 296.2-296.2 296.2V500z" style="fill:#0066b1"/></svg>