<svg xmlns="http://www.w3.org/2000/svg" xml:space="preserve" style="enable-background:new 0 0 1000 192.6" viewBox="0 0 1000 192.6"><defs><filter id="a" width="1000" height="192.6" x="0" y="0" filterUnits="userSpaceOnUse"><feColorMatrix values="1 0 0 0 0 0 1 0 0 0 0 0 1 0 0 0 0 0 1 0"/></filter></defs><mask id="b" width="1000" height="192.6" x="0" y="0" maskUnits="userSpaceOnUse"><g style="filter:url(#a)"><path d="M0-3.1h1000v201.9H0z" style="fill:#fff"/></g></mask><g style="mask:url(#b)"><path d="M225.6.5C210 .2 142.4 0 103 0H0v37c82.9 0 181.2-.2 224.3.5 7.7.1 15.3.9 21.3 6.2 5.7 5 7.6 12.9 5.1 19.7-4 11.1-15.3 13.8-26.4 13.9-17.1.3-63.9.4-98.9.4-85.9.1-48.7 0-125.4 0v36.9c82.9 0 181.4-.2 224.3.5 13.4.2 27.5 4.8 27.5 19.8s-14.1 19.8-27.5 20c-42.8.7-141.4.5-224.3.5v37c83.2 0 192 .3 225.6-.5 17.7-.4 43.9-4.9 59.1-28 14.3-21.6 10.9-49.8-8-67.8 18.8-18.1 22.3-46.2 8-67.8C269.4 5.4 243.3 1 225.6.5m660.7.6C864.4.6 831.2.3 802 .2c-71.3-.3-28.4-.2-96.4-.2v37.1c72.4 0 123.1-.6 178.9 1 16.4.5 34 2.2 49.9 13.2 15 10.4 23.9 27 23.9 44.9s-8.7 34.5-23.7 45c-15.9 11-33.5 12.7-49.9 13.2-55.9 1.5-106.6 1-178.9 1l-.3 37.1c72.8 0 125.1.3 180.8-1.1 22.3-.5 49.7-3.1 75.1-21.2 24-17.2 38.6-44.2 38.6-74s-14.5-56.8-38.6-74v.3C936.2 4.1 908.7 1.6 886.3 1.1m-505.4 56c-.1-17.9 0-39 0-57.1h-42.8c0 18.3-.4 55.4.4 73.4 1.4 34.8 12.8 45.7 48.4 46.9 24.7.9 44.2.6 78.4.5V83.5c-27.3 0-38.5 0-58.7-.3-19.5-.4-25.6-6.7-25.7-26.1m158.2 26.4c20 0 44.4-.1 53.7-.3 19.4-.4 25.6-6.5 25.7-25.4h.3V0h42.7v56.2c-.1 6.5-.2 12.5-.4 17.2-1.4 35.1-12.9 45.8-50.7 46.9-12.3.5-45 .5-71.2.5h-5.1v71.7h-50.3v-109z" style="fill:#e80010"/></g></svg>