<svg xmlns="http://www.w3.org/2000/svg" xml:space="preserve" viewBox="0 0 1000 391.171"><path fill="#000001" fill-rule="evenodd" d="M932.677 98.706 1000 0H0l67.323 98.706c7.382 41.919 26.676 149.963 28.866 160.403l.279 1.332c6.16 29.43 9.938 47.48 66.214 61.383 76.049 18.728 249.913 55.15 337.26 69.347 87.38-14.214 261.326-50.619 337.375-69.347 56.277-13.903 60.054-31.953 66.214-61.383l.279-1.332C906 248.6 925.295 140.625 932.677 98.706M116.114 87.852h87.679l-16.59-29.961h297.443v29.84h9.955V47.537H88.956zm8.41 39.47h369.96V97.38H119.73zm93.967 50.173h-85.836l-6.637-40.85h368.566v40.85h-9.955v-31.27H215.373zm276.046 50.291h-138.61l.05-21.45h138.56zm10.965-180.25H645.34l.066 60.181H505.502zM152.607 279.595c2.272 3.582 6.486 7.752 20.472 11.698 6.033 1.535 12.672 3.07 21.422 5.095l3.297.763H346.23v-21.244H150.683a22.7 22.7 0 0 0 1.89 3.688zm193.625-32.46h-202.1l-9.938-60.01h212.038zm9.695 84.18c51.761 10.58 102.36 20.35 138.693 26.258V256.87H355.927zm511.48-153.821H654.923v-60.199h222.19zM654.923 66.678v21.364l228.544-.086L897.8 66.678zm291.992-48.122H53.157l53.088 78.72c4.576 28.226 8.55 52.977 11.933 74.045l.002.016.001.005c6.428 40.033 10.72 66.77 12.95 78.791q.408 2.213.79 4.312l.003.01.002.013.001.006c5.274 28.856 7.632 41.765 37.909 50.241 63.14 15.506 246.13 54.583 330.224 67.763 84.096-13.18 267.1-52.204 330.276-67.763 30.275-8.476 32.634-21.385 37.908-50.241l.525-2.87.27-1.47c2.22-12.271 6.665-39.877 13.336-81.307 3.304-20.52 7.153-44.43 11.55-71.55zm-431.458 209.23h-9.954v-40.66h360.402l-6.635 40.746h-83.5c1.277-7.133 3.749-27.446 4.097-30.392H515.456zm-9.954 39.25h346.732l5.607-29.824h-352.34zm0-130.374h139.904v21.484H505.502zm0 139.245h343.945a18.8 18.8 0 0 1-1.858 3.688c-2.273 3.582-6.438 7.993-20.505 11.628-62.28 16.093-233.439 51.344-321.582 66.316zm34.003 65.128c-9.508 1.748-18.288 3.362-24.046 4.445v-59.251h245.018c-11.232 13.727-33.846 18.211-159.321 43.094l-17.264 3.424c-8.8 1.745-27.714 5.223-44.387 8.288" clip-rule="evenodd"/></svg>