<svg xmlns="http://www.w3.org/2000/svg" xml:space="preserve" viewBox="0 0 1000 598.5"><path d="M500 377.9c149.1 0 193.7-52.7 204.6-174.3C715.6 81.7 670 20.5 500 20.5S284.4 81.7 295.4 203.6c11 121.6 55.5 174.3 204.6 174.3m106.2-212.6V53.9c0-1.2 1.2-2.1 2.4-1.7 22.7 7.3 40.1 17.5 52.3 30.9 22.5 24.6 30.6 62.4 25.5 119-5.4 60.4-19.1 97.6-44.4 120.7-24.9 22.8-64.3 34.5-123 36.6-1.4 0-2.3-1.5-1.7-2.7l75.3-138.3c9-16.4 13.6-34.6 13.6-53.1M415.5 46c23.7-4.8 51.7-7.2 84.5-7.2s60.9 2.4 84.5 7.2c1.1.2 1.7 1.4 1.3 2.5-33.2 82.9-69.8 159.9-81.8 184.7-1.6 3.4-6.4 3.4-8.1 0-12-24.8-48.7-101.8-81.8-184.7-.3-1.1.3-2.3 1.4-2.5m-76.3 37.1c12.2-13.4 29.6-23.6 52.3-30.9 1.2-.4 2.4.5 2.4 1.7v111.3c0 18.5 4.7 36.8 13.5 53l75.3 138.3c.7 1.2-.3 2.7-1.7 2.7-58.8-2.1-98.1-13.8-123-36.6-25.3-23.1-39-60.3-44.4-120.7-5.1-56.4 3-94.2 25.6-118.8M500 398.5c165.3 0 214.6-58.8 226.8-194.3C738.9 68.9 689.2 0 500 0S261.1 68.9 273.2 204.2c12.2 135.5 61.5 194.3 226.8 194.3M314.5 62.6c32-35.2 90.7-52.3 185.5-52.3s153.5 17.1 185.5 52.3c27.1 29.9 37 74.6 31.1 140.7-6.3 70.1-22.5 113.7-52.7 141.3-32.5 29.8-84.6 43.6-164 43.6s-131.5-13.9-164-43.6c-30.1-27.6-46.4-71.2-52.6-141.3-5.8-66.1 4.1-110.8 31.2-140.7m-87.6 434.2h30.9v101.8h-30.9v-41.7h-56.6v41.7h-31.1V496.8h31.1v37.8h56.6zm-164.1 0h46.6v21.4h-44c-24.2 0-32.4 8.2-32.4 28.5 0 22.2 8 30.4 33.2 30.4h43.2v21.4H61.8C18.3 598.5 0 583.7 0 546.7c0-34 20.3-49.9 62.8-49.9m305.5 6.9 42.2 94.9h-33.9l-34-77.7c-1.1-2.6-3-2.6-3.9-.2l-32.5 77.9H279l43.2-101.7h34.5c6.1-.1 9.4 1.5 11.6 6.8m447.7 0 42.2 94.9h-33.9l-34-77.7c-1.1-2.6-2.9-2.6-3.9-.2l-32.5 77.9h-27.2l43.2-101.7h34.5c6-.1 9.3 1.5 11.6 6.8m-289.2-6.9h25.5v97.7c0 2.6-1.5 4.1-4.1 4.1H534c-5.4 0-8.7-1.2-12.6-4.6l-62.2-53.7c-1.3-1.1-2.6-.7-2.6 1.1v57.1h-25.5V496.8h16.4c6.5 0 9.6.7 13.9 4.4l62.3 53.7c1.5 1.3 3.1.5 3.1-1.6zm473.2 0v97.7c0 2.6-1.5 4.1-4.1 4.1h-14.2c-5.4 0-8.7-1.2-12.6-4.6l-62.2-53.7c-1.3-1.1-2.6-.7-2.6 1.1v57.1h-25.5V496.8h16.4c6.5 0 9.6.7 13.9 4.4l62.3 53.7c1.5 1.3 3.1.5 3.1-1.6v-56.4h25.5zm-295.2 44.7v53c0 2.6-1.5 4.1-4.1 4.1H643c-44.8 0-63.1-14.6-63.1-52.2 0-34.4 20.5-49.6 64.1-49.6l60.8-.2V518h-58.9c-25.2 0-33 3.8-33 28.3 0 27 7.5 30.7 33.9 30.7H674c1.1 0 2-.8 2-2v-15.4c0-1.1-.8-2-2-2h-21.8v-20.5h48.4c2.7.3 4.2 1.7 4.2 4.4" style="fill:#0b457f"/></svg>