<svg xmlns="http://www.w3.org/2000/svg" xml:space="preserve" viewBox="0 0 1000 384.6"><path fill="#313130" d="M26.7 329.1c0-18.4 14.9-33.3 33.4-33.3h106.6l13.4-22.2H55.6c-17.5 0-34 8.2-44.5 22.2C3.9 305.4 0 317.1 0 329.1s3.9 23.7 11.1 33.3c10.5 14 27 22.2 44.5 22.2h111.1l13.4-22.2h-120c-14.1 0-26.7-8.9-31.5-22.2-1.2-3.5-1.9-7.3-1.9-11.1m768-22.2c0-18.4-14.9-33.3-33.4-33.3H614.6l13.4 22.2h133.3c6.1 0 11.1 5 11.1 11.1s-5 11.1-11.1 11.1H614.6v66.6h26.7v-44.4H740l25.7 44.4h28.9l-26.2-45.2c15.4-3.3 26.3-16.8 26.3-32.5m167.5-33.2-63.4 48.6-63.4-48.6h-39.2l86.8 66.6v44.4h30.2v-44.4l86.8-66.6zm-525.7 33c.2-6 5.1-10.8 11.1-10.8h128.9l13.4-22.2H443.2c-18.4 0-33.4 14.9-33.4 33.3v77.7h166.7l13.4-22.2H436.5v-22.2h113.3l13.4-22.2H436.5zm282.2-174.1c-14.1 6.4-30.5 4.6-43-4.5l-16.5-11.9L548.1 36l-.4-.3-.3-.2-.8-.5c-4.6-3.2-18.7-12.7-29.1-16.9l-.1.1c-.8-.4-1.7-.7-2.5-1-.1 0-.1-.1-.2-.1-2.6-1-5.4-1.7-8.2-2.1 4.2 0 8.4.1 12.6.2l2.8.1c69.5 1.7 131.3 11.4 174.5 25.9 39.8 13.4 64 30.9 64 50.1 0 15.1-15.3 29.3-41.7 41.3m-113.6 28.3c-32.2 4.2-67.7 6.5-105.1 6.5s-73-2.3-105.1-6.5c-29.4-5.3-15.2-25.1-7.5-33.7l.2-.2c1.9-2.1 3.3-3.4 3.6-3.6 5-5.1 10.1-10.1 15.3-15.1q25.05-24.15 51.9-46.2c5.3-4.4 10.7-8.7 16-12.8.6-.5 1.2-.9 1.8-1.4 4.1-3 14.5-10 23.9-9.9 9.4 0 19.8 6.9 23.9 9.9.2.1.4.3.6.4l.5.4c.2.2.4.3.5.4l.2.1.1.1c5.4 4.2 10.7 8.5 16 12.8 17.9 14.7 35.2 30.1 51.8 46.2 5.2 5 10.3 10 15.3 15.1l.1.1c.5.4 1.8 1.7 3.4 3.4 7.5 8.4 22.3 28.7-7.4 34m-280.8-32.8c-12.5 9-28.9 10.8-43 4.5-26.4-11.9-41.7-26.2-41.7-41.4 0-19.2 24.1-36.7 64-50.1 43.2-14.5 105-24.2 174.5-25.9l2.8-.1c4.2-.1 8.4-.2 12.6-.2-2.8.4-5.6 1.2-8.2 2.1h-.1c-.9.3-1.7.7-2.6 1.1l-.1-.1c-10.4 4.2-24.5 13.7-29.1 16.9l-.8.5-.7.5-111.1 80.2zM700.6 25.5C657.8 12.8 604 4 544.4 1.1 530.2.4 516 0 501.7 0h-3.5c-14.5 0-28.7.4-42.7 1.1C396 4 342.1 12.8 299.3 25.5c-61.3 18.3-99.8 44.8-99.8 74.3 0 25 27.7 47.9 73.3 65.4 18.5 7.1 40.1 13.3 63.9 18.5 19.4 4.2 40.4 7.7 62.5 10.3 31.5 3.7 65.4 5.8 100.7 5.8s69.2-2 100.7-5.8c21-2.4 41.9-5.8 62.5-10.3 23.9-5.1 45.4-11.4 63.9-18.5 45.7-17.5 73.3-40.4 73.3-65.4.2-29.5-38.4-56-99.7-74.3M358.2 273.7V318H231.5v-44.4h-26.7v110.9h26.7v-44.4h126.6v44.4h26.7V273.7z"/></svg>