<svg xmlns="http://www.w3.org/2000/svg" xml:space="preserve" viewBox="0 0 1000 505.4"><path d="M43.3 434.2c-4.1 0-5 1-5 4.9v46.7c0 4.1 1 5.1 5.1 5.1h58.7v14.5H31.6c-14.2 0-21.9-5-21.9-22.5v-40.2c0-17.7 7.7-22.8 21.9-22.8H100v14.3zM198 419.9v33.6h-45.8v-33.6h-28.9v85.5h28.9v-38.2H198v38.2h28.8v-85.5zm153.5 14.3 26.3 61.7c2 4.4 5.5 9.5 13 9.5h26.9c7.5 0 10-4.9 12-9.4 2-4.4 32.2-76.1 32.2-76.1H440l-27.9 70c-.5 1.2-1.1 1.4-3 1.3-1.9 0-2.5-.1-3-1.3l-27.7-70H270.7c-14.2 0-21.9 5-21.9 22.8V483c0 17.5 7.7 22.5 21.9 22.5h72.7V491h-61c-4.1 0-5.1-1-5.1-5.1v-17.5h60.5v-14.1h-60.5v-15.2c0-3.9.9-4.9 5-4.9zm279-.2c-4.2 0-5 1-5 4.9V486c0 4 .9 5.1 4.9 5.1h36.8c4 0 4.9-1.1 4.9-5.1v-47.1c0-3.9-.9-4.9-5-4.9zm70.4 8.5v40.4c0 17.5-7.7 22.4-21.9 22.5h-60.1c-14.2 0-21.9-4.9-21.9-22.4v-40.4c0-17.7 7.8-22.7 21.9-22.7H679c14.1 0 21.9 4.9 21.9 22.6m48.9 48.5v-71.1h-28.7v85.5h80.4V491zm79.9-71.1c-14.1 0-21.9 5-21.9 22.8v40.2c0 17.5 7.7 22.5 21.9 22.5h72.7V491h-61c-4.1 0-5.1-1-5.1-5.1v-17.5h60.3v-14.2h-60.3v-15.1c0-3.9 1-4.9 5.1-4.9l95.1-.1v71.3h28.7v-71.3h32.9v-14.2zm-280.5 57.7-9.6-4.5v-.7h21c9.6 0 18.2-5.4 18.2-18.4v-14.7c0-14.2-7.3-19.4-18.2-19.4h-89.7v85.5h28.4v-71.5h47.4c2.6 0 3.3.8 3.4 2.3v21.4c-.2 1.4-1.6 2.3-3.5 2.3h-39.3V473l39.7 32.5h39.5zM110 213.4 161.7 112h216.7V41.1h242.5V112H890l-51.7 101.4H620.9v70.9H378.4v-70.9zM662 0H337.3v70.9H93.4L0 254.5h337.3v70.9H662v-70.9h244.5L1000 70.9H662z" style="fill:#1d1d1b"/></svg>