<?xml version="1.0" encoding="utf-8"?>
<!-- Generator: Adobe Illustrator 28.0.0, SVG Export Plug-In . SVG Version: 6.00 Build 0)  -->
<svg version="1.1" id="Слой_1" xmlns="http://www.w3.org/2000/svg" xmlns:xlink="http://www.w3.org/1999/xlink" x="0px" y="0px"
	 viewBox="0 0 1000 975" style="enable-background:new 0 0 1000 975;" xml:space="preserve">
<style type="text/css">
	.st0{fill:#3B3938;}
</style>
<g id="Logotype" transform="translate(16.514 72.65)">
	<path id="Path_30" class="st0" d="M200.1,819.1h56.2v80.4h22.1v-80.4h56.2v-18.7H200.1V819.1z"/>
	<rect id="Rectangle_5" x="152.7" y="800.4" class="st0" width="22.1" height="99.1"/>
	<path id="Path_31" class="st0" d="M932.7,800.8h-80.9v99h22.1v-80.3h53.6c20.9,0,33.9,7.7,33.9,31v49.3h22.1v-52
		C983.5,821.4,968.3,800.9,932.7,800.8"/>
	<path id="Path_32" class="st0" d="M772.6,788.6h32.5c3.9,0,7.1-3.2,7.1-7.2c0-3.9-3.2-7.1-7.1-7.1h-32.5c-3.9,0-7.1,3.2-7.2,7.1
		C765.4,785.3,768.6,788.5,772.6,788.6C772.5,788.6,772.6,788.6,772.6,788.6"/>
	<path id="Path_33" class="st0" d="M455.2,860.7c30.6-0.7,40.6-8.9,40.6-29.7c0-18.9-13.5-30.1-36.4-30.1h-99.6v99H382v-80.3h77.6
		c8.7,0,13.4,4,13.4,11.8c0,6.9-2.2,13.6-16.5,13.2h-55.8v5.7l68.1,49.3h32.1l-56.6-38.9L455.2,860.7z"/>
	<path id="Path_34" class="st0" d="M617.2,798.7c-6.7-0.3-13.6-0.4-20.4-0.4c-11.6,0-19.2,0.4-19.2,0.4h-0.4
		c-14.7,0-28.8,5.5-39.6,15.5c-9.6,9.5-14.8,22.5-14.6,36v0.2c-0.3,28.2,22.2,51.3,50.4,51.6c1.3,0,2.7,0,4-0.1
		c6.7,0.3,13.6,0.4,20.4,0.4c11.6,0,19.2-0.4,19.2-0.4h0.4c14.7,0,28.8-5.5,39.6-15.5c9.6-9.5,14.8-22.5,14.6-36v-0.2
		C671.6,820.8,649.7,800.1,617.2,798.7 M648,850.1c0.8,17.1-12.5,31.5-29.5,32.3c-1,0-1.9,0-2.9,0h-0.4h-0.4
		c-1.2,0.1-5.9,0.4-16,0.4c-6.8,0-13.2-0.2-19.2-0.4h-0.3c-17.9,0.1-32.4-14.4-32.5-32.3c-0.1-17.9,14.4-32.4,32.3-32.5h0.9
		c0.1,0,8.4-0.4,19.8-0.4c6.4,0,9.2,0.1,14.6,0.4h0.9c17.1-1.1,31.8,11.8,33,28.9c0.1,1.2,0.1,2.3,0,3.5L648,850.1z"/>
	<path id="Path_35" class="st0" d="M700.3,899.8h120.6v-18.7h-98.5v-22.2h86.4V841h-86.4v-21.4h98.5v-18.7H700.3V899.8z"/>
	<path id="Path_36" class="st0" d="M716.1,788.6h32.4c3.9,0,7.1-3.2,7.1-7.2c0-3.9-3.2-7.1-7.1-7.1h-32.4c-3.9,0-7.1,3.2-7.2,7.1
		C708.9,785.3,712.1,788.5,716.1,788.6C716.1,788.6,716.1,788.6,716.1,788.6"/>
	<path id="Path_37" class="st0" d="M37,801.2h-0.3c-14.3-0.1-28.2,5.2-38.8,14.7c-9.3,8.9-14.5,21.3-14.3,34.2v0.2
		c0,28.5,21.4,48.1,53.3,48.9c9,0.4,36,0.4,47.3,0.4c14.5,0,28.4,0,32.5-0.2v-18.9c-6.2,0.1-53.2,0.2-58.7,0.2
		c-6.5,0-13.1-0.1-19-0.4c-16.7,0.1-30.3-13.3-30.5-30c-0.1-16.7,13.3-30.3,30-30.5h0.4h0.4c0.1,0,8.2-0.4,19.4-0.4
		c3.1,0,51.4,0,57.9,0.2v-18.6c-4.3-0.1-11.1-0.2-20.2-0.2C71.5,800.7,37.3,801.1,37,801.2"/>
</g>
<g id="Emblem" transform="translate(31.279 11.051)">
	<path id="Citron" class="st0" d="M469-11.1c-163.9,0-297.3,165.5-297.3,369s133.4,369,297.3,369s297.3-165.5,297.3-369
		S633-11.1,469-11.1z M226.6,485.6l-0.3-0.9c-6-18.7-10.3-37.9-12.8-57.4V427l0.3-0.2l255.3-188.8l255.7,189v0.4
		c-2.5,19.5-6.8,38.7-12.8,57.4l-0.3,0.9l-0.7-0.5l0,0L469.2,305.8L226.6,485.6L226.6,485.6z M469.1,692.1
		c-85.2,0-164.9-52.7-214.2-141.3l-0.6-1.1l214.8-158.8l214.8,158.8l-0.6,1l0,0C634,639.3,554.3,692.1,469.1,692.1L469.1,692.1z
		 M469.1,151.5L206.8,346.1v-1.4c1.3-82.4,29.4-162.2,80.1-227.2C336.1,57,400.8,23.7,469,23.7S601.9,57,651.1,117.5
		c50.7,65,78.9,144.8,80.1,227.2v1.4l-1.1-0.8L469.1,151.5z"/>
</g>
</svg>
