<svg xmlns="http://www.w3.org/2000/svg" xml:space="preserve" id="Слой_1" x="0" y="0" version="1.1" viewBox="0 0 1000 975"><style>.st0{fill:#3b3938}</style><g id="Logotype" transform="translate(16.514 72.65)"><path id="Path_30" d="M200.1 819.1h56.2v80.4h22.1v-80.4h56.2v-18.7H200.1z" class="st0"/><path id="Rectangle_5" d="M152.7 800.4h22.1v99.1h-22.1z" class="st0"/><path id="Path_31" d="M932.7 800.8h-80.9v99h22.1v-80.3h53.6c20.9 0 33.9 7.7 33.9 31v49.3h22.1v-52c0-26.4-15.2-46.9-50.8-47" class="st0"/><path id="Path_32" d="M772.6 788.6h32.5c3.9 0 7.1-3.2 7.1-7.2 0-3.9-3.2-7.1-7.1-7.1h-32.5c-3.9 0-7.1 3.2-7.2 7.1 0 3.9 3.2 7.1 7.2 7.2-.1 0 0 0 0 0" class="st0"/><path id="Path_33" d="M455.2 860.7c30.6-.7 40.6-8.9 40.6-29.7 0-18.9-13.5-30.1-36.4-30.1h-99.6v99H382v-80.3h77.6c8.7 0 13.4 4 13.4 11.8 0 6.9-2.2 13.6-16.5 13.2h-55.8v5.7l68.1 49.3h32.1l-56.6-38.9z" class="st0"/><path id="Path_34" d="M617.2 798.7c-6.7-.3-13.6-.4-20.4-.4-11.6 0-19.2.4-19.2.4h-.4c-14.7 0-28.8 5.5-39.6 15.5-9.6 9.5-14.8 22.5-14.6 36v.2c-.3 28.2 22.2 51.3 50.4 51.6 1.3 0 2.7 0 4-.1 6.7.3 13.6.4 20.4.4 11.6 0 19.2-.4 19.2-.4h.4c14.7 0 28.8-5.5 39.6-15.5 9.6-9.5 14.8-22.5 14.6-36v-.2c0-29.4-21.9-50.1-54.4-51.5m30.8 51.4c.8 17.1-12.5 31.5-29.5 32.3h-3.7c-1.2.1-5.9.4-16 .4-6.8 0-13.2-.2-19.2-.4h-.3c-17.9.1-32.4-14.4-32.5-32.3s14.4-32.4 32.3-32.5h.9c.1 0 8.4-.4 19.8-.4 6.4 0 9.2.1 14.6.4h.9c17.1-1.1 31.8 11.8 33 28.9.1 1.2.1 2.3 0 3.5z" class="st0"/><path id="Path_35" d="M700.3 899.8h120.6v-18.7h-98.5v-22.2h86.4V841h-86.4v-21.4h98.5v-18.7H700.3z" class="st0"/><path id="Path_36" d="M716.1 788.6h32.4c3.9 0 7.1-3.2 7.1-7.2 0-3.9-3.2-7.1-7.1-7.1h-32.4c-3.9 0-7.1 3.2-7.2 7.1 0 3.9 3.2 7.1 7.2 7.2" class="st0"/><path id="Path_37" d="M37 801.2h-.3c-14.3-.1-28.2 5.2-38.8 14.7a46.37 46.37 0 0 0-14.3 34.2v.2c0 28.5 21.4 48.1 53.3 48.9 9 .4 36 .4 47.3.4 14.5 0 28.4 0 32.5-.2v-18.9c-6.2.1-53.2.2-58.7.2-6.5 0-13.1-.1-19-.4-16.7.1-30.3-13.3-30.5-30-.1-16.7 13.3-30.3 30-30.5h.8c.1 0 8.2-.4 19.4-.4 3.1 0 51.4 0 57.9.2V801c-4.3-.1-11.1-.2-20.2-.2-24.9-.1-59.1.3-59.4.4" class="st0"/></g><g id="Emblem" transform="translate(31.279 11.051)"><path id="Citron" d="M469-11.1c-163.9 0-297.3 165.5-297.3 369s133.4 369 297.3 369 297.3-165.5 297.3-369S633-11.1 469-11.1M226.6 485.6l-.3-.9c-6-18.7-10.3-37.9-12.8-57.4v-.3l.3-.2L469.1 238l255.7 189v.4c-2.5 19.5-6.8 38.7-12.8 57.4l-.3.9-.7-.5-241.8-179.4zm242.5 206.5c-85.2 0-164.9-52.7-214.2-141.3l-.6-1.1 214.8-158.8 214.8 158.8-.6 1c-49.3 88.6-129 141.4-214.2 141.4m0-540.6L206.8 346.1v-1.4c1.3-82.4 29.4-162.2 80.1-227.2C336.1 57 400.8 23.7 469 23.7S601.9 57 651.1 117.5c50.7 65 78.9 144.8 80.1 227.2v1.4l-1.1-.8z" class="st0"/></g></svg>