<svg xmlns="http://www.w3.org/2000/svg" xml:space="preserve" id="Слой_1" x="0" y="0" version="1.1" viewBox="0 0 1000 375"><style>.st1{fill:#fefefe}</style><path d="M500 0C222.5 0 0 83.2 0 187.5 0 291.1 224.3 375 500 375s500-84.1 500-187.5S775.7 0 500 0" style="fill:#00376b"/><path d="M793.7 133.7c.6-1.1 0-2-1.5-2h-25.3c-1.9 0-2.8.2-3.7 2-2.9 5.6-38.2 58.5-44.8 68.8-1.1 1.6-2.5 1.4-2.6-.4-.7-6.1-5.9-13.1-14.2-16.5-6.3-2.6-12.5-3-19-2.2-11.6 1.6-22 7.7-31.1 14.6-13.7 10.4-25.5 23.9-40.8 33.9-8.3 5.4-19.7 10.2-27.4 3.1-6.9-6.4-6.1-20.6 4.4-31.6 1.1-1.2 2.5-.2 2.2.8-1 5 .2 9.9 4 13.4 4.6 4.1 11.2 4.6 16.9 1.8 6.7-3.3 10.6-9.7 11.7-16.9 1.8-11.2-6.9-21.1-17.7-21.9-8.8-.6-17.2 2.4-25.4 9.2-4.1 3.4-6.5 5.9-10 11-.9 1.2-2.2 1.4-2.2-.5.4-14.4-5.5-22.5-17.4-22.7-9.2-.2-19.1 4.8-26.8 10.9-8.4 6.8-15.8 15.7-23.7 24.2-1 1-1.8 1-2.1-1-.2-9.5-2.6-18.8-7-25.3-1.6-2.3-4.8-3.4-7.6-1.9-1.3.7-5.7 2.7-8.9 5.3-1.6 1.3-2.2 3.2-1.5 5.7 4.3 14.2 3.3 30.4-2.5 44.1-5.3 12.5-15.6 23.8-27.7 27.6-8 2.5-16.3 1.3-21.4-5.8-7.1-9.8-4.2-26.8 6.3-40.9 9.3-12.4 22.7-20.3 36.1-25.4 1.6-.6 1.9-1.6 1.5-3-.7-2.2-1.9-5.2-2.4-6.6-1.2-3.3-4.7-3.8-8.9-3.3-9.7 1.1-18.5 4.5-27.2 9.1-22.7 12.1-34.1 35.7-39.1 48.3-2.4 6-4.5 9.8-7.1 13.2-3.6 4.5-8.1 8.6-16.3 15.8-.7.7-1.3 2-.7 3.3.8 1.7 5.1 7.8 6.3 8.3 1.3.7 2.9-.3 3.5-.7 5.8-3.9 12.6-10.1 16-14.3 1.2-1.4 2.4-.8 3 1.4 3.1 11.2 11.4 20.3 22.7 24.2 20.8 7 42.4-3.1 58.7-20.8 10.4-11.2 14.1-18.5 18.1-23.4 6.7-8.3 20-27 35.8-38.9 5.8-4.4 12.6-7.8 16.1-5.5 2.8 1.8 3.7 6-.8 14-16.1 29.4-39.8 64-44.2 72.4-.8 1.5-.1 2.6 1.4 2.6h24.4c1.3-.1 1.8-.6 2.5-1.5 12.4-19.4 24-37.8 36.5-56.8.7-1.1 1.3-.3 1.4.2.3 4.4 1.3 10.5 4 14.4 4.7 7.3 11.4 10.5 18.8 10.5 5.9.1 8.9-.8 15.2-3.2 5.2-1.9 9.3-4.4 12.5-6.7 1.9-1.3 2.2.9 2.1 1.2-2.9 15.4.7 33.6 15.9 41.1 18.3 9 38.4-3.7 49.9-15.1 1.1-1.1 2.3-1 2.5 1.4.3 4.4 2.2 9.5 5.8 13.2 9.7 9.7 29.2 5.9 48.8-9.3 12.6-9.7 25.8-23.4 37.7-38 .4-.6.8-1.5-.1-2.4-1.8-1.9-4.4-4.1-6.2-5.7-.8-.7-2-.5-2.7 0-12.2 11.6-23.2 24.8-39 35.8-5.4 3.7-13.9 6.7-17.7 1.6-1.5-2-1.3-4.8.2-8.5 4.8-11.6 78-123.1 81.8-129.7m-96.8 93.5c.1.9 1.3 1.7 2.4 2.1.4.1.6.4.2 1.3-3.1 6.7-6 10.5-9.9 16.3-3.6 5.4-7.6 9.5-12.5 13.6-7.4 6.1-17.6 12.8-26.1 8.3-3.8-2-5.4-7.2-5.3-11.5.2-12 5.5-24.3 15.4-36.4 12-14.8 25.3-22.5 34-18.3 9 4.3 6.1 14.8 2.1 22.9-.4.6-.4 1.2-.3 1.7" class="st1"/><path d="M262.6 290.7c-27.3.2-51.4-16.7-54.1-45.9-1.5-16.2 3-30.6 12.2-42.5 8.1-10.6 21.9-19.4 33.5-21.5 3.8-.7 8.9-.2 11 2.2 3.3 3.8 2.4 8.1-.9 9.8-8.9 4.5-19.6 12.3-24.9 22.9-4.3 8.6-5.2 19.1 1.4 29 11 16.6 41.5 17 69.9-9.4 7-6.5 13.3-12.7 19.7-20 12.5-14.3 16.7-19.5 33.3-42.6.2-.3.3-.6.2-.8-.1-.3-.4-.4-.9-.4-11.1.3-20.8 3.6-30.2 10.6-2.7 2-6.6 1.7-8.3-.9-1.9-2.9-.5-6.8 2.6-8.9 15.1-10.5 31.7-12.4 48.6-15.3 0 0 1.2.1 2.1-1.2 6.9-8.9 12.2-16.9 19.6-25.9 7.4-9.1 17.1-17.5 24.4-23.8 10.3-8.8 16.8-11.8 23.5-15.4 1.8-.9-.2-2-.8-2-37.3-7-76.1-16.1-113.2-2.4-25.7 9.6-36.9 29.9-31.5 43.6 3.8 9.6 16.5 11.2 28.4 5.4 9.9-4.8 19-12.6 25.5-22.7 3.6-5.6 11.3-1.6 7.1 8.1-10.9 25.5-31.6 45.7-56.8 46.6-21.5.7-35.3-15.1-35.3-34.6.1-38.5 42.9-63.8 87.9-67.6 54.2-4.5 105.5 10 159.3 16.5 41.2 5 80.8 5.1 122.2-4.4 4.9-1.1 8.3 2.1 8 7-.4 7.2-5.9 14-19.6 21.5-15.5 8.5-31.8 11.1-48.7 11.2-41 .3-79.2-15.6-118.7-24.2.1 1.7.5 3.8-1 4.9-21.9 16.1-41.7 32.6-55 55.6-.4.5-.2 1 .6 1 11.5-.6 21.9-.9 32.6-1.8 1.9-.1 1.9-.6 1.8-2-.9-7.9 1.4-17 8.4-23.2 7.1-6.4 16.1-7.1 22-2.5 6.7 5.3 6.2 14.7 2.5 21.8-3.8 7.2-10 11-15.9 12.9 0 0-1.2.3-1.1 1.4.2 1.8 8.3 6.3 9 7.5.7 1.1.3 2.9-.9 4.3-.9 1-2.2 1.9-3.9 1.9-1.4 0-2.2-.5-4-1.5-3.6-2-8.2-5.2-11.2-9-1-1.3-1.6-1.3-4.1-1.2-11.6.7-29.8 2.4-42 4-3 .4-3.4.9-4 2-19.6 32.3-40.5 67.1-63.5 90.4-24.6 24.7-45.1 31.3-66.8 31.5m186.6-143.5c.3 1.7 1 2 1.7 1.8 3.7-.8 7.8-3.8 10.2-7.4 2.2-3.2 3.2-7.9 1.1-9.8-2-1.7-5.1-1.2-7.5.9-4.7 4.2-6.1 10.1-5.5 14.5" class="st1"/><path d="M500 358.7c-264.6 0-479.1-76.6-479.1-171.1C20.9 93 235.4 16.4 500 16.4S979.1 93 979.1 187.5c0 94.6-214.5 171.2-479.1 171.2m0-328c-255.3 0-462.3 70.6-462.3 156.9s207 156.9 462.3 156.9 462.3-70.6 462.3-156.9c-.1-86.4-207-156.9-462.3-156.9" class="st1"/></svg>