<?xml version="1.0" encoding="utf-8"?>
<!-- Generator: Adobe Illustrator 28.0.0, SVG Export Plug-In . SVG Version: 6.00 Build 0)  -->
<svg version="1.1" id="Слой_1" xmlns="http://www.w3.org/2000/svg" xmlns:xlink="http://www.w3.org/1999/xlink" x="0px" y="0px"
	 viewBox="0 0 1000 375" style="enable-background:new 0 0 1000 375;" xml:space="preserve">
<style type="text/css">
	.st0{fill:#00376B;}
	.st1{fill:#FEFEFE;}
</style>
<g>
	<path class="st0" d="M500,0C222.5,0,0,83.2,0,187.5C0,291.1,224.3,375,500,375c275.7,0,500-84.1,500-187.5C1000,84.1,775.7,0,500,0
		L500,0z"/>
	<path class="st1" d="M793.7,133.7c0.6-1.1,0-2-1.5-2c-7.5,0-17.4,0-25.3,0c-1.9,0-2.8,0.2-3.7,2c-2.9,5.6-38.2,58.5-44.8,68.8
		c-1.1,1.6-2.5,1.4-2.6-0.4c-0.7-6.1-5.9-13.1-14.2-16.5c-6.3-2.6-12.5-3-19-2.2c-11.6,1.6-22,7.7-31.1,14.6
		c-13.7,10.4-25.5,23.9-40.8,33.9c-8.3,5.4-19.7,10.2-27.4,3.1c-6.9-6.4-6.1-20.6,4.4-31.6c1.1-1.2,2.5-0.2,2.2,0.8
		c-1,5,0.2,9.9,4,13.4c4.6,4.1,11.2,4.6,16.9,1.8c6.7-3.3,10.6-9.7,11.7-16.9c1.8-11.2-6.9-21.1-17.7-21.9
		c-8.8-0.6-17.2,2.4-25.4,9.2c-4.1,3.4-6.5,5.9-10,11c-0.9,1.2-2.2,1.4-2.2-0.5c0.4-14.4-5.5-22.5-17.4-22.7
		c-9.2-0.2-19.1,4.8-26.8,10.9c-8.4,6.8-15.8,15.7-23.7,24.2c-1,1-1.8,1-2.1-1c-0.2-9.5-2.6-18.8-7-25.3c-1.6-2.3-4.8-3.4-7.6-1.9
		c-1.3,0.7-5.7,2.7-8.9,5.3c-1.6,1.3-2.2,3.2-1.5,5.7c4.3,14.2,3.3,30.4-2.5,44.1c-5.3,12.5-15.6,23.8-27.7,27.6
		c-8,2.5-16.3,1.3-21.4-5.8c-7.1-9.8-4.2-26.8,6.3-40.9c9.3-12.4,22.7-20.3,36.1-25.4c1.6-0.6,1.9-1.6,1.5-3
		c-0.7-2.2-1.9-5.2-2.4-6.6c-1.2-3.3-4.7-3.8-8.9-3.3c-9.7,1.1-18.5,4.5-27.2,9.1c-22.7,12.1-34.1,35.7-39.1,48.3
		c-2.4,6-4.5,9.8-7.1,13.2c-3.6,4.5-8.1,8.6-16.3,15.8c-0.7,0.7-1.3,2-0.7,3.3c0.8,1.7,5.1,7.8,6.3,8.3c1.3,0.7,2.9-0.3,3.5-0.7
		c5.8-3.9,12.6-10.1,16-14.3c1.2-1.4,2.4-0.8,3,1.4c3.1,11.2,11.4,20.3,22.7,24.2c20.8,7,42.4-3.1,58.7-20.8
		c10.4-11.2,14.1-18.5,18.1-23.4c6.7-8.3,20-27,35.8-38.9c5.8-4.4,12.6-7.8,16.1-5.5c2.8,1.8,3.7,6-0.8,14
		c-16.1,29.4-39.8,64-44.2,72.4c-0.8,1.5-0.1,2.6,1.4,2.6c8.4,0,16.8,0,24.4,0c1.3-0.1,1.8-0.6,2.5-1.5c12.4-19.4,24-37.8,36.5-56.8
		c0.7-1.1,1.3-0.3,1.4,0.2c0.3,4.4,1.3,10.5,4,14.4c4.7,7.3,11.4,10.5,18.8,10.5c5.9,0.1,8.9-0.8,15.2-3.2c5.2-1.9,9.3-4.4,12.5-6.7
		c1.9-1.3,2.2,0.9,2.1,1.2c-2.9,15.4,0.7,33.6,15.9,41.1c18.3,9,38.4-3.7,49.9-15.1c1.1-1.1,2.3-1,2.5,1.4c0.3,4.4,2.2,9.5,5.8,13.2
		c9.7,9.7,29.2,5.9,48.8-9.3c12.6-9.7,25.8-23.4,37.7-38c0.4-0.6,0.8-1.5-0.1-2.4c-1.8-1.9-4.4-4.1-6.2-5.7c-0.8-0.7-2-0.5-2.7,0
		c-12.2,11.6-23.2,24.8-39,35.8c-5.4,3.7-13.9,6.7-17.7,1.6c-1.5-2-1.3-4.8,0.2-8.5C716.7,251.8,789.9,140.3,793.7,133.7
		L793.7,133.7z M696.9,227.2c0.1,0.9,1.3,1.7,2.4,2.1c0.4,0.1,0.6,0.4,0.2,1.3c-3.1,6.7-6,10.5-9.9,16.3c-3.6,5.4-7.6,9.5-12.5,13.6
		c-7.4,6.1-17.6,12.8-26.1,8.3c-3.8-2-5.4-7.2-5.3-11.5c0.2-12,5.5-24.3,15.4-36.4c12-14.8,25.3-22.5,34-18.3
		c9,4.3,6.1,14.8,2.1,22.9C696.8,226.1,696.8,226.7,696.9,227.2L696.9,227.2z"/>
	<path class="st1" d="M262.6,290.7c-27.3,0.2-51.4-16.7-54.1-45.9c-1.5-16.2,3-30.6,12.2-42.5c8.1-10.6,21.9-19.4,33.5-21.5
		c3.8-0.7,8.9-0.2,11,2.2c3.3,3.8,2.4,8.1-0.9,9.8c-8.9,4.5-19.6,12.3-24.9,22.9c-4.3,8.6-5.2,19.1,1.4,29c11,16.6,41.5,17,69.9-9.4
		c7-6.5,13.3-12.7,19.7-20c12.5-14.3,16.7-19.5,33.3-42.6c0.2-0.3,0.3-0.6,0.2-0.8c-0.1-0.3-0.4-0.4-0.9-0.4
		c-11.1,0.3-20.8,3.6-30.2,10.6c-2.7,2-6.6,1.7-8.3-0.9c-1.9-2.9-0.5-6.8,2.6-8.9c15.1-10.5,31.7-12.4,48.6-15.3
		c0,0,1.2,0.1,2.1-1.2c6.9-8.9,12.2-16.9,19.6-25.9c7.4-9.1,17.1-17.5,24.4-23.8c10.3-8.8,16.8-11.8,23.5-15.4c1.8-0.9-0.2-2-0.8-2
		c-37.3-7-76.1-16.1-113.2-2.4c-25.7,9.6-36.9,29.9-31.5,43.6c3.8,9.6,16.5,11.2,28.4,5.4c9.9-4.8,19-12.6,25.5-22.7
		c3.6-5.6,11.3-1.6,7.1,8.1c-10.9,25.5-31.6,45.7-56.8,46.6c-21.5,0.7-35.3-15.1-35.3-34.6c0.1-38.5,42.9-63.8,87.9-67.6
		c54.2-4.5,105.5,10,159.3,16.5c41.2,5,80.8,5.1,122.2-4.4c4.9-1.1,8.3,2.1,8,7c-0.4,7.2-5.9,14-19.6,21.5
		c-15.5,8.5-31.8,11.1-48.7,11.2c-41,0.3-79.2-15.6-118.7-24.2c0.1,1.7,0.5,3.8-1,4.9c-21.9,16.1-41.7,32.6-55,55.6
		c-0.4,0.5-0.2,1,0.6,1c11.5-0.6,21.9-0.9,32.6-1.8c1.9-0.1,1.9-0.6,1.8-2c-0.9-7.9,1.4-17,8.4-23.2c7.1-6.4,16.1-7.1,22-2.5
		c6.7,5.3,6.2,14.7,2.5,21.8c-3.8,7.2-10,11-15.9,12.9c0,0-1.2,0.3-1.1,1.4c0.2,1.8,8.3,6.3,9,7.5c0.7,1.1,0.3,2.9-0.9,4.3
		c-0.9,1-2.2,1.9-3.9,1.9c-1.4,0-2.2-0.5-4-1.5c-3.6-2-8.2-5.2-11.2-9c-1-1.3-1.6-1.3-4.1-1.2c-11.6,0.7-29.8,2.4-42,4
		c-3,0.4-3.4,0.9-4,2c-19.6,32.3-40.5,67.1-63.5,90.4C304.8,283.9,284.3,290.5,262.6,290.7L262.6,290.7z M449.2,147.2
		c0.3,1.7,1,2,1.7,1.8c3.7-0.8,7.8-3.8,10.2-7.4c2.2-3.2,3.2-7.9,1.1-9.8c-2-1.7-5.1-1.2-7.5,0.9C450,136.9,448.6,142.8,449.2,147.2
		L449.2,147.2z"/>
	<path class="st1" d="M500,358.7c-264.6,0-479.1-76.6-479.1-171.1C20.9,93,235.4,16.4,500,16.4c264.6,0,479.1,76.6,479.1,171.1
		C979.1,282.1,764.6,358.7,500,358.7L500,358.7z M500,30.7c-255.3,0-462.3,70.6-462.3,156.9c0,86.3,207,156.9,462.3,156.9
		c255.3,0,462.3-70.6,462.3-156.9C962.2,101.2,755.3,30.7,500,30.7L500,30.7z"/>
</g>
</svg>
