<svg xmlns="http://www.w3.org/2000/svg" xml:space="preserve" id="Слой_1" x="0" y="0" version="1.1" viewBox="0 0 1000 1000"><style>.st0{fill:#001c52}</style><path d="M500 0C224.615 0 0 223.077 0 500c0 275.385 223.077 500 500 500 275.385-1.539 500-224.615 500-500C1000 223.077 775.385 0 500 0m456.923 498.462c0 252.307-204.615 456.923-456.923 458.461h-1.539C246.154 956.923 41.538 752.308 41.538 500c0-121.538 47.693-236.923 133.847-323.077S376.923 43.077 498.46 43.077H500c252.308-1.539 456.923 203.077 456.923 455.385" class="st0"/><path d="M767.692 263.077c-6.154 0-12.307 3.077-16.923 9.23L409.231 741.539c-7.693 10.77-7.693 24.616 0 33.847l66.154 90.769c6.153 7.692 15.384 12.307 24.615 12.307 10.77 0 18.462-4.615 24.615-12.307l333.846-458.462c7.693-9.23 7.693-23.077 0-32.307l-73.846-103.077c-4.615-6.154-10.769-9.231-16.923-9.231m-93.846 35.384 10.77-15.385c6.153-7.692 0-20-10.77-20H510.77c-13.846 0-26.154 6.154-33.846 16.923L275.385 556.923c-7.693 10.77-7.693 23.077 0 33.846l67.692 92.308 4.615 6.154 9.231 12.307c6.154 7.693 18.462 7.693 23.077 0l13.846-20zm-289.23 393.846s1.538 0 0 0q2.307-2.308 0 0c1.538 0 0 0 0 0m23.076-393.846 1.539-3.077 9.23-12.308c6.154-7.692 0-20-10.769-20H240c-12.308 0-24.615 6.154-32.308 16.923l-69.23 95.385c-7.693 9.23-7.693 23.077 0 32.307l67.692 93.846 13.846 20c6.154 7.693 18.462 7.693 23.077 0l13.846-20z" class="st0"/></svg>