<?xml version="1.0" encoding="utf-8"?>
<!-- Generator: Adobe Illustrator 28.0.0, SVG Export Plug-In . SVG Version: 6.00 Build 0)  -->
<svg version="1.1" id="Слой_1" xmlns="http://www.w3.org/2000/svg" xmlns:xlink="http://www.w3.org/1999/xlink" x="0px" y="0px"
	 viewBox="0 0 1000 1000" style="enable-background:new 0 0 1000 1000;" xml:space="preserve">
<style type="text/css">
	.st0{fill:#001C52;}
</style>
<path class="st0" d="M499.9999695,0C224.615387,0,0,223.076889,0,499.9999695C0,775.3845215,223.0769196,1000,499.9999695,1000
	C775.3846436,998.4614258,1000,775.3845825,1000,499.9999695C1000,223.076889,775.3846436,0,499.9999695,0 M956.9229736,498.4615479
	c0,252.3076172-204.6153564,456.9230347-456.9230652,458.4614868h-1.5384521
	c-252.307663,0-456.9230652-204.6153564-456.9230652-456.9230652c0-121.5384521,47.6923065-236.9230652,133.8461609-323.0769043
	S376.9230042,43.0769081,498.4614563,43.0769081h1.5384521C752.3076172,41.538456,956.9229736,246.1538086,956.9229736,498.4615479"
	/>
<path class="st0" d="M767.6922607,263.0769043c-6.1538086,0-12.3076172,3.0769348-16.9229736,9.2307739L409.2307434,741.5383911
	c-7.6923218,10.7692871-7.6923218,24.6153564,0,33.8461914l66.1538696,90.7692261
	c6.1538696,7.6923828,15.384613,12.3076782,24.6153564,12.3076782c10.7692261,0,18.4615784-4.6154175,24.615387-12.3076782
	l333.8460693-458.4614563c7.6923828-9.2307434,7.6923828-23.0769348,0-32.3077087l-73.8460693-103.0769653
	C780,266.1538391,773.8460693,263.0769043,767.6922607,263.0769043"/>
<path class="st0" d="M673.8460693,298.4615479l10.7692871-15.384613c6.1538086-7.6923218,0-20-10.7692871-20h-10.769165H510.7691345
	c-13.8461609,0-26.1538391,6.1538391-33.8461609,16.9230957L275.3845215,556.9230347
	c-7.6922913,10.7692261-7.6922913,23.0769043,0,33.8461304l67.6922913,92.3077393l4.615387,6.1538696l0,0l9.2307739,12.3076782
	c6.1538391,7.6922607,18.4615479,7.6922607,23.0769043,0l13.8461609-20l0,0L673.8460693,298.4615479z M384.6153564,692.3076172
	C384.6153564,692.3076172,386.1538086,692.3076172,384.6153564,692.3076172
	C386.1538086,690.769165,386.1538086,690.769165,384.6153564,692.3076172
	C386.1538086,692.3076172,384.6153564,692.3076172,384.6153564,692.3076172"/>
<path class="st0" d="M407.6922607,298.4615479l1.5384827-3.0769348l0,0l9.2307739-12.3076782
	c6.1538696-7.6923218,0-20-10.7692566-20h-15.384613h-6.1538391H239.9999847
	c-12.3076782,0-24.615387,6.1538391-32.3077087,16.9230957l-69.2307587,95.3845825
	c-7.6923065,9.2307434-7.6923065,23.0769348,0,32.3076782l67.6922913,93.8461304l13.8461609,19.9999695
	c6.1538391,7.6922607,18.4615479,7.6922607,23.0769196,0l13.8461456-19.9999695L407.6922607,298.4615479z"/>
</svg>
