<svg xmlns="http://www.w3.org/2000/svg" xml:space="preserve" viewBox="0 0 1000 173.429"><path fill="#D50000" d="M0 53.94v66.024c0 33.43 21.902 53.465 59.994 53.465H236.15c39.4 0 64.39-18.271 64.39-51.744V66.37H151.01v39.753h93.011v11.768c0 11.562-6.968 14.754-16.147 14.754H73.001c-12.594 0-16.577-5.962-16.577-15.261V54.3c0-10.116 6.185-13.472 12.964-13.472H300.54V.002H59.495C20.595.002 0 21.74 0 53.94m388.424-7.77h2.417l84.073 127.258h50.05L608.977 46.17h2.417v127.258h56.587V0H582.24l-80.924 120.97h-2.762L417.527 0h-85.553v173.428h56.45zm370.859 127.258H1000v-42.179H772.513c-12.56 0-16.577-5.927-16.577-15.157v-60.46c0-10.021 6.16-13.531 12.999-13.531H1000V0H758.784c-38.884 0-59.41 21.747-59.41 53.938v66.025c0 33.43 21.79 53.465 59.909 53.465"/></svg>