<svg xmlns="http://www.w3.org/2000/svg" xmlns:xlink="http://www.w3.org/1999/xlink" xml:space="preserve" id="Слой_1" x="0" y="0" version="1.1" viewBox="0 0 1000.186 203.78"><style>.st1{fill:#d70010}</style><defs><path id="SVGID_1_" d="M0 0h1000v203.78H0z"/></defs><clipPath id="SVGID_00000093163266062440209960000004964016738127938486_"><use xlink:href="#SVGID_1_" style="overflow:visible"/></clipPath><g style="clip-path:url(#SVGID_00000093163266062440209960000004964016738127938486_)"><path d="M150.642 0C61.36 0 0 42.431 0 102.258 0 161.594 65.626 203.78 150.642 203.78c85.014 0 150.64-42.185 150.64-101.52C301.281 42.43 239.858 0 150.641 0m0 190.22c-90.815 0-141.131-38.23-141.131-88.176C9.51 43.75 72.498 4.51 150.64 4.51c78.144 0 141.13 39.179 141.13 97.534-.123 49.794-50.316 88.175-141.13 88.175" class="st1"/><path d="M150.673 12.091c-73.418.184-132.846 31.877-132.846 88.973v2.854q-.045.69 0 1.381-.045.507 0 1.011c0 .768 0 1.504.245 2.24a68.9 68.9 0 0 0 18.408 37.4 91.83 91.83 0 0 0 54.06 23.993c16.23 1.81 29.545 0 37.092-3.621a32.7 32.7 0 0 0 7.67-4.878 30.4 30.4 0 0 0 6.136-6.842c5.83-8.039 6.044-29.147 5.83-47.402V53.847L97.903 80.324l-.951 37.767s0 23.503-27.827 20.22c0 0-25.588-.553-34.516-30.68a48.4 48.4 0 0 1-1.688-12.518c0-41.543 49.427-72.775 117.72-72.775 68.297 0 117.723 31.14 117.723 72.775 0 4.28-.567 8.54-1.689 12.67-8.927 30.067-34.514 30.68-34.514 30.68-27.98 3.285-27.827-20.218-27.827-20.218l-.952-37.767-49.364-26.63V107.2c-.215 18.408 0 39.362 5.4 47.34a30.4 30.4 0 0 0 6.136 6.84 32.6 32.6 0 0 0 7.669 4.88c7.548 3.497 20.863 5.43 37.093 3.62a91.83 91.83 0 0 0 54.059-23.992 68.9 68.9 0 0 0 18.408-37.4c0-.735.185-1.472.246-2.24a5.5 5.5 0 0 0 0-1.012q.045-.691 0-1.381v-2.852c.43-57.036-59.06-88.729-132.356-88.913m845.802 25.284h-40.93a4.42 4.42 0 0 0-3.895 2.332l-48.2 90.537a.91.91 0 0 1-.811.489.92.92 0 0 1-.814-.489l-48.168-90.537a4.42 4.42 0 0 0-3.928-2.332h-40.897a3.53 3.53 0 0 0-2.515 1.023 3.55 3.55 0 0 0-1.044 2.505V163.44a3.067 3.067 0 0 0 3.068 3.069h27.98a3.07 3.07 0 0 0 3.069-3.069V85.175a1.03 1.03 0 0 1 .2-.684 1.04 1.04 0 0 1 1.3-.322c.22.11.395.29.494.515l42.217 79.401a4.42 4.42 0 0 0 3.927 2.332h30.496a4.42 4.42 0 0 0 3.896-2.332l42.156-79.401c.109-.205.284-.369.497-.464a1.05 1.05 0 0 1 1.244.312c.145.183.223.409.223.643v78.265a3.07 3.07 0 0 0 3.068 3.068h28.01a3.07 3.07 0 0 0 3.068-3.068V40.902a3.5 3.5 0 0 0-.285-1.394 3.54 3.54 0 0 0-2.02-1.92 3.5 3.5 0 0 0-1.406-.214m-241.733 2.658-33.749 78.358a.96.96 0 0 1-.859.543.96.96 0 0 1-.86-.543l-28.01-78.052a4.45 4.45 0 0 0-4.173-3.068h-28.686a4.45 4.45 0 0 0-4.173 3.068l-28.01 78.052a.95.95 0 0 1-.353.395.94.94 0 0 1-1.014 0 .94.94 0 0 1-.351-.395L590.57 40.032a4.41 4.41 0 0 0-4.079-2.67h-29.33a2.148 2.148 0 0 0-1.996 3.069l53.445 123.366a4.42 4.42 0 0 0 4.05 2.669h28.748a4.45 4.45 0 0 0 4.173-3.068l26.323-73.143a.925.925 0 0 1 .875-.633.92.92 0 0 1 .874.633l26.263 73.234a4.45 4.45 0 0 0 1.594 2.205c.748.55 1.65.852 2.579.863h28.746a4.42 4.42 0 0 0 4.05-2.668l53.447-123.367a2.15 2.15 0 0 0-.14-2.091 2.15 2.15 0 0 0-1.855-.977h-29.33a4.42 4.42 0 0 0-4.265 2.578m-374.675 61.852c0-35.098 11.782-35.098 58.753-35.098h99.006a3.067 3.067 0 0 0 3.069-3.069V40.338a3.07 3.07 0 0 0-3.069-3.068H438.73c-59.889 0-92.716 0-92.716 64.43 0 64.429 32.827 64.429 92.716 64.429h89.985a11.96 11.96 0 0 0 8.491-3.505 11.96 11.96 0 0 0 3.504-8.491v-62.19a5.06 5.06 0 0 0-5.06-5.063h-93.852a3.07 3.07 0 0 0-3.068 3.069v23.563a3.07 3.07 0 0 0 3.068 3.068h62.588a2.36 2.36 0 0 1 2.361 2.332v15.677a2.39 2.39 0 0 1-2.361 2.363H438.73c-46.88.03-58.662.03-58.662-35.068" class="st1"/></g></svg>