<?xml version="1.0" encoding="utf-8"?>
<!-- Generator: Adobe Illustrator 28.0.0, SVG Export Plug-In . SVG Version: 6.00 Build 0)  -->
<svg version="1.1" id="Слой_1" xmlns="http://www.w3.org/2000/svg" xmlns:xlink="http://www.w3.org/1999/xlink" x="0px" y="0px"
	 viewBox="0 0 1000 122.3" style="enable-background:new 0 0 1000 122.3;" xml:space="preserve">
<style type="text/css">
	.st0{opacity:0.992;fill-rule:evenodd;clip-rule:evenodd;fill:#626B6F;enable-background:new    ;}
	.st1{opacity:0.986;fill-rule:evenodd;clip-rule:evenodd;fill:#626B6F;enable-background:new    ;}
	.st2{opacity:0.987;fill-rule:evenodd;clip-rule:evenodd;fill:#626B6F;enable-background:new    ;}
	.st3{opacity:0.983;fill-rule:evenodd;clip-rule:evenodd;fill:#626B6F;enable-background:new    ;}
</style>
<g>
	<path class="st0" d="M0,0c18.7,0,37.4,0,56.1,0c0,12.2,0,24.4,0,36.5c21.2,0,42.4,0,63.5,0c0-12.2,0-24.4,0-36.5
		c18.7,0,37.4,0,56.1,0c0,40.8,0,81.5,0,122.3c-18.7,0-37.4,0-56.1,0c0-13.4,0-26.8,0-40.2c-21.2,0-42.4,0-63.5,0
		c0,13.4,0,26.8,0,40.2c-18.7,0-37.4,0-56.1,0C0,81.5,0,40.8,0,0z"/>
</g>
<g>
	<path class="st1" d="M285.9,0c20.5,0,40.9,0,61.4,0c25,40.7,49.9,81.5,74.6,122.3c-20.5,0-40.9,0-61.4,0
		C335.8,81.5,310.9,40.7,285.9,0z"/>
</g>
<g>
	<path class="st2" d="M402.3,0c21.4,0,42.7,0,64.1,0c13.7,22.3,27.2,44.6,40.8,67c-10.3,17.6-20.9,35-31.8,52.1
		C450.9,79.5,426.5,39.8,402.3,0z"/>
</g>
<g>
	<path class="st1" d="M554.3,0c20.5,0,40.9,0,61.4,0c-25,40.7-49.9,81.5-74.6,122.3c-20.5,0-40.9,0-61.4,0
		C504.3,81.4,529.2,40.6,554.3,0z"/>
</g>
<g>
	<path class="st1" d="M673.4,0c20.5,0,40.9,0,61.4,0c25,40.7,49.9,81.5,74.6,122.3c-20.5,0-40.9,0-61.4,0
		C723.3,81.4,698.4,40.7,673.4,0z"/>
</g>
<g>
	<path class="st0" d="M842.2,0c18.7,0,37.4,0,56.1,0c0,25.6,0,51.2,0,76.8c33.9,0,67.8,0,101.6,0c0,15.2,0,30.4,0,45.5
		c-52.6,0-105.2,0-157.8,0C842.2,81.5,842.2,40.8,842.2,0z"/>
</g>
<g>
	<path class="st3" d="M272.6,122.3c-21.4,0-42.7,0-64.1,0c24.1-40,48.4-79.9,73.1-119.6c10.9,17.2,21.5,34.6,31.8,52.1
		C299.7,77.2,286.1,99.7,272.6,122.3z"/>
</g>
<g>
	<path class="st3" d="M659.6,122.3c-21.2,0-42.4,0-63.5,0c24.1-39.9,48.4-79.8,72.8-119.6c10.9,17.3,21.6,34.6,32,52.1
		C687.2,77.4,673.5,99.9,659.6,122.3z"/>
</g>
</svg>
