<svg xmlns="http://www.w3.org/2000/svg" xml:space="preserve" id="Слой_1" x="0" y="0" version="1.1" viewBox="0 0 1000 122.3"><style>.st0,.st1{opacity:.992;fill-rule:evenodd;clip-rule:evenodd;fill:#626b6f;enable-background:new}.st1{opacity:.986}</style><path d="M0 0h56.1v36.5h63.5V0h56.1v122.3h-56.1V82.1H56.1v40.2H0z" class="st0"/><path d="M285.9 0h61.4c25 40.7 49.9 81.5 74.6 122.3h-61.4C335.8 81.5 310.9 40.7 285.9 0" class="st1"/><path d="M402.3 0h64.1c13.7 22.3 27.2 44.6 40.8 67-10.3 17.6-20.9 35-31.8 52.1C450.9 79.5 426.5 39.8 402.3 0" style="opacity:.987;fill-rule:evenodd;clip-rule:evenodd;fill:#626b6f"/><path d="M554.3 0h61.4c-25 40.7-49.9 81.5-74.6 122.3h-61.4C504.3 81.4 529.2 40.6 554.3 0m119.1 0h61.4c25 40.7 49.9 81.5 74.6 122.3H748C723.3 81.4 698.4 40.7 673.4 0" class="st1"/><path d="M842.2 0h56.1v76.8h101.6v45.5H842.1c.1-40.8.1-81.5.1-122.3" class="st0"/><path d="M272.6 122.3h-64.1c24.1-40 48.4-79.9 73.1-119.6 10.9 17.2 21.5 34.6 31.8 52.1q-20.55 33.6-40.8 67.5m387 0h-63.5c24.1-39.9 48.4-79.8 72.8-119.6 10.9 17.3 21.6 34.6 32 52.1-13.7 22.6-27.4 45.1-41.3 67.5" style="fill-rule:evenodd;clip-rule:evenodd;fill:#626b6f;opacity:.983"/></svg>