<?xml version="1.0" encoding="utf-8"?>
<!-- Generator: Adobe Illustrator 28.0.0, SVG Export Plug-In . SVG Version: 6.00 Build 0)  -->
<svg version="1.1" id="Слой_1" xmlns="http://www.w3.org/2000/svg" xmlns:xlink="http://www.w3.org/1999/xlink" x="0px" y="0px"
	 viewBox="0 0 1000 817.1033936" style="enable-background:new 0 0 1000 817.1033936;" xml:space="preserve">
<style type="text/css">
	.st0{fill-rule:evenodd;clip-rule:evenodd;fill:#020A0A;}
</style>
<path class="st0" d="M730.118103,69.1641769c-22.9934082,103.0104904-32.0068359,150.2849426-50.7694092,224.9675293
	c-17.8428955,71.555481-31.822876,137.9604797-55.7360229,170.1512451
	c-24.2810669,32.7426147-56.8397217,39.7326355-78.9133911,42.3078918
	c-11.4047852,1.2876587-19.866272,1.8394775-44.6991882,2.0234375c-24.8328857-0.18396-33.1105042-0.7357788-44.6991577-2.0234375
	c-22.0737-2.5752563-54.6323853-9.5652771-78.9133911-42.3078918
	c-23.913147-32.1907654-37.893158-98.5957642-55.7359924-170.1512451
	c-18.7626648-74.4986572-27.776062-121.9570618-50.7694702-224.9675446c0,0-22.9934235,0.9197311-33.1105194,1.6555252
	c-13.796051,0.9197388-24.4649658,2.2073669-36.2376404,3.6789474c0,0,13.2442322,211.9072723,19.1305084,301.489624
	c6.2541962,94.3649902,17.2910309,253.4794006,27.7760468,373.5969543c0,0,19.1305084,3.1271362,51.1373444,4.9666138
	c33.662323,1.8394775,48.5620728,2.2073975,48.5620728,2.2073975
	c13.7960205-52.9768066,30.9031067-126.3718262,50.4015503-157.6428223
	c15.819458-25.5686646,40.1004639-28.1439209,53.8965149-30.1673584
	c21.5218506-2.9431763,39.9165955-3.4949951,48.3781128-3.1271362h0.18396
	c8.4616089-0.3679199,26.6723328,0.18396,48.3782043,3.1271362c13.7960205,1.8394775,38.0770874,4.5986938,53.8964844,30.1673584
	c19.4984131,31.2709961,36.6055908,104.6659546,50.4016113,157.6428223c0,0,14.8997192-0.18396,48.5621338-2.2073975
	c32.006897-1.8394775,51.3213501-4.9666138,51.3213501-4.9666138
	c10.3010254-120.1175537,21.3378296-279.2319641,27.5921021-373.5969543
	c6.0702515-89.7662659,19.1305542-301.4895935,19.1305542-301.4895935
	c-11.772644-1.4715805-22.4415894-2.7592087-36.2376099-3.6789474
	C752.9274902,69.899971,730.118103,69.1641769,730.118103,69.1641769z"/>
<path class="st0" d="M946.6240845,420.1356201c-7.909668,107.4252319-17.4749756,171.9907227-31.0870972,218.3453979
	c-11.956604,40.6523438-26.6723633,68.0604858-48.3781128,87.7428589
	c-36.0536499,32.7426147-85.7194214,39.916626-114.9671021,44.1473999
	c-62.9099731,9.3812866-168.8635864,12.6923218-252.3757019,12.6923218c-83.3280945,0-189.4656982-3.3110352-252.3757019-12.6923218
	c-29.0636444-4.4147339-78.7294159-11.4047852-114.7830963-44.1473999
	c-21.5218658-19.682373-36.4215469-46.9065552-48.3781204-87.7428589
	c-13.6120911-46.5386353-23.177372-110.920166-31.0870857-218.3454285
	c-4.7826385-64.7494507-3.8629036-169.783371,3.3110313-226.2551727
	C67.17202,109.8164978,108.7441177,67.3246689,197.7745972,51.5051994
	c41.5720978-7.3578911,97.3081055-12.6923599,150.2849731-15.2676239
	c42.4918213-2.9431572,112.3917847-4.2307854,151.5725403-3.8628922
	c38.9967957-0.367897,108.896759,1.1036835,151.3886414,3.8628922
	c52.9768066,2.575264,108.8968506,7.9097328,150.2849731,15.2676239
	c89.0305786,16.0034142,130.6026001,58.3112984,141.2715454,142.3752136
	C950.3030396,250.3522797,951.4066772,355.3861694,946.6240845,420.1356201z M995.737915,194.0643921
	C982.1257935,59.5989265,892.727478,31.0870953,814.3659668,17.8428822
	c-39.5487061-6.6221027-109.8165894-12.3244686-154.699646-14.1639414C620.3015747,1.287631,527.5921021,0,500.0000305,0
	S379.6985168,1.287631,340.3337402,3.8628931c-45.0670776,1.8394728-115.151001,7.5418386-154.6996765,14.1639414
	C107.2725067,31.27104,17.874136,59.5989265,4.2620196,194.2483521
	c-3.678946,36.6055145-4.7826409,84.4317932-4.0468349,135.9370422
	c1.1036949,85.1676025,8.461587,142.743103,12.6923523,182.6596375
	c2.7592096,27.4081421,14.1639357,109.6326294,28.8797226,152.1244507
	c20.0502434,58.4952393,38.0771141,75.418396,59.2310524,92.8933716
	c38.8128815,31.822876,102.6425629,41.5720825,116.254715,43.9633789
	c72.1073456,13.0603027,218.1615143,15.4515991,282.7269287,15.2676392c64.3815613,0,210.4357605-2.2073975,282.7270203-15.2676392
	c13.6121826-2.3912964,77.6257935-12.3244629,116.4385986-43.9633789
	c21.1539917-17.4749756,39.1807861-34.3981323,59.2310791-92.8933716
	c14.5318604-42.4918213,25.9365234-124.7162476,28.8797607-152.1244507
	c4.2307739-39.9165649,11.4047241-97.4920654,12.5083618-182.659668
	C1000.5206299,278.6801453,999.4168701,230.8538513,995.737915,194.0643921z"/>
</svg>
