<svg xmlns="http://www.w3.org/2000/svg" xml:space="preserve" id="Слой_1" x="0" y="0" version="1.1" viewBox="0 0 1000 817.103"><style>.st0{fill-rule:evenodd;clip-rule:evenodd;fill:#020a0a}</style><path d="M730.118 69.164c-22.993 103.01-32.007 150.285-50.77 224.968-17.842 71.555-31.822 137.96-55.735 170.151-24.281 32.743-56.84 39.733-78.914 42.308-11.405 1.288-19.866 1.84-44.699 2.023-24.833-.184-33.11-.735-44.7-2.023-22.073-2.575-54.631-9.565-78.912-42.308-23.914-32.19-37.894-98.596-55.736-170.151-18.763-74.499-27.777-121.957-50.77-224.968 0 0-22.993.92-33.11 1.656-13.796.92-24.465 2.207-36.238 3.679 0 0 13.244 211.907 19.13 301.49 6.255 94.364 17.291 253.479 27.776 373.596 0 0 19.131 3.127 51.138 4.967 33.662 1.84 48.562 2.207 48.562 2.207 13.796-52.977 30.903-126.372 50.401-157.643 15.82-25.568 40.1-28.144 53.897-30.167 21.522-2.943 39.917-3.495 48.378-3.127H500c8.462-.368 26.672.184 48.378 3.127 13.796 1.84 38.077 4.599 53.897 30.167 19.498 31.271 36.605 104.666 50.401 157.643 0 0 14.9-.184 48.562-2.207 32.007-1.84 51.322-4.967 51.322-4.967 10.3-120.117 21.338-279.232 27.592-373.597 6.07-89.766 19.13-301.49 19.13-301.49-11.772-1.47-22.441-2.759-36.237-3.678-10.118-.92-32.927-1.656-32.927-1.656" class="st0"/><path d="M946.624 420.136c-7.91 107.425-17.475 171.99-31.087 218.345-11.957 40.652-26.672 68.06-48.378 87.743-36.054 32.742-85.72 39.917-114.967 44.147-62.91 9.382-168.864 12.693-252.376 12.693-83.328 0-189.466-3.311-252.376-12.693-29.063-4.414-78.729-11.405-114.783-44.147-21.522-19.682-36.421-46.907-48.378-87.743-13.612-46.539-23.177-110.92-31.087-218.345-4.783-64.75-3.863-169.784 3.311-226.256 10.669-84.064 52.241-126.555 141.272-142.375 41.572-7.358 97.308-12.692 150.285-15.267 42.491-2.944 112.391-4.231 151.572-3.863 38.997-.368 108.897 1.103 151.389 3.863 52.977 2.575 108.897 7.91 150.285 15.267 89.03 16.004 130.602 58.311 141.271 142.375 7.726 56.472 8.83 161.506 4.047 226.256m49.114-226.072C982.126 59.6 892.728 31.087 814.366 17.843c-39.549-6.622-109.817-12.325-154.7-14.164C620.302 1.288 527.592 0 500 0S379.699 1.288 340.334 3.863c-45.067 1.84-115.151 7.542-154.7 14.164C107.273 31.27 17.874 59.599 4.262 194.248.583 230.854-.521 278.68.215 330.185c1.104 85.168 8.462 142.743 12.693 182.66 2.759 27.408 14.163 109.633 28.88 152.124 20.05 58.496 38.076 75.419 59.23 92.894 38.813 31.823 102.643 41.572 116.255 43.963 72.107 13.06 218.162 15.452 282.727 15.268 64.382 0 210.436-2.208 282.727-15.268 13.612-2.391 77.626-12.324 116.439-43.963 21.154-17.475 39.18-34.398 59.23-92.894 14.533-42.491 25.937-124.716 28.88-152.124 4.231-39.917 11.405-97.492 12.509-182.66.736-51.505-.368-99.331-4.047-136.12" class="st0"/></svg>