<svg xmlns="http://www.w3.org/2000/svg" xml:space="preserve" id="Слой_1" x="0" y="0" version="1.1" viewBox="0 0 1000 614.7"><style>.st0{fill-rule:evenodd;clip-rule:evenodd;fill:#003082}</style><path id="path830" d="M573.5 220.3c5.3 27.6-9.1 50.6-21.2 72.9-13.4 20.7-35.4 38.5-61.9 35.9-59.5-.9-117.6-10-171.6-26.3-2.4-.7-4.9-2.2-6.2-4.5-1.1-3.1.4-6 2.7-8 49.2-39.9 107.8-58.4 165.8-77.8 21.6-6.2 44.6-12.9 68.8-9.8 10 1.3 20 8.2 23.6 17.6m203-118.1c27.6 22.7 52.6 53.7 44.1 91.1-13.8 55.3-74 84.7-121.9 103.4-26.1 8.7-52.4 17.6-80.9 20.3-1.8-.2-4.7.2-5.1-2.5l.7-3.1c40.6-45.7 71.3-96.9 98.3-148.8 12.5-23.4 24.1-47.5 34.8-71.1 1.6-1.8 3.1-2.7 4.9-3.3 9.9.8 17.1 8.6 25.1 14M387.7 43.4l-.9 3.3c-58.6 66.6-97.1 143.9-133.7 220.8-7.1 6.7-14-2.2-20.5-5.1-32.5-21.4-61.9-55.9-53.5-96.9 13.6-53.5 68.6-82 114.5-101.4 27.2-10.3 55.5-18.5 85.3-23.2 3.2 0 7.2-.4 8.8 2.5M678.5 54c3.3 1.8 7.4 2.4 9.4 5.8 1.8 3.8-1.8 6.2-3.8 8.7-46.1 36.1-98.9 56.1-152.9 73.8-27.4 6.7-55 18.7-85.6 12-7.1-1.8-13.6-6.5-17.6-13.4-7.6-20.9 2.7-42.8 11.6-61C451.4 57 472.4 30 501.3 29.5c62.4-.4 121.2 8.9 177.2 24.5m77 1.8c47.2 25.8 100.7 71.3 95.1 131.9-6.5 56.1-58.8 95.4-105.6 119C608.5 372 416.7 374 275.6 317c-47.7-19.8-101.2-53.9-121.2-105.2-15.4-42.1 3.3-86 34.8-115.2 65.7-59.7 149.5-80.2 235.7-92 93.6-11.4 192-1.4 275.8 27.4 18.7 6.9 37.2 14.5 54.8 23.8" class="st0"/><path id="path828" d="M905.7 496.7h-59c-9.9.6-12.7 3-12.7 15.1V545h71.7zm31.4-26.5v144.6h-31.4v-41.6H834v41.6h-31.4V501.4c0-20 8.1-31.2 31.4-31.2zm-165.9 31.2v78.2c0 24.9-14 35.1-31.4 35.1h-99.1V470.1h99.1c26.7 0 31.4 17.1 31.4 31.3m-31.8 8.7c0-7.9-4.8-13.4-13.3-13.4h-54V587h54c12.3-.6 13.3-8 13.3-13.9zM0 470.1h31.4v57h70.3v-57h31.4v144.6h-31.4v-59H31.4v59H0zm187 0 39.4 59.1 38.9-59.1h38.2l-61.4 92.4v52.1h-31.4v-52.1l-61.8-92.4zm292.9 0h101.3c14.4 0 28.4 2 28 31.2v113.3h-31.4V511.8c0-12.4-1.5-15.1-11.3-15.1h-55.1v118H480zm520.1.1v144.6h-31.4V470.2zM319.2 614.7h101.3c20.1 0 28.4-5.8 28-34.9V470.1h-31.4v103.2c0 12.4-1.5 13.9-11.3 13.9h-55.1V470.1h-31.4v144.6z" class="st0"/></svg>