<svg xmlns="http://www.w3.org/2000/svg" xml:space="preserve" viewBox="0 0 1000 392.354"><path fill="#020B24" d="M500 5.067c-98.184 0-177.327 39.118-177.327 86.13 0 26.648 32.301 47.47 81.212 59.024l85.437-97.48H500l-73.937 142.273c-80.497-13.793-137.857-49.7-137.857-93.405C288.206 45.4 383.083 0 500 0s211.794 45.401 211.794 101.609c0 43.705-57.36 79.612-137.857 93.405L500 52.741h10.678l85.416 97.48c48.932-11.553 81.212-32.376 81.212-59.024 0-47.012-79.143-86.13-177.327-86.13zM15.02 316.24H0v76.103h15.02zm434.096 0h-15.02v76.103h15.02zm-165.38 76.113v-76.102h60.176v10.604h-46.03v23.095h32.834v10.582h-32.835v31.821zm568.582 0v-65.477h-27.362V316.25h69.211v10.625h-27.373v65.477zM734.025 316.24h-15.02v76.103h15.02zm265.975 0h-15.02v76.103H1000zm-391.51 76.113-46.149-53.999v54h-14.134V316.25h11.126l46.425 54.127V316.25h14.167v76.103zm-434.14 0-46.18-53.999v54h-14.144V316.25h11.137l46.446 54.127V316.25h14.146v76.103z"/></svg>