<?xml version="1.0" encoding="utf-8"?>
<!-- Generator: Adobe Illustrator 28.0.0, SVG Export Plug-In . SVG Version: 6.00 Build 0)  -->
<svg version="1.1" id="Слой_1" xmlns="http://www.w3.org/2000/svg" xmlns:xlink="http://www.w3.org/1999/xlink" x="0px" y="0px"
	 viewBox="0 0 1000 392.3535461" enable-background="new 0 0 1000 392.3535461" xml:space="preserve">
<g>
	<g>
		<path fill="#020B24" d="M500.0000305,5.0671153c-98.1843872,0-177.3271179,39.1180038-177.3271179,86.1300278
			c0,26.6476135,32.3014221,47.4707184,81.2122803,59.0236816l85.4366455-97.4803162h10.6782532l-73.9369812,142.273468
			c-80.4975281-13.7931671-137.8570862-49.7002411-137.8570862-93.405304C288.2060242,45.401207,383.0834656,0,500.0000916,0
			s211.7940369,45.401207,211.7940369,101.6086731c0,43.7050629-57.3595581,79.6121368-137.8570557,93.405304
			l-73.9369812-142.273468h10.6782532l85.4152832,97.4803162c48.9321899-11.5529633,81.2122803-32.3760986,81.2122803-59.0237198
			c0-47.0120201-79.1427612-86.1300049-177.3271179-86.1300049h0.0212402V5.0671153z"/>
	</g>
	<g>
		<path fill="#020B24" d="M15.0199423,316.2403259H0v76.1025391h15.0199509
			C15.0199509,392.342865,15.0199509,316.2403259,15.0199423,316.2403259z"/>
		<path fill="#020B24" d="M449.1156616,316.2403259h-15.019928v76.1025391h15.019928V316.2403259z"/>
		<path fill="#020B24" d="M283.7362366,392.3534851v-76.1025085h60.1757812v10.6035767h-46.0305786v23.0953064h32.8348083
			v10.5822144h-32.8348083v31.8214111H283.7362366z"/>
		<path fill="#020B24" d="M852.3180542,392.3534851V326.875885h-27.3623047v-10.6249084h69.2112427v10.6249084h-27.3729858
			v65.4776001H852.3180542z"/>
		<path fill="#020B24" d="M734.0253296,316.2403259h-15.0199585v76.1025391h15.0199585V316.2403259z"/>
		<path fill="#020B24" d="M1000,316.2403259h-15.0199585v76.1025391H1000V316.2403259z"/>
		<path fill="#020B24" d="M608.4893188,392.3534851l-46.1479492-53.9992676v53.9992676h-14.1345825v-76.1025085h11.1262817
			l46.425354,54.1273193v-54.1272888h14.1665649v76.1025391h-11.4356689V392.3534851z"/>
		<path fill="#020B24" d="M174.3508759,392.3534851l-46.1799469-53.9992676v53.9992676h-14.1452026v-76.1025085h11.1369476
			l46.4466248,54.1273193v-54.1272888h14.1452026v76.1025391h-11.4036255V392.3534851z"/>
	</g>
</g>
</svg>
