<svg xmlns="http://www.w3.org/2000/svg" xml:space="preserve" viewBox="0 0 1000 174.088"><path fill="#ED1C24" fill-rule="evenodd" d="M50.293 1.163c-3.608-.451-37.438-.451-42.625 0C2.03 1.613 0 4.094 0 9.958v156.744c0 7.216 4.962 6.99 9.923 7.216 3.383.226 35.634.226 39.243 0 7.442-.45 7.893-4.51 7.893-11.05V9.281c0-5.188-1.353-7.443-6.766-8.12m241.543 153.813c11.05-14.885 12.63-45.557-15.787-61.119-16.013-8.795-100.587-36.084-117.952-43.076-4.962-2.03-6.315-4.285-5.639-6.991.677-3.609 5.639-3.383 7.668-3.383 1.805-.226 19.396 0 124.267.45 6.09 0 8.796-1.578 9.473-7.442.225-3.157 0-20.748 0-22.778-.226-6.766-1.354-9.472-9.022-9.472-8.57 0-111.862-.451-144.339.676C104.195 3.192 93.37 20.107 90.89 37.7c-2.481 16.914 3.834 33.152 20.297 43.076 15.562 9.472 69.238 25.935 118.855 43.978 7.893 2.932 8.57 5.638 7.442 8.345-.902 1.578-4.51 2.03-9.247 2.03-12.404 0-117.952-1.58-124.041-1.354-7.894.226-9.247 2.481-9.472 10.375v18.493c.225 7.443 1.353 10.374 9.02 10.374 44.656.451 121.561.902 138.025.451 25.936-.902 40.145-5.412 50.068-18.719M764.998 23.265C758.458 7.928 744.926 1.614 717.636.712c-21.2-.677-141.407 0-144.113 0-8.57 0-9.021 3.382-9.247 10.825 0 2.03 0 18.944.226 21.65.676 6.09 4.736 6.767 9.02 6.767 2.707 0 119.08-.677 126.974-.677 3.834 0 5.187 1.353 5.638 3.609 0 2.03-1.127 3.383-3.834 4.736-35.633 16.463-95.399 42.4-113.216 50.97-26.161 12.63-32.025 27.514-30.672 42.173 1.579 16.464 11.502 30.898 48.264 32.251 32.25.902 124.718-.45 147.27-.902 8.345-.225 8.57-3.157 9.248-9.021.225-2.48.225-15.336.225-17.366-.225-10.374-1.128-12.63-10.149-12.63-6.991 0-97.654 1.805-123.365 1.58-4.06 0-5.187-2.256-3.834-4.737.902-1.353 3.383-2.706 8.57-5.187 21.651-9.698 81.191-34.28 110.961-52.323 17.817-10.6 27.966-29.093 19.396-49.165M520.298.937c-5.413-.451-37.89-.451-41.272-.225-4.06.45-7.668 1.127-7.668 9.02v92.017c0 18.042-3.158 30.22-25.26 31.8-13.08.676-22.553.676-34.957-.451-20.974-1.805-25.034-9.022-25.034-34.281 0-15.787.226-81.416.226-87.731 0-6.54-.677-9.923-8.57-10.149-5.413-.225-36.085-.225-39.468 0-4.06.226-8.119 1.128-8.119 9.021 0 4.736-.451 58.864 0 104.195.451 58.638 40.37 57.06 59.089 58.638 11.502 1.127 61.795 1.353 84.348-.451 40.82-2.932 52.097-24.132 53.225-53.902.451-19.621 1.128-90.212.677-107.578 0-6.54-1.128-9.472-7.443-9.923m479.702 8.796c0-5.864-1.353-9.021-7.442-9.472-5.864-.452-36.987-.226-39.693 0-6.766.676-8.345 2.48-8.345 8.57-.225 4.961-.225 82.995-.45 96.977-.452 20.298-7.218 23.004-16.916 25.485-9.923 2.481-41.723 1.805-45.782 1.353-12.179-1.578-20.073-6.54-20.298-26.612-.451-19.621-.226-90.663-.226-96.978S857.916.937 852.73.486c-4.736-.225-33.83-.225-40.596 0-8.119.451-8.57 3.834-8.57 9.923-.225 11.953-.45 96.978.902 111.187 2.932 33.604 19.396 47.135 47.813 49.616 26.612 2.255 89.535 2.48 108.705-1.804 30.672-7.217 36.987-31.349 38.566-61.795.677-16.013.451-90.663.225-97.88" clip-rule="evenodd"/></svg>