<svg xmlns="http://www.w3.org/2000/svg" xml:space="preserve" viewBox="0 0 1000 492.112"><path fill="#CA171D" d="M777.657 6.707c40.56-9.937 83.959-8.923 123.91 3.65 18.05 5.78 35.49 13.993 51.004 24.945 17.238 11.863 32.144 27.479 42.08 45.933 1.522 3.65 4.564 7.301 2.84 11.459-3.245 1.825-6.997 1.318-10.546 1.318H899.54c-3.65 0-6.794-2.332-9.024-5.172-13.588-17.44-35.896-27.175-57.798-26.87-20.584 0-41.067 8.821-54.553 24.437-15.21 16.528-20.482 41.574-12.573 62.665a64.4 64.4 0 0 0 14.601 23.119c13.892 14.804 34.375 22.713 54.553 22.206 19.672-.203 39.343-8.416 52.728-23.018 3.244-3.65 6.388-8.923 12.066-8.821 12.168-.913 24.437-.203 36.605-.406 17.542 0 35.186-.101 52.728 0 3.042.608 7.402-.203 9.025 3.143 1.115 2.231-.305 4.665-1.217 6.693-8.112 16.02-19.773 30.217-33.665 41.472-15.311 12.675-32.955 22.308-51.612 29.305-45.63 16.73-96.634 17.947-143.176 4.258-20.888-6.286-40.965-15.717-58.406-28.797-15.311-11.661-29-25.958-37.923-43.095-12.067-22.206-15.21-49.28-8.112-73.717 6.895-23.93 22.815-44.514 42.182-59.927 20.787-16.832 45.832-27.986 71.69-34.78m-586.394-.203c3.752-1.217 7.808-.608 11.661-.71h76.151c2.84.812 3.448 3.854 3.346 6.49v145.914c-.101 7.402.305 14.804-.71 22.206-1.723 14.297-7.402 27.986-16.223 39.241-.305.305-1.116.913-1.521 1.116l-.305.203-.101.304c-.71 2.535-3.042 3.954-4.766 5.881-15.108 15.21-36.605 23.322-57.899 23.626H97.572c-12.877-.101-25.958.811-38.43-2.84-33.664-9.226-60.13-42.283-59.014-77.57.405-6.895-1.014-13.993.912-20.685 27.784-.71 55.669-.101 83.452-.304 2.23.203 5.678-.913 6.49 2.028 1.52 7.706-.102 15.615.912 23.423 2.23 11.154 12.675 19.773 23.93 20.178 7.098 0 14.196.203 21.294-.405 10.444-.102 20.99.101 31.535-.203 11.56-.71 21.801-11.357 21.7-23.018V13.197c-.102-2.333.304-4.563.912-6.693m232.509 7.301c2.738-4.664 8.112-6.997 13.486-6.997 26.668.102 53.336-.101 80.105.102 6.693-.406 11.154 5.171 14.196 10.343 45.529 75.136 90.854 150.476 136.382 225.613a14.5 14.5 0 0 1 2.434 6.996c-8.619 1.623-17.542.609-26.262.913-19.266 0-38.532-.101-57.697 0-4.36-.203-9.43-.507-11.965-4.563-7.098-11.965-14.398-23.829-21.294-35.895-41.979-.203-83.958-.102-126.039-.102-1.622 0-3.245-.405-4.867-.71.304-1.825.304-3.751 1.318-5.272a5234 5234 0 0 0 27.378-46.441c1.42-.71 2.84-1.825 4.461-1.825 21.7 0 43.298.203 64.896-.102-8.315-12.979-15.615-26.668-23.626-39.85-5.273-9.227-10.85-18.251-15.92-27.479-1.115-2.028-2.839-4.461-5.374-3.954-3.245 2.028-4.563 5.78-6.59 8.923-14.197 23.626-28.291 47.353-42.487 70.98-8.112 13.587-16.123 27.174-24.336 40.559-8.619 15.108-18.049 29.71-26.567 44.818-3.954 1.319-8.111.812-12.167.913h-75.036c-1.926 0-3.65-.608-5.475-1.115-.102-2.535-.102-5.172 1.52-7.301 41.169-67.33 82.033-134.76 123.403-201.987 5.172-9.025 10.749-17.644 16.123-26.567"/><path fill-rule="evenodd" d="m263.664 220.964.305-.203c-.102.101-.305.304-.406.507zm20.99 96.126c18.759-2.535 38.43-1.926 56.074 5.476 13.385 5.374 24.843 14.905 33.462 26.465 9.633 13.08 14.5 29.304 15.514 45.427 1.217 22.51-2.84 46.238-16.63 64.591-7.807 10.647-18.353 19.165-30.217 24.742-13.283 5.982-27.986 8.517-42.486 8.213-16.224.304-32.853-3.042-47.05-11.154-7.503-3.955-13.89-9.734-19.67-15.818-11.459-12.574-18.253-29.102-20.078-46.036-1.926-19.164-.101-39.14 8.01-56.682 6.389-13.384 16.427-25.147 29.102-32.853 10.14-6.692 22.004-10.546 33.97-12.37m7.2 19.367c-18.151 2.028-34.78 13.284-43.906 29-9.228 15.616-11.053 34.68-8.62 52.424 2.029 15.717 9.43 31.028 21.903 41.168 9.227 7.808 20.99 12.067 33.056 12.98 15.413 1.216 31.738-1.623 44.717-10.546 11.661-8.01 19.57-20.888 22.714-34.577 3.346-14.298 3.244-29.305.405-43.602-2.94-14.703-10.748-28.696-23.22-37.214-13.588-9.328-30.927-11.66-47.05-9.633m311.194-19.367c23.017-3.143 48.164-1.318 68.14 11.762 17.44 10.952 30.116 29.203 34.577 49.28 2.535 11.053 2.94 22.41 2.231 33.665-1.42 20.077-8.619 40.357-22.916 54.959-13.283 13.993-31.94 22.409-51.004 24.437-21.294 2.433-43.804.405-62.665-10.546-18.353-10.444-32.245-28.696-37.213-49.381-3.955-16.224-3.752-33.462-.507-49.787 3.954-19.469 14.905-37.417 31.028-49.179 11.154-8.213 24.64-13.182 38.329-15.21m1.318 20.381c-13.486 2.941-25.553 10.952-33.867 21.903-12.473 16.122-15.312 37.517-12.98 57.29 1.42 10.444 4.665 20.787 10.647 29.507 9.228 14.298 25.046 23.83 41.98 25.553 20.178 2.332 42.587-2.535 56.378-18.353 14.601-16.021 17.542-39.039 15.514-59.826-1.318-18.049-9.126-36.402-24.133-47.15-1.116.81-1.927 2.028-3.346 2.129.81-.913 1.723-1.825 2.535-2.738-15.413-9.937-34.983-12.066-52.728-8.315M.229 318.713c10.951-.102 22.004 0 32.955-.102 16.224 34.881 32.65 69.661 48.976 104.441 5.171 11.154 10.85 22.105 14.398 33.868 3.042-6.997 5.577-14.196 8.822-21.091 18.556-39.14 37.62-78.078 56.074-117.218 10.444.102 20.888 0 31.332.102q.204 85.276 0 170.553-12.066-.1-24.133 0c-.202-33.259-.101-66.62-.101-99.98-.203-15.615.608-31.23 1.825-46.846-1.825 6.084-3.245 12.37-6.084 18.15-20.28 42.892-40.762 85.784-61.144 128.676-4.563-.101-9.126 0-13.688-.101-20.078-41.878-39.952-83.858-60.13-125.837-3.448-6.49-4.766-13.79-6.794-20.787 1.724 34.476.71 69.053 1.014 103.63-.101 14.298 0 28.696-.101 43.095H.23c0-56.885-.102-113.77 0-170.554m396.167 0c43.906-.102 87.71-.102 131.616 0a944 944 0 0 0 0 19.57c-17.846.304-35.692 0-53.538.202.101 50.193 0 100.487 0 150.781h-24.54V338.384c-17.845.101-35.59 0-53.437.101-.202-6.59 0-13.181-.1-19.772m337.356-.102q22.611.102 45.224 0c9.531.102 19.063-.507 28.493 1.217 11.154 1.927 22.409 6.287 30.318 14.703 5.273 5.171 8.72 12.066 10.14 19.367 2.535 12.98.507 27.378-7.808 37.923-8.213 10.14-20.584 15.413-32.853 18.76 10.444 3.548 17.643 12.37 23.727 21.192a28862 28862 0 0 1 39.242 57.392c-9.633.203-19.266 0-28.798.101-10.545-16.528-21.395-32.752-32.042-49.179-4.968-7.3-10.545-14.702-18.353-19.063-10.241-5.17-21.902-3.143-32.853-3.447v71.69h-24.336c0-56.886 0-113.77-.101-170.656m24.437 19.57c.101 19.976-.102 39.85 0 59.826h21.8c8.417.203 17.34 0 25.148-3.752 7.909-3.448 14.5-10.14 16.832-18.455 2.839-9.43 1.52-20.685-5.476-27.986-6.692-6.794-16.528-9.126-25.755-9.633-10.85-.101-21.7 0-32.55 0m147.84-7.605c15.21-10.444 34.273-13.08 52.423-12.27 11.357.407 23.12 1.218 33.766 5.78a926 926 0 0 0 0 23.728c-8.416-5.07-17.846-8.213-27.479-9.43-11.458-1.42-23.525-1.724-34.577 2.23-6.388 2.434-12.776 6.49-15.616 13.081-3.042 7.402-1.42 16.731 4.36 22.612 3.955 4.056 9.126 6.794 14.196 9.532 17.34 9.43 36.91 15.413 52.12 28.594 7.807 6.693 13.587 16.123 14.601 26.466.811 9.633-1.115 19.773-6.895 27.783-6.388 8.923-16.528 14.297-26.77 17.44-21.293 6.186-44.108 4.868-65.402-.506-4.462-1.217-8.923-2.637-12.878-5.07.102-8.214.102-16.427.102-24.539 16.224 11.154 36.605 16.325 56.276 14.906 8.112-.609 16.528-2.23 23.22-7.3 7.606-5.983 9.634-17.442 5.68-26.06-2.739-5.577-7.504-9.633-12.473-12.98-18.556-10.85-39.85-16.933-56.986-30.318-6.895-5.171-12.168-12.675-14.298-20.99-1.622-5.577-1.216-11.458-.912-17.136a14 14 0 0 1 2.028-.203c-.507-.101-1.42-.203-1.825-.203 2.028-10.342 8.517-19.468 17.339-25.147" clip-rule="evenodd"/></svg>