<?xml version="1.0" encoding="utf-8"?>
<!-- Generator: Adobe Illustrator 28.0.0, SVG Export Plug-In . SVG Version: 6.00 Build 0)  -->
<svg version="1.1" id="Слой_1" xmlns="http://www.w3.org/2000/svg" xmlns:xlink="http://www.w3.org/1999/xlink" x="0px" y="0px"
	 viewBox="0 0 1000 492.1124573" enable-background="new 0 0 1000 492.1124573" xml:space="preserve">
<g id="_x23_ca171dff">
	<path id="Layer" fill="#CA171D" d="M777.6573486,6.7069955c40.5597534-9.9371281,83.9586182-8.9231358,123.9099731,3.6503739
		c18.0490112,5.7797575,35.4896851,13.9930983,51.0037842,24.9442215
		c17.237854,11.8637123,32.1436157,27.4792023,42.0806885,45.9338684c1.5209961,3.6503677,4.5629883,7.3007431,2.8391724,11.4581223
		c-3.244751,1.8251877-6.996582,1.3181915-10.5455322,1.3181915c-29.1016235,0-58.203186,0-87.406189,0
		c-3.6503296,0-6.7937622-2.3321838-9.0245361-5.1713638c-13.5875244-17.4406662-35.8953857-27.1750031-57.7976074-26.8708038
		c-20.5840454,0-41.0667114,8.8217316-54.5527954,24.4372177c-15.2098999,16.5280762-20.482666,41.5737076-12.5735474,62.6647415
		c3.1433716,8.6189423,8.1119385,16.5280914,14.6015625,23.1190491
		c13.8916626,14.8042908,34.3743286,22.7134247,54.5527954,22.2064209
		c19.6714478-0.2027893,39.3428955-8.4161377,52.7276001-23.0176239c3.244751-3.6503754,6.3881226-8.9231415,12.0665283-8.8217316
		c12.1679077-0.9125824,24.4371948-0.2028046,36.6051025-0.4055939c17.5420532,0,35.1855469-0.1014099,52.7276001,0
		c3.0419922,0.6083984,7.4021606-0.2027893,9.0245972,3.1433868c1.1153564,2.2307739-0.3041992,4.6643677-1.2167969,6.6923523
		c-8.1119385,16.0210876-19.7728882,30.2169952-33.6646118,41.4723053
		c-15.3112183,12.6749115-32.9547119,22.3078461-51.6122437,29.3043976
		c-45.6296387,16.7308655-96.6334839,17.9476624-143.1757812,4.2587585
		c-20.8881836-6.2867584-40.965332-15.7168884-58.4059448-28.7973785
		c-15.3112793-11.6609192-29.0001831-25.9582214-37.9233398-43.094696
		c-12.0665283-22.2064362-15.2098999-49.2800446-8.1119385-73.7172699
		c6.8951416-23.9302216,22.8148193-44.5142784,42.1820679-59.9269638
		c20.7868652-16.8322773,45.8324585-27.9861984,71.68927-34.7799492L777.6573486,6.7069955z"/>
	<path id="Layer_00000178194478452541381430000015261631826804914089_" fill="#CA171D" d="M191.2653809,6.5041971
		c3.75177-1.2167912,7.8077393-0.6083951,11.6609192-0.7097945c25.4512177,0,50.8010406,0,76.1508484,0
		c2.8391724,0.8111944,3.4475708,3.8531718,3.3461609,6.489553c0,48.6040535,0,97.2418976,0,145.913559
		c-0.1014099,7.4021454,0.3041992,14.8042908-0.7098083,22.2064209
		c-1.7237854,14.2973175-7.4021301,27.9862061-16.223877,39.2415161c-0.3041687,0.3041992-1.115387,0.9125977-1.5209961,1.1154022
		l-0.3041687,0.2027893l-0.1014099,0.3042145c-0.7098083,2.5349731-3.0419922,3.9545593-4.7657776,5.8811493
		c-15.1084747,15.2098999-36.6051178,23.3218384-57.8989563,23.6260376c-34.4757538,0-68.9515076,0-103.3258591,0
		c-12.8777084-0.1014099-25.9582138,0.811203-38.4303246-2.8391876
		c-33.6645584-9.2273407-60.1297684-42.283493-59.0143776-77.5704346c0.4055971-6.8951569-1.0139927-13.993103,0.9125934-20.6854401
		c27.7833977-0.7097931,55.6682014-0.1014099,83.4515991-0.3042145c2.2307816,0.2028046,5.6783524-0.9125824,6.4895554,2.0279999
		c1.5209885,7.7063446-0.1014023,15.6154785,0.91259,23.423233c2.2307816,11.1539154,12.6749115,19.7728577,23.9302292,20.1784515
		c7.0979462,0,14.1959076,0.2027893,21.2938538-0.4055939c10.4441223-0.1014099,20.9896393,0.1014099,31.5351715-0.2028046
		c11.5595093-0.7097931,21.8008423-11.3567047,21.6994476-23.0176239c0-52.727623,0-105.4552383,0-158.1828613
		c-0.1014099-2.3321838,0.3041992-4.5629673,0.9125824-6.6923518V6.5041971z"/>
	<path id="Layer_00000033364005822057551960000002126296604548081328_" fill="#CA171D" d="M423.7739258,13.804945
		c2.737793-4.6643667,8.1119385-6.9965496,13.486084-6.9965496c26.6679993,0.1013989,53.3360291-0.1013994,80.1054077,0.1013989
		c6.6923218-0.4055972,11.1539307,5.1713624,14.1959229,10.3427258
		c45.5283203,75.1368561,90.8536987,150.4765167,136.382019,225.6133728
		c1.4196167,2.1293945,2.2307739,4.4615631,2.4335938,6.9965515c-8.6189575,1.6223907-17.5420532,0.6083984-26.2624512,0.9125824
		c-19.2658691,0-38.5316772-0.1014099-57.696167,0c-4.3601685-0.2027893-9.4301147-0.5070038-11.9651489-4.562973
		c-7.0979004-11.9651184-14.3986816-23.8288269-21.2938232-35.8953247
		c-41.9792786-0.2028046-83.9585876-0.1014099-126.0392761-0.1014099c-1.622406,0-3.2447815-0.4055939-4.867157-0.7097931
		c0.3041992-1.8251953,0.3041992-3.75177,1.3181763-5.2727509c9.193512-15.4126892,18.319458-30.8929749,27.3778076-46.4408722
		c1.4195862-0.7097931,2.8391724-1.8251953,4.4615784-1.8251953c21.6994324,0,43.2974854,0.2028046,64.8955383-0.1014099
		c-8.3147278-12.9790955-15.6154785-26.6679993-23.6260071-39.8499069
		c-5.2727661-9.2273331-10.8497314-18.2518692-15.9197083-27.4792023c-1.115387-2.0279846-2.8391418-4.4615707-5.3741455-3.9545746
		c-3.2447815,2.0279846-4.5629578,5.7797546-6.5909424,8.9231415c-14.1958923,23.62603-28.2904053,47.353447-42.4862976,70.9794846
		c-8.1119385,13.5874939-16.122467,27.1750031-24.3358154,40.5597076
		c-8.618927,15.10849-18.0490723,29.7099915-26.5666199,44.8184814c-3.9545593,1.3181915-8.1119385,0.8111877-12.1679077,0.9125824
		c-25.0456543,0-49.9898376,0-75.0354614,0c-1.9265747,0-3.6503906-0.6083984-5.4755554-1.1154022
		c-0.1014099-2.5349731-0.1014099-5.1713715,1.5209961-7.3007355
		c41.1680908-67.3291168,82.0319824-134.7596283,123.4029236-201.9873505
		c5.1713562-9.0245342,10.7483215-17.6434727,16.122467-26.5666084L423.7739258,13.804945z"/>
</g>
<path id="Layer_00000133515940715462314540000009220375306784797117_" fill-rule="evenodd" clip-rule="evenodd" d="
	M263.6644592,220.9636383l0.3041687-0.2027893c-0.1013794,0.1014099-0.3041687,0.3041992-0.4055786,0.5070038
	L263.6644592,220.9636383z M284.6541138,317.0901794c18.7588806-2.5350037,38.4303284-1.9265747,56.0737915,5.4755554
	c13.3847046,5.3741455,24.842804,14.9057007,33.4617615,26.46521c9.6329346,13.0805054,14.500061,29.3043823,15.5140686,45.4268494
	c1.2167969,22.5106506-2.8391724,46.2380676-16.6294861,64.5913391
	c-7.8077393,10.6469421-18.3532715,19.1644592-30.2169495,24.7414246
	c-13.2833252,5.9825439-27.9862061,8.5175476-42.4862976,8.2133484c-16.223877,0.3041992-32.853363-3.0419617-47.0492554-11.1539307
	c-7.50354-3.9545593-13.8916931-9.734314-19.6714478-15.8182678
	c-11.4581299-12.5735168-18.2518768-29.1016235-20.0770569-46.0352783
	c-1.92659-19.1644592-0.1014099-39.1401062,8.0105286-56.6821899c6.3881531-13.3847046,16.4266815-25.1470032,29.101593-32.8533325
	C260.8252869,322.7685242,272.6890259,318.9153748,284.6541138,317.0901794z M291.8534546,336.457428
	c-18.1504517,2.0279846-34.7799377,13.2833252-43.9058685,29.0002136
	c-9.2273407,15.6154785-11.0525208,34.6785583-8.6189423,52.4234314c2.0279846,15.7168884,9.43013,31.0281677,21.9022217,41.1680908
	c9.227356,7.8077698,20.9896851,12.0665283,33.0561829,12.9790955c15.4126892,1.2168274,31.7379456-1.6223755,44.7170715-10.5455017
	c11.6609192-8.0105286,19.5700684-20.8882446,22.7134399-34.5771484
	c3.3461609-14.2973022,3.2447815-29.3043823,0.4055786-43.6016846
	c-2.9405518-14.7029114-10.7483215-28.6959839-23.2204285-37.213562
	C325.3152161,336.7616272,307.9759521,334.4294434,291.8534546,336.457428z M603.0477905,317.0901794
	c23.0177002-3.1434021,48.1646729-1.3181763,68.1403198,11.7622986
	c17.4407349,10.9511108,30.1156006,29.2030029,34.5771484,49.2800598
	c2.5349731,11.0525208,2.9406128,22.4092407,2.2307739,33.6645813
	c-1.4195557,20.0770264-8.6188965,40.3569031-22.9161987,54.9584045
	c-13.2832642,13.993103-31.9407349,22.4092407-51.0037842,24.4372253
	c-21.2938843,2.4335938-43.8045044,0.4056091-62.6647339-10.5455017
	c-18.3532715-10.4441223-32.2449951-28.6959839-37.213562-49.3814697c-3.9545898-16.223877-3.75177-33.4617615-0.507019-49.7870483
	c3.9545898-19.4686584,14.9057007-37.4163208,31.0281982-49.1786499
	c11.1538696-8.2133484,24.6400146-13.1818848,38.3288574-15.2098694V317.0901794z M604.3660278,337.4714355
	c-13.486145,2.9405823-25.5526733,10.9511108-33.8674316,21.9022522
	c-12.4721069,16.122467-15.3112183,37.5177307-12.9790649,57.2905884
	c1.4196167,10.4440918,4.6643066,20.7868347,10.6469116,29.5071716
	c9.2272949,14.2973022,25.0456543,23.8288269,41.9793091,25.5526428
	c20.1784668,2.3321533,42.5877075-2.5349731,56.3779907-18.3532715
	c14.6015015-16.0210876,17.5420532-39.0387268,15.5140991-59.8255615
	c-1.3182373-18.0490723-9.1259766-36.4023438-24.1330566-47.1506653c-1.1153564,0.8111877-1.9265747,2.0279846-3.3461304,2.1293945
	c0.8111572-0.9125977,1.7237549-1.8251953,2.5349731-2.737793
	C641.6809082,335.8490601,622.1108398,333.7196655,604.3660278,337.4714355z M0.2291649,318.7125549
	c10.9511213-0.1014099,22.003643,0,32.9547615-0.1014099c16.2238846,34.8813477,32.6505623,69.6613159,48.9758492,104.4412537
	c5.1713638,11.1539307,10.8497238,22.1050415,14.3986969,33.8673706c3.0419769-6.9965515,5.5769577-14.1959229,8.8217316-21.0910339
	c18.5560684-39.1401367,37.6191254-78.0774536,56.0738068-117.2175903c10.4441223,0.1014099,20.8882446,0,31.3323669,0.1014099
	c0.1351929,56.8512268,0.1351929,113.7023926,0,170.5535583c-8.0443268-0.0675659-16.0886993-0.0675659-24.1330414,0
	c-0.2027893-33.2589417-0.1013947-66.6193237-0.1013947-99.9796753c-0.2028046-15.6154785,0.6083984-31.230957,1.8251801-46.8464661
	c-1.8251801,6.0839539-3.2447662,12.370697-6.0839539,18.1504517
	c-20.2798462,42.8918762-40.7624969,85.783783-61.1437607,128.6756592c-4.5629654-0.1014099-9.1259308,0-13.6889038-0.1014099
	C69.3834457,447.2868042,49.5091934,405.3074646,29.33074,363.328186
	c-3.4475746-6.489563-4.7657661-13.7903137-6.7937508-20.7868652c1.7237873,34.475769,0.709795,69.0529175,1.0139923,103.6300354
	c-0.1014004,14.2973022,0,28.6959839-0.1014004,43.094696c-7.7063427-0.0000305-15.4464874-0.0000305-23.2204323,0
	c0-56.8849792-0.1013993-113.769989,0-170.5535889L0.2291649,318.7125549z M396.3961182,318.7125549
	c43.9058838-0.1014099,87.7103577-0.1014099,131.616272,0c-0.067627,6.5571594-0.067627,13.0805359,0,19.5700684
	c-17.8463135,0.3041687-35.6925964,0-53.5388184,0.2027893c0.1013794,50.1926575,0,100.4866943,0,150.7807007
	c-8.2133484,0-16.4266968,0-24.5386353,0c0-50.2940369,0-100.5880432,0-150.8821106
	c-17.846283,0.1014099-35.591156,0-53.437439,0.1014099c-0.2028198-6.5909424,0-13.1818848-0.1014099-19.7728577H396.3961182z
	 M733.7515259,318.611145c15.074646,0.067627,30.149292,0.067627,45.223999,0
	c9.5315552,0.1014099,19.0630493-0.5069885,28.4932251,1.2168274c11.1538696,1.9265747,22.4091797,6.2867432,30.3183594,14.7028809
	c5.2727661,5.1713867,8.7203369,12.0664978,10.1399536,19.3672791c2.5349731,12.9790955,0.506958,27.3778076-7.8077393,37.9233093
	c-8.2133179,10.1399231-20.5840454,15.4126892-32.8533936,18.7588806
	c10.4440918,3.5489502,17.6434937,12.370697,23.727417,21.1924133
	c13.1143188,19.1306458,26.1948242,38.2613525,39.2415161,57.3919983c-9.6328735,0.2028198-19.2658081,0-28.7973633,0.1014099
	c-10.5455933-16.5280762-21.3952637-32.7519531-32.0421753-49.1786499
	c-4.9685669-7.3007507-10.5455322-14.7028809-18.3532104-19.0630493
	c-10.241333-5.1713562-21.9022217-3.1433716-32.8533936-3.4475708c0,23.9302368,0,47.7590637,0,71.6893005
	c-8.1119385,0.0000305-16.223877,0.0000305-24.3358154,0c0-56.8849792,0-113.769989-0.1013794-170.6549377V318.611145z
	 M758.1887207,338.1812134c0.1013794,19.975647-0.1013794,39.849884,0,59.8255615c7.3007202,0,14.500061,0,21.8008423,0
	c8.4161377,0.2028198,17.3392334,0,25.1469727-3.75177c7.9091187-3.4475708,14.5001221-10.1399536,16.8322754-18.4546814
	c2.8391724-9.4301453,1.5209961-20.6854553-5.4755859-27.9862061c-6.6923218-6.7937622-16.5280762-9.125946-25.7554321-9.6329346
	c-10.8497314-0.1014099-21.6994629,0-32.5491333,0L758.1887207,338.1812134z M906.0288086,330.5762634
	c15.2098999-10.4441223,34.2729492-13.0805054,52.4234619-12.2693176
	c11.3566895,0.4055786,23.1190186,1.2167969,33.7659302,5.7797546c-0.1013794,7.9091492-0.1013794,15.8182983,0,23.7274475
	c-8.4161377-5.0699768-17.8462524-8.2133484-27.479187-9.4301453c-11.4580688-1.4195557-23.5246582-1.7237854-34.5770874,2.2308044
	c-6.3881836,2.4335938-12.7763062,6.489563-15.6155396,13.0805054c-3.0419922,7.4021301-1.4196167,16.7308655,4.3601685,22.61203
	c3.9545898,4.0559692,9.1259155,6.7937622,14.1958618,9.5315247c17.3392944,9.4301147,36.9093628,15.4126892,52.1192627,28.5946045
	c7.8077393,6.6923523,13.5875244,16.122467,14.6015015,26.46521c0.8112183,9.6329346-1.1153564,19.7728577-6.8950806,27.7833862
	c-6.3881836,8.9231262-16.5280762,14.2973022-26.7694702,17.4407043c-21.2938232,6.1853638-44.1087036,4.867157-65.4025269-0.507019
	c-4.4616089-1.2167969-8.9230957-2.6363831-12.8776855-5.0699463c0.1013184-8.2133484,0.1013184-16.4266968,0.1013184-24.5386353
	c16.223938,11.1539307,36.6051636,16.3252869,56.2766113,14.9057007c8.1119385-0.6083984,16.5280762-2.2308044,23.220459-7.3007507
	c7.6049805-5.9825439,9.6329346-17.4407043,5.6783447-26.0596313c-2.737793-5.5769653-7.50354-9.6329346-12.4721069-12.9790955
	c-18.5560303-10.8497314-39.8499146-16.9336853-56.9863892-30.3183594
	c-6.8951416-5.1713867-12.1679077-12.6749268-14.2973022-20.9896851
	c-1.6223145-5.5769653-1.2167969-11.4580994-0.9125977-17.1364746c0.507019-0.1013794,1.5209961-0.2027893,2.0280151-0.2027893
	c-0.507019-0.1014099-1.4196167-0.2028198-1.8251953-0.2028198
	C890.7175293,345.3805237,897.2071533,336.2546082,906.0288086,330.5762634z"/>
</svg>
