<svg xmlns="http://www.w3.org/2000/svg" xml:space="preserve" viewBox="0 0 1000 399.867"><path fill="#000001" d="M125.545 327.857C43.405 327.857 0 288.967 0 215.398v-40.072h80.133v39.192c0 21.446 13.944 44.542 44.543 44.542 29.527 0 47.15-16.33 47.15-43.662V0h82.764v213.648c0 15.595-2.876 45.546-22.082 70.927-21.747 28.725-57.728 43.282-106.963 43.282M379.374 89.79c63.681 0 119.504 24.423 119.504 136.938H347.974c0 35.758 14.826 50.595 40.998 50.595 26.16 0 34.89-20.934 34.89-20.934h74.136c0 32.27-44.487 75.887-111.646 75.006-76.755 0-114.264-56.692-114.264-115.134s33.14-126.47 107.286-126.47m45.357 91.581c0-21.803-12.196-42.736-40.118-42.736-27.052 0-36.64 19.183-36.64 42.736zM621.86 89.79c63.682 0 119.505 24.423 119.505 136.938H590.46c0 35.758 14.826 50.595 40.999 50.595 26.171 0 34.889-20.934 34.889-20.934h74.137c0 32.27-44.477 75.887-111.647 75.006-76.756 0-114.264-56.692-114.264-115.134s33.15-126.47 107.287-126.47m45.357 91.581c0-21.803-12.196-42.736-40.119-42.736-27.04 0-36.639 19.183-36.639 42.736zm93.225 218.065V98.51h75.017v34.298c2.71-5.807 4.615-9.82 10.468-16.854 5.07-6.108 19.193-23.553 56.702-23.553s95.94 26.173 95.94 118.623c0 71.529-34.878 123.862-95.07 123.862-33.15 0-47.997-11.537-56.692-18.314-5.54-4.314-7.323-6.309-10.479-10.478l.013 93.343zm74.149-185.793c-.87 44.486 8.716 68.04 45.355 68.04s41.867-40.129 41.867-70.66c0-30.52-6.978-60.18-45.355-60.18-23.554 0-40.999 18.313-41.867 62.8"/><path fill="#000001" fill-rule="evenodd" d="M977.138 399.867c-6.297 0-11.726-2.263-16.14-6.722-4.404-4.436-6.632-9.887-6.632-16.207 0-6.253 2.251-11.67 6.687-16.107 4.414-4.414 9.831-6.654 16.085-6.665 6.286 0 11.737 2.24 16.174 6.665 4.436 4.414 6.688 9.832 6.688 16.107 0 6.298-2.241 11.749-6.688 16.207-4.437 4.46-9.876 6.722-16.174 6.722m0-41.856c-5.172 0-9.664 1.873-13.33 5.562-3.657 3.679-5.507 8.17-5.507 13.365 0 5.24 1.838 9.776 5.472 13.465 3.656 3.69 8.148 5.563 13.365 5.563s9.72-1.873 13.364-5.563c3.657-3.69 5.507-8.226 5.507-13.465 0-5.194-1.85-9.686-5.507-13.365-3.667-3.69-8.158-5.562-13.364-5.562m5.762 31.59-.144-.558a2 2 0 0 1-.056-.29l-.1-.824v-2.007c0-2.686-.713-4.458-2.128-5.294-.837-.49-2.398-.736-4.616-.736h-3.01v9.709h-5.16v-25.437h9.029c3.087 0 5.406.301 6.877.914 2.698 1.126 4.068 3.344 4.068 6.61 0 2.34-.87 4.08-2.596 5.206-.558.356-1.226.646-2.04.88 1.203.446 2.151 1.17 2.82 2.14.947 1.371 1.415 2.731 1.415 4.058v1.805q0 .837.068 1.806c.043.803.133 1.048.167 1.126l.456.892zm-6.553-13.555c1.772 0 3.11-.178 3.968-.523 1.538-.613 2.285-1.74 2.285-3.467 0-1.65-.48-2.709-1.439-3.255-1.013-.568-2.707-.858-5.026-.858h-3.289v8.103z" clip-rule="evenodd"/></svg>