<?xml version="1.0" encoding="utf-8"?>
<!-- Generator: Adobe Illustrator 28.0.0, SVG Export Plug-In . SVG Version: 6.00 Build 0)  -->
<svg version="1.1" id="Слой_1" xmlns="http://www.w3.org/2000/svg" xmlns:xlink="http://www.w3.org/1999/xlink" x="0px" y="0px"
	 viewBox="0 0 1000 399.8669128" enable-background="new 0 0 1000 399.8669128" xml:space="preserve">
<path fill="#000001" d="M125.5450363,327.8571777C43.4049606,327.8571777,0,288.9664307,0,215.3983765v-40.0723267h80.1330719
	v39.1917114c0,21.4462433,13.9442368,44.5421448,44.5424881,44.5421448c29.5274124,0,47.1502304-16.329834,47.1502304-43.6615295V0
	h82.7639465v213.6483765c0,15.5941315-2.8757935,45.5452881-22.0817719,70.9263
	C210.7609253,313.2996216,174.7798309,327.8571777,125.5450363,327.8571777"/>
<path fill="#000001" d="M379.3741455,89.7909164c63.6811218,0,119.504303,24.4223938,119.504303,136.9368896H347.9737854
	c0,35.7585449,14.8259583,50.5947876,40.9985962,50.5947876c26.1604004,0,34.8891602-20.9334412,34.8891602-20.9334412h74.1365662
	c0,32.2695923-44.4873962,75.8865662-111.6463928,75.0059509c-76.755188,0-114.2636414-56.6919861-114.2636414-115.1339874
	C272.0880737,157.819046,305.2273865,89.7909164,379.3741455,89.7909164 M424.7310181,181.3719788
	c0-21.8028412-12.1957703-42.7363586-40.1182556-42.7363586c-27.0516357,0-36.6389771,19.1834259-36.6389771,42.7363586H424.7310181
	z"/>
<path fill="#000001" d="M621.8606567,89.7909164c63.6810913,0,119.5043335,24.4223938,119.5043335,136.9368896H590.4602661
	c0,35.7585449,14.8259888,50.5947876,40.9985962,50.5947876c26.1713257,0,34.8891602-20.9334412,34.8891602-20.9334412h74.1365967
	c0,32.2695923-44.4765015,75.8865662-111.6464233,75.0059509c-76.7558594,0-114.2642822-56.6919861-114.2642822-115.1339874
	C514.5739136,157.819046,547.7241211,89.7909164,621.8606567,89.7909164 M667.2175293,181.3719788
	c0-21.8028412-12.1958008-42.7363586-40.1182861-42.7363586c-27.0407104,0-36.6389771,19.1834259-36.6389771,42.7363586H667.2175293
	z"/>
<path fill="#000001" d="M760.4430542,399.4365845V98.5098038h75.0169067c0,0,0,26.4399338,0,34.2982864
	c2.7091064-5.8073807,4.6154175-9.8201904,10.4677124-16.8537979c5.071228-6.1083374,19.1937256-23.5529175,56.7021484-23.5529175
	c37.5098267,0,95.9401245,26.1723938,95.9401245,118.6230087c0,71.5282288-34.8782959,123.8618774-95.0706177,123.8618774
	c-33.1502075,0-47.996582-11.5368347-56.6912842-18.3140564c-5.5393677-4.3137817-7.3231812-6.30896-10.4786377-10.4778137
	c0,6.1083374,0.0122681,93.3421936,0.0122681,93.3421936H760.4430542z M834.5918579,213.6437836
	c-0.8695068,44.4864349,8.7164917,68.0393524,45.3554688,68.0393524s41.8667603-40.1280212,41.8667603-70.6587524
	c0-30.5196686-6.9776001-60.1809387-45.3555298-60.1809387
	C852.9052124,150.8434448,835.4599609,169.1574097,834.5918579,213.6437836"/>
<path fill-rule="evenodd" clip-rule="evenodd" fill="#000001" d="M977.1378784,399.8669128
	c-6.2972412,0-11.7263184-2.2627563-16.1403809-6.7214661c-4.4031372-4.4363708-6.631958-9.8870544-6.631958-16.2072449
	c0-6.2532959,2.2519531-11.6705322,6.6877441-16.1069336c4.4140625-4.4140625,9.8309326-6.6545715,16.0845947-6.6657104
	c6.2863159,0,11.7372437,2.240509,16.1743774,6.6657104C997.7480469,365.2453918,1000,370.6626282,1000,376.9382019
	c0,6.2978516-2.2410278,11.7485962-6.6877441,16.2072449C988.8751221,397.6041565,983.4364624,399.8669128,977.1378784,399.8669128
	 M977.1378784,358.0111694c-5.171936,0-9.6635132,1.8726196-13.3305664,5.5621948
	c-3.6561279,3.6783752-5.5066528,8.1705017-5.5066528,13.3648376c0,5.2389526,1.8382568,9.7756348,5.4726562,13.4651794
	c3.6561279,3.6895752,8.1477051,5.5621948,13.364563,5.5621948s9.7207031-1.8726196,13.364563-5.5621948
	c3.656189-3.6895447,5.5067139-8.2262268,5.5067139-13.4651794c0-5.1943359-1.8505249-9.6864624-5.5067139-13.3648376
	C986.8354492,359.8837891,982.343811,358.0111694,977.1378784,358.0111694 M982.9003296,389.6008301l-0.1442261-0.5573425
	c-0.0217285-0.0780334-0.0448608-0.1783447-0.0557861-0.2897949l-0.100647-0.8248596v-2.0064087
	c0-2.6863708-0.7130127-4.4586792-2.1281128-5.2946472c-0.836853-0.4904785-2.397522-0.7357178-4.6154175-0.7357178h-3.0098267
	v9.7087708h-5.1610718v-25.436676h9.02948c3.0873413,0,5.4059448,0.3009644,6.8768311,0.914032
	c2.6982422,1.1257935,4.0684814,3.3439636,4.0684814,6.6099243c0,2.3407898-0.8695068,4.0796814-2.5961914,5.2054749
	c-0.5578613,0.35672-1.2259521,0.6465454-2.0396729,0.8806152c1.2028198,0.4458923,2.1512451,1.1704102,2.8193359,2.1401367
	c0.9470215,1.3710632,1.4151001,2.7309875,1.4151001,4.0574341v1.8057251c0,0.5573425,0.0231323,1.1592712,0.0680542,1.8058167
	c0.0435181,0.8025208,0.1333008,1.04776,0.1673584,1.1257629l0.4558105,0.8917542H982.9003296z M976.3473511,376.0464478
	c1.7716064,0,3.1091309-0.1783447,3.9677124-0.5238647c1.5375977-0.6130676,2.2846069-1.7388916,2.2846069-3.4666138
	c0-1.6497192-0.4790039-2.7086487-1.4382935-3.2548523c-1.0136719-0.5684509-2.7077026-0.8582764-5.0263062-0.8582764h-3.2887573
	v8.1036072H976.3473511z"/>
</svg>
