<svg xmlns="http://www.w3.org/2000/svg" xml:space="preserve" viewBox="0 0 1000 225.5"><path d="M580.3 200c0 1.9.5 2.9 1.6 2.9.9 0 1.6-.4 2.5-.9L895.9 7.8c5.5-3.5 10.4-5.4 18-5.4h68.5c10.6 0 17.6 6.8 17.6 17v125.3c0 15.1-3.4 23.9-17.6 32.1l-83.1 47.8c-1 .8-2 1-2.8 1-1 0-1.9-.6-1.9-3.4V75.7c0-1.6-.5-2.9-1.8-2.9-.9 0-1.5.4-2.4.9L662.7 215.6c-6.4 4-11.6 5.2-17.5 5.2h-151c-10.4 0-17.6-6.8-17.6-16.8V23.3c0-1.3-.6-2.4-1.6-2.4-.9 0-1.6.3-2.5.8l-150.2 86.6c-1.5.9-1.9 1.8-1.9 2.4s.3 1.1 1.4 2.1L429 215.6c1.4 1.4 2.4 2.5 2.4 3.5 0 1.1-1.5 1.8-3.4 1.8h-97c-7.5 0-13.5-1.1-17.6-5l-65.1-62.5c-.8-.8-1.3-1-1.9-1-.7.1-1.5.3-2.1.6l-108.7 62.9c-6.5 3.8-11.1 4.9-17.6 4.9H17.6C7 220.7 0 214 0 203.9V80.8c0-15.3 3.4-23.9 17.6-32.1L101.2.6c.9-.5 1.5-.6 2.3-.6 1.1 0 1.9 1.3 1.9 3.9v164.7c0 1.6.5 2.5 1.8 2.5.6 0 1.5-.5 2.4-1L391.8 7.3c6.7-3.9 10.8-5 18.6-5h152C573 2.3 580 9.1 580 19.1z" style="fill:#020a0a"/></svg>