<svg xmlns="http://www.w3.org/2000/svg" xml:space="preserve" viewBox="0 0 1000 523.7"><path d="m678.2 337.4 9.1-24.8h-41.9l6.5-18.9h45.3l10-27.3h-85.6l-1.2 3.5 2 2c2.2 2.1 2.1 4.7.2 10.2l-35.7 102.8h80l9.7-27.5H630l6.9-19.9h41.3zm-99.8-71-43.6 85.1h-.9l-2.2-85.1h-36.5l-1.4 3.1 3.1 1.9c3 2.1 3.9 4.3 4.2 10.2l4.9 103.3h40.6l65.6-118.4zm-326.9 15.3-89.9 29.4-11 29.9h79.2l10.3-28.2h-54.9l62.4-21zm85.1 27.7c-2.1 5.1-4.3 6.3-7.3 7.5-2 .8-6.2 1.1-10.2 1.1h-15.7l8.5-24.5h19c5.7 0 8 2.9 8.1 6.3 0 2.1-1 6-2.4 9.6m-2.8-43h-51.4l-1 3.1 2.1 2c2.2 2.2 2.1 4.7.2 10.2l-35.9 103.2h32.8l14-41h11.1l12.4 40.9h33L335.4 343c9-1.5 13.5-4 18.1-8 6.2-5.6 10.5-13.5 14-25.2 5.2-16.9 2-26.5-1.3-31.5-4.5-6.8-14.2-11.9-32.4-11.9m440.5 43c-2 5.1-4.3 6.3-7.2 7.5-2 .8-6.2 1.1-10.2 1.1h-15.7l8.5-24.5h19c5.6 0 8 2.9 8 6.3 0 2.1-1 6-2.4 9.6m-2.9-43H720l-1 3.1 2.1 2c2.2 2.2 2.1 4.7.2 10.2l-36 103.2h32.9l14-40.9h11.1l12.4 40.9h33L773.2 343c9-1.5 13.5-4 18-8 6.2-5.6 10.5-13.5 14-25.2 5.2-16.9 2.1-26.5-1.3-31.5-4.5-6.8-14.2-11.9-32.5-11.9m67.4 159c-90.2 46.4-210.5 71.9-338.9 71.9-128.3 0-248.6-25.5-338.8-71.9C74.4 380.8 26.6 322.7 26.6 261.9c0-60.9 47.8-119 134.6-163.5 90.2-46.4 210.5-72 338.8-72S748.6 52 838.9 98.3c86.8 44.6 134.5 102.6 134.5 163.5s-47.8 119-134.6 163.6m12.3-350.6C757.1 26.6 632.4 0 500 0S242.9 26.6 149 74.8C93.3 103.4 0 165.8 0 261.9s93.3 158.4 149 187c93.9 48.3 218.6 74.8 351 74.8 132.5 0 257.1-26.6 351.1-74.8 55.6-28.6 148.9-90.9 148.9-187 0-96.2-93.3-158.5-148.9-187.1m-24.9 326.3C729.1 451 608.4 469.9 500 469.9S270.9 451 173.8 401.1C122.4 374.6 54.1 326 54.1 261.9c0-64.2 68.3-112.8 119.6-139.2C270.9 72.8 391.5 53.9 500 53.9s229.2 18.9 326.2 68.8c51.4 26.4 119.7 75 119.7 139.2 0 64.1-68.3 112.7-119.7 139.2m5-288.2c-98.5-50.6-221.2-70-331.2-70S267.3 62.3 168.7 113c-55.4 28.4-125.6 79.7-125.6 148.9 0 69.1 70.3 120.5 125.6 148.9 98.6 50.6 221.3 70 331.3 70s232.7-19.4 331.3-70c55.4-28.5 125.6-79.8 125.6-148.9 0-69.2-70.3-120.5-125.7-149M448.6 327.7c-4.1 11.6-7.3 19.1-12 24.1-3.7 3.9-8.6 6.7-19.9 6.7-8.9 0-13.8-3.6-13.8-10.4-.1-4.4 1.1-11.1 5.9-24.1 4.1-11.6 7.3-19.1 12-24.1 3.7-3.9 8.6-6.7 19.9-6.7 8.9 0 13.8 3.6 13.8 10.4.1 4.5-1.1 11.1-5.9 24.1m-1.9-62.7H443c-22.4 0-35.3 6-45.8 17.1-13.1 13.8-25.4 51-25.1 70.7.2 20.1 13.3 34 40.7 34h4c22.5 0 35.3-6 45.8-17.1 13.1-13.8 25.1-51 24.9-70.7-.3-20.1-13.3-34-40.8-34m-236.6-24.2h81.3l9.8-28.2H254l31.2-90.2h-40.7l-1 3.1 2 2c2.2 2.2 2.1 4.7.2 10.2zm214.1 0h29.9l26-76.6 15.2 76.6h29.9L566 122.3h-31.2L513 186.8l-12.4-64.4h-42.1l-1 3.1 2.1 2c2.2 2.2 2.1 4.7.2 10.2zM609 150.5h13c8.9 0 13.8 3 13.9 9.8.1 4.4-1.1 10.4-5.7 23.4-4.1 11.6-7.3 18.3-11.9 23.3-3.7 3.9-8.6 5.6-19.9 5.6h-10.9zm-28.5-12.9-35.6 103.2h52.5c22.5 0 35.3-5 45.7-16.1 13.1-13.8 25-49.5 24.6-69.2-.4-20.1-13.4-33.2-40.9-33.2h-47.7l-1 3.1 2.1 2c2.3 2.2 2.2 4.7.3 10.2m197.9 27.2h-79.2L688.9 193h54.9l-62.4 21-3.9 10.1 89.9-29.4zM383 155.1h1.1l.6 35.8h-21.9zm-83.2 85.7h34.6l15-26.2h35.8l.4 26.2H417l-6.8-118.4h-47l-1 3.1 1.5 1.5c2.5 2.4 1.5 5.9-7.7 20.3z" style="fill-rule:evenodd;clip-rule:evenodd;fill:#020a0a"/></svg>