<?xml version="1.0" encoding="utf-8"?>
<!-- Generator: Adobe Illustrator 28.0.0, SVG Export Plug-In . SVG Version: 6.00 Build 0)  -->
<svg version="1.1" id="Слой_1" xmlns="http://www.w3.org/2000/svg" xmlns:xlink="http://www.w3.org/1999/xlink" x="0px" y="0px"
	 viewBox="0 0 1000 523.7" style="enable-background:new 0 0 1000 523.7;" xml:space="preserve">
<style type="text/css">
	.st0{fill-rule:evenodd;clip-rule:evenodd;fill:#020A0A;}
</style>
<path class="st0" d="M678.2,337.4l9.1-24.8h-41.9l6.5-18.9h45.3l10-27.3h-85.6l-1.2,3.5l2,2c2.2,2.1,2.1,4.7,0.2,10.2l-35.7,102.8
	h80l9.7-27.5H630l6.9-19.9H678.2z M578.4,266.4l-43.6,85.1h-0.9l-2.2-85.1h-36.5l-1.4,3.1l3.1,1.9c3,2.1,3.9,4.3,4.2,10.2l4.9,103.3
	h40.6l65.6-118.4L578.4,266.4L578.4,266.4z M251.5,281.7l-89.9,29.4l-11,29.9h79.2l10.3-28.2h-54.9l62.4-21L251.5,281.7L251.5,281.7
	z M336.6,309.4c-2.1,5.1-4.3,6.3-7.3,7.5c-2,0.8-6.2,1.1-10.2,1.1h-15.7l8.5-24.5h19c5.7,0,8,2.9,8.1,6.3
	C339,301.9,338,305.8,336.6,309.4L336.6,309.4z M333.8,266.4h-51.4l-1,3.1l2.1,2c2.2,2.2,2.1,4.7,0.2,10.2l-35.9,103.2h32.8l14-41
	l11.1,0l12.4,40.9h33L335.4,343c9-1.5,13.5-4,18.1-8c6.2-5.6,10.5-13.5,14-25.2c5.2-16.9,2-26.5-1.3-31.5
	C361.7,271.5,352,266.4,333.8,266.4L333.8,266.4z M774.3,309.4c-2,5.1-4.3,6.3-7.2,7.5c-2,0.8-6.2,1.1-10.2,1.1h-15.7l8.5-24.5h19
	c5.6,0,8,2.9,8,6.3C776.7,301.9,775.7,305.8,774.3,309.4L774.3,309.4z M771.4,266.4H720l-1,3.1l2.1,2c2.2,2.2,2.1,4.7,0.2,10.2
	l-36,103.2h32.9l14-40.9h11.1l12.4,40.9h33L773.2,343c9-1.5,13.5-4,18-8c6.2-5.6,10.5-13.5,14-25.2c5.2-16.9,2.1-26.5-1.3-31.5
	C799.4,271.5,789.7,266.4,771.4,266.4L771.4,266.4z M838.8,425.4c-90.2,46.4-210.5,71.9-338.9,71.9c-128.3,0-248.6-25.5-338.8-71.9
	C74.4,380.8,26.6,322.7,26.6,261.9c0-60.9,47.8-119,134.6-163.5C251.4,52,371.7,26.4,500,26.4c128.3,0,248.6,25.6,338.9,71.9
	c86.8,44.6,134.5,102.6,134.5,163.5C973.4,322.7,925.6,380.8,838.8,425.4z M851.1,74.8C757.1,26.6,632.4,0,500,0
	C367.6,0,242.9,26.6,149,74.8C93.3,103.4,0,165.8,0,261.9c0,96.1,93.3,158.4,149,187c93.9,48.3,218.6,74.8,351,74.8
	c132.5,0,257.1-26.6,351.1-74.8c55.6-28.6,148.9-90.9,148.9-187C1000,165.7,906.7,103.4,851.1,74.8L851.1,74.8z M826.2,401.1
	c-97.1,49.9-217.8,68.8-326.2,68.8c-108.4,0-229.1-18.9-326.2-68.8C122.4,374.6,54.1,326,54.1,261.9c0-64.2,68.3-112.8,119.6-139.2
	C270.9,72.8,391.5,53.9,500,53.9s229.2,18.9,326.2,68.8c51.4,26.4,119.7,75,119.7,139.2C945.9,326,877.6,374.6,826.2,401.1
	L826.2,401.1z M831.2,112.9C732.7,62.3,610,42.9,500,42.9c-110,0-232.7,19.4-331.3,70.1c-55.4,28.4-125.6,79.7-125.6,148.9
	c0,69.1,70.3,120.5,125.6,148.9c98.6,50.6,221.3,70,331.3,70c110,0,232.7-19.4,331.3-70c55.4-28.5,125.6-79.8,125.6-148.9
	C956.9,192.7,886.6,141.4,831.2,112.9L831.2,112.9z M448.6,327.7c-4.1,11.6-7.3,19.1-12,24.1c-3.7,3.9-8.6,6.7-19.9,6.7
	c-8.9,0-13.8-3.6-13.8-10.4c-0.1-4.4,1.1-11.1,5.9-24.1c4.1-11.6,7.3-19.1,12-24.1c3.7-3.9,8.6-6.7,19.9-6.7
	c8.9,0,13.8,3.6,13.8,10.4C454.6,308.1,453.4,314.7,448.6,327.7z M446.7,265H443c-22.4,0-35.3,6-45.8,17.1
	c-13.1,13.8-25.4,51-25.1,70.7c0.2,20.1,13.3,34,40.7,34h4c22.5,0,35.3-6,45.8-17.1c13.1-13.8,25.1-51,24.9-70.7
	C487.2,278.9,474.2,265,446.7,265L446.7,265z M210.1,240.8l81.3,0l9.8-28.2H254l31.2-90.2h-40.7l-1,3.1l2,2
	c2.2,2.2,2.1,4.7,0.2,10.2L210.1,240.8z M424.2,240.8h29.9l26-76.6l15.2,76.6h29.9L566,122.3l-31.2,0L513,186.8l-12.4-64.4h-42.1
	l-1,3.1l2.1,2c2.2,2.2,2.1,4.7,0.2,10.2L424.2,240.8L424.2,240.8z M609,150.5h13c8.9,0,13.8,3,13.9,9.8c0.1,4.4-1.1,10.4-5.7,23.4
	c-4.1,11.6-7.3,18.3-11.9,23.3c-3.7,3.9-8.6,5.6-19.9,5.6h-10.9L609,150.5L609,150.5z M580.5,137.6l-35.6,103.2h52.5
	c22.5,0,35.3-5,45.7-16.1c13.1-13.8,25-49.5,24.6-69.2c-0.4-20.1-13.4-33.2-40.9-33.2h-47.7l-1,3.1l2.1,2
	C582.5,129.6,582.4,132.1,580.5,137.6L580.5,137.6z M778.4,164.8h-79.2L688.9,193h54.9l-62.4,21l-3.9,10.1l89.9-29.4L778.4,164.8
	L778.4,164.8z M383,155.1h1.1l0.6,35.8h-21.9L383,155.1L383,155.1z M299.8,240.8h34.6l15-26.2h35.8l0.4,26.2h31.4l-6.8-118.4h-47
	l-1,3.1l1.5,1.5c2.5,2.4,1.5,5.9-7.7,20.3L299.8,240.8L299.8,240.8z"/>
</svg>
