<svg xmlns="http://www.w3.org/2000/svg" xml:space="preserve" viewBox="0 0 1000 182"><path d="M181.4 8.7 176 17c36.8 15.3 51.6 43 51.6 72.7 0 14.9-4 28.3-11.8 28.3h-96.4c-13.1 0-17-4.7-11.2-16.6 10.5-21.1 42.1-61.2 61.7-85.5 2.9-3.6 5.3-9.1-5.1-11.9-10.5-2.8-27.4-4-41.7-4C50.5.2 0 39.8 0 91c0 47 43.8 91 122.9 91 34.9 0 77.9-10 102.1-37.9h-20.8c-23.8 21.7-54.5 26.6-81 26.6C59.4 170.7 19 137.1 19 91c0-42.7 45.7-81 103.3-81 6.9 0 9.3 1.5 1.9 10.6-14.7 18.5-41 55.3-53.5 76.8-13.3 23 .2 41.7 30.1 41.7h120.8c7.4 0 11.8-4.3 16-12.1 3.6-6.2 8.8-18.9 8.8-35.9.1-34.7-25.6-66.6-65-82.4m787.9 75.5h-81.9c2.7-10.6 10.7-17.9 26.1-17.9h78.3V48.5h-83.4c-47.6 0-58.7 34-58.7 53.4h101.5c13.9 0 13.9 18.9.4 18.9h-112V48.5H806v72.3h-56c-14.9 0-21.3-7.2-21.3-18.5V48.5h-54.1l-48.4 30.8-41.7-30.8h-120c-34.7 0-59.4 20.4-62.3 46.1h22.5c-9.1 6-16 15.7-20 26.4h-70.9c-13.5 0-19.6-7-19.6-20.2V48.5h-33.9v44.4c0 28.3 15.2 45.9 49.7 45.9h236.4L615 108l41.7 31h49.9l-65-48.1 53-33.4v50.8c0 15.7 20.2 30.8 38.5 30.8h236.2c41 0 40.8-54.9 0-54.9m-409 37H445.6c1.3-9.8 6.1-19.4 21.9-19.4h71.1V84.2h-94.7c1.7-7.2 9.1-17.7 26.1-17.7h75.1v-9.8l54.1 39.8z" style="fill:#020a0a"/></svg>