<svg xmlns="http://www.w3.org/2000/svg" xml:space="preserve" viewBox="0 0 1000 815.001"><path fill="#000001" d="M997.267 354.788C976.25 177.9 836.977 59.158 666.089 18.144A712 712 0 0 0 500 .03a712 712 0 0 0-166.072 18.165C163.039 59.174 23.748 177.9 2.75 354.788a411 411 0 0 0-2.716 52.697A411 411 0 0 0 2.75 460.18c20.999 176.89 160.29 295.631 331.178 336.63A711.4 711.4 0 0 0 500 814.974a711.4 711.4 0 0 0 166.072-18.165c170.889-40.998 310.18-159.74 331.178-336.645a411 411 0 0 0 2.716-52.68 411 411 0 0 0-2.716-52.696M141.524 202.982c.3-.55.733-1.334 1.083-1.833C185.937 136.519 268.6 83.006 360.31 59.658A566.2 566.2 0 0 1 500 43.359a566.2 566.2 0 0 1 139.674 16.216c91.66 23.331 174.388 76.861 217.702 141.49.333.517.783 1.283 1.083 1.833a.983.983 0 0 1-.4 1.45c-.433.267-1.1.617-1.583.85-13.466 6.666-38.33 19.016-56.046 27.765-107.626 53.23-183.538 91.86-199.987 106.443-20.448 18.199-50.646 63.579-100.443 137.89-49.813-74.311-79.995-119.691-100.46-137.79-16.449-14.6-92.36-53.213-199.987-106.443-17.698-8.75-42.58-21.065-56.046-27.765-.483-.233-1.133-.6-1.583-.85a.983.983 0 0 1-.4-1.45m776.781 251.567c-17.682 158.04-134.89 264.132-278.681 300.746A565.6 565.6 0 0 1 500 771.544a565.6 565.6 0 0 1-139.69-16.216C216.535 718.698 99.326 612.604 81.694 454.565a390 390 0 0 1-2.283-47.08 334 334 0 0 1 2.15-43.33 252.4 252.4 0 0 1 13.332-58.33c.15-.35.4-.85.583-1.167.253-.5.838-.736 1.367-.55.433.134 1.05.367 1.483.55 11.666 4.817 30.865 12.766 60.246 25.532 135.807 59.013 216.152 97.927 235.7 114.159 16.666 13.816 56.864 70.128 98.96 128.941h13.717c42.097-58.813 82.31-115.125 98.96-128.941 19.532-16.216 99.876-55.146 235.7-114.16 29.382-12.765 48.514-20.714 60.246-25.53.434-.184 1.05-.417 1.484-.55a1.12 1.12 0 0 1 1.366.55c.184.316.434.816.584 1.166a252.4 252.4 0 0 1 13.332 58.33 334 334 0 0 1 2.15 43.33 390 390 0 0 1-2.283 47.08"/></svg>