<?xml version="1.0" encoding="utf-8"?>
<!-- Generator: Adobe Illustrator 28.0.0, SVG Export Plug-In . SVG Version: 6.00 Build 0)  -->
<svg version="1.1" id="Слой_1" xmlns="http://www.w3.org/2000/svg" xmlns:xlink="http://www.w3.org/1999/xlink" x="0px" y="0px"
	 viewBox="0 0 1000 815.0012817" enable-background="new 0 0 1000 815.0012817" xml:space="preserve">
<path fill="#000001" d="M997.2667236,354.788208C976.2514038,177.9000549,836.977417,59.15802,666.0889282,18.1440926
	C611.6289062,5.6077003,555.8820801-0.4726447,500,0.0286421c-55.8784485-0.4831147-111.6194763,5.6139922-166.0722046,18.1654491
	C163.0392609,59.1746788,23.7485867,177.9000549,2.7499952,354.788208
	c-2.0340176,17.4891357-2.9413905,35.0908813-2.7164848,52.6964417
	c-0.2248089,17.6055603,0.6825529,35.2073669,2.7164848,52.6965027
	c20.9985924,176.8881226,160.2892609,295.630127,331.1777954,336.6274414
	C388.3796082,809.3652344,444.1213074,815.4624023,500,814.9740601
	c55.8787842,0.4888306,111.6204834-5.6083984,166.0722046-18.1654663
	C836.9608154,755.8113403,976.2514038,637.0693359,997.25,460.1644897
	c2.0331421-17.4836121,2.9405518-35.079834,2.7164917-52.6798401c0.2248535-17.6055603-0.6824341-35.2073364-2.7164307-52.6964722
	 M141.5240173,202.98172c0.2999878-0.5499725,0.7332916-1.333252,1.0832672-1.8332062
	c43.3304138-64.6290131,125.9915619-118.1420898,217.7020721-141.490509
	C406.0144958,48.4401474,452.9400024,42.9649467,500,43.3590698c47.0509644-0.4200172,93.9707642,5.0271873,139.6740112,16.21558
	c91.6605225,23.3317757,174.3883057,76.8615112,217.7020264,141.4905243c0.333313,0.5166321,0.7833252,1.2832336,1.083252,1.8332062
	c0.307373,0.4476929,0.1936035,1.0597687-0.2540894,1.3671265c-0.0461426,0.0316925-0.0949707,0.0593872-0.145874,0.0827637
	c-0.4332886,0.2666473-1.0999146,0.6166229-1.5831909,0.8499451c-13.4657593,6.666214-38.3308105,19.0153809-56.0462646,27.764801
	c-107.6260986,53.2297668-183.5377197,91.8605042-199.9865723,106.4428711
	C579.9946289,357.6046753,549.7966309,402.9849854,500,477.2966614
	c-49.813324-74.311676-79.9946289-119.6919556-100.4599304-137.790741
	c-16.4488831-14.5990295-92.3604736-53.2131348-199.9865875-106.4428864
	c-17.698822-8.7494049-42.5804901-21.0652466-56.0462494-27.764801c-0.4833069-0.2333221-1.133255-0.5999756-1.5832367-0.8499451
	c-0.4934082-0.2268066-0.709549-0.8106537-0.4827423-1.3040619c0.0233917-0.0508728,0.0510864-0.0996704,0.0827637-0.1458435
	 M918.3052979,454.5648499C900.6231079,612.604248,783.4143066,718.6971436,639.6239624,755.3113403
	C593.9387207,766.5072632,547.0352783,771.960083,500,771.5435791
	c-47.0568237,0.4274902-93.9830627-5.0197754-139.6906433-16.2155762
	C216.535675,718.6971436,99.3268585,612.604248,81.6947098,454.5648499
	c-1.7103424-15.6329346-2.4728012-31.3551025-2.2831879-47.0802002c-0.2228546-14.4747925,0.4952698-28.948761,2.1498642-43.3304138
	c2.1158371-19.9029846,6.5914154-39.4836426,13.3324432-58.3294373c0.1499863-0.3499756,0.399971-0.8499451,0.5832901-1.1665955
	c0.2528381-0.5003967,0.8375702-0.7357178,1.3665695-0.5499573c0.4333038,0.1333008,1.0499344,0.3666382,1.4832382,0.5499573
	c11.6658783,4.8163452,30.8646011,12.7658386,60.2459641,25.5316162
	c135.8075714,59.0127258,216.1522064,97.9267883,235.700882,114.1590271
	c16.6655273,13.8157654,56.862854,70.1286316,98.960022,128.9413757h13.7157288
	c42.097229-58.8127441,82.3111572-115.1256409,98.960022-128.9413757
	c19.5320435-16.2155762,99.8766479-55.1463013,235.7009277-114.1590271
	c29.3813477-12.7658081,48.5133667-20.715271,60.2459717-25.5316162c0.4333496-0.1832886,1.0499268-0.416626,1.4832764-0.5499573
	c0.5289917-0.1857605,1.1137085,0.0495605,1.3665771,0.5499573c0.1833496,0.3166504,0.4332886,0.8166199,0.583252,1.1665955
	c6.7410278,18.8457947,11.2166748,38.4264526,13.3324585,58.3294373
	c1.6546631,14.3816528,2.3727417,28.8556213,2.1499023,43.3304138c0.1895752,15.7250977-0.572876,31.4472656-2.2832031,47.0802002"
	/>
</svg>
