<svg xmlns="http://www.w3.org/2000/svg" xml:space="preserve" viewBox="0 0 1000 869"><path d="M641.6 820.8h37.2v8.1h-37.2zm-451.1 21.9h6.7c-2.2 16.1-12.8 25.6-29.2 25.6-21.5 0-34-14.1-34-38.1s12.7-39.2 32.4-39.2 30.2 12.8 30.6 36.9h-49.7c.2 24.3 6.8 35.3 22 35.3 11.8 0 19.2-7.2 21.2-20.5m-42.8-20.4h36c-.9-18.3-6.7-27.2-17.3-27.2s-17 9.2-18.7 27.2m826.5 40.3h-19.5l45.3-69.7h-57.3l-3.8 20.3h3.3c6-14 8.7-16.2 19.5-16.2h20.5L937 866.6h57.3l4.3-22.5h-3.5c-4.9 14.3-9.6 18.5-20.9 18.5m-861.8-9.8-1.8-76.7v-1c0-7 2.5-8.6 13.8-9.2V762c-6.3.5-9 .6-13.2.6-5.3 0-10.7-.3-16-.8l-31.5 79-30.9-79c-5.3.6-10.6.8-15.9.8-4.7 0-7.2-.2-13.7-.6v3.9c11.5.6 13.8 2.2 13.8 9.4v.9L13.5 853c-.3 8.4-1.9 9.7-13.7 10.5v3.7c8.7-.6 12-.8 16.7-.8s7.9.2 16.5.8v-3.7c-11.7-.8-13.8-2.2-13.8-9.1V853l3.3-81.1L49.9 841l2 5.5 2.4 6.1 2.4 6.1 1.8 5H61l1.8-5.2 2.2-5.9 2.4-5.8 2-5.2L96.8 772l1.5 80.8v.8c0 7.3-2.5 9.1-13.8 9.7v3.7c6.9-.8 13.9-1.2 20.8-1.3 7 .1 13.9.5 20.8 1.3v-3.7c-12-.8-13.5-2.1-13.7-10.5m806.3 2.7V818c.2-4.8-.6-9.5-2.4-14-3.3-7.7-12.3-12.5-22-12.5s-16.5 3.8-22.5 12.2c-.2-4.6-.7-9.1-1.7-13.6-7.2 2.3-14.6 3.9-22.1 4.7v2.6c.8 0 1.6.2 2.1.2 8.2 0 9.2.9 9.4 7.3v50.7c0 6.7-1.6 8-11.8 8.4v3.1q9-.9 18-.9t18 .9V864c-8.7-.3-10.8-1.9-10.8-8.1v-37.8c0-12.9 6-19.5 17.3-19.5 10.7 0 15 5.4 15 19.1V856c0 6.2-2.2 7.8-11.1 8.1v3.1c6-.6 12.1-.9 18.2-.9s12.1.3 18.2.9v-3.1c-10.1-.6-11.8-2-11.8-8.6M250 791c-8.7 0-15.8 5.2-19.5 14.1v-1.7c-.3-4.7-.7-7.2-1.5-13-7.2 1.9-14.5 3.2-22 3.6v2.8h2.1c8.7.2 9.5.9 9.6 7.7v51.1c0 6.7-1.8 8-12 8.4v3.1q18.6-1.8 37.2 0V864c-10.1-.5-11.8-1.8-11.8-8.4V823c0-15.5 5.5-25.3 14.1-25.3 3 0 5 1.5 5 3.7v1.4l-.4 1.6q-.3.75-.3 1.5c0 3.1 2.6 5.3 6.8 5.3s7.1-3 7.1-7.5c0-7.5-5.8-12.7-14.4-12.7m-41.7-299.1c-29-49.3-43.5-105.8-43.5-163.8 0-56.5 14.5-114.5 43.5-163.8S279.3 73 328.6 44 434.4.5 492.4.5C549 .5 607 15 656.3 44s91.3 71 120.3 120.3 43.5 107.3 43.5 163.8-14.5 114.5-43.5 163.8-71 91.3-120.3 120.3-105.8 43.5-163.8 43.5c-56.5 0-114.5-14.5-163.8-43.5-49.4-28.9-91.4-71-120.4-120.3M501.1 33.8 538.8 302l213.1 166.7c23.2-43.5 34.8-91.3 36.2-139.2 0-52.2-13-102.9-39.1-147.9-26.1-44.8-63.7-82.5-108.7-108.6-43.5-24.7-89.9-37.7-139.2-39.2M491 383.2 240.2 484.7c24.6 40.6 60.9 75.4 102.9 100 44.9 26.1 95.7 39.1 147.9 39.1s102.9-13 147.9-39.1c43.5-24.6 78.3-59.4 102.9-100zm-295.8-55.1c0 49.3 13 97.1 36.2 139.2l213.1-166.7 37.7-268.2c-49.3 1.4-97.1 14.5-139.2 39.1-44.9 26.1-82.6 63.8-108.7 108.7-26 45-39.1 95.7-39.1 147.9m652.9 469.3v-.1zm-87.9 28c1.8 3.6 2.7 7.5 2.6 11.5 0 4.8-1.3 9.5-3.7 13.7s-5.9 7.8-10.1 10.5c-7 4.1-13.7 5.5-26 5.5h-42.1v-3.7c12.3-.9 13.7-2 13.7-10.5v-75.8c0-8.4-1.7-9.7-13.7-10.3v-3.9h43.8c10.8 0 17.3 1.7 23 5.6 3.2 2.4 5.8 5.4 7.5 8.8s2.6 7.2 2.5 11v.1c0 10.9-6.3 18.9-18.3 23.1 4.8.6 9.3 2.4 13.2 5 3.1 2.6 5.8 5.8 7.6 9.4m-51.8-15.6h11.3c9.3 0 13.8-1.1 17.5-5.1 3.7-4.1 5.5-9.2 5.5-16.4 0-14.5-6.2-20.9-20.2-20.9h-14.1zm39.5 27.6c0-7.5-2-14.2-5.9-17.8-3.8-3.6-8.8-5-17.7-5h-16v39.1c0 6.9 1.5 8.1 10.3 8.1h6c14.9 0 23.3-8.8 23.3-24.4m-443.2 25.9c-12.8 0-19.3-11.2-19.3-33.1 0-22.3 7.3-35 19.8-35 10.2 0 16.3 6.6 19.3 20.1h3.6v-25.8l-2.8.2-4.5 8c-2.1-2.2-4.8-3.9-7.7-5.1-2.9-1.1-6.1-1.7-9.3-1.5-19.6 0-32.9 15.9-32.9 39.2 0 22.8 13.2 38.1 32.5 38.1 15 0 24.5-9.1 26.6-25.8h-6.8c-2 13.8-8.2 20.7-18.5 20.7m309.9-37.1-7.1-2.8c-15.1-6.3-17.7-8.3-17.7-14.5 0-7.3 6.8-13 15.7-13 10.4 0 16 5.9 17.5 18.4h3.8V790h-3l-2.8 6.4c-4.9-3.4-10.9-5.1-17-5-14.7 0-25 8.4-25 20.8 0 9.1 3.8 13.4 16 18.7l7.7 3.3 6.3 2.6c8.2 3.5 11.3 7 11.3 12.3 0 8-7.3 14.1-17.2 14.1-11.7 0-18.6-6.9-21.7-21.1l-3.6.2v26.1h3l4-7.1c5.6 4.4 12.7 6.8 20 6.6 15.7 0 26.8-9.4 26.8-22.5.1-9-4.4-14-17-19.2m-57.5 16.6h6.7c-2.2 16.1-12.8 25.6-29.1 25.6-21.5 0-34-14.1-34-38.1s12.7-39.2 32.5-39.2 30.2 12.8 30.6 36.9h-49.6c.2 24.3 6.8 35.3 22 35.3h-.1c11.6-.1 19-7.3 21-20.5m-42.8-20.5h36c-1-18.3-6.7-27.2-17.3-27.2s-17 9.2-18.7 27.2m318.5 20.5h6.6c-2.2 16.1-12.8 25.6-29.2 25.6-21.5 0-34-14.1-34-38.1s12.8-39.2 32.5-39.2 30.2 12.8 30.6 36.9h-49.6c.2 24.3 6.8 35.3 22 35.3 11.7-.1 19.1-7.3 21.1-20.5M790 822.3h36c-1-18.3-6.6-27.2-17.3-27.2-10.8 0-17.1 9.2-18.7 27.2m-295.6 39.2v2.6l-2.5.3c-6.6.5-13.2 1.8-19.5 3.7-1.3-4.1-2.1-8.3-2.4-12.5-4.7 8.8-11.3 12.8-20.7 12.8-18.2 0-30.8-15.8-30.8-38.3s12.5-38.3 30.3-38.3c9 0 13.8 2.8 20 12.2v-27.3c0-8.1-1.3-9.2-11.8-9.2V765c8.5-.8 16.9-2.2 25.2-4.3v90.2c0 9.5 1 10.3 12.2 10.6m-25.3-30.4c0-23-6.7-34.8-18.7-34.8s-17.8 11.4-17.8 33.7 6.3 34.1 18.3 34.1 18.2-11.3 18.2-33m-70.9 11.7h6.7c-2.2 16.1-12.8 25.6-29.2 25.6-21.5 0-34-14.1-34-38.1s12.7-39.2 32.5-39.2 30.2 12.8 30.6 36.9h-49.6c.2 24.3 6.8 35.3 22 35.3h-.1c11.7-.1 19.1-7.3 21.1-20.5m-42.8-20.5h36c-1-18.3-6.7-27.2-17.3-27.2s-17 9.2-18.7 27.2"/></svg>