<svg xmlns="http://www.w3.org/2000/svg" xml:space="preserve" viewBox="0 0 1000 349.462"><path fill="#FF0025" d="M94.982 309.14c-11.649 0-20.61 8.96-20.61 19.713s9.41 19.713 20.61 19.713h22.85c11.648 0 20.609-8.96 20.609-19.713s-8.96-19.713-20.61-19.713zM82.885 329.3c0-6.72 5.825-12.545 12.993-12.545h21.506c7.168 0 12.992 5.377 12.992 12.545s-5.824 12.545-12.992 12.545H95.878c-7.168-.448-12.993-5.824-12.993-12.545m215.95-20.161v7.168h26.882v25.09h-26.882v7.168h61.38v-7.168h-26.434v-25.09h26.434v-7.168zm86.47 0c-6.72 0-12.097 5.376-12.097 11.649s5.376 11.648 12.097 11.648h36.738c2.688 0 4.48 1.792 4.48 4.48 0 2.24-1.792 4.48-4.48 4.48h-47.491v7.17h48.387c6.72 0 12.097-5.377 12.097-11.65 0-6.272-5.376-11.648-12.097-11.648h-36.738c-2.688 0-4.48-2.24-4.48-4.48 0-2.689 1.792-4.48 4.48-4.48h47.49v-7.17zm564.964 0c-6.72 0-12.097 5.376-12.097 11.649s5.376 11.648 12.097 11.648h36.738c2.688 0 4.48 1.792 4.48 4.48 0 2.24-1.792 4.48-4.48 4.48h-47.49v7.17h48.386c6.72 0 12.097-5.377 12.097-11.65 0-6.272-5.376-11.648-12.097-11.648h-36.738c-2.688 0-4.48-2.24-4.48-4.48 0-2.689 1.792-4.48 4.48-4.48h47.49v-7.17zm-435.484 0c-11.2 0-20.61 8.96-20.61 19.713s8.961 19.713 20.61 19.713h38.082c2.24 0 3.585-1.792 3.585-3.584v-16.577c0-1.792-1.792-3.584-3.585-3.584H511.65v7.168h36.738v8.96H516.13c-7.168 0-12.993-5.824-12.993-12.544s5.825-12.545 12.993-12.545h40.77v-6.72zm294.355 0c-11.2 0-20.61 8.96-20.61 19.713s8.961 19.713 20.61 19.713h38.082c2.24 0 3.585-1.792 3.585-3.584v-16.577c0-1.792-1.793-3.584-3.585-3.584h-41.666v7.168h36.738v8.96h-32.258c-7.169 0-12.993-5.824-12.993-12.544s5.824-12.545 12.993-12.545h40.77v-6.72zm58.692 0c-1.792 0-3.585 1.792-3.585 3.584v32.258c0 1.792 1.792 3.584 3.585 3.584h55.555v-7.168h-51.075v-8.96h51.075v-7.17h-51.075v-8.96h51.075v-7.168zm-718.638 0v39.874h8.064v-15.68h27.778l15.233 16.128h11.649c-.897-.896-15.233-15.68-15.233-15.68h2.24c7.168 0 12.545-5.377 12.545-12.097s-5.377-12.097-12.545-12.097h-49.731zm8.512 16.129v-8.96h40.77c2.689 0 4.929 1.343 4.929 4.48 0 3.136-2.688 4.48-4.928 4.48zm67.652-16.13v39.875h8.513v-15.68h27.778l15.233 16.128h11.648c-.896-.896-15.233-15.68-15.233-15.68h2.24c7.17 0 12.545-5.377 12.545-12.097s-5.376-12.097-12.544-12.097h-50.18zm8.065 16.13v-8.96h40.77c2.689 0 4.929 1.343 4.929 4.48 0 3.136-2.688 4.48-4.928 4.48zm410.842-16.13v39.875h8.513v-15.68h27.777l15.233 16.128h11.65c-.897-.896-15.234-15.68-15.234-15.68h2.24c7.169 0 12.545-5.377 12.545-12.097s-5.376-12.097-12.545-12.097h-50.179zm8.065 16.13v-8.96h40.77c2.689 0 4.929 1.343 4.929 4.48 0 3.136-2.688 4.48-4.929 4.48zM0 309.139v39.875h8.513v-30.018l23.297 14.337c.448 0 23.746-14.785 23.746-14.785v30.018h8.512V309.14H56.9l-25.09 15.233L6.72 309.14zm600.806 0c-.896 0-2.24.449-2.688 1.345 0 0-31.362 37.634-31.81 38.53h10.305l4.48-5.376h39.427l4.48 5.376h10.305c-.448-.896-31.81-38.53-31.81-38.53q-.672-1.344-2.689-1.344m-8.512 21.058 8.512-10.753 8.513 10.305 5.376 6.72h-27.777l.896-.896zm158.154-21.057c-.896 0-2.24.448-2.688 1.344 0 0-31.362 37.634-31.81 38.53h10.305l4.48-5.376h39.426l4.48 5.376h10.305c-.448-.896-31.81-38.53-31.81-38.53-.448-.896-1.792-1.344-2.688-1.344m-8.512 21.057 8.512-10.753 8.513 10.305 5.376 6.72h-27.778l.896-.896z"/><g fill="#FF0025"><path d="M632.616 84.23c-.448-3.137-1.344-6.273-3.584-8.513-5.376-6.273-17.473-19.713-34.05-36.739-16.577-16.577-30.466-28.673-36.738-34.05-2.24-2.24-5.377-3.136-8.513-3.584C542.115.896 524.641 0 500 0s-42.115.896-50.18 1.792c-3.135.448-6.272 1.344-8.512 3.584-6.272 5.377-19.713 17.473-36.738 34.05-17.473 17.474-29.122 30.466-34.05 36.739-2.24 2.24-3.136 5.376-3.585 8.512-.448 8.065-1.792 25.538-1.792 50.18s.896 41.666 1.792 50.179c.448 3.136 1.345 6.272 3.585 8.512 5.376 6.273 17.025 19.266 34.05 36.739 16.577 16.577 30.466 28.674 36.738 34.05 2.24 2.24 5.377 2.688 8.513 3.136 8.064.448 25.537 1.792 50.179 1.792s42.115-.896 50.18-1.792c3.135-.448 6.272-.896 8.512-3.136 6.272-5.376 19.713-17.473 36.738-34.05 17.473-17.473 29.122-30.466 34.05-36.739 2.24-2.24 3.136-5.376 3.585-8.512.448-8.065 1.792-26.434 1.792-50.18s-1.344-42.562-2.24-50.627m-10.304 96.774c0 2.688-1.344 5.376-3.136 7.168-4.48 5.376-15.681 17.473-31.81 34.05-16.13 16.13-28.226 26.882-34.05 31.81-2.24 1.792-4.48 2.688-7.17 3.136-7.168.448-23.297 1.793-46.594 1.793s-39.427-.896-46.595-1.793c-2.688 0-5.376-1.344-7.168-3.136-5.377-4.928-18.37-16.129-34.05-31.81-16.13-16.129-26.882-28.674-31.81-34.05-1.793-2.24-2.689-4.48-3.137-7.168.448-7.617-.448-24.194-.448-46.595s.896-39.427 1.792-46.595c0-2.689 1.344-4.929 3.136-7.169 4.48-5.376 15.681-17.473 31.81-34.05 15.681-15.681 28.226-26.882 34.05-31.81 2.24-1.792 4.48-2.688 7.17-3.136 7.168-.448 23.297-1.792 46.594-1.792s39.427.896 46.595 1.792c2.688 0 5.376 1.344 7.168 3.136 5.377 4.928 18.37 16.129 34.05 31.81s26.882 28.226 31.81 34.05c1.793 2.24 2.689 4.48 3.137 7.169.448 7.168 1.792 23.297 1.792 46.595s-2.688 38.978-3.136 46.595"/><path d="M607.079 108.871c0-8.96-.896-17.025-1.344-18.37-.448-.895-1.344-1.791-1.792-2.687-7.617-8.513-15.681-17.025-25.986-27.778-20.61-20.61-31.362-30.018-34.05-31.81-2.24-.448-5.825-.448-15.681-.896-8.513-.448-18.37-.448-19.265-.448v215.053s23.745 0 34.946-1.344c7.616-6.72 22.85-20.609 33.602-31.362 11.649-11.648 21.505-22.401 24.193-25.09.897-1.343 3.585-3.583 4.48-5.376 0-1.344.449-2.688.449-5.376.896-13.44.896-37.634.896-38.53H570.34v18.817h17.922c0 .448-.448 15.233-.896 17.921-1.345 1.792-3.585 4.032-5.825 6.72-2.688 3.137-6.272 6.72-13.889 14.785-9.408 9.857-24.641 23.746-31.362 29.57V47.491c1.792 1.344 5.825 5.376 7.169 6.272 8.064 7.617 16.577 15.681 23.745 22.85 10.305 10.753 20.162 21.505 20.61 22.401 0 .896.448 9.857.448 10.753.448-.448 18.369-.896 18.817-.896m-143.37 132.168V80.197s-.447.896-.447 1.344c-4.033 10.753-8.96 22.402-13.89 34.498-5.824 15.681-11.648 31.81-16.128 43.46l-.448-.449-12.545-22.401-8.96-15.681v20.61c0 17.024.895 30.913 1.343 45.698 0 1.792.896 12.545.896 12.545s-6.272-6.273-9.408-9.857c-5.824-6.272-7.617-8.512-10.305-11.649-.896-11.2-1.792-23.745-1.344-47.49 0-23.298 1.344-38.083 1.344-39.875 0-.448 0-.448.896-1.344 1.792-2.24 9.857-11.201 12.097-13.441.896-.896 1.344-.896 1.344-.896s.896 1.792 1.792 2.688c3.584 5.376 9.857 16.577 16.13 26.882 3.584 6.272 4.032 6.72 4.032 6.72s4.928-14.337 16.577-43.01c8.96-21.954 17.473-39.875 17.92-40.323.449 0 7.17-.448 14.338-.448 7.168-.448 12.992-.448 13.44 0v215.054h-2.688c-11.648-.897-23.297-1.793-25.985-1.793"/></g></svg>