<svg xmlns="http://www.w3.org/2000/svg" xml:space="preserve" viewBox="0 0 1000 439.128"><path d="M0 101.744h314.846c20-31.206 46.282-55.95 78.898-74.282C426.334 9.154 461.718 0 499.924 0c38.179 0 73.64 9.18 106.358 27.564s58.974 43.128 78.718 74.18h315l-31.18 31.18H702.18c5.487 11.82 9.64 24.153 12.461 37.025h218.051l-31.18 31.205h-182.05c.538 8.051.794 14.154.794 18.308 0 4.153-.256 10.282-.794 18.333h145.435l-31.205 31.18h-119.05q-4.232 19.5-12.462 36.846h94.333L764.923 337H685c-19.744 31.103-46 55.923-78.718 74.41s-68.18 27.718-106.359 27.718c-38.205 0-73.59-9.205-106.18-27.615-32.615-18.436-58.897-43.282-78.897-74.513h-79.77l-31-31.18h94.155c-5.436-11.564-9.539-23.846-12.334-36.846H166.923l-31.59-31.18h145.41c-.538-8.05-.794-14.179-.794-18.332s.256-10.257.795-18.308H99.077l-31.59-31.205h218.41c2.795-12.872 6.898-25.205 12.334-37.026H31.179zm326.82 44.64c-9.923 23.257-14.897 47.616-14.897 73.078s4.974 49.846 14.898 73.102c9.923 23.23 23.307 43.308 40.128 60.18 16.82 16.871 36.82 30.282 60 40.256s47.513 14.949 72.974 14.949c25.436 0 49.795-4.975 73.051-14.949 23.231-9.974 43.282-23.385 60.103-40.256 16.82-16.872 30.205-36.95 40.23-60.18 10-23.256 15-47.64 15-73.102s-5-49.821-15-73.077c-10.025-23.257-23.41-43.282-40.23-60.103-16.82-16.795-36.872-30.18-60.103-40.154-23.256-9.974-47.615-14.948-73.05-14.948-25.462 0-49.796 4.974-72.975 14.948q-34.77 14.963-60 40.154c-16.82 16.82-30.205 36.846-40.128 60.103m23.077 122.59h19.488l-.565-73.871 23.59 73.871 21.667-.128 23.154-73.359v73.487h20.795V169.95l-29.282-.026-25.129 78.974L378 170.026l-28.103-.077zm130.539 0h20.64V169.95h-20.64zm43.051 0h19.872v-71.333l39.538 71.333h23.975V169.95h-19.487v71.743l-39.539-71.743h-24.359zm106.18 0h20.256V169.95h-20.256z"/></svg>