<?xml version="1.0" encoding="utf-8"?>
<!-- Generator: Adobe Illustrator 28.0.0, SVG Export Plug-In . SVG Version: 6.00 Build 0)  -->
<svg version="1.1" id="Слой_1" xmlns="http://www.w3.org/2000/svg" xmlns:xlink="http://www.w3.org/1999/xlink" x="0px" y="0px"
	 viewBox="0 0 1000 439.1282043" enable-background="new 0 0 1000 439.1282043" xml:space="preserve">
<g transform="matrix(1,0,0,1,0,-10.503)">
	<path d="M0,112.2465973h314.8461609c20-31.2051239,46.2820435-55.948719,78.8974304-74.2820587
		c32.5897522-18.3076878,67.9743652-27.4615421,106.1794739-27.4615421c38.1794739,0,73.6410217,9.1795063,106.3589783,27.5641232
		S665.2564087,81.1953049,685,112.2465973h315l-31.1795044,31.1795044H702.1795044
		c5.4871826,11.8204803,9.6409912,24.1538239,12.4615479,37.02565h218.0512695l-31.1795044,31.2050934H719.4615479
		c0.5384521,8.0513153,0.7948608,14.1538544,0.7948608,18.307724c0,4.1538086-0.2564087,10.2820282-0.7948608,18.3333282
		h145.4358521l-31.2050781,31.1794891H714.6410522c-2.8205566,13-6.9743652,25.2820435-12.4615479,36.8461609h94.333313
		l-31.5897217,31.1794739H685c-19.7435913,31.1025391-46,55.9230652-78.7179565,74.4102478
		c-32.7179565,18.4871521-68.1795044,27.7179565-106.3589783,27.7179565c-38.2051086,0-73.5897217-9.2051086-106.1794739-27.615387
		c-32.615387-18.4358826-58.8974304-43.2820435-78.8974304-74.5128174h-79.7692261l-31.0000153-31.1794739h94.1538239
		c-5.4358826-11.5641174-9.5384521-23.8461609-12.333313-36.8461609h-118.97435l-31.5897522-31.1794891h145.4102631
		c-0.5384521-8.0513-0.7948608-14.1795197-0.7948608-18.3333282c0-4.1538696,0.2564087-10.2564087,0.7948608-18.307724H99.0769272
		L67.487175,180.4517517h218.4102478c2.7948608-12.8718262,6.8974304-25.2051697,12.333313-37.02565H31.1794853L0,112.2465973z
		 M326.8205261,156.8876343c-9.9230957,23.2563934-14.8974609,47.615387-14.8974609,73.0769348
		s4.9743652,49.8461609,14.8974609,73.1025391c9.9230652,23.2307739,23.3076782,43.3076782,40.1281738,60.1795044
		c16.8205261,16.8717651,36.8205261,30.2820435,60,40.2564087c23.1795044,9.9743652,47.5128174,14.9487305,72.9743652,14.9487305
		c25.4359436,0,49.7948303-4.9743652,73.0513-14.9487305c23.2307739-9.9743652,43.2820435-23.3846436,60.1025391-40.2564087
		c16.8205566-16.8718262,30.2051392-36.9487305,40.230835-60.1795044
		c9.999939-23.2563782,14.999939-47.6410065,14.999939-73.1025391s-5-49.8205414-14.999939-73.0769348
		c-10.0256958-23.256424-23.4102783-43.2820511-40.230835-60.102562
		c-16.8204956-16.7948914-36.8717651-30.1794891-60.1025391-40.1538467
		c-23.2564697-9.9743576-47.6153564-14.9487228-73.0513-14.9487228c-25.4615479,0-49.7948608,4.9743652-72.9743652,14.9487228
		c-23.1794739,9.9743576-43.1794739,23.3589554-60,40.1538467
		C350.1282043,113.6055832,336.7435913,133.6312103,326.8205261,156.8876343z M349.8974304,279.4773865h19.4871826
		l-0.5641174-73.8718109l23.5897522,73.8718109l21.666687-0.1282349l23.1538391-73.3589783v73.4872131h20.7948914v-99.0256348
		l-29.282074-0.0256805l-25.1282043,78.97435L378,180.5286255l-28.1025696-0.0768738V279.4773865z M480.4358826,279.4773865
		h20.6410217v-99.0256348h-20.6410217V279.4773865z M523.4871826,279.4773865h19.8717651v-71.3333282l39.5384521,71.3333282
		h23.9743652v-99.0256348h-19.4871216v71.7435455l-39.5385132-71.7435455h-24.3589478V279.4773865z M629.666626,279.4773865
		h20.2564697v-99.0256348H629.666626V279.4773865z"/>
</g>
</svg>
