<svg xmlns="http://www.w3.org/2000/svg" xml:space="preserve" id="Слой_1" x="0" y="0" version="1.1" viewBox="0 0 930.1 1000"><style>.st0{fill:#ed0000}</style><path id="パス_677" d="M128.7 709.9V832h-27.6v-85.9l-36.8 61.5-37-61.5V832H0V709.9h35.5l28.9 49.7 28.2-49.7z"/><path id="長方形_3770" d="M153.2 709.8h27.4v122.1h-27.4z"/><path id="パス_678" d="M226 735.3h-33.1v-25.5h93.6v25.5h-33.1V832H226z"/><path id="パス_679" d="M297.6 830.4v-25.5c12 2.2 24.1 3.4 36.3 3.4 14.1 0 21.2-1.8 21.2-9.5s-6-10.1-25.8-19-33.6-16.5-33.6-37.2c0-25.4 15.5-34.2 46.2-34.2 11.3-.1 22.7.5 34 1.8v25.4c-11.1-1.4-22.2-2.2-33.4-2.4-16.5 0-19.7 1.7-19.7 8.4s9 10.3 22.3 16.4c20.2 9.1 36.7 16.7 36.7 39.8S366.4 834 334 834c-12.2-.1-24.3-1.2-36.3-3.2"/><path id="パス_680" d="M399.2 790.7v-80.5h27.4V790c0 13.9 8.3 19 21.3 19s21.5-4.9 21.5-19v-79.8h27.4V791c0 29.6-19 43-48.9 43s-48.7-13.4-48.7-43"/><path id="パス_681" d="M521 710.1h53.4c24.9 0 38.7 9.5 38.7 31.5.9 12.3-7.1 23.6-19 26.8 14.1 2.6 23.9 15.6 22.5 29.9 0 21.3-12.9 34-39.8 34H521zm49.4 49.4c11.1 0 14.9-5.8 14.9-13.9 0-9.5-4.8-12.4-14.9-12.4h-21.7v26.3zm1.9 49.8c11.1 0 15.4-4 15.4-14.6s-4.1-13.4-14.2-13.4h-24.9v28z"/><path id="長方形_3771" d="M633.8 709.8h27.4v122.1h-27.4z"/><path id="パス_682" d="M681.8 830.4v-25.5c12 2.2 24.1 3.4 36.3 3.4 14.1 0 21.2-1.8 21.2-9.5s-6.1-10.1-25.8-19-33.6-16.5-33.6-37.2c0-25.4 15.4-34.2 46.2-34.2 11.4 0 22.7.8 34 2.3v25.4c-11.1-1.4-22.2-2.2-33.4-2.4-16.5 0-19.8 1.7-19.8 8.4s9 10.3 22.4 16.4c20.1 9.1 36.7 16.7 36.7 39.8s-15.1 35.6-47.7 35.6c-12.2-.1-24.3-1.2-36.3-3.2"/><path id="パス_683" d="M879.8 709.9V832h-27.4v-48.5H809V832h-27.4V709.9H809V758h43.4v-48.1z"/><path id="長方形_3772" d="M902.8 709.8h27.4v122.1h-27.4z"/><path id="パス_684" d="M258.3 875.9V998h-27.5v-85.8l-36.9 61.4-37-61.4V998h-27.4V875.9H165l28.9 49.7 28.2-49.7z"/><path id="パス_685" d="M278.4 937c0-43.8 16.7-62.8 52.6-62.8s52.7 19 52.7 62.8-16.7 62.7-52.7 62.7-52.6-19-52.6-62.7m76.9 0c0-25-4.3-37.5-24.3-37.5s-24.2 12.6-24.2 37.5 4.3 38.1 24.2 38.1 24.3-12.8 24.3-38.1"/><path id="パス_686" d="M422.2 901.3h-33v-25.4h93.6v25.4h-33v96.6h-27.5v-96.6z"/><path id="パス_687" d="M488.3 937c0-43.8 16.7-62.8 52.7-62.8s52.6 19 52.6 62.8-16.7 62.7-52.6 62.7-52.7-19-52.7-62.7m76.9 0c0-25-4.3-37.5-24.2-37.5S516.7 912 516.7 937s4.3 38.1 24.3 38.1 24.2-12.8 24.2-38.1"/><path id="パス_688" d="M613.8 875.9h49.5c26.2 0 42.9 9.5 42.9 39.2 1.6 16.3-9.2 31.3-25.2 35l30.1 47.7h-32L653.3 954h-12.2v43.8h-27.3zm47.6 54.7c12.4 0 16.2-6.2 16.2-15.5s-3.8-15.6-16.2-15.6H641v31.6z"/><path id="パス_689" d="M723.1 996.5V971c12 2.2 24.1 3.4 36.3 3.4 14.1 0 21.2-1.9 21.2-9.5s-6-10.1-25.8-19-33.6-16.6-33.6-37.3c0-25.4 15.5-34.2 46.2-34.2 11.4 0 22.7.7 34 2.2v25.5c-11.1-1.4-22.2-2.2-33.4-2.4-16.5 0-19.7 1.7-19.7 8.5s9 10.3 22.3 16.3c20.1 9.5 36.7 16.7 36.7 39.9 0 23.3-15.2 35.6-47.7 35.6-12.2-.1-24.3-1.2-36.3-3.2"/><g id="グループ_40979"><path id="パス_690" d="m346 202.6 117 202.6 117-202.6L463.1 0z" class="st0"/><path id="パス_691" d="M699.2 412.3h-234l117 202.6h234z" class="st0"/><path id="パス_692" d="M227 412.3h234L344 614.9H110z" class="st0"/></g></svg>