<?xml version="1.0" encoding="utf-8"?>
<!-- Generator: Adobe Illustrator 28.0.0, SVG Export Plug-In . SVG Version: 6.00 Build 0)  -->
<svg version="1.1" id="Слой_1" xmlns="http://www.w3.org/2000/svg" xmlns:xlink="http://www.w3.org/1999/xlink" x="0px" y="0px"
	 viewBox="0 0 930.1 1000" style="enable-background:new 0 0 930.1 1000;" xml:space="preserve">
<style type="text/css">
	.st0{fill:#ED0000;}
</style>
<path id="パス_677" d="M128.7,709.9V832h-27.6v-85.9l-36.8,61.5l-37-61.5V832H0V709.9h35.5l28.9,49.7l28.2-49.7H128.7z"/>
<rect id="長方形_3770" x="153.2" y="709.8" width="27.4" height="122.1"/>
<path id="パス_678" d="M226,735.3h-33.1v-25.5h93.6v25.5h-33.1V832H226V735.3z"/>
<path id="パス_679" d="M297.6,830.4v-25.5c12,2.2,24.1,3.4,36.3,3.4c14.1,0,21.2-1.8,21.2-9.5s-6-10.1-25.8-19
	c-19.8-8.9-33.6-16.5-33.6-37.2c0-25.4,15.5-34.2,46.2-34.2c11.3-0.1,22.7,0.5,34,1.8v25.4c-11.1-1.4-22.2-2.2-33.4-2.4
	c-16.5,0-19.7,1.7-19.7,8.4s9,10.3,22.3,16.4c20.2,9.1,36.7,16.7,36.7,39.8s-15.4,36.2-47.8,36.2c-12.2-0.1-24.3-1.2-36.3-3.2"/>
<path id="パス_680" d="M399.2,790.7v-80.5h27.4v79.8c0,13.9,8.3,19,21.3,19s21.5-4.9,21.5-19v-79.8h27.4V791c0,29.6-19,43-48.9,43
	s-48.7-13.4-48.7-43"/>
<path id="パス_681" d="M521,710.1h53.4c24.9,0,38.7,9.5,38.7,31.5c0.9,12.3-7.1,23.6-19,26.8c14.1,2.6,23.9,15.6,22.5,29.9
	c0,21.3-12.9,34-39.8,34H521V710.1z M570.4,759.5c11.1,0,14.9-5.8,14.9-13.9c0-9.5-4.8-12.4-14.9-12.4h-21.7v26.3L570.4,759.5z
	 M572.3,809.3c11.1,0,15.4-4,15.4-14.6s-4.1-13.4-14.2-13.4h-24.9v28H572.3z"/>
<rect id="長方形_3771" x="633.8" y="709.8" width="27.4" height="122.1"/>
<path id="パス_682" d="M681.8,830.4v-25.5c12,2.2,24.1,3.4,36.3,3.4c14.1,0,21.2-1.8,21.2-9.5s-6.1-10.1-25.8-19
	c-19.7-8.9-33.6-16.5-33.6-37.2c0-25.4,15.4-34.2,46.2-34.2c11.4,0,22.7,0.8,34,2.3v25.4c-11.1-1.4-22.2-2.2-33.4-2.4
	c-16.5,0-19.8,1.7-19.8,8.4c0,6.7,9,10.3,22.4,16.4c20.1,9.1,36.7,16.7,36.7,39.8s-15.1,35.6-47.7,35.6c-12.2-0.1-24.3-1.2-36.3-3.2
	"/>
<path id="パス_683" d="M879.8,709.9V832h-27.4v-48.5H809V832h-27.4V709.9H809V758h43.4v-48.1H879.8z"/>
<rect id="長方形_3772" x="902.8" y="709.8" width="27.4" height="122.1"/>
<path id="パス_684" d="M258.3,875.9v122.1h-27.5v-85.8l-36.9,61.4l-37-61.4v85.8h-27.4V875.9H165l28.9,49.7l28.2-49.7H258.3z"/>
<path id="パス_685" d="M278.4,937c0-43.8,16.7-62.8,52.6-62.8s52.7,19,52.7,62.8c0,43.8-16.7,62.7-52.7,62.7
	S278.4,980.7,278.4,937 M355.3,937c0-25-4.3-37.5-24.3-37.5c-20,0-24.2,12.6-24.2,37.5s4.3,38.1,24.2,38.1
	C350.9,975.1,355.3,962.3,355.3,937"/>
<path id="パス_686" d="M422.2,901.3h-33v-25.4h93.6v25.4h-33v96.6h-27.5V901.3z"/>
<path id="パス_687" d="M488.3,937c0-43.8,16.7-62.8,52.7-62.8s52.6,19,52.6,62.8c0,43.8-16.7,62.7-52.6,62.7
	C505.1,999.7,488.3,980.7,488.3,937 M565.2,937c0-25-4.3-37.5-24.2-37.5S516.7,912,516.7,937s4.3,38.1,24.3,38.1
	C561,975.1,565.2,962.3,565.2,937"/>
<path id="パス_688" d="M613.8,875.9h49.5c26.2,0,42.9,9.5,42.9,39.2c1.6,16.3-9.2,31.3-25.2,35l30.1,47.7h-32L653.3,954h-12.2
	v43.8h-27.3V875.9z M661.4,930.6c12.4,0,16.2-6.2,16.2-15.5s-3.8-15.6-16.2-15.6h-20.4v31.6L661.4,930.6z"/>
<path id="パス_689" d="M723.1,996.5V971c12,2.2,24.1,3.4,36.3,3.4c14.1,0,21.2-1.9,21.2-9.5c0-7.6-6-10.1-25.8-19
	c-19.8-8.9-33.6-16.6-33.6-37.3c0-25.4,15.5-34.2,46.2-34.2c11.4,0,22.7,0.7,34,2.2v25.5c-11.1-1.4-22.2-2.2-33.4-2.4
	c-16.5,0-19.7,1.7-19.7,8.5s9,10.3,22.3,16.3c20.1,9.5,36.7,16.7,36.7,39.9c0,23.3-15.2,35.6-47.7,35.6c-12.2-0.1-24.3-1.2-36.3-3.2
	"/>
<g id="グループ_40979">
	<path id="パス_690" class="st0" d="M346,202.6l117,202.6l117-202.6L463.1,0L346,202.6z"/>
	<path id="パス_691" class="st0" d="M699.2,412.3h-234l117,202.6h234L699.2,412.3z"/>
	<path id="パス_692" class="st0" d="M227,412.3h234L344,614.9h-234L227,412.3z"/>
</g>
</svg>
