<svg xmlns="http://www.w3.org/2000/svg" xml:space="preserve" viewBox="0 0 1000 836.5"><path d="M143.4 293.9C195.3 142.1 338.8 40.2 500.2 40.2S805.1 142.1 857 293.9l.4 1.3H971v-13.6l-47.3-5.5c-29.1-3.4-35.4-16.2-43.3-32.5l-2-4C810.3 94 661.7 0 500.1 0S190 94 121.7 239.5l-1.9 3.9c-7.9 16.3-14.2 29.1-43.2 32.5l-47.3 5.5v13.7h113.6zm714 247.5-.4 1.3c-52 151.7-195.4 253.6-356.9 253.6-161.6 0-304.9-102-356.7-253.7l-.4-1.3H29.3v13.6l47.2 5.5c29.1 3.4 35.4 16.3 43.2 32.5l1.9 3.9C189.9 742.4 338.4 836.4 500 836.4s310.1-94 378.4-239.5l1.9-4c7.9-16.2 14.1-29.1 43.2-32.5l47.3-5.5v-13.6zM227.4 360h-25.7v116.4h25.7zm-82.7 116.4V360H119v86.7L33.2 360H0v116.4h25.8v-87.3l86.4 87.3zM721.1 360l-72.7 116.4h31.2l12.9-20.8h84.8l12.9 20.8h31.2L748.8 360zm42.9 73.6h-58.2l29.1-46.8zm-180.9 18.6c-.7.1-4 .2-5.3.2H474.2v24h105.2c.9 0 6.9 0 8.4-.2 21.5-1.9 31.2-19.8 31.2-35.6s-10.3-33.2-29.7-35.2c-2.8-.3-5.6-.4-8.4-.4h-68.8c-2.6 0-5.1-.2-7.6-.6-2.2-.6-4.1-1.9-5.5-3.8-1.3-1.8-2-4.1-1.9-6.4 0-2.3.7-4.5 2.1-6.3s3.3-3.2 5.5-3.8c2.4-.5 4.8-.7 7.2-.5h99.3V360H510.3c-3.4-.1-6.7.1-10.1.5-8.2 1-15.8 5-21.3 11.3-5.4 6.3-8.3 14.3-8.2 22.6 0 14.4 9.1 31.2 29 34.1 3.6.4 7.2.6 10.8.5h67c1.3 0 4.2 0 4.9.1 2.8.3 5.3 1.6 7.2 3.7s3 4.7 3 7.5c.1 2.8-.9 5.5-2.6 7.7s-4.2 3.7-6.9 4.2m-193.2 0c-.8.1-4 .2-5.3.2H281v24h105.2c.9 0 6.9 0 8.4-.2 21.5-1.9 31.3-19.8 31.3-35.6s-10.2-33.2-29.6-35.1c-2.8-.3-5.6-.4-8.4-.4H319c-2.6 0-5.1-.1-7.6-.6-2.2-.6-4.1-1.9-5.5-3.8-1.3-1.8-2-4.1-1.9-6.4 0-2.3.7-4.5 2.1-6.3s3.3-3.2 5.5-3.8c2.4-.5 4.8-.7 7.2-.5H418V360H317.1c-3.4-.1-6.7.1-10.1.5-8.2 1-15.8 5-21.2 11.3s-8.3 14.3-8.2 22.6c0 14.4 9.1 31.2 29 34.1 3.6.4 7.2.6 10.8.5h67c1.3 0 4.2 0 4.9.1 2.8.3 5.3 1.6 7.2 3.7s3 4.7 3 7.5c.1 2.8-.9 5.5-2.6 7.7-1.8 2.2-4.3 3.7-7 4.2m610.1 24.2V360h-25.8v86.7L888.4 360h-33.2v116.4H881v-87.3l86.4 87.3z" style="fill:#020a0a"/></svg>