<svg xmlns="http://www.w3.org/2000/svg" xml:space="preserve" viewBox="0 0 910.5 1000"><path d="M445.5 995.3c-130.3-60.5-243.5-159.5-318.6-279S12.1 458.2 2.4 279.4c-3.1-57.8-3.1-130.1 0-220.9L3 39.3l18.8-3.1C308.7-12 601.7-12 888.6 36.2l18.8 3.1.7 19.2c3.1 90.9 3.1 163 0 220.9-9.7 178.7-49.3 317.6-124.5 436.9S595.3 934.8 465 995.3l-9.6 4.7z" style="fill:#020a0a"/><path d="M455.4 19.9c145.1.1 289.9 12.6 432.8 37.4 2.2 59.1 4.7 150.5.5 228.1-9.4 172.9-47.5 307.2-119.8 422.4S585.1 921.5 455.4 980.2C325.7 921.5 214.1 822.7 142 707.8S31.6 458.3 22.2 285.4c-4.2-77.5-1.7-168.9.5-228.1 142.9-24.7 287.6-37.2 432.7-37.4m0 16.7c-139.6.1-279 11.8-416.7 34.9-3.1 87.8-3.1 157.5 0 213.1C47.9 454.6 85.2 586.3 156 699s176.8 205.9 299.4 263C577.9 904.9 684 811.8 754.8 699s108-244.5 117.3-414.4c3.1-55.5 3.1-125.4 0-213.1C734.4 48.4 595 36.7 455.4 36.6m-1.2 504.9s2.7 16.2 3.5 20.9q.9 3 0 6c-2.2 8.4-12.2 52.6-20.3 97.9l-1.3 7.1c-3.1 19.1-6.3 38-7.8 54.2-1.1 6.6-.5 13.3 1.8 19.6 6.9 23.1 32.3 83.3 37.2 94.3.5 1.2.9 2.5 1 3.8l1.8 14.2c-8.1-12.3-52.5-93.8-69.9-139-2.1-5.3-2.4-7.9-.2-17.7 12.2-51.8 45-140.1 54.2-161.3m-64.7-125.3s3.4 11 6.7 23l1.2 4.3c1.9 6.7 3.4 13.5 4.6 20.4.8 3.5.4 7.2-1.1 10.5-4 10.8-11.5 28.2-19.4 45.8l-3.4 7.6c-9.7 21.5-19.6 42.3-24.4 51.2-2.3 4.4-5.4 8.4-9 11.8-10.2 10.3-29.6 29.9-41.6 40.7-3.7 3.2-6 7.7-6.4 12.5-1.4 8.2-2.9 22.3-3.1 29.6-.4 5.6 1.1 11.1 4.3 15.7 21.2 37.8 91.9 124.8 112 143.1 1.7 1.6 3.6 3 5.6 4.3 3 2 12.5 8.2 12.5 8.2.4.3.7.6 1 1l3.5 6.3-.9-.5-1.5-.8-4.7-2.3-4.5-2.3c-6.9-3.4-15.1-7.6-19.4-9.9-1.8-1-3.4-2.1-5-3.4-23.6-19.6-95.9-104.3-117.1-139.6-5.3-8.8-5.9-11.7-5.1-20 1.3-15.7 3.4-35.1 5.2-43.7.8-4.8 2.9-9.3 6.3-12.8 13.3-15.3 29.5-35.6 45.4-56.4l5.3-7.3c24-31.8 46-63.8 54.3-80 1.5-2.6 2.2-5.5 2.1-8.5-.6-11.7-1.9-23.3-4-34.8q-.15-1.2 0-2.4zm197.4-19 6.3 2.7c1.8.8 3.5 1.9 4.8 3.4 37.6 39.1 67.5 79.7 73.4 90.4 1.2 2 1.9 4.2 2.2 6.5 6.1 57 1.8 114.7-12.8 170.2-.9 4.4-3.5 8.2-7.2 10.6-14.7 11.1-36.6 28.7-58.4 46.7l-6.9 5.7c-26.3 21.8-51.2 43.1-61.8 52.9q-4.05 3.75-6.9 8.4c-5 8.1-12.5 21.9-16.3 28.9l-1 1.9-1.2 2.2c-5-10.8-15.7-37.1-19.4-47.7-1.3-3.2-1.3-6.7 0-9.9 6-21.9 34.5-86.2 40-97.8v4.7c0 .7-.1 1.4-.3 2-2.5 7.6-17.8 58.1-20.9 80-.7 3.6-.7 7.3 0 11 1.8 9.8 4.3 19.5 7.5 29 2.1-4.3 4.4-8.5 7-12.5q2.25-3.45 5.4-6.3c13.7-13.5 37-34.5 61.3-55.5l8.6-7.4c18.8-16 37.3-31.7 52.1-43.6 3.7-2.5 6-6.6 6.3-11.1 4.2-29 5.5-81.1 2.9-119.1-.5-7.2-2.8-14.1-6.8-20-10.9-15.6-23.3-30.1-37-43.2-2.4-2.4-4-5.4-4.6-8.7-4.9-26.1-15.7-73.8-15.7-73.8zM270 457.5c2.3-.8 4.8-.9 7.2-.3 10.7 2.6 33.3 8.1 50.4 12.5 2.7.9 5.1 2.6 6.7 5l3.7 6.3c1.3 2.2 1.4 4.8.3 7.1-3.1 6-7.6 14.2-12.2 22.6l-3.5 6.3c-6.5 11.6-13 22.8-16.7 28.6-1.6 3.4-4.5 6-8.1 7.1-16.8 5.9-37.6 13-50.2 17-2.1.4-3.5 2.5-3.1 4.6 0 .2.1.4.2.6.9 5.1 3.8 22.5 4.9 27.6.3 2 2.2 3.3 4.2 3 .2 0 .3-.1.5-.1 7.3-1.4 26.9-6.3 26.9-6.3l-9.2 8.5c-.6.6-1.4 1-2.2 1.3-5.3 1.8-18.3 5.4-22.4 6.3-3.1.7-5.2-.6-6-4.1 0 0-5.5-23.6-7.6-31.6-.3-1.2-.6-2.3-1-3.5-1.5-4.6-5.1-13.8-7.1-18.6-.2-.6-.4-1.2-.3-1.8 0-5.5 1.1-17.7 1.1-17.7s12 11.2 17.7 15.3c1 .9 2.4 1.2 3.7.7 8-2 26.2-8.1 36.3-11.8 2.3-.9 4.3-2.3 5.9-4.2 11.7-14.5 22-30.1 30.8-46.6 1-2 1.2-4.4.6-6.5l-1.6-5.3c-.6-1.7-1.9-3.2-3.6-3.9-17.7-6.7-31.6-11.7-48-17.3zm349.7-151.8c3.9-1.4 8.2-1.3 12 .3 29.7 12.5 79.5 41.8 107.2 62.4 2.4 1.4 4 3.8 4.5 6.6 6.5 29.6 9 75.4 4.9 113.9-.3 2.6-1 5.1-2.3 7.4-17.6 35.9-37.3 69.7-58.1 95.9v-.4c.3-2.8 1.8-18.4 1.8-26.9 0-.9.5-1.8 1.2-2.4 3.9-3.1 9.2-7.3 12.2-9.9 1.2-1 2.3-2.1 3.1-3.4 8.5-13.7 23.6-42.4 29.7-59.6 1.5-4.2 2.1-8.7 1.7-13.1-1.9-24-5.7-57.4-11.3-79.1-.9-3.7-3.4-6.8-6.8-8.6-4.9-2.5-14.4-6.8-36-15.7-3-1.2-5.8-2.9-8.3-5-14.2-11.9-36.4-29.8-50.2-40.2-4-3.1-9.2-4.2-14.1-3.1-10.1 2.3-22.9 5.5-30.1 7.4-1.9.6-4 .8-6 .4l-4.8-.5-2.7-.3-7.3-.6h-.5c23.4-10.8 46-20.4 60.2-25.5M306.3 500.1q-10.35 17.25-22.8 33-1.35 1.65-3.3 2.4c-7.3 2.7-19.3 6.8-28.2 9.4zm-97.2-15.9-4.3 29.9-14.8-17.3c2.7-5.9 10.6-11.3 19.1-12.6m79.4-169.6-4 5-.7.7c-3.5 2.6-18.5 14.1-22.5 17.3-1 .7-1.7 1.9-1.9 3.1-.9 5-2.4 14.7-2.9 20 0 1.4-1 2.6-2.4 3-6.9 2.8-15.1 5.8-21.8 8.4-1 .3-1.9.8-2.7 1.4-.7.5-9.4 8.4-9.4 8.4s19.2-4.7 26.2-6.3c1.3-.4 2.8-.2 3.9.5 1.4.7 3.9 1.6 5.1 2.1 1.6.7 3.5.7 5.1.2 7.9-1.8 21.3-4.9 28.2-6.8 3.2-.8 6.2-2.2 8.8-4.1 3.4-2.4 12-8.8 12-8.8s-.2 1.1-.3 1.8c-.1.5-.3.9-.6 1.3-1.8 2.1-4.8 5.5-6.3 7.1-2.7 3-6.1 5.3-9.9 6.7C272.2 384 237.8 397 212 406c-1.4.4-2.7 1.2-3.7 2.4-1.3 1.4-3.1 3.4-3.1 3.4s21.1 1.5 27.5 2.3c1.9.2 3.7 1 5.2 2.3 5.3 4.5 22.8 22.6 28 28.8 0 0-49.7 8.3-72.7 14-2.4.5-4.4 2.4-4.9 4.8-1.9 6.7-6.3 28.2-6.3 28.2-1.3-.5-2.6-1.1-3.8-1.8-1.5-.9-2.9-2-4-3.4-6.8-7.3-13-15.1-18.8-23.2-1.5-1.8-1.6-4.4-.2-6.3 4.7-5.8 14-16.3 19.2-21.7.8-.9 1.5-2 2-3.1 2-5 3.6-10.1 4.8-15.4l.3-1-.9.6-4.2 2.7c-1 .5-1.8 1.3-2.3 2.4-.8 1.8-2.3 4.5-3.4 6.5-.5.8-1.2 1.4-1.9 2-6.6 5-13.9 10.5-19.1 14.1-.4.2-.8.2-1.1-.2-.7-.7-3.4-3.8-3.9-4.5-.4-.6-.6-1.2-.6-1.9 0-1.3 0-3.6.3-5.4.3-1.7.8-3.1 3.1-5.6 2.4-2.4 5.8-5.9 9-9 7.8-6.6 27.5-22.5 62.7-47.6.7-.5 1.3-1 1.8-1.7 3.7-5 14.2-18.6 16.8-21.9.4-.5.8-.9 1.2-1.3 3.3-2.7 6.8-5.1 10.4-7.3 9.8-6.3 28.7-17.4 39.3-23.6zm214.1-11.1c1.5-.3 3 0 4.3.6l10.2 4.9c1 .5 1.7 1.4 2 2.5 1.4 5.9 3.1 13.7 4.2 20.3.5 2.8 0 5.6-1.4 8-4.2 7.4-13 20.7-17.8 27.8-1 1.6-1.3 3.6-.9 5.5 2.3 12.2 11.7 54.9 11.7 54.9l-5.8-5.3c-1.1-1-1.9-2.3-2.4-3.7-4.1-12.1-11.8-37.4-15.4-49.6-.6-2-.2-4.2 1.2-5.8 6-7.4 14.9-19.1 20-26.6 1.5-1.7 1.9-4.1 1.1-6.3-1.2-2.4-3.1-6.3-5.1-9.4-.5-.9-1.4-1.6-2.4-1.9l-7-2.2c-1.2-.4-2.5-.4-3.7 0-15.2 5.5-35.6 13.4-48.1 18.6-1.5.7-3.2.9-4.8.5-3.6-.5-14.1-2.4-19.3-3.4-.7-.2-1.2-.9-1.1-1.6 0-.1.1-.3.2-.4l6.3-10.6c.8-1.4 2.2-2.5 3.8-2.8 19.5-4.4 45.5-9.6 70.2-14m-217.9 48.8c.9-.1 1.8.5 2.2 1.3 1.1 2.9 1 6.1-.3 8.8-.6 1.2-1.8 2.1-3.1 2.5l-9.8 2.2c-.5.1-1-.2-1.1-.7v-.2l.9-11.5c.1-.8.7-1.4 1.5-1.5zm111.8-74.2c.8 0 1.5.7 1.5 1.5 0 .3-.1.5-.2.7l-23.9 41.3c-1.3 2.4-3.6 4.3-6.3 5l-44.9 14.1c-4.9 1.5-9.9 2.5-15 2.9-10 .8-39.6 1.7-39.6 1.7l.7-1.4c.3-.7.9-1.2 1.5-1.5l14-6c1-.4 2-1.1 2.7-2l21.6-26.6c1.2-1.5 2.6-2.7 4.3-3.6 18.6-9.5 37.8-17.8 57.5-24.8 1.8-.6 3.8-.9 5.7-.9zm-24-48c60.1-4.9 120.6-5.1 180.7-.7 3.6.3 7.2 1.1 10.6 2.6 21 8.8 58.2 28.2 99.6 51.9 1.8 1 3.5 2.3 5.1 3.6 11 9.7 38.8 38.1 38.8 38.1l-8.7-1.7c-1.2-.2-2.4-.7-3.4-1.4-20.7-13.9-42.2-26.5-64.3-38q-3.9-1.95-8.1-2.4c-10.4-1.1-24.5-2.1-33.8-2.5-4.2 0-8.4-1.1-12.1-3.1-8.5-4.3-29.1-13.7-39.4-17.6-3.4-1.5-7.2-2.2-10.9-2-17.6.3-57.8 1.5-78.4 2.8q-1.05.15-2.1 0l-9.8-1.5c27.7-4.8 96.3-10.9 124.7-12.5l-11.6-3.9c-2.2-.7-4.6-1.1-6.9-1.2-6.3 0-19.9-.4-37.6-.4h-6.1c-27 0-61.6.7-93.6 3.1-2.8.2-5.5.9-8.1 2-12.9 5.7-44.4 22.8-76 40.3l-7 3.9-23.9 13.5 4.7-6c.5-.7 1.1-1.2 1.8-1.6l10-6.6 3.1-2.2 6.3-4.2 1.9-1.4c9.4-7.2 24.5-19.8 33.5-27.7 2-1.8 3.8-3.9 5.1-6.3 2.9-4.7 6-9.8 8-12.5 1.8-2.6 4.8-4.2 7.9-4.4m-211-114c12.3-1.3 19.1 3.5 19.1 15.9v6.9c0 12.5-6.8 17.8-19.1 19.1-16.9 1.8-33.9 3.7-50.8 5.8v18.8l-10.7 1.3v-60.6q30.75-4.05 61.5-7.2m568.3-2c27 2.6 54 5.7 80.9 9.1v9.8c-11.6-1.5-23.3-2.9-35-4.2v50.8l-10.7-1.2v-50.8c-11.7-1.3-23.5-2.5-35.3-3.7v-9.8zm-448.5-7.9v9.8c-22.2 1.4-44.4 3-66.6 4.9v14.9c19.7-1.7 39.5-3.2 59.2-4.4v9.8c-19.7 1.3-39.5 2.7-59.2 4.4V162c22.2-1.9 44.4-3.5 66.6-4.9v9.8c-25.7 1.6-51.4 3.5-77 5.8V112c25.7-2.3 51.3-4.3 77-5.8m345.4 16.6c0-13.6 6.7-16.4 21.9-15.4 13.3.9 26.7 2 40 3.1 13.2 1.1 21.9 4.8 21.9 18.8v27.1c0 13.6-7.5 16.1-21.9 14.9-13.3-1.1-26.6-2.2-40-3.1-14.5-1-21.9-3.8-21.9-18.2zm-103.3-21.2c25.7.6 51.4 1.6 77.1 2.9v9.8c-22.2-1.1-44.4-2-66.7-2.6v14.9c19.8.5 39.6 1.3 59.3 2.3v9.8c-19.8-1-39.5-1.7-59.3-2.3v16.4c22.2.6 44.5 1.5 66.7 2.6v9.8c-25.7-1.3-51.4-2.3-77.1-2.9zm-133.8 0v43.9c0 13.9-7.3 16.9-21.9 17.4-12.8.4-25.5.9-38.3 1.4-13.6.6-21.9-2-21.9-15.7v-43.9l10.4-.5v45.7c.1 2.8 2.4 5 5.2 4.9h.4c16.7-.8 33.4-1.4 50.2-1.9 2.9 0 5.3-2.3 5.3-5.2V102zm253.1 15.2c-2.8-.3-5.2 1.7-5.5 4.5V152c.1 3.1 2.5 5.6 5.5 5.9 17.3 1.1 34.6 2.5 51.8 3.9 2.9.1 5.4-2.2 5.5-5.1v-30c-.1-3.1-2.4-5.6-5.5-6-17.3-1.5-34.6-2.8-51.8-3.9m-206.9-15.9c19.2-.1 38.3-.1 57.5.2v9.8c-20.5-.3-41-.3-61.5-.2-2.9.1-5.3 2.3-5.5 5.2v30.4c.2 3 2.6 5.3 5.5 5.5 18.4-.2 36.7-.2 55.1 0v-16.4c-10.7-.1-21.3-.2-32-.2v-9.8c14.1 0 28.3.1 42.4.3v35.9c-19.9-.3-39.7-.4-59.6-.3-14.5 0-21.9-2.4-21.9-16.5v-26.4c0-13.1 6.6-17.4 20-17.5m-270.2 24.7h-.8c-18 1.9-36 3.9-53.9 6.1V154c18-2.2 36-4.2 53.9-6.1 2.8-.4 5-2.6 5.4-5.5v-12.2c-.2-2.7-2.6-4.8-5.3-4.6h-.2z" style="fill:#fff"/></svg>