<?xml version="1.0" encoding="utf-8"?>
<!-- Generator: Adobe Illustrator 28.0.0, SVG Export Plug-In . SVG Version: 6.00 Build 0)  -->
<svg version="1.1" id="Слой_1" xmlns="http://www.w3.org/2000/svg" xmlns:xlink="http://www.w3.org/1999/xlink" x="0px" y="0px"
	 viewBox="0 0 1000 999.7614746" enable-background="new 0 0 1000 999.7614746" xml:space="preserve">
<path id="refine_final" fill="#DE013A" d="M390.8686218,222.3989868L603.8021851,365.494751
	c44.145752,29.6690979,89.2459106,58.6223145,167.1174316,58.6223145c121.1422119,0,229.0009155-88.0527954,229.0009155-88.0527954
	L499.8409424,0c0,0-54.5657043,60.0540924-225.8192749,166.719696C94.2570877,278.7941589,0,311.3267822,0,311.3267822
	l645.322937,433.9802856l-42.395813,27.8395996L395.8797302,634.0280151
	c-43.9071045-29.5100098-89.2459717-58.5427856-167.0378723-58.5427856C107.6996536,575.4056396,0,663.7766724,0,663.7766724
	l500.0795593,335.9848022c0,0,54.5657043-60.0541382,225.8192444-166.7197266
	C905.6633911,720.9672852,1000,688.4346924,1000,688.4346924L348.5523682,250.2386322l42.395813-27.8396454H390.8686218z"/>
</svg>
