<svg xmlns="http://www.w3.org/2000/svg" xml:space="preserve" viewBox="0 0 1000 999.761"><path fill="#DE013A" d="m390.869 222.399 212.933 143.096c44.146 29.669 89.246 58.622 167.118 58.622 121.142 0 229-88.053 229-88.053L499.84 0s-54.565 60.054-225.818 166.72C94.257 278.794 0 311.327 0 311.327l645.323 433.98-42.396 27.84L395.88 634.028c-43.907-29.51-89.246-58.543-167.038-58.543C107.7 575.405 0 663.777 0 663.777L500.08 999.76s54.565-60.054 225.819-166.72C905.663 720.968 1000 688.436 1000 688.436L348.552 250.239l42.396-27.84z"/></svg>