<svg xmlns="http://www.w3.org/2000/svg" xml:space="preserve" viewBox="0 0 779.8 1000"><path d="M770.9 39.3C765 27 752.1 18.2 723.4 15.4 590.5 2.4 528.3 0 390 0 251.6 0 191.3 2.2 56.4 15.4 27.6 18.2 14.8 27 8.8 39.4c-4.4 9.2-5 20.3-5.6 32.4C-4 220.7.4 625.7 20.6 853.6c2.3 26.3 3.6 54.3 7.5 77.5 5.9 35.1 20.8 45 49.1 50.8 49.4 10.1 146.5 18.2 312.6 18.2s263.4-8 312.9-18.1c28.3-5.8 43.2-15.6 49.1-50.8 3.9-23.2 5.1-51.1 7.5-77.5 20.1-227.9 24.6-632.9 17.3-781.8-.7-12.2-1.3-23.3-5.7-32.6M38 88.3C38.9 70 36 57 51.1 47l219 38.8c7.5-4.2 116.5-4.3 119.8-4.3 3.4 0 112.3.1 119.8 4.3L727 46.6c15.1 10 12.5 23.3 13.4 41.6 2.3 46.1 3.3 117.6 3.2 200.7l-.1 1.4-173.8 12c-43.2 4-48.2 14.8-48.4 34.4 0 0-2 134-3.2 181.1-1.7 66.9-7.5 166.7-7.6 170-.5 16-11.5 27.8-27 29 0 0-55.4 2-93.4 1.6h-1.6c-38 .3-93.4-1.6-93.4-1.6-15.5-1.3-26.6-13-27-29-.1-3.3-5.9-103.1-7.6-170-1.2-47.1-3.2-181.1-3.2-181.1-.1-19.6-5.2-30.4-48.4-34.4l-174-13.6c-.2-83 .9-154.5 3.1-200.4m351.2 659.6h.8l86.6-.9c67.6.4 60.9-5.3 69.9-63.8 2.3-14.6 33.6-343.5 33.6-343.5 1.1-7.6 5.3-10.8 11.4-11.6l147.1-19c2.7-.4 5.1 1.8 5 4.5 0 0-12 544.4-27.6 610.6-3.4 14.2-7.1 17.6-19.7 20.5 0 0-74.1 17.2-307 17.4-233.1-.3-307.2-17.5-307.2-17.5-12.6-3-16.4-6.2-19.7-20.5C46.9 858 34.9 313.7 34.9 313.7c-.1-2.7 2.3-4.8 5-4.5l147.1 19c6.1.8 10.4 4 11.4 11.6 0 0 31.3 328.9 33.6 343.5 9 58.4 2.3 64.1 69.9 63.8l86.6.9h.7z"/><path d="M324.9 809.3c-.3-.4-.8-.7-1.4-.7h-23.7c-.6 0-1.1.3-1.4.7l-49.2 71.8c-.4.5 0 1.3.7 1.3h23c.5 0 1.1-.3 1.4-.7l12.7-18.4c.6-.9 1.7-1.4 2.7-1.4h44c1.1 0 2.1.5 2.7 1.4l12.7 18.4c.3.4.8.7 1.4.7h23c.7 0 1.1-.7.7-1.3zm-.5 40.9h-25.5c-1.3 0-2.1-1.4-1.3-2.5l12.7-18.6c.7-1 2-1 2.7 0l12.8 18.6c.6 1.1-.1 2.5-1.4 2.5m-76.1-41.7H130.2c-.7 0-1.1.7-.7 1.3l6.1 8.9c.6.9 1.7 1.4 2.7 1.4h37.9c.9 0 1.7.7 1.7 1.6v59.7c0 .5.4.9.9.9h20.6c.5 0 .9-.4.9-.9v-59.7c0-.9.8-1.6 1.7-1.6h38c1.1 0 2.1-.5 2.7-1.4l6.1-8.9c.5-.5.2-1.3-.5-1.3m264.4 0h-20.6c-.5 0-.9.4-.9.9v51.7c0 .7-.8 1-1.4.7l-68.2-52.5c-.6-.4-1.4-.7-2.2-.7H399c-.5 0-.9.4-.9.9v72c0 .5.4.9.9.9h20.6c.5 0 .9-.4.9-.9v-51.7c0-.7.8-1 1.4-.7l68.2 52.5c.6.4 1.4.7 2.2.7h20.3c.5 0 .9-.4.9-.9v-72c.1-.4-.3-.9-.8-.9m142.4 73-49.4-40.1c-.4-.4-.4-1.1.1-1.5l49.3-30.4c.4-.2.2-.9-.3-.9h-25.2c-.9 0-1.7.2-2.5.7l-53.7 33.1c-.6.4-1.4-.1-1.4-.7v-32.2c0-.5-.4-.9-.9-.9h-20.6c-.5 0-.9.4-.9.9v72c0 .5.4.9.9.9h20.6c.5 0 .9-.4.9-.9v-19.8c0-.6.3-1.1.8-1.4l17.5-10.8c.6-.4 1.4-.3 2 .1l39.1 31.7c.8.7 1.9 1 3 1h20.4c.6.1.8-.5.3-.8"/></svg>