<svg xmlns="http://www.w3.org/2000/svg" xml:space="preserve" viewBox="0 0 995 1000"><path d="m879.1 926.2 23.4-61.3 23.3 61.3zm47.6-96h-48.5l-67.8 166.2h42l15.4-40.6H937l15.5 40.6h42zM584.4 967.4c-27.4 0-49.5-24.7-49.5-55.2S557 857 584.4 857s49.5 24.7 49.5 55.2-22.2 55.2-49.5 55.2m0-142.9c-48.5 0-87.8 39.3-87.8 87.8s39.3 87.8 87.8 87.8 87.8-39.3 87.8-87.8-39.4-87.8-87.8-87.8M238.1 967.4c-27.3 0-49.5-24.7-49.5-55.2s22.2-55.2 49.5-55.2 49.6 24.7 49.6 55.2c-.1 30.5-22.3 55.2-49.6 55.2m0-142.9c-48.5 0-87.7 39.3-87.7 87.8s39.3 87.8 87.7 87.8 87.8-39.3 87.8-87.8-39.4-87.8-87.8-87.8m216.9 5.7-43 67.2-43-67.2h-42.1l66.6 104.2v62h37v-61.9l66.6-104.2zm364.2 0H677.1V862h52.6v134.3h37.1V862h52.4zM.5 862h52.6v134.3h37V862h52.4v-31.9H.5z"/><path d="M164.3 0h664.6v664.6H164.3z" style="fill:#e90a1e"/><path d="M607.4 187.3c-30.8-9.9-69.2-15.8-110.8-15.8s-80 5.9-110.8 15.8c-82 26.4-138.4 81.1-138.4 144.4 0 89 111.6 161.2 249.2 161.2s249.2-72.2 249.2-161.2c0-63.2-56.3-118-138.4-144.4M496.6 423.7c-20.5 0-37.3-40.4-38.3-91.1 12.4 1.1 25.2 1.7 38.3 1.7s25.9-.6 38.3-1.7c-1 50.7-17.7 91.1-38.3 91.1m-35.7-130.9c5.6-35.6 19.5-60.9 35.7-60.9s30.1 25.2 35.7 60.9c-11.4 1-23.4 1.6-35.7 1.6s-24.3-.5-35.7-1.6m93.2-2.7c-8.3-55.9-30.9-96-57.5-96s-49.2 40.1-57.5 96c-50.6-7.9-86-25.9-86-46.8 0-28.2 64.3-51.1 143.5-51.1 79.3 0 143.5 22.9 143.5 51.1.1 20.9-35.3 38.9-86 46.8m-270.3 35.8c0-27.3 10.5-52.9 28.8-74.9-.2 1.5-.3 3.1-.3 4.6 0 34.3 51.6 63.5 123.5 74.3-.1 2.6-.1 5.2-.1 7.8 0 63.8 17.7 117.9 42.2 136.6-108.8-6.7-194.1-70.6-194.1-148.4m231.6 148.3c24.5-18.6 42.2-72.7 42.2-136.6 0-2.6 0-5.2-.1-7.8 71.9-10.7 123.5-39.9 123.5-74.3 0-1.5-.1-3.1-.3-4.6 18.3 22 28.8 47.6 28.8 74.9 0 77.9-85.4 141.8-194.1 148.4" style="fill:#fff"/></svg>