<svg xmlns="http://www.w3.org/2000/svg" xml:space="preserve" viewBox="0 0 1000 1000"><path d="M499.9 953.4C251.6 953.4 47.8 748.3 47.8 500c0-55.8 9.8-108.9 28.6-158.4L341 873.8c3.4 7.1 7.7 12.7 15.9 12.7 8.5 0 13-5.8 16.1-12.7L494.3 601c1.3-2.6 2.9-5.6 5.6-5.6 2.9 0 4.2 2.9 5.6 5.6L627 873.8c2.9 6.9 7.7 12.7 15.9 12.7 8.5 0 12.7-5.6 16.1-12.7l264.4-532.2c19 49.4 28.8 102.6 28.8 158.4 0 248.3-203.8 453.4-452.3 453.4m0-556c-2.6 0-4.2-2.9-5.6-5.6L352.1 72.2c46-16.9 96.2-25.9 147.8-25.9 51.8 0 102 9 148 25.9L505.4 391.9c-1.3 2.6-2.6 5.5-5.5 5.5M355.5 725.3c-2.9 0-4.2-2.6-5.6-5.6l-230.3-464c41.2-62.9 96.2-115.8 162.6-152.8l165.2 368.5c2.9 6.9 7.1 8.2 12.7 8.2h79.6c5.6 0 9.8-1.3 12.4-8.2l165.5-368.5c66.1 37 121.3 89.9 162.6 152.8L650 719.7c-1.6 2.9-2.9 5.6-5.6 5.6-2.9 0-4.2-2.6-5.8-5.6l-86.4-198c-2.6-7.1-6.9-8.5-12.4-8.5h-79.6c-5.6 0-9.8 1.3-12.7 8.5l-86.4 198c-1.3 2.9-2.9 5.6-5.6 5.6m144.4 274.1c276.3 0 499.7-223.1 499.7-499.4S776.1.6 499.9.6C223.6.6.5 223.7.5 500s223.1 499.4 499.4 499.4" style="fill:#0f2f5a"/></svg>